<?xml version="1.0" standalone="no"?>
<!DOCTYPE svg PUBLIC "-//W3C//DTD SVG 1.1//EN" "http://www.w3.org/Graphics/SVG/1.1/DTD/svg11.dtd" >
<svg xmlns="http://www.w3.org/2000/svg" xmlns:xlink="http://www.w3.org/1999/xlink" version="1.1">
<metadata>
Created by FontForge 20170924 at Fri May 12 20:06:56 2006
 By www-data
Copyright (c) 1995, 2001 Adobe Systems Incorporated.  All Rights Reserved.
</metadata>
<defs>
<font id="AlexaStd" horiz-adv-x="300" >
  <font-face 
    font-family="Alexa Std"
    font-weight="400"
    font-style="italic"
    font-stretch="normal"
    units-per-em="1000"
    panose-1="0 0 5 0 0 0 0 0 0 0"
    ascent="659"
    descent="-341"
    x-height="344"
    cap-height="534"
    bbox="-309 -305 966 750"
    underline-thickness="50"
    underline-position="-150"
    slope="-16"
    unicode-range="U+0020-FB02"
  />
<missing-glyph horiz-adv-x="614" 
d="M114 0v700h500v-700h-500zM364 395l170 255h-340zM394 350l170 -255v510zM194 50h340l-170 255zM164 605v-510l170 255z" />
    <glyph glyph-name="fi" unicode="fi" horiz-adv-x="428" 
d="M197 285q-106 -357 -174 -501q-13 -28 -57 -58.5t-71 -30.5q35 38 63.5 99.5t68.5 183.5q32 99 92 305q-27 -1 -62 -4q16 22 76 54q58 177 138 257q48 48 101.5 69.5t93.5 21.5q29 0 47 -8.5t18 -20.5q0 -18 -27 -39.5t-38 -21.5q0 27 -19.5 40.5t-46.5 13.5
q-33 0 -63 -30q-56 -56 -126 -283q138 0 231 15q-83 -175 -83 -288q-17 -18 -49 -38t-48 -21q0 47 32 147t58 161q-48 -20 -155 -23z" />
    <glyph glyph-name="fl" unicode="fl" horiz-adv-x="457" 
d="M413 646q-44 0 -75 -31q-57 -57 -125 -277q107 0 177 12q49 138 98 240q-20 56 -75 56zM121 289q-23 -1 -61 -4q16 22 76 54q56 172 136 252q40 39 91.5 61.5t93.5 22.5q55 0 82 -24q12 7 28 9q13 3 24 3q-74 -133 -154 -396q-45 -147 -61 -236q-21 -19 -51 -29.5
t-46 -10.5q39 151 105 342q-16 -12 -30 -18q-53 -21 -155 -24q-108 -362 -176 -507q-13 -28 -57 -58.5t-71 -30.5q35 38 63.5 99.5t68.5 183.5q35 106 94 311z" />
    <glyph glyph-name=".notdef" horiz-adv-x="614" 
d="M114 0v700h500v-700h-500zM364 395l170 255h-340zM394 350l170 -255v510zM194 50h340l-170 255zM164 605v-510l170 255z" />
    <glyph glyph-name=".null" horiz-adv-x="0" 
 />
    <glyph glyph-name="nonmarkingreturn" horiz-adv-x="333" 
 />
    <glyph glyph-name="space" unicode=" " horiz-adv-x="192" 
 />
    <glyph glyph-name="exclam" unicode="!" horiz-adv-x="272" 
d="M213 517q17 16 48 24.5t52 5.5q-68 -205 -159 -379q-9 -11 -26 -18.5t-29 -7.5q87 259 114 375zM95 84q34 0 34 -35q0 -26 -17 -48.5t-43 -22.5q-14 0 -23 9.5t-9 26.5q0 28 17 49t41 21z" />
    <glyph glyph-name="quotedbl" unicode="&#x22;" horiz-adv-x="317" 
d="M332 537q43 28 95 28q-78 -145 -134 -209q-17 -10 -32 -10q41 86 71 191zM205 537q43 28 95 28q-78 -145 -134 -209q-17 -10 -32 -10q41 86 71 191z" />
    <glyph glyph-name="numbersign" unicode="#" horiz-adv-x="532" 
d="M289 339q-33 -74 -52 -126q20 0 60.5 -0.5t49.5 -0.5q7 16 26 63.5t26 63.5h-37h-42h-31zM239 339q-106 -2 -122 -3q0 6 16 30.5t25 31.5q11 0 44.5 -0.5t59.5 -1.5q44 111 44 123q28 14 69 14q-31 -62 -63 -138q84 0 110 1q45 112 45 123q28 14 69 14q-16 -29 -63 -136
q86 2 110 4q0 -7 -15 -32t-21 -30h-98q-28 -65 -52 -127q102 4 114 5q-1 -7 -15 -32t-20 -30h-102q-13 -34 -29 -76t-23 -61q-27 -14 -69 -14q41 82 70 151h-110q-8 -22 -26 -69t-26 -68q-27 -14 -69 -14q43 87 69 151q-101 -2 -115 -3q1 7 16 31t23 31q32 -1 101 -1
q11 30 53 126z" />
    <glyph glyph-name="dollar" unicode="$" horiz-adv-x="402" 
d="M306 510q22 60 39 115q26 14 67 14q-29 -53 -60 -126q80 0 126 -26q-12 -33 -65 -57q-32 39 -75 51q-30 -71 -70 -173q65 -40 92 -67t27 -58q0 -55 -72.5 -102t-157.5 -61q-26 -70 -39 -114q-28 -17 -71 -17q29 58 59 124q-61 0 -95 14t-48 46q18 45 67 64
q8 -26 32.5 -50t60.5 -34q25 57 85 201q-62 38 -82.5 61.5t-20.5 52.5q0 50 61 89.5t140 52.5zM297 485q-45 -3 -81 -27.5t-37 -60.5q0 -9 2.5 -16.5t6 -13t10.5 -12t11.5 -9.5t14 -9.5t13.5 -9.5q11 29 31 82t29 76zM167 48q46 1 91 31t46 79q0 35 -64 78
q-40 -100 -73 -188z" />
    <glyph glyph-name="percent" unicode="%" horiz-adv-x="613" 
d="M283 529q73 0 73 -69q0 -61 -61 -115t-118 -54q-30 0 -50 18t-20 57q0 63 54 113t122 50zM234 495q-32 0 -50.5 -27.5t-18.5 -61.5q0 -35 14.5 -55t40.5 -20q34 0 52 26.5t18 62.5q0 32 -14.5 53.5t-41.5 21.5zM513 238q73 0 73 -69q0 -61 -61 -115t-118 -54
q-30 0 -50 18t-20 57q0 63 54 113t122 50zM464 204q-32 0 -50.5 -27.5t-18.5 -61.5q0 -35 14.5 -55t40.5 -20q34 0 52 26.5t18 62.5q0 32 -14.5 53.5t-41.5 21.5zM550 524q25 9 78 9q-106 -105 -259.5 -272t-225.5 -254q-30 -10 -78 -10q104 107 255.5 270.5t229.5 256.5z
" />
    <glyph glyph-name="ampersand" unicode="&#x26;" horiz-adv-x="659" 
d="M451 195q-107 0 -153 -26q0 24 22 49t52 33q26 8 139 8t164 15q-3 -25 -24 -46q-33 -33 -132 -33q-20 -31 -56 -65q-85 -82 -153.5 -116.5t-136.5 -34.5q-60 0 -93 30.5t-33 77.5q0 63 45 115t122 83q-56 24 -56 79q0 61 93 121t175 60q75 0 104 -32q-25 -37 -76 -53
q-32 45 -100 45q-39 0 -74 -34.5t-35 -76.5q0 -58 63 -78q2 -1 2 -6t-3 -6q-71 -20 -119.5 -66.5t-48.5 -102.5q0 -45 27.5 -69.5t81.5 -24.5q39 0 82.5 18t74.5 49q40 40 46 87z" />
    <glyph glyph-name="quotesingle" unicode="'" horiz-adv-x="190" 
d="M205 537q43 28 95 28q-78 -145 -134 -209q-17 -10 -32 -10q41 86 71 191z" />
    <glyph glyph-name="parenleft" unicode="(" horiz-adv-x="298" 
d="M418 650l18 -10q-106 -93 -188 -254.5t-82 -318.5q0 -48 8.5 -99t19.5 -73q-19 -51 -66 -90q-37 62 -37 188q0 201 102 387.5t225 269.5z" />
    <glyph glyph-name="parenright" unicode=")" horiz-adv-x="298" 
d="M-51 -199l-18 10q106 93 188 254.5t82 318.5q0 48 -8.5 98.5t-19.5 72.5q19 52 66 91q37 -82 37 -188q0 -201 -102 -387.5t-225 -269.5z" />
    <glyph glyph-name="asterisk" unicode="*" horiz-adv-x="387" 
d="M258 381q-24 -66 -35 -105q-14 -6 -28 -6q-19 0 -27 2q32 68 54 125q-47 -11 -128 -40q0 27 11 51q18 4 53.5 9.5t56.5 10.5q-67 70 -86 87q2 6 16 18q11 11 28 18q31 -44 72 -91q23 62 38 111q20 5 31 5q10 1 23 -1q-23 -47 -55 -130q30 7 124 35q0 -14 -9 -50
q-9 -2 -46.5 -7t-62.5 -10q42 -45 90 -89q-4 -11 -16 -23q-10 -10 -25 -14q-35 43 -79 94z" />
    <glyph glyph-name="plus" unicode="+" horiz-adv-x="478" 
d="M439 232h-142q-45 -112 -56 -163q-11 -8 -39 -16t-46 -8q11 27 36.5 91.5t37.5 95.5q-119 0 -170 -3q0 6 13.5 20.5t29.5 26.5h143q62 156 65 164q40 14 82 14q-31 -65 -79 -178q89 0 168 4q1 -8 -14 -23t-29 -25z" />
    <glyph glyph-name="comma" unicode="," horiz-adv-x="181" 
d="M49 79q43 28 95 28q-78 -145 -134 -209q-17 -10 -32 -10q41 86 71 191z" />
    <glyph glyph-name="hyphen" unicode="-" horiz-adv-x="404" 
d="M94 215h125q99 0 151 2q0 -6 -13.5 -23.5t-23.5 -26.5h-122q-119 0 -154 -3q0 7 11 22.5t26 28.5z" />
    <glyph glyph-name="period" unicode="." horiz-adv-x="181" 
d="M76 104q34 0 34 -35q0 -26 -17 -48.5t-43 -22.5q-14 0 -23 9.5t-9 26.5q0 28 17 49t41 21z" />
    <glyph glyph-name="slash" unicode="/" horiz-adv-x="373" 
d="M442 611q39 11 94 14q-110 -129 -267.5 -340.5t-251.5 -354.5q-31 -18 -91 -18q122 153 276 362t240 337z" />
    <glyph glyph-name="zero" unicode="0" horiz-adv-x="465" 
d="M145 -4q-44 0 -69.5 39t-25.5 101q0 198 162 326q88 71 180 71q49 0 77.5 -33t28.5 -100q0 -98 -55.5 -189.5t-139.5 -155.5q-78 -59 -158 -59zM215 53q45 0 89 32q41 30 74.5 101.5t33.5 165.5q0 70 -23 100t-67 30q-83 0 -139 -89.5t-56 -203.5q0 -64 23.5 -100
t64.5 -36z" />
    <glyph glyph-name="one" unicode="1" horiz-adv-x="280" 
d="M202 434q-34 -8 -117 -42q0 12 13 32q121 62 217 108q-22 -93 -82 -255q-55 -154 -98 -234q-31 -29 -95 -49q41 75 103 249q52 144 59 191z" />
    <glyph glyph-name="two" unicode="2" horiz-adv-x="423" 
d="M334 8q-27 -4 -57.5 -4.5t-82 0.5t-79.5 1q-72 0 -111 -5q0 21 17 33q168 121 230 185q85 86 85 159q0 41 -22.5 62t-62.5 21q-70 0 -148 -68q0 22 9 40q26 32 78 64t116 32q57 0 87.5 -32.5t30.5 -79.5q0 -87 -103 -187q-56 -55 -192 -163q13 0 46.5 -1.5t57.5 -1.5
q110 0 164 25q0 -19 -18.5 -42t-44.5 -38z" />
    <glyph glyph-name="three" unicode="3" horiz-adv-x="433" 
d="M403 199q0 -67 -49 -118q-83 -85 -202 -85q-118 0 -135 87q22 38 63 52q7 -50 33 -80t70 -30q63 0 98 38.5t35 91.5q0 49 -27.5 77.5t-77.5 28.5q-25 0 -52 -5q0 16 16 30q122 101 179 177q-36 3 -74 3q-110 0 -176 -20q0 12 23 37.5t41 34.5q34 3 150 3q122 0 146 -1
q0 -18 -14 -27q-99 -106 -197 -186q67 0 108.5 -28.5t41.5 -79.5z" />
    <glyph glyph-name="four" unicode="4" horiz-adv-x="480" 
d="M16 174q4 19 29 55q191 178 328 293q43 15 107 15q-62 -173 -104 -303q89 3 137 15q-17 -32 -47 -44q-44 -18 -103 -20q-40 -134 -45 -152q-21 -17 -52 -28t-55 -11q60 154 71 189q-30 -1 -135.5 -5t-130.5 -4zM382 481q-152 -117 -273 -252q18 0 189 3q13 39 42 125
t42 124z" />
    <glyph glyph-name="five" unicode="5" horiz-adv-x="431" 
d="M198 519q239 0 294 8q0 -11 -15 -30.5t-28 -28.5q-35 -8 -205 -11q-11 -24 -37.5 -73.5t-33.5 -63.5q36 9 81 9q75 0 116.5 -31t41.5 -83q0 -97 -81 -158t-177 -61q-105 0 -132 76q2 16 28 38.5t37 22.5q2 -41 26 -75.5t71 -34.5q61 0 101 45t40 114q0 51 -37.5 73.5
t-95.5 22.5q-53 0 -98 -17q71 151 104 258z" />
    <glyph glyph-name="six" unicode="6" horiz-adv-x="462" 
d="M448 245q0 -94 -83.5 -171.5t-168.5 -77.5q-72 0 -102 41t-30 116q0 74 31.5 152.5t82.5 130.5q52 53 110.5 78.5t109.5 25.5q42 0 75.5 -16.5t47.5 -39.5q-3 -14 -27 -36.5t-35 -22.5q-13 89 -80 89q-59 0 -124 -66q-74 -76 -94 -186q86 83 189 83q98 0 98 -100z
M368 201q0 102 -81 102q-51 0 -94.5 -45t-43.5 -109q0 -51 23.5 -81.5t61.5 -30.5q56 0 95 42t39 122z" />
    <glyph glyph-name="seven" unicode="7" horiz-adv-x="379" 
d="M178 29q-46 -34 -116 -34q92 190 345 467q-36 2 -87 2q-134 0 -220 -18q2 12 24.5 36t44.5 38q31 3 149 3q42 1 109 -1t75 -2q0 -16 -10 -26q-112 -111 -204.5 -243.5t-109.5 -221.5z" />
    <glyph glyph-name="eight" unicode="8" horiz-adv-x="429" 
d="M338 548q60 0 91 -25.5t31 -69.5q0 -51 -44.5 -89t-105.5 -62q106 -42 106 -108q0 -73 -89.5 -136.5t-178.5 -63.5q-66 0 -102 30.5t-36 76.5q0 54 41 102.5t120 85.5q-53 30 -53 90q0 52 47 99q28 28 74 49t99 21zM302 519q-46 0 -77.5 -32.5t-31.5 -71.5q0 -64 90 -99
q20 7 38.5 16.5t40.5 38t22 65.5q0 38 -21.5 60.5t-60.5 22.5zM193 273q-48 -19 -74.5 -56t-26.5 -86q0 -46 31.5 -71t76.5 -25q56 0 95 32.5t39 83.5q0 41 -31.5 67t-109.5 55z" />
    <glyph glyph-name="nine" unicode="9" horiz-adv-x="446" 
d="M320 533q142 0 142 -154q0 -85 -35.5 -163.5t-83.5 -126.5q-94 -94 -204 -94q-109 0 -129 83q5 19 23 36t36 26q21 -115 100 -115q74 -2 123 64t72 186q-89 -73 -163 -73q-47 0 -76 29q-30 30 -30 85q0 93 74.5 155t150.5 62zM287 502q-49 0 -82 -44.5t-33 -100.5
q0 -48 19 -77.5t56 -29.5q55 0 93 38t38 92q0 56 -23 89t-68 33z" />
    <glyph glyph-name="colon" unicode=":" horiz-adv-x="228" 
d="M180 331q34 0 34 -35q0 -26 -17 -48.5t-43 -22.5q-14 0 -23 9.5t-9 26.5q0 28 17 49t41 21zM102 106q34 0 34 -35q0 -26 -17 -48.5t-43 -22.5q-14 0 -23 9.5t-9 26.5q0 28 17 49t41 21z" />
    <glyph glyph-name="semicolon" unicode=";" horiz-adv-x="208" 
d="M166 321q34 0 34 -35q0 -26 -17 -48.5t-43 -22.5q-14 0 -23 9.5t-9 26.5q0 28 17 49t41 21zM49 79q43 28 95 28q-78 -145 -134 -209q-17 -10 -32 -10q41 86 71 191z" />
    <glyph glyph-name="less" unicode="&#x3c;" horiz-adv-x="478" 
d="M83 245q199 99 317 182q15 -5 51 -21q-166 -83 -272 -150q139 -83 256 -132q-24 -23 -66 -54q-166 109 -286 159q-4 2 -3.5 8t3.5 8z" />
    <glyph glyph-name="equal" unicode="=" horiz-adv-x="478" 
d="M144 333h156q129 0 192 4q1 -7 -14 -25.5t-27 -25.5h-155q-149 0 -193 -3q0 7 13 23.5t28 26.5zM90 210h156q129 0 192 4q0 -8 -15 -26t-27 -25h-155q-149 0 -193 -3q0 7 13.5 23.5t28.5 26.5z" />
    <glyph glyph-name="greater" unicode="&#x3e;" horiz-adv-x="478" 
d="M460 253q-199 -99 -317 -182q-28 8 -51 21q166 83 272 150q-139 83 -256 132q24 23 66 54q166 -109 286 -159q4 -2 3.5 -8t-3.5 -8z" />
    <glyph glyph-name="question" unicode="?" horiz-adv-x="356" 
d="M156 84q34 0 34 -35q0 -26 -17 -48.5t-43 -22.5q-14 0 -23 9.5t-9 26.5q0 28 17 49t41 21zM408 450q0 -37 -26.5 -68.5t-84.5 -64.5q-68 -39 -91 -56t-23 -29q0 -25 79 -49q0 -9 -24 -30.5t-43 -21.5q-31 9 -55.5 28.5t-24.5 45.5q0 22 29 45.5t99 65.5q45 27 65.5 48.5
t20.5 54.5q0 29 -26.5 49.5t-70.5 20.5q-66 0 -116 -38q0 26 11 41q23 20 66 38.5t88 18.5q59 0 93 -27t34 -72z" />
    <glyph glyph-name="at" unicode="@" horiz-adv-x="636" 
d="M327 371q-40 -56 -40 -119q0 -41 14 -41q15 0 45 30.5t66 89.5q16 25 31 71q-22 5 -45 5q-25 0 -40.5 -7.5t-30.5 -28.5zM398 196q0 36 16 102q-45 -64 -91 -109t-77 -45q-21 0 -21 53q0 45 18 91.5t49 77.5q41 41 81.5 57t102.5 16q16 0 36 -2q-53 -145 -53 -208
q0 -47 27 -47q23 0 48 23q55 55 55 154q0 72 -40.5 112t-122.5 40q-109 0 -181 -72q-46 -46 -68 -97.5t-22 -124.5q0 -79 42 -121t117 -42q52 0 109.5 21t99.5 57q0 -21 -7 -29q-24 -29 -89 -67.5t-142 -38.5q-102 0 -154 52q-51 51 -51 135q0 132 98 230q64 64 143.5 97.5
t149.5 33.5q91 0 140.5 -37t48.5 -108q-1 -102 -73 -174q-36 -36 -80.5 -61t-71.5 -25q-20 0 -28.5 13t-8.5 43z" />
    <glyph glyph-name="A" unicode="A" horiz-adv-x="572" 
d="M436 461q-116 -99 -223 -245q176 4 208 10q9 89 15 235zM179 170q-66 -89 -97 -152q-62 -31 -102 -31q40 58 140 179q-76 -6 -116 -8q0 5 23 24.5t38 27.5q15 1 45.5 2.5t51.5 3.5q72 82 160.5 180.5t95.5 105.5q15 17 17 30q48 24 96 24q-3 -44 -10 -161.5t-13.5 -209
t-12.5 -144.5q-15 -19 -50 -39.5t-55 -20.5q20 105 30 230q-45 -20 -49 -21q-42 -10 -192 -20z" />
    <glyph glyph-name="B" unicode="B" horiz-adv-x="551" 
d="M196 242q-46 -120 -59 -180q-2 -10 3.5 -15t19.5 -9q24 -6 74 -6q103 0 165 61q30 30 30 68q0 34 -51.5 58t-136.5 24q-6 0 -22.5 -0.5t-22.5 -0.5zM120 480q3 13 25.5 31.5t37.5 24.5q42 7 103 7q259 0 259 -86q0 -32 -34 -65q-35 -34 -84 -65t-87 -41q186 -10 186 -89
q0 -37 -34 -71q-64 -64 -162 -102.5t-223 -38.5q-33 0 -78 9q13 62 65 199t95 228q21 13 53 23.5t52 10.5q-36 -66 -81 -168q133 0 205 72q30 30 30 64q0 65 -211 65q-84 0 -117 -8z" />
    <glyph glyph-name="C" unicode="C" horiz-adv-x="480" 
d="M135 -21q-41 0 -65 28.5t-24 84.5q0 95 36.5 178t97.5 143q137 136 326 136q46 0 77 -11q-10 -43 -64 -71q-64 33 -123 33q-82 0 -148 -66q-52 -52 -80 -137t-28 -150q0 -52 24 -75t76 -23q51 0 113.5 31t111.5 75q1 -6 -2 -21t-6 -21q-66 -51 -161.5 -92.5t-160.5 -41.5
z" />
    <glyph glyph-name="D" unicode="D" horiz-adv-x="604" 
d="M38 -5q11 58 60 192.5t92 222.5q19 15 51 25.5t52 10.5q-36 -64 -82 -183q-53 -138 -65 -199q-1 -8 3.5 -12t17.5 -8q24 -8 63 -8q130 0 212 84t82 197q0 67 -53 108q-76 58 -236 56q-76 0 -136 -6q3 9 31 30.5t48 30.5q45 5 100 5q161 0 248.5 -50t87.5 -144
q0 -65 -37.5 -129.5t-101 -115.5t-157.5 -82.5t-198 -31.5q-61 0 -82 7z" />
    <glyph glyph-name="E" unicode="E" horiz-adv-x="469" 
d="M285 444q-48 -94 -76 -163q159 4 247 13q0 -8 -19.5 -21.5t-33.5 -18.5q-44 -11 -213 -23q-40 -105 -55 -172q-3 -15 15 -15q201 0 292 23q0 -8 -12.5 -22.5t-26.5 -20.5q-37 -15 -134 -26.5t-210 -11.5q-17 0 -24 4.5t-5 13.5q18 78 67 200.5t89 205.5q19 14 48.5 24
t50.5 10zM135 460q3 14 26.5 35t46.5 30q78 6 225 10t152 4q0 -6 -21 -22.5t-41 -21.5q-13 -4 -40 -6.5t-50 -4t-68.5 -3.5t-68.5 -3q-76 -4 -161 -18z" />
    <glyph glyph-name="F" unicode="F" horiz-adv-x="469" 
d="M286 444q-30 -59 -79 -178q207 9 253 14q0 -6 -13.5 -18t-26.5 -19q-53 -17 -234 -29q-42 -103 -58 -185q-10 -12 -51.5 -31t-51.5 -19q27 130 162 428q47 32 99 37zM262 474q-102 -6 -143 -17q0 11 33.5 37t52.5 32q45 5 192 9t207 11q0 -7 -27 -26.5t-49 -25.5
q-35 -7 -266 -20z" />
    <glyph glyph-name="G" unicode="G" horiz-adv-x="560" 
d="M514 554q59 0 87 -16q0 -11 -21 -34.5t-44 -33.5q-47 34 -120 34q-80 0 -141 -61q-69 -68 -103.5 -155t-34.5 -152q0 -88 55 -88q49 0 120.5 46.5t109.5 104.5q10 16 26 49q20 12 50.5 21.5t51.5 9.5q-27 -50 -56 -133t-36 -121q-15 -15 -48 -27t-55 -12q12 54 48 144
q-180 -148 -282 -148q-81 0 -81 108q0 89 38.5 170t98.5 141q153 153 337 153z" />
    <glyph glyph-name="H" unicode="H" horiz-adv-x="643" 
d="M429 252q-64 -10 -222 -19q-48 -139 -61 -204q-12 -12 -50.5 -28t-53.5 -15q15 82 77 242q-45 -2 -86 -7q6 13 24.5 31t32.5 24q27 2 48 4q25 66 97 232q17 9 50 17.5t52 8.5q-69 -142 -111 -255q54 3 125.5 5t111.5 4t59 5q71 183 85 215q17 9 50 18t48 9
q-46 -92 -102 -260q-46 -140 -62 -244q-14 -15 -49 -29.5t-53 -14.5q20 129 78 291q-33 -20 -88 -30z" />
    <glyph glyph-name="I" unicode="I" horiz-adv-x="252" 
d="M128 31q-64 -41 -102 -40q10 56 92 279q14 38 53 132.5t42 102.5q54 29 104 29q-61 -111 -113 -256q-61 -166 -76 -247z" />
    <glyph glyph-name="J" unicode="J" horiz-adv-x="255" 
d="M-115 -112q-13 0 -24.5 6.5t-12.5 13.5q107 15 157 77t113 243q14 41 50 148.5t44 131.5q48 31 104 31q-15 -33 -31.5 -76.5t-41 -116t-32.5 -95.5q-25 -72 -41 -114t-42 -92t-51 -76q-80 -83 -192 -81z" />
    <glyph glyph-name="K" unicode="K" horiz-adv-x="611" 
d="M134 305q54 131 93 199q15 12 53 23t58 11q-73 -123 -120 -241q-58 -147 -89 -266q-15 -12 -50.5 -26.5t-53.5 -14.5q45 157 109 315zM542 53q37 0 70 19q0 -20 -12 -27q-73 -45 -152 -45q-39 0 -82 43q-40 40 -140 234q228 106 353 247q42 19 110 19
q-68 -67 -154 -123.5t-209 -124.5q69 -143 127 -201q23 -23 41 -32t48 -9z" />
    <glyph glyph-name="L" unicode="L" horiz-adv-x="447" 
d="M12 -10q73 153 118 275q67 182 78 237q48 31 104 31q-37 -103 -99 -267q-46 -124 -83 -215q34 2 58 2q23 0 73.5 -2t74.5 -2q64 0 95 15q-3 -11 -23.5 -35t-33.5 -27q-22 -5 -50 -5q-22 0 -77 3t-95 3q-75 0 -140 -13z" />
    <glyph glyph-name="M" unicode="M" horiz-adv-x="789" 
d="M231 499q16 13 48.5 28.5t49.5 15.5q0 -53 9 -128t23 -159t18 -115q72 79 170.5 196.5t131.5 168.5q17 11 48.5 21t50.5 10q-26 -93 -49.5 -244.5t-28.5 -251.5q-11 -17 -46.5 -36.5t-51.5 -19.5q6 94 27.5 234t37.5 201q-65 -67 -144 -162.5t-125 -167.5
q-13 -22 -15 -38q-11 -11 -39.5 -23t-42.5 -15q-2 63 -27.5 222t-27.5 182q-53 -99 -102 -214.5t-56 -180.5q-45 -36 -92 -36q27 61 115.5 243.5t110.5 230.5q9 20 7 38z" />
    <glyph glyph-name="N" unicode="N" horiz-adv-x="643" 
d="M576 237q-60 -155 -62 -209q-11 -13 -40.5 -28.5t-43.5 -15.5q-38 104 -108 239t-94 192q-27 -56 -48 -110q-58 -151 -77 -282q-19 -14 -45 -23.5t-44 -9.5q23 73 79 206t72 178q23 62 26 123q54 40 92 49q25 -85 57 -157t76.5 -154.5t65.5 -128.5q72 197 144 403
q17 14 46 24t52 10q-78 -123 -148 -306z" />
    <glyph glyph-name="O" unicode="O" horiz-adv-x="574" 
d="M350 516q-44 -27 -76 -59q-54 -54 -87.5 -134t-33.5 -171q0 -51 24.5 -79.5t63.5 -28.5q86 0 163 78q43 44 73.5 115.5t30.5 147.5q0 61 -28 95t-81 34q0 12 36.5 25.5t63.5 13.5q102 0 102 -127q0 -82 -46 -166t-112 -144t-140 -98t-130 -38q-63 0 -90 41t-27 102
q0 79 34 159t88 134q80 81 161 111q4 1 8.5 -3.5t2.5 -7.5z" />
    <glyph glyph-name="P" unicode="P" horiz-adv-x="503" 
d="M289 444q-26 -46 -84 -194q18 -9 67 -9q44 0 92.5 18t77.5 49q33 35 33 68q0 24 -20 44q-60 60 -244 60q-44 0 -104 -6q0 9 28.5 31t50.5 31q45 5 88 5q148 0 219 -34.5t71 -87.5q0 -54 -70.5 -109.5t-159.5 -87.5t-151 -30q-23 -66 -46 -160q-16 -14 -47.5 -28.5
t-52.5 -14.5q44 150 76 235q47 126 80 188q45 32 96 32z" />
    <glyph glyph-name="Q" unicode="Q" horiz-adv-x="582" 
d="M336 44q-102 -64 -180 -64q-54 0 -79 39.5t-25 101.5q0 76 34.5 155.5t87.5 132.5q81 81 159 106q2 1 6.5 -3t2.5 -6q-32 -20 -74 -60q-53 -53 -87.5 -131t-34.5 -168q0 -50 23.5 -76.5t63.5 -26.5q42 0 79 17q-7 5 -19.5 12.5t-16.5 9.5q30 25 84 39q14 -6 25 -13
q122 117 122 268q0 59 -29.5 93t-81.5 34q0 12 37 25t71 13q46 0 70 -37t24 -97q0 -123 -128 -256q-21 -21 -63 -59q109 -86 179 -105q0 -8 -31.5 -17t-56.5 -9q-39 0 -78 23q-11 6 -84 59z" />
    <glyph glyph-name="R" unicode="R" horiz-adv-x="549" 
d="M187 422q39 25 103 34q-113 -206 -158 -435q-22 -13 -55.5 -25.5t-47.5 -12.5q22 90 72.5 227t85.5 212zM118 484q6 13 27.5 31t43.5 26q31 5 91 5q155 0 225 -31t70 -78q0 -50 -63.5 -99.5t-185.5 -91.5q73 -111 123 -161q23 -23 42.5 -33t49.5 -10q-5 -17 -40 -35.5
t-63 -18.5q-32 0 -67 36q-23 24 -78 106t-75 105q39 33 81 37q4 -1 15 -1q24 0 64.5 20.5t69.5 49.5q26 26 26 59q0 17 -12.5 32t-40 28.5t-78.5 21t-121 7.5q-57 0 -104 -5z" />
    <glyph glyph-name="S" unicode="S" horiz-adv-x="433" 
d="M418 547q41 0 78 -13q-4 -15 -25.5 -32.5t-44.5 -25.5q-12 12 -40 21.5t-54 8.5q-62 -2 -97 -37q-12 -12 -20 -31t-8 -31q0 -9 1.5 -16.5t6.5 -15.5t8.5 -13.5t12.5 -13t13 -11.5t16 -11.5l16 -10t18.5 -10.5t17.5 -10q30 -17 47 -29.5t31.5 -33.5t14.5 -45
q0 -17 -11 -40.5t-27 -39.5q-56 -56 -130.5 -89t-142.5 -33q-85 0 -110 42q4 23 21.5 47.5t41.5 38.5q11 -37 42 -60.5t72 -23.5q30 0 64.5 13t55.5 34q30 30 30 65q0 33 -23 56.5t-67 49.5q-30 18 -41.5 25.5t-32 24.5t-28.5 34.5t-8 38.5q0 44 33 76q45 45 117 73t152 28z
" />
    <glyph glyph-name="T" unicode="T" horiz-adv-x="455" 
d="M314 479q-114 -6 -199 -22q1 12 27 35.5t44 30.5q98 7 239 8t184 4q-7 -13 -28 -28t-38 -20q-21 -3 -73 -4t-71 -2q-39 -93 -87 -230q-51 -139 -71 -216q-25 -16 -62.5 -30t-54.5 -14q42 98 104 260q12 32 43 113.5t43 114.5z" />
    <glyph glyph-name="U" unicode="U" horiz-adv-x="611" 
d="M167 -19q-45 0 -67 31.5t-22 79.5q0 121 111 366q7 16 12 30q18 14 55 27.5t55 13.5q-141 -265 -141 -398q0 -47 19 -67t65 -20q30 0 73 22t77 57q62 62 112.5 177t68.5 195q19 14 54.5 27t55.5 13q-101 -266 -223 -388q-166 -166 -305 -166z" />
    <glyph glyph-name="V" unicode="V" horiz-adv-x="539" 
d="M157 489q13 16 47 33t51 17q-20 -238 -48 -439q20 20 71 67t100 96.5t98 107.5q47 56 66 142q61 33 114 33q-15 -50 -71.5 -115.5t-245.5 -246.5q-46 -44 -91.5 -97.5t-54.5 -74.5q-3 -7 -40 -22.5t-57 -15.5q26 100 44 244.5t17 270.5z" />
    <glyph glyph-name="W" unicode="W" horiz-adv-x="861" 
d="M495 372q-17 -19 -100 -103.5t-144 -150.5q-45 -48 -66 -94q-25 -16 -57.5 -28.5t-45.5 -12.5q9 42 24.5 137t34 183t45.5 179q18 13 51.5 26.5t51.5 13.5q-64 -184 -100 -423q11 12 59.5 60.5t88 90.5t81.5 90q73 83 96 152q15 12 48 24.5t53 12.5q-27 -87 -40 -216
q-4 -40 -11 -206q6 6 46 45.5t58.5 59.5t54.5 62t69 86q48 63 60 144q61 33 114 33q-21 -56 -71 -120.5t-213 -235.5q-101 -106 -119 -155q-17 -12 -49 -25t-44 -13q7 73 12.5 202t12.5 182z" />
    <glyph glyph-name="X" unicode="X" horiz-adv-x="533" 
d="M273 272q-19 44 -70.5 123t-71.5 98q42 36 89 43q25 -25 116 -204q159 148 221 192q41 0 71 -11q-49 -31 -128 -92.5t-146 -122.5q66 -131 130 -281q-47 -33 -96 -34q-51 150 -99 252q-113 -113 -198 -242q-41 -16 -98 -16q33 41 119.5 132.5t160.5 162.5z" />
    <glyph glyph-name="Y" unicode="Y" horiz-adv-x="538" 
d="M372 234q-8 -31 -30 -109.5t-28 -102.5q-14 -14 -48.5 -25t-59.5 -11q69 176 83 234q2 39 -48.5 137t-106.5 149q17 12 47.5 21.5t49.5 8.5q37 -39 75.5 -112.5t55.5 -147.5q47 64 116 142.5t110 114.5q60 0 80 -4q-72 -47 -154 -128.5t-142 -166.5z" />
    <glyph glyph-name="Z" unicode="Z" horiz-adv-x="520" 
d="M108 443q0 13 24.5 37t48.5 41q19 9 105 9q18 0 50 -0.5t47 -0.5q62 -2 81 -2q74 0 100 11q0 -19 -16 -39q-93 -104 -218 -226t-210 -195q0 1 28 0.5t29 -0.5q25 0 72 -1t70 -1q140 0 192 26q-3 -15 -29.5 -48.5t-45.5 -38.5q-46 -12 -118 -12q-36 0 -112.5 2.5
t-101.5 2.5q-68 0 -112 -11q2 22 21 38q133 111 247 233t164 198q-16 0 -70.5 1t-75.5 1q-114 0 -170 -25z" />
    <glyph glyph-name="bracketleft" unicode="[" horiz-adv-x="320" 
d="M287 635h168q-10 -17 -25 -27l-83 -6q-38 -94 -137.5 -376t-130.5 -381q75 -5 107 -6q-11 -16 -26 -27h-163q47 118 147.5 405.5t142.5 417.5z" />
    <glyph glyph-name="backslash" unicode="\" horiz-adv-x="423" 
d="M426 -89q-47 0 -77 10q-114 348 -272 709q55 -2 75 -10q49 -153 127.5 -356.5t146.5 -352.5z" />
    <glyph glyph-name="bracketright" unicode="]" horiz-adv-x="320" 
d="M85 -188h-168q10 17 25 27l83 6q38 94 137.5 376t130.5 381q-75 5 -107 6q11 16 26 27h163q-47 -118 -147.5 -405.5t-142.5 -417.5z" />
    <glyph glyph-name="asciicircum" unicode="^" horiz-adv-x="478" 
d="M100 351q165 190 232 290q27 -99 137 -282q-19 -18 -63 -36q-74 141 -106 218q-13 -15 -153 -207q-28 4 -47 17z" />
    <glyph glyph-name="underscore" unicode="_" horiz-adv-x="500" 
d="M500 -75v-50h-500v50h500z" />
    <glyph glyph-name="grave" unicode="`" 
d="M333 416q-11 -6 -45 -6q-17 15 -49.5 54.5t-48.5 65.5q44 12 74 17q30 -83 69 -131z" />
    <glyph glyph-name="a" unicode="a" horiz-adv-x="421" 
d="M119 251q64 64 123.5 86t133.5 22q28 0 60 -6q-75 -185 -75 -283q0 -3 0.5 -6t1.5 -6.5t1 -5.5q-17 -21 -46.5 -36.5t-45.5 -15.5q0 87 32 194q-170 -198 -251 -198q-17 0 -26 13t-9 30q0 44 27 104.5t74 107.5zM183 281q-29 -29 -50.5 -84t-21.5 -91q0 -33 13 -33
q39 0 98 59q71 72 115 172q-26 14 -65 14q-52 0 -89 -37z" />
    <glyph glyph-name="b" unicode="b" horiz-adv-x="426" 
d="M397 362q35 0 35 -52q0 -59 -28.5 -125.5t-68.5 -106.5q-50 -48 -97.5 -69t-117.5 -21q-32 0 -59 10t-39 24q22 64 56 170t44 133q76 220 124 305q37 29 80 29q-49 -86 -96 -229q-13 -39 -70 -219q45 49 126.5 100t110.5 51zM262 52q31 31 56 98.5t25 112.5q0 16 -6 26.5
t-15 10.5q-40 0 -118 -78q-25 -25 -43.5 -58t-26 -54.5t-19.5 -59.5q27 -36 67 -36q42 0 80 38z" />
    <glyph glyph-name="c" unicode="c" horiz-adv-x="334" 
d="M110 115q0 -39 12 -51t38 -12q27 0 71.5 27t89.5 72q0 -22 -4 -30q-51 -51 -127 -94t-127 -43q-39 0 -39 63q0 60 26 117.5t68 98.5q48 48 109.5 76.5t109.5 28.5q28 0 42 -7q-14 -33 -58 -67q-34 15 -76 15q-49 0 -75 -27q-60 -66 -60 -167z" />
    <glyph glyph-name="d" unicode="d" horiz-adv-x="437" 
d="M183 283q-31 -31 -52 -79.5t-21 -93.5q0 -32 18 -32q40 0 97 59q51 51 76.5 88.5t43.5 82.5q-27 11 -72 11q-54 0 -90 -36zM438 370q-57 -163 -57 -309q0 -13 1 -18q-17 -20 -45.5 -34.5t-45.5 -14.5q0 112 30 216q-58 -68 -146 -143t-126 -75q-29 0 -29 53
q0 46 29.5 110t77.5 107q66 60 118 79t121 19q59 165 114 270q35 29 76 29q-48 -87 -118 -289z" />
    <glyph glyph-name="e" unicode="e" horiz-adv-x="324" 
d="M124 177q-8 -30 -8 -61q0 -30 12 -42q13 -14 41 -14q57 0 152 95q0 -24 -2 -30q-50 -50 -121 -89t-123 -39q-16 0 -27.5 15.5t-11.5 45.5q0 133 84 215q44 44 96.5 66t86.5 22q18 0 28 -8t10 -18q0 -33 -28 -59q-77 -77 -189 -99zM250 251q18 18 18 38q0 32 -36 32
q-28 0 -50 -21q-34 -34 -52 -96q18 0 59.5 14t60.5 33z" />
    <glyph glyph-name="f" unicode="f" horiz-adv-x="256" 
d="M136 339q56 172 135 251q92 91 196 91q22 0 37.5 -8.5t15.5 -20.5q0 -18 -27 -39.5t-38 -21.5q0 25 -16.5 39.5t-38.5 14.5q-33 0 -63 -30q-55 -55 -124 -277q100 2 166 12q-19 -25 -51 -38q-45 -18 -129 -21q-107 -361 -176 -507q-13 -28 -57 -58.5t-71 -30.5
q35 38 63.5 99.5t68.5 183.5q35 106 94 311q-23 -1 -61 -4q16 22 76 54z" />
    <glyph glyph-name="g" unicode="g" horiz-adv-x="408" 
d="M377 361q21 0 47 -3q-35 -86 -61 -178q-45 -154 -79 -228t-84 -123q-112 -111 -244 -111q-88 0 -117 59q0 20 11 44t25 34q18 -49 51 -76.5t74 -27.5q77 0 133 56q35 35 65 108t88 267q-15 -19 -67 -72q-45 -46 -94 -79t-83 -33q-21 0 -21 45q0 53 27 112.5t71 102.5
q56 55 112 79t146 24zM259 320q-41 0 -76 -35q-33 -33 -55 -89t-22 -89q0 -32 15 -32q12 0 36.5 12.5t50.5 39.5q102 102 116 181q-34 12 -65 12z" />
    <glyph glyph-name="h" unicode="h" horiz-adv-x="464" 
d="M333 159q36 106 36 121q0 20 -14 20q-18 0 -61 -23.5t-83 -64.5q-53 -54 -90 -175q-23 -19 -53 -30t-44 -11q32 110 103 323q75 229 127 311q12 9 37 18.5t40 9.5q-40 -71 -109 -273q-17 -50 -62 -194q77 77 161.5 127.5t122.5 50.5q17 0 17 -22q0 -28 -33 -120.5
t-33 -122.5q0 -28 16 -35q-18 -20 -59 -45t-58 -26q0 48 39 161z" />
    <glyph glyph-name="i" unicode="i" horiz-adv-x="190" 
d="M249 532q30 0 30 -34q0 -23 -17.5 -42.5t-37.5 -19.5q-30 0 -30 34q0 26 16.5 44t38.5 18zM119 307q17 13 47 27t44 14q-83 -175 -83 -289q-17 -18 -49 -38t-48 -21q0 47 31.5 146.5t57.5 160.5z" />
    <glyph glyph-name="j" unicode="j" horiz-adv-x="199" 
d="M240 532q13 0 22 -8.5t9 -25.5q0 -24 -17.5 -44.5t-38.5 -20.5q-14 0 -22.5 10.5t-8.5 25.5q0 25 18 44t38 19zM-206 -280q-40 0 -67 15.5t-36 37.5q0 41 34 75q14 -40 44 -67.5t64 -27.5q22 0 40 7t44 30.5t54.5 80t57.5 143.5q50 147 90 294q17 14 49 29t46 15
q-92 -288 -109 -332q-52 -137 -137.5 -218.5t-173.5 -81.5z" />
    <glyph glyph-name="k" unicode="k" horiz-adv-x="437" 
d="M122 316q62 183 128 314q13 10 39.5 19.5t43.5 9.5q-57 -101 -115 -273q-49 -149 -61 -193q109 80 235 167q24 0 44 -8t24 -16q-134 -46 -232 -124q51 -68 106 -126q54 -55 100 -55q-16 -14 -45 -26.5t-57 -12.5t-60 35q-31 32 -120 147q-3 -13 -16.5 -63t-18.5 -75
q-17 -15 -49.5 -27t-48.5 -12q57 185 103 319z" />
    <glyph glyph-name="l" unicode="l" horiz-adv-x="201" 
d="M183 267q-45 -147 -61 -236q-21 -19 -51 -29.5t-46 -10.5q37 145 101 329q75 216 133 310q15 11 39 20.5t38 9.5q-73 -133 -153 -393z" />
    <glyph glyph-name="m" unicode="m" horiz-adv-x="664" 
d="M529 162q28 85 28 100q0 12 -13 12q-12 0 -46.5 -23.5t-70.5 -57.5q-55 -54 -78 -139q-16 -17 -47 -31t-44 -14q64 199 64 243q0 22 -12 22q-26 0 -75 -49q-68 -68 -103 -164q-23 -21 -53.5 -37t-42.5 -16q63 186 71 292q12 16 44.5 35t47.5 19q0 -58 -30 -167
q156 158 235 158q14 0 14 -21q0 -36 -29 -137q44 44 131 104.5t122 60.5q12 0 15.5 -3t3.5 -13q0 -12 -39 -117q-30 -79 -30 -114q0 -29 16 -35q-23 -28 -59 -49t-58 -21q0 47 38 162z" />
    <glyph glyph-name="n" unicode="n" horiz-adv-x="447" 
d="M427 345q14 0 14 -25q0 -35 -28.5 -128t-50.5 -147q-5 -10 -42.5 -30.5t-52.5 -20.5q84 238 84 268q0 12 -15 12q-14 0 -48 -22t-78 -67q-40 -40 -83 -126q-17 -17 -50 -34t-48 -17q68 175 76 281q17 22 53 46t53 24q-14 -84 -46 -185q52 55 144 113t118 58z" />
    <glyph glyph-name="o" unicode="o" horiz-adv-x="363" 
d="M248 313q-38 0 -83 -45q-26 -26 -40.5 -67t-14.5 -77q0 -71 47 -71q50 0 94 61t44 142q0 57 -47 57zM372 295q0 -100 -104 -203q-45 -44 -101 -71.5t-92 -27.5q-49 0 -49 62q0 49 23.5 102.5t59.5 89.5q52 52 109.5 81.5t101.5 29.5q52 0 52 -63z" />
    <glyph glyph-name="p" unicode="p" horiz-adv-x="419" 
d="M264 64q31 31 50.5 88t19.5 104q0 38 -23 38q-48 0 -116 -67q-28 -27 -46 -67.5t-41 -115.5q21 -16 67 -16q20 0 47 10.5t42 25.5zM225 384q-5 -14 -13.5 -38t-16.5 -48t-17 -56q148 117 208 117q16 0 25.5 -14.5t9.5 -38.5q0 -64 -26 -122.5t-67 -98.5
q-46 -45 -108.5 -72.5t-110.5 -27.5q-10 0 -20 2q-72 -204 -98 -234q-17 -20 -43 -35.5t-47 -15.5q28 46 54 113.5t74 213.5q90 275 100 309q12 16 45.5 31t50.5 15z" />
    <glyph glyph-name="q" unicode="q" horiz-adv-x="413" 
d="M193 277q-33 -32 -57.5 -88.5t-24.5 -89.5q0 -23 19 -23q10 0 39.5 17.5t56.5 44.5q98 96 119 165q-21 9 -61 9q-53 0 -91 -35zM300 182q-22 -25 -85 -79q-119 -103 -173 -103q-20 0 -20 39q0 42 26 100.5t66 98.5q57 58 120.5 85t156.5 27q15 0 49 -4
q-79 -171 -124 -302q-70 -210 -70 -286q-7 -11 -38 -29.5t-52 -18.5q0 63 50 216q58 175 94 256z" />
    <glyph glyph-name="r" unicode="r" horiz-adv-x="320" 
d="M338 272h-21q-49 0 -96 -45q-62 -62 -114 -193q-40 -34 -87 -34q74 174 90 298q10 13 46 31t50 18q0 -17 -12.5 -65.5t-28.5 -86.5q71 77 116 113t84 36q15 0 23 -4q-1 -10 -17.5 -33t-32.5 -35z" />
    <glyph glyph-name="s" unicode="s" horiz-adv-x="344" 
d="M172 280q0 -17 13.5 -30.5t53.5 -34.5q43 -23 63 -41.5t20 -46.5q0 -26 -24 -50q-36 -36 -93.5 -59t-108.5 -23q-47 0 -73.5 19t-26.5 47q6 17 20 34t29 21q9 -42 34.5 -68t61.5 -26q44 0 71 26q24 23 24 46q0 33 -69 70q-45 24 -61 41.5t-16 39.5q0 20 19 39
q29 29 86 52t124 23q29 0 49 -9q0 -10 -15.5 -25.5t-27.5 -21.5q-29 25 -68 25q-49 0 -73 -24q-12 -12 -12 -24z" />
    <glyph glyph-name="t" unicode="t" horiz-adv-x="311" 
d="M94 -2q-39 0 -39 65q0 75 66 229q-16 0 -70 -2q0 7 19 22.5t40 24.5q6 0 32 2q57 124 93 183q44 29 80 29q-59 -104 -101 -211q19 1 53.5 2.5t58.5 3t37 2.5q-12 -16 -58 -37q-22 -10 -109 -14q-54 -140 -54 -196q0 -27 6 -38.5t25 -11.5q28 0 73.5 25.5t81.5 68.5
q0 -23 -6 -39q-35 -32 -108.5 -70t-119.5 -38z" />
    <glyph glyph-name="u" unicode="u" horiz-adv-x="458" 
d="M59 0q-21 0 -21 29q0 60 37 156q27 69 58 125q21 16 47.5 27.5t41.5 11.5q-90 -172 -90 -241q0 -20 20 -20q33 0 124 89q60 60 105 138q16 13 45.5 23.5t41.5 10.5q-31 -67 -48.5 -134t-17.5 -107q0 -20 5 -33q-6 -13 -35.5 -37t-64.5 -34q0 84 37 211
q-218 -215 -285 -215z" />
    <glyph glyph-name="v" unicode="v" horiz-adv-x="357" 
d="M73 300q9 14 34 29t44 15q18 -102 16 -236q53 71 102 122q78 80 130 109q33 5 54 -5q-79 -39 -153 -119q-85 -93 -132 -189q-38 -29 -79 -29q5 214 -16 303z" />
    <glyph glyph-name="w" unicode="w" horiz-adv-x="597" 
d="M125 298q16 15 41.5 27.5t47.5 12.5q-80 -149 -80 -233q0 -22 14 -22q13 0 43.5 20t64.5 57q45 49 93 146q58 37 90 37q-86 -167 -86 -242q0 -29 22 -29q15 0 41 14t48 37t49.5 82t31.5 95q14 15 45 30t50 15q-11 -44 -47.5 -99.5t-88.5 -108.5q-69 -71 -126.5 -102.5
t-93.5 -31.5q-9 0 -15 10.5t-6 24.5q0 66 21 120q-44 -44 -122 -101.5t-100 -57.5q-18 0 -18 24q0 123 81 275z" />
    <glyph glyph-name="x" unicode="x" horiz-adv-x="374" 
d="M163 177q-46 107 -78 131q14 15 36.5 29t37.5 14q24 -10 67 -116q79 73 158 122q44 0 62 -9q-106 -48 -209 -138q27 -67 54 -115t44 -59q-36 -36 -77 -36q-24 11 -83 153q-111 -118 -143 -215q-16 -12 -42 -22t-49 -9q54 106 222 270z" />
    <glyph glyph-name="y" unicode="y" horiz-adv-x="420" 
d="M20 -250q70 0 116 41q29 27 48 54.5t50 108.5t74 227q-61 -64 -137 -122.5t-111 -58.5q-22 0 -22 43q0 47 31 134.5t56 135.5q14 11 43 22.5t45 11.5q-87 -179 -87 -240q0 -31 13 -31q15 0 45.5 20t60.5 50q50 50 70 84.5t40 92.5q56 33 90 34q-28 -60 -62 -177
q-44 -151 -78 -226.5t-81 -122.5q-115 -114 -246 -114q-51 0 -82.5 19.5t-37.5 42.5q0 15 10.5 39.5t25.5 34.5q14 -43 48.5 -73t77.5 -30z" />
    <glyph glyph-name="z" unicode="z" horiz-adv-x="385" 
d="M71 265q0 8 17 32.5t30 33.5q26 11 71 11q22 0 55 -2.5t49 -2.5q62 0 88 12q0 -16 -14 -32q-108 -120 -272 -248q19 2 74.5 -2t95.5 -4q65 0 106 23q0 -12 -17.5 -39t-33.5 -35q-29 -12 -80 -12q-29 0 -90 4t-81 4q-52 0 -82 -8q0 8 9 20.5t16 17.5q198 148 254 246
q-10 -1 -40.5 1.5t-54.5 2.5q-52 0 -100 -23z" />
    <glyph glyph-name="braceleft" unicode="{" horiz-adv-x="347" 
d="M214 169q0 -37 -44 -137t-44 -134q0 -33 25 -48t63 -11q0 -3 -4.5 -6.5t-13 -7t-19 -6.5t-23.5 -5t-24 -2q-36 0 -58 16t-22 46q0 57 49 163q48 108 48 139q0 51 -64 49q0 5 4 13t8 9q56 0 86 34q29 32 46 98t33.5 130.5t45.5 94.5q33 36 96 36q19 0 40.5 -5t21.5 -11
q-33 -3 -70 -27q-29 -19 -48 -65t-27.5 -92t-25.5 -96t-42 -75q-29 -29 -94 -32q-5 0 -6 -5q0 -3 2 -3q61 -6 61 -60z" />
    <glyph glyph-name="bar" unicode="|" horiz-adv-x="264" 
d="M369 750l-348 -1000h-59l348 1000h59z" />
    <glyph glyph-name="braceright" unicode="}" horiz-adv-x="347" 
d="M357 575q0 -55 -48 -163t-48 -139q0 -51 64 -49q0 -5 -4 -13t-8 -9q-54 0 -87 -39q-38 -46 -62 -166q-8 -39 -13 -60.5t-17 -49.5t-28 -44q-32 -34 -90 -34q-54 0 -70 12l-6 4q48 2 89 33q25 19 40.5 63.5t22 89t23 94t42.5 75.5q29 29 94 32q5 0 6 5q0 3 -2 3
q-61 6 -61 60q0 37 44 137q44 102 44 134q0 33 -23.5 48t-62.5 11q7 9 34 17t52 8q34 0 54.5 -15t20.5 -45z" />
    <glyph glyph-name="asciitilde" unicode="~" horiz-adv-x="478" 
d="M99 261q79 106 130 106q10 0 19 -2t18 -6t14 -7t15.5 -9.5t13.5 -8.5q47 -28 69 -28q17 0 36.5 15.5t29.5 37.5q18 0 26 -9q-64 -108 -129 -108q-24 0 -72 29q-55 32 -69 32q-38 0 -78 -57q-13 0 -23 15z" />
    <glyph glyph-name="uni00A0" unicode="&#xa0;" horiz-adv-x="192" 
 />
    <glyph glyph-name="exclamdown" unicode="&#xa1;" horiz-adv-x="272" 
d="M209 297q-34 0 -34 35q0 26 17 48.5t43 22.5q14 0 23 -9.5t9 -26.5q0 -28 -17 -49t-41 -21zM91 -136q-17 -16 -48 -24.5t-52 -5.5q68 205 159 379q9 11 26 18.5t29 7.5q-87 -259 -114 -375z" />
    <glyph glyph-name="cent" unicode="&#xa2;" horiz-adv-x="357" 
d="M326 449q23 4 45 4q41 0 68 -12q-14 -30 -60 -62q-25 20 -71 25q-21 -51 -48 -119q-18 -46 -54 -140q59 0 147 78q0 -25 -3 -31q-77 -72 -163 -100q-29 -75 -48 -141q-28 -17 -70 -17q47 92 70 148q-45 0 -65.5 25.5t-20.5 60.5q0 103 89 192q60 60 141 81q36 91 49 143
q26 14 67 14q-45 -81 -73 -149zM168 149q7 17 51 128q7 18 24.5 61.5t25.5 65.5q-36 0 -68 -25q-27 -21 -49 -67t-22 -96q0 -61 38 -67z" />
    <glyph glyph-name="sterling" unicode="&#xa3;" horiz-adv-x="497" 
d="M358 58q80 0 121 32q0 -18 -18 -45.5t-37 -35.5q-37 -15 -110 -15q-44 0 -113.5 4t-90.5 4q-90 0 -127 -15q0 21 23 40q54 11 78 37q14 14 25 37.5t16 39t15 55.5l13 52q-12 -1 -52.5 -2t-59.5 -3q0 10 41 41q12 1 45.5 2t36.5 1q42 130 113.5 187.5t180.5 57.5
q27 0 53 -6.5t32 -14.5q-7 -15 -27.5 -34.5t-39.5 -24.5q-15 21 -41.5 33.5t-53.5 12.5q-23 -1 -38 -7.5t-33 -26.5t-32.5 -63.5t-27.5 -112.5q113 3 166 9q-20 -29 -39 -41q-88 -7 -136 -7q-37 -129 -135 -197q30 11 93 11q8 0 58 -2.5t101 -2.5z" />
    <glyph glyph-name="currency" unicode="&#xa4;" horiz-adv-x="499" 
d="M321 423q-74 0 -120 -63t-46 -137q0 -52 27 -81.5t69 -29.5q73 0 120.5 62t47.5 127q0 54 -24 88t-74 34zM186 388q-30 47 -61 87q31 21 48 27q25 -55 47 -90q82 55 156 55q55 0 86 -32q6 6 30.5 28.5t39.5 36.5q28 -24 31 -32q-27 -20 -84 -66q7 -19 7 -58
q0 -51 -28.5 -104t-74.5 -95q13 -24 61 -91q-23 -23 -46 -30q-12 26 -49 93q-79 -53 -144 -53q-53 0 -84 27q-12 -11 -28 -26.5t-27 -26t-14 -13.5q-17 12 -36 33q12 8 83 62q-13 26 -13 67q0 109 100 201z" />
    <glyph glyph-name="yen" unicode="&#xa5;" horiz-adv-x="461" 
d="M364 139h-109q-23 -65 -36 -113q-13 -11 -45 -19t-51 -9q19 37 59 140q-76 0 -130 -7q2 20 27 40q10 0 49 -0.5t66 -0.5q14 33 24 61q-79 0 -130 -7q2 20 27 40q11 0 47 -0.5t62 -0.5q-82 156 -105 215q34 29 84 45q7 -37 35 -106t54 -114q39 32 100 99t86 107
q19 6 103 18q-16 -16 -68 -65t-119 -111.5t-91 -85.5q54 0 124 6q0 -17 -27 -39h-111q-10 -25 -23 -60q60 0 125 6q0 -16 -27 -39z" />
    <glyph glyph-name="brokenbar" unicode="&#xa6;" horiz-adv-x="264" 
d="M341 675l-120 -350h-59l120 350h59zM168 175l-120 -350h-59l120 350h59z" />
    <glyph glyph-name="section" unicode="&#xa7;" horiz-adv-x="439" 
d="M161 306q-29 -40 -29 -82q0 -27 19.5 -44.5t57.5 -34.5q11 -5 32.5 -14.5t32.5 -14.5t23.5 -12t17.5 -12q28 37 28 74q0 34 -19 52.5t-57 33.5q-88 35 -106 54zM489 510q-9 -14 -31.5 -33.5t-36.5 -22.5q-11 21 -38 33.5t-55 12.5q-48 0 -84.5 -28t-36.5 -61
q0 -25 21 -43.5t51 -30.5t60 -24.5t51 -34.5t21 -52q0 -66 -83 -149q16 -28 16 -58q0 -67 -77.5 -119t-175.5 -52q-39 0 -73.5 13t-49.5 38q2 12 27.5 40.5t41.5 34.5q17 -48 41 -71t66 -23q51 0 92.5 29t41.5 68q0 27 -21.5 46.5t-52.5 32.5t-62.5 26.5t-53 36.5t-21.5 55
q0 59 80 146q-16 20 -16 46q0 47 46.5 87t105 60t107.5 20q63 0 99 -23z" />
    <glyph glyph-name="dieresis" unicode="&#xa8;" 
d="M349 524q31 0 31 -32q0 -18 -15.5 -34.5t-37.5 -16.5q-30 0 -30 32q0 19 15.5 35t36.5 16zM207 524q31 0 31 -32q0 -18 -15.5 -34.5t-37.5 -16.5q-30 0 -30 32q0 19 15.5 35t36.5 16z" />
    <glyph glyph-name="copyright" unicode="&#xa9;" horiz-adv-x="632" 
d="M473 536q77 0 124 -47t47 -134q0 -93 -63 -177t-158 -132.5t-190 -48.5q-70 0 -118.5 48.5t-48.5 130.5q0 68 30 133t82.5 115.5t129.5 81t165 30.5zM138 213q0 -83 42.5 -126.5t121.5 -43.5q46 0 91.5 17t86.5 50t66.5 91t25.5 130q0 85 -41.5 128t-134.5 43
q-100 0 -179 -82.5t-79 -206.5zM451 367q-27 12 -61 12q-42 0 -70 -37.5t-28 -112.5q0 -56 42 -56q70 0 125 55q0 -14 -4 -24q-28 -30 -85 -57.5t-106 -27.5q-42 0 -42 60q0 43 17.5 87.5t48.5 75.5q38 38 87.5 61t87.5 23q22 0 34 -6q-11 -26 -46 -53z" />
    <glyph glyph-name="ordfeminine" unicode="&#xaa;" horiz-adv-x="287" 
d="M158 461q39 39 75 52.5t83 13.5q24 0 44 -4q-47 -107 -47 -171q0 -5 2 -11q-10 -12 -31 -21.5t-32 -9.5q0 39 14 99q-100 -103 -146 -103q-22 0 -22 29q0 26 15.5 61.5t44.5 64.5zM205 477q-18 -17 -30 -46.5t-12 -51.5q0 -19 7 -19q22 0 54 31q40 39 69 101q-12 4 -36 4
q-33 0 -52 -19z" />
    <glyph glyph-name="guillemotleft" unicode="&#xab;" horiz-adv-x="517" 
d="M284 76l-65 -29q-64 93 -126 146q41 25 102 79t89 89l44 -19q-54 -41 -159 -136q65 -80 115 -130zM456 76l-65 -29q-64 93 -126 146q41 25 102 79t89 89l44 -19q-54 -41 -159 -136q65 -80 115 -130z" />
    <glyph glyph-name="logicalnot" unicode="&#xac;" horiz-adv-x="478" 
d="M430 268q-267 0 -364 -6q1 5 14.5 25t24.5 31q19 0 79.5 -0.5t89.5 -0.5q97 0 227 2q-45 -96 -77 -199q-38 -16 -61 -16q42 95 67 164z" />
    <glyph glyph-name="uni00AD" unicode="&#xad;" horiz-adv-x="404" 
d="M94 215h125q99 0 151 2q0 -6 -13.5 -23.5t-23.5 -26.5h-122q-119 0 -154 -3q0 7 11 22.5t26 28.5z" />
    <glyph glyph-name="registered" unicode="&#xae;" horiz-adv-x="326" 
d="M364 452q0 -25 -14 -56.5t-33 -49.5q-67 -67 -143 -67q-44 0 -67.5 26t-23.5 63q0 65 58 118q55 50 135 50q39 0 63.5 -22.5t24.5 -61.5zM323 432q0 82 -79 82q-34 0 -57 -15q-64 -36 -64 -118q0 -38 22 -57t57 -19q32 0 62 19q59 38 59 108zM290 456q0 -13 -14.5 -27
t-31.5 -20q15 -40 33 -47q-19 -16 -36 -16q-17 6 -34 60q19 5 34 17t15 24q0 17 -20 17q-12 0 -17 -1q-21 -43 -26 -101q-5 -7 -18.5 -13.5t-21.5 -6.5q2 20 15.5 65t22.5 65q20 12 54 12q45 0 45 -28z" />
    <glyph glyph-name="macron" unicode="&#xaf;" 
d="M138 458q11 19 43 44q105 0 202 5q-20 -28 -41 -45q-100 0 -204 -4z" />
    <glyph glyph-name="degree" unicode="&#xb0;" horiz-adv-x="237" 
d="M277 599q64 0 64 -59q0 -53 -53 -101t-103 -48q-26 0 -43.5 16t-17.5 49q0 55 47.5 99t105.5 44zM237 568q-27 0 -44 -22.5t-17 -54.5q0 -60 46 -60q27 0 44 20.5t17 53.5q0 63 -46 63z" />
    <glyph glyph-name="plusminus" unicode="&#xb1;" horiz-adv-x="478" 
d="M299 428q34 8 76 8q-28 -59 -64 -144q102 5 171 6q0 -6 -14.5 -20t-28.5 -24q-75 0 -144 -3q-8 -21 -24 -68.5t-18 -52.5q-17 -12 -45 -18.5t-37 -3.5q53 119 61 139q-70 0 -172 -9q-1 6 16.5 24.5t30.5 27.5h137q6 15 26.5 67.5t28.5 70.5zM42 66q270 -3 381 12
q4 -4 -12 -24.5t-30 -32.5q-28 -1 -176.5 -4.5t-212.5 -7.5q-2 5 16 26t34 31z" />
    <glyph glyph-name="twosuperior" unicode="&#xb2;" horiz-adv-x="357" 
d="M60 209q0 14 11 21q122 79 157 111q49 44 49 90q0 53 -56 53q-46 0 -101 -45q-1 11 7 27q18 23 55.5 43t79.5 20q43 0 64.5 -20t21.5 -50q0 -52 -69 -111q-14 -12 -35 -27.5t-49 -35t-41 -28.5q9 0 30.5 -0.5t38.5 -0.5q76 0 113 17q0 -12 -17 -31.5t-34 -27.5
q-20 -3 -67 -3q-12 0 -39.5 0.5t-43.5 0.5q-55 0 -75 -3z" />
    <glyph glyph-name="threesuperior" unicode="&#xb3;" horiz-adv-x="359" 
d="M390 520q0 -15 -7 -22q-47 -44 -134 -109q46 1 73 -19.5t27 -47.5q0 -50 -55 -89t-113 -39q-88 0 -98 59q14 23 53 37q6 -71 66 -71q34 0 57 23.5t23 53.5q0 28 -18 43.5t-48 15.5q-21 0 -37 -2q0 17 9 22q83 66 116 106q-24 2 -41 2q-82 0 -121 -12q0 7 16 25t27 23
q23 2 110 2q14 0 51 -0.5t44 -0.5z" />
    <glyph glyph-name="acute" unicode="&#xb4;" 
d="M393 526q-25 -24 -73 -62.5t-71 -53.5q-30 0 -41 6q40 41 107 127q51 -7 78 -17z" />
    <glyph glyph-name="mu" unicode="&#xb5;" horiz-adv-x="474" 
d="M125 311q14 11 44.5 23.5t44.5 12.5q-38 -69 -70 -155q-20 -56 -20 -85q0 -35 22 -35q39 0 113 74q61 61 123 171q16 13 45 23.5t41 10.5q-32 -76 -52.5 -151t-20.5 -110q0 -10 6 -25q-5 -12 -40 -37t-58 -25q0 81 42 210q-180 -217 -243 -217q-18 0 -27 22
q-65 -201 -65 -266q-11 -12 -41.5 -26.5t-47.5 -14.5q36 183 104 368q50 136 100 232z" />
    <glyph glyph-name="paragraph" unicode="&#xb6;" horiz-adv-x="534" 
d="M164 420q129 129 349 129q23 0 93 -2q-167 -357 -220 -582q-29 -33 -71 -40q8 54 94.5 276.5t120.5 298.5q-29 6 -62 2q-153 -327 -206 -533q-31 -34 -79 -47q23 119 229 581q-83 0 -133 -50q-48 -48 -48 -110q0 -56 41 -93q-40 -42 -83 -63q-87 16 -87 109q0 62 62 124z
" />
    <glyph glyph-name="periodcentered" unicode="&#xb7;" horiz-adv-x="255" 
d="M175 326q35 0 35 -37q0 -28 -18 -51.5t-45 -23.5q-15 0 -24 10t-9 28q0 30 17.5 52t43.5 22z" />
    <glyph glyph-name="cedilla" unicode="&#xb8;" 
d="M212 -115q0 -33 -50 -61t-87 -35q-12 7 -12 18q35 8 61 23.5t26 35.5q0 29 -65 29q-6 0 -30 -2q22 43 98 115l27 -3q-46 -43 -59 -67q91 -8 91 -53z" />
    <glyph glyph-name="onesuperior" unicode="&#xb9;" horiz-adv-x="288" 
d="M113 199q24 41 64 150q32 90 31 112q-40 -17 -53 -16q-9 1 -15 14q23 8 74.5 32.5t80.5 43.5q5 -20 -49 -163q-37 -102 -60 -143q-23 -13 -73 -30z" />
    <glyph glyph-name="ordmasculine" unicode="&#xba;" horiz-adv-x="234" 
d="M233 496q-16 0 -38 -20q-17 -16 -27.5 -42t-10.5 -47q0 -41 25 -41q19 0 42 20q17 15 27 41t10 49q0 40 -28 40zM325 484q0 -50 -61 -111q-28 -28 -66.5 -48.5t-64.5 -20.5q-37 0 -37 39q0 64 57 121q30 30 66.5 47.5t64.5 17.5q41 0 41 -45z" />
    <glyph glyph-name="guillemotright" unicode="&#xbb;" horiz-adv-x="517" 
d="M128 326l65 29q64 -93 126 -146q-41 -25 -102 -79t-89 -89l-44 19q54 41 159 136q-65 80 -115 130zM300 326l65 29q64 -93 126 -146q-41 -25 -102 -79t-89 -89l-44 19q54 41 159 136q-65 80 -115 130z" />
    <glyph glyph-name="onequarter" unicode="&#xbc;" horiz-adv-x="690" 
d="M515 103l-179 -5q0 8 18 35q128 113 215 181q31 9 83 9q-32 -85 -67 -185q63 3 85 6q-15 -25 -31 -34q-37 -5 -65 -5q-4 -12 -14 -43t-15 -47q-33 -24 -74 -24q37 91 44 112zM581 286q-93 -66 -174 -152q48 0 120 2q51 142 54 150zM544 526q25 9 78 9
q-107 -106 -260.5 -272.5t-224.5 -252.5q-30 -10 -78 -10q102 104 254 268t231 258zM99 199q24 41 64 150q32 90 31 112q-40 -17 -53 -16q-9 1 -15 14q23 8 74.5 32.5t80.5 43.5q5 -20 -49 -163q-37 -102 -60 -143q-23 -13 -73 -30z" />
    <glyph glyph-name="onehalf" unicode="&#xbd;" horiz-adv-x="681" 
d="M525 526q25 9 78 9q-107 -106 -260.5 -272.5t-224.5 -252.5q-30 -10 -78 -10q102 104 254 268t231 258zM86 199q24 41 64 150q32 90 31 112q-40 -17 -53 -16q-9 1 -15 14q23 8 74.5 32.5t80.5 43.5q5 -20 -49 -163q-37 -102 -60 -143q-23 -13 -73 -30zM352 0q0 14 11 21
q122 79 157 111q49 44 49 90q0 25 -15 39t-39 14q-42 0 -103 -45q0 12 7 22q18 21 58.5 44.5t79.5 23.5q41 0 62 -19.5t21 -48.5q0 -54 -69 -113q-14 -12 -35 -27.5t-49 -35t-41 -28.5q9 0 30.5 -0.5t38.5 -0.5q76 0 113 17q0 -12 -17 -31.5t-34 -27.5q-20 -3 -67 -3
q-12 0 -39.5 0.5t-43.5 0.5q-55 0 -75 -3z" />
    <glyph glyph-name="threequarters" unicode="&#xbe;" horiz-adv-x="776" 
d="M595 103l-179 -5q0 8 18 35q128 113 215 181q31 9 83 9q-32 -85 -67 -185q63 3 85 6q-15 -25 -31 -34q-37 -5 -65 -5q-4 -12 -14 -43t-15 -47q-33 -24 -74 -24q37 91 44 112zM661 286q-93 -66 -174 -152q48 0 120 2q51 142 54 150zM638 526q25 9 78 9
q-107 -106 -260.5 -272.5t-224.5 -252.5q-30 -10 -78 -10q102 104 254 268t231 258zM380 520q0 -15 -7 -22q-47 -44 -134 -109q46 1 73 -19.5t27 -47.5q0 -50 -55 -89t-113 -39q-88 0 -98 59q14 23 53 37q6 -71 66 -71q34 0 57 23.5t23 53.5q0 28 -18 43.5t-48 15.5
q-21 0 -37 -2q0 17 9 22q83 66 116 106q-24 2 -41 2q-82 0 -121 -12q0 7 16 25t27 23q23 2 110 2q14 0 51 -0.5t44 -0.5z" />
    <glyph glyph-name="questiondown" unicode="&#xbf;" horiz-adv-x="356" 
d="M246 297q-34 0 -34 35q0 26 17 48.5t43 22.5q14 0 23 -9.5t9 -26.5q0 -28 -17 -49t-41 -21zM-6 -69q0 37 26.5 68.5t84.5 64.5q68 39 91 56t23 29q0 25 -79 49q0 9 24 30.5t43 21.5q31 -9 55.5 -28.5t24.5 -45.5q0 -22 -29 -45.5t-99 -65.5q-45 -27 -65.5 -48.5
t-20.5 -54.5q0 -29 26.5 -49.5t70.5 -20.5q66 0 116 38q0 -26 -11 -41q-23 -20 -66 -38.5t-88 -18.5q-59 0 -93 27t-34 72z" />
    <glyph glyph-name="Agrave" unicode="&#xc0;" horiz-adv-x="572" 
d="M436 461q-116 -99 -223 -245q176 4 208 10q9 89 15 235zM179 170q-66 -89 -97 -152q-62 -31 -102 -31q40 58 140 179q-76 -6 -116 -8q0 5 23 24.5t38 27.5q15 1 45.5 2.5t51.5 3.5q72 82 160.5 180.5t95.5 105.5q15 17 17 30q48 24 96 24q-3 -44 -10 -161.5t-13.5 -209
t-12.5 -144.5q-15 -19 -50 -39.5t-55 -20.5q20 105 30 230q-45 -20 -49 -21q-42 -10 -192 -20zM359 675q27 22 61 40q48 -61 105 -99q-14 -12 -36 -19q-13 6 -37.5 20.5t-57 35t-35.5 22.5z" />
    <glyph glyph-name="Aacute" unicode="&#xc1;" horiz-adv-x="572" 
d="M436 461q-116 -99 -223 -245q176 4 208 10q9 89 15 235zM179 170q-66 -89 -97 -152q-62 -31 -102 -31q40 58 140 179q-76 -6 -116 -8q0 5 23 24.5t38 27.5q15 1 45.5 2.5t51.5 3.5q72 82 160.5 180.5t95.5 105.5q15 17 17 30q48 24 96 24q-3 -44 -10 -161.5t-13.5 -209
t-12.5 -144.5q-15 -19 -50 -39.5t-55 -20.5q20 105 30 230q-45 -20 -49 -21q-42 -10 -192 -20zM622 663q-89 -54 -142 -75q-18 6 -31 17q47 29 118 95q31 -14 55 -37z" />
    <glyph glyph-name="Acircumflex" unicode="&#xc2;" horiz-adv-x="572" 
d="M436 461q-116 -99 -223 -245q176 4 208 10q9 89 15 235zM179 170q-66 -89 -97 -152q-62 -31 -102 -31q40 58 140 179q-76 -6 -116 -8q0 5 23 24.5t38 27.5q15 1 45.5 2.5t51.5 3.5q72 82 160.5 180.5t95.5 105.5q15 17 17 30q48 24 96 24q-3 -44 -10 -161.5t-13.5 -209
t-12.5 -144.5q-15 -19 -50 -39.5t-55 -20.5q20 105 30 230q-45 -20 -49 -21q-42 -10 -192 -20zM597 595q-22 -14 -43 -20q-11 4 -33.5 24.5t-33.5 36.5q-47 -38 -94 -68q-17 0 -24 13q112 78 146 116q27 -51 82 -102z" />
    <glyph glyph-name="Atilde" unicode="&#xc3;" horiz-adv-x="572" 
d="M436 461q-116 -99 -223 -245q176 4 208 10q9 89 15 235zM179 170q-66 -89 -97 -152q-62 -31 -102 -31q40 58 140 179q-76 -6 -116 -8q0 5 23 24.5t38 27.5q15 1 45.5 2.5t51.5 3.5q72 82 160.5 180.5t95.5 105.5q15 17 17 30q48 24 96 24q-3 -44 -10 -161.5t-13.5 -209
t-12.5 -144.5q-15 -19 -50 -39.5t-55 -20.5q20 105 30 230q-45 -20 -49 -21q-42 -10 -192 -20zM392 602q45 85 82 85q21 0 52 -25q33 -25 39 -25q26 0 46 52q11 -4 16 -14q-38 -84 -80 -84q-16 0 -48.5 25t-41.5 25q-23 0 -47 -49q-13 0 -18 10z" />
    <glyph glyph-name="Adieresis" unicode="&#xc4;" horiz-adv-x="572" 
d="M436 461q-116 -99 -223 -245q176 4 208 10q9 89 15 235zM179 170q-66 -89 -97 -152q-62 -31 -102 -31q40 58 140 179q-76 -6 -116 -8q0 5 23 24.5t38 27.5q15 1 45.5 2.5t51.5 3.5q72 82 160.5 180.5t95.5 105.5q15 17 17 30q48 24 96 24q-3 -44 -10 -161.5t-13.5 -209
t-12.5 -144.5q-15 -19 -50 -39.5t-55 -20.5q20 105 30 230q-45 -20 -49 -21q-42 -10 -192 -20zM582 674q31 0 31 -32q0 -18 -15.5 -34.5t-37.5 -16.5q-30 0 -30 32q0 19 15.5 35t36.5 16zM440 674q31 0 31 -32q0 -18 -15.5 -34.5t-37.5 -16.5q-30 0 -30 32q0 19 15.5 35
t36.5 16z" />
    <glyph glyph-name="Aring" unicode="&#xc5;" horiz-adv-x="572" 
d="M436 461q-116 -99 -223 -245q176 4 208 10q9 89 15 235zM179 170q-66 -89 -97 -152q-62 -31 -102 -31q40 58 140 179q-76 -6 -116 -8q0 5 23 24.5t38 27.5q15 1 45.5 2.5t51.5 3.5q72 82 160.5 180.5t95.5 105.5q15 17 17 30q48 24 96 24q-3 -44 -10 -161.5t-13.5 -209
t-12.5 -144.5q-15 -19 -50 -39.5t-55 -20.5q20 105 30 230q-45 -20 -49 -21q-42 -10 -192 -20zM533 738q31 0 45 -16.5t14 -37.5q0 -45 -35.5 -74.5t-70.5 -29.5q-27 0 -45 16.5t-18 40.5q0 46 35.5 73.5t74.5 27.5zM545 666q0 23 -12 36.5t-29 14.5q-15 -1 -24 -19.5
t-9 -39.5q0 -24 12 -38.5t32 -14.5q13 0 21.5 19.5t8.5 41.5z" />
    <glyph glyph-name="AE" unicode="&#xc6;" horiz-adv-x="768" 
d="M537 476q-57 -32 -143 -102t-146 -136q142 0 188 8q64 158 101 230zM377 207q-64 -15 -173 -17q-89 -105 -121 -177q-21 -12 -56.5 -21t-59.5 -9q39 52 179 204q-9 0 -120 -6q0 5 23.5 25t38.5 28q20 2 106 4q70 68 176.5 161.5t125.5 114.5q22 9 68 14q43 4 112.5 6.5
t134 3.5t76.5 2q0 -6 -21 -21.5t-41 -20.5q-15 -4 -38.5 -6.5t-43 -3.5t-58 -3t-62.5 -4q-40 -72 -92 -199q165 5 241 12q0 -7 -18.5 -20t-33.5 -18q-41 -11 -207 -22q-40 -105 -55 -172q-3 -15 15 -15q187 0 286 19q0 -8 -14 -22.5t-25 -20.5q-37 -12 -143 -23t-195 -11
q-19 0 -25 4.5t-4 13.5q20 85 76 221q-18 -12 -52 -21z" />
    <glyph glyph-name="Ccedilla" unicode="&#xc7;" horiz-adv-x="480" 
d="M140 147q0 -52 24 -75t76 -23q51 0 113.5 31t111.5 75q2 -5 2 -15q0 -13 -10 -27q-95 -72 -211 -111q-43 -41 -56 -64q91 -8 91 -53q0 -33 -50 -61t-87 -35q-12 7 -12 18q35 8 61 23.5t26 35.5q0 29 -65 29q-6 0 -30 -2q17 34 79 96q-24 -6 -36 -8q-22 -2 -32 -2
q-41 0 -65 28.5t-24 84.5q0 95 36.5 178t97.5 143q137 136 326 136q46 0 77 -11q-10 -43 -64 -71q-64 33 -123 33q-82 0 -148 -66q-52 -52 -80 -137t-28 -150z" />
    <glyph glyph-name="Egrave" unicode="&#xc8;" horiz-adv-x="469" 
d="M285 444q-48 -94 -76 -163q159 4 247 13q0 -8 -19.5 -21.5t-33.5 -18.5q-44 -11 -213 -23q-40 -105 -55 -172q-3 -15 15 -15q201 0 292 23q0 -8 -12.5 -22.5t-26.5 -20.5q-37 -15 -134 -26.5t-210 -11.5q-17 0 -24 4.5t-5 13.5q18 78 67 200.5t89 205.5q19 14 48.5 24
t50.5 10zM135 460q3 14 26.5 35t46.5 30q78 6 225 10t152 4q0 -6 -21 -22.5t-41 -21.5q-13 -4 -40 -6.5t-50 -4t-68.5 -3.5t-68.5 -3q-76 -4 -161 -18zM266 640q27 22 61 40q48 -61 105 -99q-14 -12 -36 -19q-13 6 -37.5 20.5t-57 35t-35.5 22.5z" />
    <glyph glyph-name="Eacute" unicode="&#xc9;" horiz-adv-x="469" 
d="M285 444q-48 -94 -76 -163q159 4 247 13q0 -8 -19.5 -21.5t-33.5 -18.5q-44 -11 -213 -23q-40 -105 -55 -172q-3 -15 15 -15q201 0 292 23q0 -8 -12.5 -22.5t-26.5 -20.5q-37 -15 -134 -26.5t-210 -11.5q-17 0 -24 4.5t-5 13.5q18 78 67 200.5t89 205.5q19 14 48.5 24
t50.5 10zM135 460q3 14 26.5 35t46.5 30q78 6 225 10t152 4q0 -6 -21 -22.5t-41 -21.5q-13 -4 -40 -6.5t-50 -4t-68.5 -3.5t-68.5 -3q-76 -4 -161 -18zM496 645q-89 -54 -142 -75q-18 6 -31 17q47 29 118 95q31 -14 55 -37z" />
    <glyph glyph-name="Ecircumflex" unicode="&#xca;" horiz-adv-x="469" 
d="M285 444q-48 -94 -76 -163q159 4 247 13q0 -8 -19.5 -21.5t-33.5 -18.5q-44 -11 -213 -23q-40 -105 -55 -172q-3 -15 15 -15q201 0 292 23q0 -8 -12.5 -22.5t-26.5 -20.5q-37 -15 -134 -26.5t-210 -11.5q-17 0 -24 4.5t-5 13.5q18 78 67 200.5t89 205.5q19 14 48.5 24
t50.5 10zM135 460q3 14 26.5 35t46.5 30q78 6 225 10t152 4q0 -6 -21 -22.5t-41 -21.5q-13 -4 -40 -6.5t-50 -4t-68.5 -3.5t-68.5 -3q-76 -4 -161 -18zM491 585q-22 -14 -43 -20q-11 4 -33.5 24.5t-33.5 36.5q-47 -38 -94 -68q-17 0 -24 13q112 78 146 116q27 -51 82 -102z
" />
    <glyph glyph-name="Edieresis" unicode="&#xcb;" horiz-adv-x="469" 
d="M285 444q-48 -94 -76 -163q159 4 247 13q0 -8 -19.5 -21.5t-33.5 -18.5q-44 -11 -213 -23q-40 -105 -55 -172q-3 -15 15 -15q201 0 292 23q0 -8 -12.5 -22.5t-26.5 -20.5q-37 -15 -134 -26.5t-210 -11.5q-17 0 -24 4.5t-5 13.5q18 78 67 200.5t89 205.5q19 14 48.5 24
t50.5 10zM135 460q3 14 26.5 35t46.5 30q78 6 225 10t152 4q0 -6 -21 -22.5t-41 -21.5q-13 -4 -40 -6.5t-50 -4t-68.5 -3.5t-68.5 -3q-76 -4 -161 -18zM469 659q31 0 31 -32q0 -18 -15.5 -34.5t-37.5 -16.5q-30 0 -30 32q0 19 15.5 35t36.5 16zM327 659q31 0 31 -32
q0 -18 -15.5 -34.5t-37.5 -16.5q-30 0 -30 32q0 19 15.5 35t36.5 16z" />
    <glyph glyph-name="Igrave" unicode="&#xcc;" horiz-adv-x="252" 
d="M128 31q-64 -41 -102 -40q10 56 92 279q14 38 53 132.5t42 102.5q54 29 104 29q-61 -111 -113 -256q-61 -166 -76 -247zM166 640q27 22 61 40q48 -61 105 -99q-14 -12 -36 -19q-13 6 -37.5 20.5t-57 35t-35.5 22.5z" />
    <glyph glyph-name="Iacute" unicode="&#xcd;" horiz-adv-x="252" 
d="M128 31q-64 -41 -102 -40q10 56 92 279q14 38 53 132.5t42 102.5q54 29 104 29q-61 -111 -113 -256q-61 -166 -76 -247zM410 640q-89 -54 -142 -75q-18 6 -31 17q47 29 118 95q11 -5 29 -17t26 -20z" />
    <glyph glyph-name="Icircumflex" unicode="&#xce;" horiz-adv-x="252" 
d="M128 31q-64 -41 -102 -40q10 56 92 279q14 38 53 132.5t42 102.5q54 29 104 29q-61 -111 -113 -256q-61 -166 -76 -247zM395 575q-22 -14 -43 -20q-11 4 -33.5 24.5t-33.5 36.5q-47 -38 -94 -68q-17 0 -24 13q112 78 146 116q27 -51 82 -102z" />
    <glyph glyph-name="Idieresis" unicode="&#xcf;" horiz-adv-x="252" 
d="M128 31q-64 -41 -102 -40q10 56 92 279q14 38 53 132.5t42 102.5q54 29 104 29q-61 -111 -113 -256q-61 -166 -76 -247zM375 654q31 0 31 -32q0 -18 -15.5 -34.5t-37.5 -16.5q-30 0 -30 32q0 19 15.5 35t36.5 16zM233 654q31 0 31 -32q0 -18 -15.5 -34.5t-37.5 -16.5
q-30 0 -30 32q0 19 15.5 35t36.5 16z" />
    <glyph glyph-name="Eth" unicode="&#xd0;" horiz-adv-x="625" 
d="M352 237q-49 -4 -125 -6q-43 -116 -53 -167q-1 -8 3.5 -12t17.5 -8q24 -8 63 -8q130 0 212 84t82 197q0 67 -53 108q-76 58 -236 56q-76 0 -136 -6q3 9 31 30.5t48 30.5q45 5 100 5q161 0 248.5 -50t87.5 -144q0 -65 -37.5 -129.5t-101 -115.5t-157.5 -82.5t-198 -31.5
q-61 0 -82 7q12 65 76 235q-94 -3 -104 -3q0 7 15.5 22t29.5 22q44 0 75 1q33 83 60 138q19 15 51 25.5t52 10.5q-33 -59 -78 -172q116 4 148 7q0 -7 -13.5 -22.5t-25.5 -21.5z" />
    <glyph glyph-name="Ntilde" unicode="&#xd1;" horiz-adv-x="643" 
d="M576 237q-60 -155 -62 -209q-11 -13 -40.5 -28.5t-43.5 -15.5q-38 104 -108 239t-94 192q-27 -56 -48 -110q-58 -151 -77 -282q-19 -14 -45 -23.5t-44 -9.5q23 73 79 206t72 178q23 62 26 123q54 40 92 49q25 -85 57 -157t76.5 -154.5t65.5 -128.5q72 197 144 403
q17 14 46 24t52 10q-78 -123 -148 -306zM348 562q45 85 82 85q20 0 52 -25t39 -25q26 0 46 52q11 -4 16 -14q-38 -84 -80 -84q-16 0 -48.5 25t-41.5 25q-23 0 -47 -49q-13 0 -18 10z" />
    <glyph glyph-name="Ograve" unicode="&#xd2;" horiz-adv-x="574" 
d="M350 516q-44 -27 -76 -59q-54 -54 -87.5 -134t-33.5 -171q0 -51 24.5 -79.5t63.5 -28.5q86 0 163 78q43 44 73.5 115.5t30.5 147.5q0 61 -28 95t-81 34q0 12 36.5 25.5t63.5 13.5q102 0 102 -127q0 -82 -46 -166t-112 -144t-140 -98t-130 -38q-63 0 -90 41t-27 102
q0 79 34 159t88 134q80 81 161 111q4 1 8.5 -3.5t2.5 -7.5zM301 660q27 22 61 40q48 -61 105 -99q-14 -12 -36 -19q-13 6 -37.5 20.5t-57 35t-35.5 22.5z" />
    <glyph glyph-name="Oacute" unicode="&#xd3;" horiz-adv-x="574" 
d="M350 516q-44 -27 -76 -59q-54 -54 -87.5 -134t-33.5 -171q0 -51 24.5 -79.5t63.5 -28.5q86 0 163 78q43 44 73.5 115.5t30.5 147.5q0 61 -28 95t-81 34q0 12 36.5 25.5t63.5 13.5q102 0 102 -127q0 -82 -46 -166t-112 -144t-140 -98t-130 -38q-63 0 -90 41t-27 102
q0 79 34 159t88 134q80 81 161 111q4 1 8.5 -3.5t2.5 -7.5zM564 660q-89 -54 -142 -75q-18 6 -31 17q47 29 118 95q11 -5 29 -17t26 -20z" />
    <glyph glyph-name="Ocircumflex" unicode="&#xd4;" horiz-adv-x="574" 
d="M350 516q-44 -27 -76 -59q-54 -54 -87.5 -134t-33.5 -171q0 -51 24.5 -79.5t63.5 -28.5q86 0 163 78q43 44 73.5 115.5t30.5 147.5q0 61 -28 95t-81 34q0 12 36.5 25.5t63.5 13.5q102 0 102 -127q0 -82 -46 -166t-112 -144t-140 -98t-130 -38q-63 0 -90 41t-27 102
q0 79 34 159t88 134q80 81 161 111q4 1 8.5 -3.5t2.5 -7.5zM555 605q-22 -14 -43 -20q-11 4 -33.5 24.5t-33.5 36.5q-47 -38 -94 -68q-17 0 -24 13q112 78 146 116q27 -51 82 -102z" />
    <glyph glyph-name="Otilde" unicode="&#xd5;" horiz-adv-x="574" 
d="M350 516q-44 -27 -76 -59q-54 -54 -87.5 -134t-33.5 -171q0 -51 24.5 -79.5t63.5 -28.5q86 0 163 78q43 44 73.5 115.5t30.5 147.5q0 61 -28 95t-81 34q0 12 36.5 25.5t63.5 13.5q102 0 102 -127q0 -82 -46 -166t-112 -144t-140 -98t-130 -38q-63 0 -90 41t-27 102
q0 79 34 159t88 134q80 81 161 111q4 1 8.5 -3.5t2.5 -7.5zM320 607q45 85 82 85q21 0 52 -25q33 -25 39 -25q26 0 46 52q11 -4 16 -14q-38 -84 -80 -84q-16 0 -48.5 25t-41.5 25q-23 0 -47 -49q-13 0 -18 10z" />
    <glyph glyph-name="Odieresis" unicode="&#xd6;" horiz-adv-x="574" 
d="M350 516q-44 -27 -76 -59q-54 -54 -87.5 -134t-33.5 -171q0 -51 24.5 -79.5t63.5 -28.5q86 0 163 78q43 44 73.5 115.5t30.5 147.5q0 61 -28 95t-81 34q0 12 36.5 25.5t63.5 13.5q102 0 102 -127q0 -82 -46 -166t-112 -144t-140 -98t-130 -38q-63 0 -90 41t-27 102
q0 79 34 159t88 134q80 81 161 111q4 1 8.5 -3.5t2.5 -7.5zM536 674q31 0 31 -32q0 -18 -15.5 -34.5t-37.5 -16.5q-30 0 -30 32q0 19 15.5 35t36.5 16zM394 674q31 0 31 -32q0 -18 -15.5 -34.5t-37.5 -16.5q-30 0 -30 32q0 19 15.5 35t36.5 16z" />
    <glyph glyph-name="multiply" unicode="&#xd7;" horiz-adv-x="478" 
d="M232 246q-66 107 -112 161q15 13 40 23.5t37 10.5q8 -13 25 -40.5t33.5 -54.5t31.5 -51q90 83 160 144q24 0 59 -11q-104 -77 -201 -163q73 -122 111 -188q-11 -8 -36.5 -17t-39.5 -9q-24 54 -88 163q-90 -84 -153 -168q-44 0 -62 10q53 57 195 190z" />
    <glyph glyph-name="Oslash" unicode="&#xd8;" horiz-adv-x="566" 
d="M186 51q19 -12 51 -12q86 0 167 83q46 46 79 118t33 151q0 44 -11 68l-152 -190q-12 -15 -167 -218zM613 665q37 10 68 10q-77 -92 -117 -141q37 -31 37 -108q0 -82 -46 -166t-112 -144t-140 -98t-130 -38q-19 0 -37 5q-63 -84 -79 -108q-22 -16 -73 -16q22 24 117 141
q-45 36 -45 121q0 79 34 159t88 134q80 81 161 111q4 1 8.5 -3.5t2.5 -7.5q-44 -27 -76 -59q-56 -57 -93.5 -136.5t-37.5 -168.5q0 -52 17 -75q83 103 149 188q73 92 174 225q-31 24 -84 24q0 12 36.5 25.5t63.5 13.5q18 0 30 -2q67 90 84 114z" />
    <glyph glyph-name="Ugrave" unicode="&#xd9;" horiz-adv-x="611" 
d="M167 -19q-45 0 -67 31.5t-22 79.5q0 121 111 366q7 16 12 30q18 14 55 27.5t55 13.5q-141 -265 -141 -398q0 -47 19 -67t65 -20q30 0 73 22t77 57q62 62 112.5 177t68.5 195q19 14 54.5 27t55.5 13q-101 -266 -223 -388q-166 -166 -305 -166zM336 620q27 22 61 40
q48 -61 105 -99q-14 -12 -36 -19q-13 6 -37.5 20.5t-57 35t-35.5 22.5z" />
    <glyph glyph-name="Uacute" unicode="&#xda;" horiz-adv-x="611" 
d="M167 -19q-45 0 -67 31.5t-22 79.5q0 121 111 366q7 16 12 30q18 14 55 27.5t55 13.5q-141 -265 -141 -398q0 -47 19 -67t65 -20q30 0 73 22t77 57q62 62 112.5 177t68.5 195q19 14 54.5 27t55.5 13q-101 -266 -223 -388q-166 -166 -305 -166zM581 630q-89 -54 -142 -75
q-18 6 -31 17q47 29 118 95q11 -5 29 -17t26 -20z" />
    <glyph glyph-name="Ucircumflex" unicode="&#xdb;" horiz-adv-x="611" 
d="M167 -19q-45 0 -67 31.5t-22 79.5q0 121 111 366q7 16 12 30q18 14 55 27.5t55 13.5q-141 -265 -141 -398q0 -47 19 -67t65 -20q30 0 73 22t77 57q62 62 112.5 177t68.5 195q19 14 54.5 27t55.5 13q-101 -266 -223 -388q-166 -166 -305 -166zM578 570q-22 -14 -43 -20
q-11 4 -33.5 24.5t-33.5 36.5q-47 -38 -94 -68q-17 0 -24 13q112 78 146 116q27 -51 82 -102z" />
    <glyph glyph-name="Udieresis" unicode="&#xdc;" horiz-adv-x="611" 
d="M167 -19q-45 0 -67 31.5t-22 79.5q0 121 111 366q7 16 12 30q18 14 55 27.5t55 13.5q-141 -265 -141 -398q0 -47 19 -67t65 -20q30 0 73 22t77 57q62 62 112.5 177t68.5 195q19 14 54.5 27t55.5 13q-101 -266 -223 -388q-166 -166 -305 -166zM547 634q31 0 31 -32
q0 -18 -15.5 -34.5t-37.5 -16.5q-30 0 -30 32q0 19 15.5 35t36.5 16zM405 634q31 0 31 -32q0 -18 -15.5 -34.5t-37.5 -16.5q-30 0 -30 32q0 19 15.5 35t36.5 16z" />
    <glyph glyph-name="Yacute" unicode="&#xdd;" horiz-adv-x="538" 
d="M372 234q-8 -31 -30 -109.5t-28 -102.5q-14 -14 -48.5 -25t-59.5 -11q69 176 83 234q2 39 -48.5 137t-106.5 149q17 12 47.5 21.5t49.5 8.5q37 -39 75.5 -112.5t55.5 -147.5q47 64 116 142.5t110 114.5q60 0 80 -4q-72 -47 -154 -128.5t-142 -166.5zM536 615
q-89 -54 -142 -75q-18 6 -31 17q47 29 118 95q32 -14 55 -37z" />
    <glyph glyph-name="Thorn" unicode="&#xde;" horiz-adv-x="505" 
d="M152 129q-17 -57 -23 -98q-64 -41 -104 -40q12 68 99 297q27 71 99 235q54 29 104 29q-26 -46 -61 -124q44 2 85 2q183 0 183 -84q0 -66 -117 -133.5t-265 -83.5zM242 376q-28 -66 -37 -92q-17 -46 -38 -107q20 -2 47 -2q50 0 104 17.5t87 50.5t33 65q0 72 -137 72
q-34 0 -59 -4z" />
    <glyph glyph-name="germandbls" unicode="&#xdf;" horiz-adv-x="538" 
d="M114 301q42 150 130 238q51 51 119.5 80.5t125.5 29.5q52 0 89.5 -29.5t37.5 -77.5q0 -78 -60 -132q-32 -29 -103.5 -62.5t-86.5 -48.5q-12 -12 -12 -24q0 -17 13 -29.5t53 -33.5q43 -23 63 -41.5t20 -46.5q0 -26 -24 -50q-36 -36 -93.5 -59t-108.5 -23q-47 0 -73.5 19
t-26.5 47q6 17 20 34t29 21q9 -42 34.5 -68t61.5 -26q39 0 71 26q24 20 24 46q0 33 -69 70q-45 24 -61 41.5t-16 39.5t18 40q17 17 89 52.5t93 52.5q62 49 62 117q0 53 -31 80t-86 27q-57 0 -106 -49q-59 -59 -114 -244q-120 -401 -199 -553q-12 -23 -40.5 -42t-54.5 -19
q43 75 109 268q57 167 103 329z" />
    <glyph glyph-name="agrave" unicode="&#xe0;" horiz-adv-x="421" 
d="M119 251q64 64 123.5 86t133.5 22q28 0 60 -6q-75 -185 -75 -283q0 -3 0.5 -6t1.5 -6.5t1 -5.5q-17 -21 -46.5 -36.5t-45.5 -15.5q0 87 32 194q-170 -198 -251 -198q-17 0 -26 13t-9 30q0 44 27 104.5t74 107.5zM183 281q-29 -29 -50.5 -84t-21.5 -91q0 -33 13 -33
q39 0 98 59q71 72 115 172q-26 14 -65 14q-52 0 -89 -37zM369 429q-11 -6 -45 -6q-17 15 -49.5 54.5t-48.5 65.5q44 12 74 17q30 -83 69 -131z" />
    <glyph glyph-name="aacute" unicode="&#xe1;" horiz-adv-x="421" 
d="M119 251q64 64 123.5 86t133.5 22q28 0 60 -6q-75 -185 -75 -283q0 -3 0.5 -6t1.5 -6.5t1 -5.5q-17 -21 -46.5 -36.5t-45.5 -15.5q0 87 32 194q-170 -198 -251 -198q-17 0 -26 13t-9 30q0 44 27 104.5t74 107.5zM183 281q-29 -29 -50.5 -84t-21.5 -91q0 -33 13 -33
q39 0 98 59q71 72 115 172q-26 14 -65 14q-52 0 -89 -37zM464 521q-25 -24 -73 -62.5t-71 -53.5q-30 0 -41 6q40 41 107 127q51 -7 78 -17z" />
    <glyph glyph-name="acircumflex" unicode="&#xe2;" horiz-adv-x="421" 
d="M119 251q64 64 123.5 86t133.5 22q28 0 60 -6q-75 -185 -75 -283q0 -3 0.5 -6t1.5 -6.5t1 -5.5q-17 -21 -46.5 -36.5t-45.5 -15.5q0 87 32 194q-170 -198 -251 -198q-17 0 -26 13t-9 30q0 44 27 104.5t74 107.5zM183 281q-29 -29 -50.5 -84t-21.5 -91q0 -33 13 -33
q39 0 98 59q71 72 115 172q-26 14 -65 14q-52 0 -89 -37zM427 438q-19 -17 -40 -29q-10 5 -28.5 33t-27.5 52l-33 -32q-32 -33 -57 -55q-16 -2 -23 10q93 83 142 156q23 -76 67 -135z" />
    <glyph glyph-name="atilde" unicode="&#xe3;" horiz-adv-x="421" 
d="M119 251q64 64 123.5 86t133.5 22q28 0 60 -6q-75 -185 -75 -283q0 -3 0.5 -6t1.5 -6.5t1 -5.5q-17 -21 -46.5 -36.5t-45.5 -15.5q0 87 32 194q-170 -198 -251 -198q-17 0 -26 13t-9 30q0 44 27 104.5t74 107.5zM183 281q-29 -29 -50.5 -84t-21.5 -91q0 -33 13 -33
q39 0 98 59q71 72 115 172q-26 14 -65 14q-52 0 -89 -37zM200 426q45 85 82 85q20 0 52 -25t39 -25q26 0 46 52q11 -4 16 -14q-38 -84 -80 -84q-16 0 -48.5 25t-41.5 25q-23 0 -47 -49q-13 0 -18 10z" />
    <glyph glyph-name="adieresis" unicode="&#xe4;" horiz-adv-x="421" 
d="M119 251q64 64 123.5 86t133.5 22q28 0 60 -6q-75 -185 -75 -283q0 -3 0.5 -6t1.5 -6.5t1 -5.5q-17 -21 -46.5 -36.5t-45.5 -15.5q0 87 32 194q-170 -198 -251 -198q-17 0 -26 13t-9 30q0 44 27 104.5t74 107.5zM183 281q-29 -29 -50.5 -84t-21.5 -91q0 -33 13 -33
q39 0 98 59q71 72 115 172q-26 14 -65 14q-52 0 -89 -37zM415 499q31 0 31 -32q0 -18 -15.5 -34.5t-37.5 -16.5q-30 0 -30 32q0 19 15.5 35t36.5 16zM273 499q31 0 31 -32q0 -18 -15.5 -34.5t-37.5 -16.5q-30 0 -30 32q0 19 15.5 35t36.5 16z" />
    <glyph glyph-name="aring" unicode="&#xe5;" horiz-adv-x="421" 
d="M119 251q64 64 123.5 86t133.5 22q28 0 60 -6q-75 -185 -75 -283q0 -3 0.5 -6t1.5 -6.5t1 -5.5q-17 -21 -46.5 -36.5t-45.5 -15.5q0 87 32 194q-170 -198 -251 -198q-17 0 -26 13t-9 30q0 44 27 104.5t74 107.5zM183 281q-29 -29 -50.5 -84t-21.5 -91q0 -33 13 -33
q39 0 98 59q71 72 115 172q-26 14 -65 14q-52 0 -89 -37zM358 553q31 0 45 -16.5t14 -37.5q0 -45 -35.5 -74.5t-70.5 -29.5q-27 0 -45 16.5t-18 40.5q0 46 35.5 73.5t74.5 27.5zM370 481q0 23 -12 36.5t-29 14.5q-15 -1 -24 -19.5t-9 -39.5q0 -24 12 -38.5t32 -14.5
q13 0 21.5 19.5t8.5 41.5z" />
    <glyph glyph-name="ae" unicode="&#xe6;" horiz-adv-x="538" 
d="M466 250q18 18 18 38q0 39 -39 39q-23 0 -47 -23q-30 -29 -51 -100q25 0 62 13t57 33zM176 278q-30 -31 -50.5 -82.5t-20.5 -88.5q0 -33 13 -33q41 0 98 57q31 31 118 173q-26 8 -69 8q-55 0 -89 -34zM268 158q-148 -161 -221 -161q-29 0 -29 43q0 46 24 105t71 105
q61 61 114.5 80t124.5 19q27 0 65 -8q55 20 93 20q21 0 33 -9t12 -22q0 -32 -27 -57q-74 -71 -186 -98q-6 -24 -6 -61q0 -27 13 -40q14 -14 37 -14q57 0 152 95q0 -24 -2 -30q-50 -50 -121 -89t-123 -39q-16 0 -27.5 15.5t-11.5 45.5q0 47 15 100z" />
    <glyph glyph-name="ccedilla" unicode="&#xe7;" horiz-adv-x="334" 
d="M108 115q0 -39 12 -51t38 -12q27 0 71.5 27t89.5 72q0 -22 -4 -30q-54 -54 -128 -94q-61 -59 -76 -84q91 -8 91 -53q0 -33 -50 -61t-87 -35q-12 7 -12 18q35 8 61 23.5t26 35.5q0 29 -65 29q-6 0 -30 -2q20 35 85 102q-15 -6 -36 -12q-24 -4 -33 -4q-39 0 -39 63
q0 60 26 117.5t68 98.5q48 48 109.5 76.5t109.5 28.5q28 0 42 -7q-14 -33 -58 -67q-35 15 -76 15q-49 0 -75 -27q-60 -66 -60 -167z" />
    <glyph glyph-name="egrave" unicode="&#xe8;" horiz-adv-x="324" 
d="M124 177q-8 -30 -8 -61q0 -30 12 -42q13 -14 41 -14q57 0 152 95q0 -24 -2 -30q-50 -50 -121 -89t-123 -39q-16 0 -27.5 15.5t-11.5 45.5q0 133 84 215q44 44 96.5 66t86.5 22q18 0 28 -8t10 -18q0 -33 -28 -59q-77 -77 -189 -99zM250 251q18 18 18 38q0 32 -36 32
q-28 0 -50 -21q-34 -34 -52 -96q18 0 59.5 14t60.5 33zM305 411q-11 -6 -45 -6q-17 15 -49.5 54.5t-48.5 65.5q44 12 74 17q30 -83 69 -131z" />
    <glyph glyph-name="eacute" unicode="&#xe9;" horiz-adv-x="324" 
d="M124 177q-8 -30 -8 -61q0 -30 12 -42q13 -14 41 -14q57 0 152 95q0 -24 -2 -30q-50 -50 -121 -89t-123 -39q-16 0 -27.5 15.5t-11.5 45.5q0 133 84 215q44 44 96.5 66t86.5 22q18 0 28 -8t10 -18q0 -33 -28 -59q-77 -77 -189 -99zM250 251q18 18 18 38q0 32 -36 32
q-28 0 -50 -21q-34 -34 -52 -96q18 0 59.5 14t60.5 33zM395 521q-25 -24 -73 -62.5t-71 -53.5q-30 0 -41 6q40 41 107 127q51 -7 78 -17z" />
    <glyph glyph-name="ecircumflex" unicode="&#xea;" horiz-adv-x="324" 
d="M124 177q-8 -30 -8 -61q0 -30 12 -42q13 -14 41 -14q57 0 152 95q0 -24 -2 -30q-50 -50 -121 -89t-123 -39q-16 0 -27.5 15.5t-11.5 45.5q0 133 84 215q44 44 96.5 66t86.5 22q18 0 28 -8t10 -18q0 -33 -28 -59q-77 -77 -189 -99zM250 251q18 18 18 38q0 32 -36 32
q-28 0 -50 -21q-34 -34 -52 -96q18 0 59.5 14t60.5 33zM368 428q-19 -17 -40 -29q-10 5 -28.5 33t-27.5 52q-7 -7 -22.5 -23t-32.5 -32t-35 -32q-16 -2 -23 10q93 83 142 156q23 -76 67 -135z" />
    <glyph glyph-name="edieresis" unicode="&#xeb;" horiz-adv-x="324" 
d="M124 177q-8 -30 -8 -61q0 -30 12 -42q13 -14 41 -14q57 0 152 95q0 -24 -2 -30q-50 -50 -121 -89t-123 -39q-16 0 -27.5 15.5t-11.5 45.5q0 133 84 215q44 44 96.5 66t86.5 22q18 0 28 -8t10 -18q0 -33 -28 -59q-77 -77 -189 -99zM250 251q18 18 18 38q0 32 -36 32
q-28 0 -50 -21q-34 -34 -52 -96q18 0 59.5 14t60.5 33zM361 489q31 0 31 -32q0 -18 -15.5 -34.5t-37.5 -16.5q-30 0 -30 32q0 19 15.5 35t36.5 16zM219 489q31 0 31 -32q0 -18 -15.5 -34.5t-37.5 -16.5q-30 0 -30 32q0 19 15.5 35t36.5 16z" />
    <glyph glyph-name="igrave" unicode="&#xec;" horiz-adv-x="190" 
d="M119 307q17 13 47 27t44 14q-83 -175 -83 -289q-17 -18 -49 -38t-48 -21q0 47 31.5 146.5t57.5 160.5zM225 396q-11 -6 -45 -6q-17 15 -49.5 54.5t-48.5 65.5q44 12 74 17q30 -83 69 -131z" />
    <glyph glyph-name="iacute" unicode="&#xed;" horiz-adv-x="190" 
d="M119 307q17 13 47 27t44 14q-83 -175 -83 -289q-17 -18 -49 -38t-48 -21q0 47 31.5 146.5t57.5 160.5zM315 511q-25 -24 -73 -62.5t-71 -53.5q-30 0 -41 6q40 41 107 127q51 -7 78 -17z" />
    <glyph glyph-name="icircumflex" unicode="&#xee;" horiz-adv-x="190" 
d="M119 307q17 13 47 27t44 14q-83 -175 -83 -289q-17 -18 -49 -38t-48 -21q0 47 31.5 146.5t57.5 160.5zM288 413q-19 -17 -40 -29q-10 5 -28.5 33t-27.5 52l-32 -33q-33 -32 -58 -54q-16 -2 -23 10q93 83 142 156q23 -76 67 -135z" />
    <glyph glyph-name="idieresis" unicode="&#xef;" horiz-adv-x="190" 
d="M119 307q17 13 47 27t44 14q-83 -175 -83 -289q-17 -18 -49 -38t-48 -21q0 47 31.5 146.5t57.5 160.5zM271 484q31 0 31 -32q0 -18 -15.5 -34.5t-37.5 -16.5q-30 0 -30 32q0 19 15.5 35t36.5 16zM129 484q31 0 31 -32q0 -18 -15.5 -34.5t-37.5 -16.5q-30 0 -30 32
q0 19 15.5 35t36.5 16z" />
    <glyph glyph-name="eth" unicode="&#xf0;" horiz-adv-x="373" 
d="M258 314q-49 0 -89 -40q-61 -61 -61 -150q0 -71 47 -71q38 0 78 40q60 59 88 193q-18 28 -63 28zM412 418q0 -183 -133 -316q-48 -48 -106.5 -78.5t-99.5 -30.5q-49 0 -49 62q0 108 88 196q51 51 102.5 78t90.5 27q12 0 32 -4q6 30 6 59q0 54 -9 82q-69 -40 -119 -75
q0 23 9 48l48 27t50 28q-40 93 -107 113q7 8 29 14.5t36 6.5q35 -12 68 -48q23 -26 34 -51q69 42 109 71q0 -28 -9 -49q-11 -6 -39.5 -22t-49.5 -28q19 -54 19 -110z" />
    <glyph glyph-name="ntilde" unicode="&#xf1;" horiz-adv-x="447" 
d="M427 345q14 0 14 -25q0 -35 -28.5 -128t-50.5 -147q-5 -10 -42.5 -30.5t-52.5 -20.5q84 238 84 268q0 12 -15 12q-14 0 -48 -22t-78 -67q-40 -40 -83 -126q-17 -17 -50 -34t-48 -17q68 175 76 281q17 22 53 46t53 24q-14 -84 -46 -185q52 55 144 113t118 58zM199 414
q45 85 82 85q20 0 52 -25t39 -25q26 0 46 52q11 -4 16 -14q-38 -84 -80 -84q-16 0 -48.5 25t-41.5 25q-22 0 -47 -49q-13 0 -18 10z" />
    <glyph glyph-name="ograve" unicode="&#xf2;" horiz-adv-x="363" 
d="M248 313q-38 0 -83 -45q-26 -26 -40.5 -67t-14.5 -77q0 -71 47 -71q50 0 94 61t44 142q0 57 -47 57zM372 295q0 -100 -104 -203q-45 -44 -101 -71.5t-92 -27.5q-49 0 -49 62q0 49 23.5 102.5t59.5 89.5q52 52 109.5 81.5t101.5 29.5q52 0 52 -63zM326 411q-11 -6 -45 -6
q-17 15 -49.5 54.5t-48.5 65.5q44 12 74 17q30 -83 69 -131z" />
    <glyph glyph-name="oacute" unicode="&#xf3;" horiz-adv-x="363" 
d="M248 313q-38 0 -83 -45q-26 -26 -40.5 -67t-14.5 -77q0 -71 47 -71q50 0 94 61t44 142q0 57 -47 57zM372 295q0 -100 -104 -203q-45 -44 -101 -71.5t-92 -27.5q-49 0 -49 62q0 49 23.5 102.5t59.5 89.5q52 52 109.5 81.5t101.5 29.5q52 0 52 -63zM421 521
q-25 -24 -73 -62.5t-71 -53.5q-30 0 -41 6q40 41 107 127q51 -7 78 -17z" />
    <glyph glyph-name="ocircumflex" unicode="&#xf4;" horiz-adv-x="363" 
d="M248 313q-38 0 -83 -45q-26 -26 -40.5 -67t-14.5 -77q0 -71 47 -71q50 0 94 61t44 142q0 57 -47 57zM372 295q0 -100 -104 -203q-45 -44 -101 -71.5t-92 -27.5q-49 0 -49 62q0 49 23.5 102.5t59.5 89.5q52 52 109.5 81.5t101.5 29.5q52 0 52 -63zM390 423
q-19 -17 -40 -29q-10 5 -28.5 33t-27.5 52q-7 -7 -22.5 -23t-32.5 -32t-35 -32q-16 -2 -23 10q93 83 142 156q23 -76 67 -135z" />
    <glyph glyph-name="otilde" unicode="&#xf5;" horiz-adv-x="363" 
d="M248 313q-38 0 -83 -45q-26 -26 -40.5 -67t-14.5 -77q0 -71 47 -71q50 0 94 61t44 142q0 57 -47 57zM372 295q0 -100 -104 -203q-45 -44 -101 -71.5t-92 -27.5q-49 0 -49 62q0 49 23.5 102.5t59.5 89.5q52 52 109.5 81.5t101.5 29.5q52 0 52 -63zM163 414q45 85 82 85
q20 0 52 -25t39 -25q26 0 46 52q11 -4 16 -14q-38 -84 -80 -84q-16 0 -48.5 25t-41.5 25q-22 0 -47 -49q-13 0 -18 10z" />
    <glyph glyph-name="odieresis" unicode="&#xf6;" horiz-adv-x="363" 
d="M248 313q-38 0 -83 -45q-26 -26 -40.5 -67t-14.5 -77q0 -71 47 -71q50 0 94 61t44 142q0 57 -47 57zM372 295q0 -100 -104 -203q-45 -44 -101 -71.5t-92 -27.5q-49 0 -49 62q0 49 23.5 102.5t59.5 89.5q52 52 109.5 81.5t101.5 29.5q52 0 52 -63zM383 489q31 0 31 -32
q0 -18 -15.5 -34.5t-37.5 -16.5q-30 0 -30 32q0 19 15.5 35t36.5 16zM241 489q31 0 31 -32q0 -18 -15.5 -34.5t-37.5 -16.5q-30 0 -30 32q0 19 15.5 35t36.5 16z" />
    <glyph glyph-name="divide" unicode="&#xf7;" horiz-adv-x="478" 
d="M249 181q10 0 18 -9t8 -24q0 -24 -16 -43.5t-34 -19.5q-26 0 -26 29q0 27 15.5 47t34.5 20zM309 413q10 0 18 -9t8 -24q0 -24 -16 -43.5t-34 -19.5q-26 0 -26 29q0 27 15.5 47t34.5 20zM107 273h171q139 0 208 4q1 -7 -16 -24.5t-32 -27.5h-168q-163 0 -211 -3
q0 6 15.5 22.5t32.5 28.5z" />
    <glyph glyph-name="oslash" unicode="&#xf8;" horiz-adv-x="363" 
d="M303 284q-74 -95 -175 -230q10 -6 24 -6q40 0 83 43q34 33 53 80.5t19 85.5q0 18 -4 27zM286 303q-13 10 -35 10q-38 0 -83 -45q-29 -30 -46 -77t-17 -83q0 -26 7 -33q100 128 174 228zM54 0q-25 12 -25 58q0 47 24 100.5t60 89.5q53 53 115 84t97 24q8 11 29 41t31 44
q22 9 53 9l-45 -54t-40 -49q22 -8 22 -52q0 -99 -105 -203q-108 -107 -185 -100q-15 -21 -59 -84q-24 -11 -54 -11q31 40 82 103z" />
    <glyph glyph-name="ugrave" unicode="&#xf9;" horiz-adv-x="458" 
d="M59 0q-21 0 -21 29q0 60 37 156q27 69 58 125q21 16 47.5 27.5t41.5 11.5q-90 -172 -90 -241q0 -20 20 -20q33 0 124 89q60 60 105 138q16 13 45.5 23.5t41.5 10.5q-31 -67 -48.5 -134t-17.5 -107q0 -20 5 -33q-6 -13 -35.5 -37t-64.5 -34q0 84 37 211
q-218 -215 -285 -215zM335 391q-11 -6 -45 -6q-17 15 -49.5 54.5t-48.5 65.5q44 12 74 17q30 -83 69 -131z" />
    <glyph glyph-name="uacute" unicode="&#xfa;" horiz-adv-x="458" 
d="M59 0q-21 0 -21 29q0 60 37 156q27 69 58 125q21 16 47.5 27.5t41.5 11.5q-90 -172 -90 -241q0 -20 20 -20q33 0 124 89q60 60 105 138q16 13 45.5 23.5t41.5 10.5q-31 -67 -48.5 -134t-17.5 -107q0 -20 5 -33q-6 -13 -35.5 -37t-64.5 -34q0 84 37 211
q-218 -215 -285 -215zM455 499q-25 -24 -73 -62.5t-71 -53.5q-30 0 -41 6q40 41 107 127q51 -7 78 -17z" />
    <glyph glyph-name="ucircumflex" unicode="&#xfb;" horiz-adv-x="458" 
d="M59 0q-21 0 -21 29q0 60 37 156q27 69 58 125q21 16 47.5 27.5t41.5 11.5q-90 -172 -90 -241q0 -20 20 -20q33 0 124 89q60 60 105 138q16 13 45.5 23.5t41.5 10.5q-31 -67 -48.5 -134t-17.5 -107q0 -20 5 -33q-6 -13 -35.5 -37t-64.5 -34q0 84 37 211
q-218 -215 -285 -215zM425 418q-19 -17 -40 -29q-10 5 -28.5 33t-27.5 52l-33 -32q-32 -33 -57 -55q-16 -2 -23 10q93 83 142 156q23 -76 67 -135z" />
    <glyph glyph-name="udieresis" unicode="&#xfc;" horiz-adv-x="458" 
d="M59 0q-21 0 -21 29q0 60 37 156q27 69 58 125q21 16 47.5 27.5t41.5 11.5q-90 -172 -90 -241q0 -20 20 -20q33 0 124 89q60 60 105 138q16 13 45.5 23.5t41.5 10.5q-31 -67 -48.5 -134t-17.5 -107q0 -20 5 -33q-6 -13 -35.5 -37t-64.5 -34q0 84 37 211
q-218 -215 -285 -215zM408 481q31 0 31 -32q0 -18 -15.5 -34.5t-37.5 -16.5q-30 0 -30 32q0 19 15.5 35t36.5 16zM266 481q31 0 31 -32q0 -18 -15.5 -34.5t-37.5 -16.5q-30 0 -30 32q0 19 15.5 35t36.5 16z" />
    <glyph glyph-name="yacute" unicode="&#xfd;" horiz-adv-x="420" 
d="M20 -250q70 0 116 41q29 27 48 54.5t50 108.5t74 227q-61 -64 -137 -122.5t-111 -58.5q-22 0 -22 43q0 47 31 134.5t56 135.5q14 11 43 22.5t45 11.5q-87 -179 -87 -240q0 -31 13 -31q15 0 45.5 20t60.5 50q50 50 70 84.5t40 92.5q56 33 90 34q-28 -60 -62 -177
q-44 -151 -78 -226.5t-81 -122.5q-115 -114 -246 -114q-51 0 -82.5 19.5t-37.5 42.5q0 15 10.5 39.5t25.5 34.5q14 -43 48.5 -73t77.5 -30zM450 499q-25 -24 -73 -62.5t-71 -53.5q-30 0 -41 6q40 41 107 127q51 -7 78 -17z" />
    <glyph glyph-name="thorn" unicode="&#xfe;" horiz-adv-x="408" 
d="M258 64q31 31 50.5 88t19.5 104q0 38 -23 38q-48 0 -116 -67q-45 -43 -87 -183q21 -16 67 -16q20 0 47 10.5t42 25.5zM295 586q-66 -164 -126 -344q145 117 211 117q16 0 25.5 -14.5t9.5 -38.5q0 -64 -26 -122.5t-67 -98.5q-46 -45 -108.5 -72.5t-110.5 -27.5
q-10 0 -20 2q-76 -207 -98 -234q-17 -20 -43 -35.5t-47 -15.5q28 47 59 128t96 279q79 241 149 431q12 16 45.5 31t50.5 15z" />
    <glyph glyph-name="ydieresis" unicode="&#xff;" horiz-adv-x="420" 
d="M20 -250q70 0 116 41q29 27 48 54.5t50 108.5t74 227q-61 -64 -137 -122.5t-111 -58.5q-22 0 -22 43q0 47 31 134.5t56 135.5q14 11 43 22.5t45 11.5q-87 -179 -87 -240q0 -31 13 -31q15 0 45.5 20t60.5 50q50 50 70 84.5t40 92.5q56 33 90 34q-28 -60 -62 -177
q-44 -151 -78 -226.5t-81 -122.5q-115 -114 -246 -114q-51 0 -82.5 19.5t-37.5 42.5q0 15 10.5 39.5t25.5 34.5q14 -43 48.5 -73t77.5 -30zM389 484q31 0 31 -32q0 -18 -15.5 -34.5t-37.5 -16.5q-30 0 -30 32q0 19 15.5 35t36.5 16zM247 484q31 0 31 -32q0 -18 -15.5 -34.5
t-37.5 -16.5q-30 0 -30 32q0 19 15.5 35t36.5 16z" />
    <glyph glyph-name="dotlessi" unicode="&#x131;" horiz-adv-x="190" 
d="M119 307q17 13 47 27t44 14q-83 -175 -83 -289q-17 -18 -49 -38t-48 -21q0 47 31.5 146.5t57.5 160.5z" />
    <glyph glyph-name="Lslash" unicode="&#x141;" horiz-adv-x="466" 
d="M227 502q48 31 104 31q-5 -12 -35.5 -97t-45.5 -124q20 13 60.5 40l61.5 41q0 -28 -9 -49q-35 -20 -127 -77q-19 -46 -49 -121.5t-38 -94.5q34 2 58 2q23 0 73.5 -2t74.5 -2q64 0 95 15q-3 -11 -22.5 -34.5t-32.5 -26.5q-25 -6 -60 -6q-18 0 -69.5 3t-89.5 3
q-41 0 -68.5 -2.5t-48.5 -6t-28 -4.5q42 82 102 227q-18 -11 -37 -23t-38.5 -25l-28.5 -19q0 23 9 48q50 28 110 65q66 171 79 239z" />
    <glyph glyph-name="lslash" unicode="&#x142;" horiz-adv-x="213" 
d="M133 29q-15 -14 -46.5 -26t-50.5 -12q37 144 104 330q-66 -41 -102 -67q0 23 9 48q46 26 108 64q27 73 63 156t53 107q44 32 78 32q-51 -93 -107 -247q66 40 117 77q0 -28 -9 -49q-12 -7 -53 -32t-69 -41q-10 -25 -18 -53q-62 -193 -77 -287z" />
    <glyph glyph-name="OE" unicode="&#x152;" horiz-adv-x="811" 
d="M494 466q-25 46 -100 46q0 12 37.5 24.5t68.5 12.5q28 0 51 -18t28 -44q36 32 68 41q50 3 160 6.5t120 4.5q0 -6 -20.5 -22t-41.5 -22q-33 -9 -222 -19q-20 -40 -82 -195q145 4 237 13q0 -8 -19.5 -21.5t-33.5 -18.5q-48 -12 -202 -23q-41 -112 -54 -172q-3 -15 15 -15
q181 0 280 19q0 -8 -14 -22.5t-25 -20.5q-37 -12 -139.5 -23t-188.5 -11q-18 0 -26 5t-6 13q9 37 36 110q-142 -134 -275 -134q-47 0 -70.5 42.5t-23.5 100.5q0 78 35.5 160t86.5 133q80 81 161 111q4 1 8.5 -3.5t2.5 -7.5q-44 -27 -76 -59q-54 -55 -87.5 -134t-33.5 -171
q0 -52 23 -80t62 -28q41 0 75 18.5t76 60.5q36 37 73 116t46 143q7 53 -10 84z" />
    <glyph glyph-name="oe" unicode="&#x153;" horiz-adv-x="553" 
d="M248 313q-38 0 -83 -45q-26 -26 -40.5 -67t-14.5 -77q0 -71 47 -71q37 0 77 40q28 28 45 75.5t17 87.5q0 57 -48 57zM478 251q19 19 19 38q0 32 -35 32q-28 0 -50 -22q-35 -35 -53 -95q18 0 59 14t60 33zM372 294q38 32 83.5 49.5t76.5 17.5q18 0 28 -8t10 -18
q0 -33 -28 -59q-77 -77 -190 -99q-9 -34 -9 -61q0 -29 13 -42q13 -14 42 -14q57 0 152 95q0 -24 -2 -30q-50 -50 -121 -89t-123 -39q-40 0 -40 65q0 16 3 30q-44 -44 -100 -71.5t-92 -27.5q-49 0 -49 62q0 49 23.5 102.5t59.5 89.5q52 52 109.5 81.5t101.5 29.5q30 0 41 -16
t11 -48z" />
    <glyph glyph-name="Scaron" unicode="&#x160;" horiz-adv-x="433" 
d="M418 547q41 0 78 -13q-4 -15 -25.5 -32.5t-44.5 -25.5q-12 12 -40 21.5t-54 8.5q-62 -2 -97 -37q-12 -12 -20 -31t-8 -31q0 -9 1.5 -16.5t6.5 -15.5t8.5 -13.5t12.5 -13t13 -11.5t16 -11.5l16 -10t18.5 -10.5t17.5 -10q30 -17 47 -29.5t31.5 -33.5t14.5 -45
q0 -17 -11 -40.5t-27 -39.5q-56 -56 -130.5 -89t-142.5 -33q-85 0 -110 42q4 23 21.5 47.5t41.5 38.5q11 -37 42 -60.5t72 -23.5q30 0 64.5 13t55.5 34q30 30 30 65q0 33 -23 56.5t-67 49.5q-30 18 -41.5 25.5t-32 24.5t-28.5 34.5t-8 38.5q0 44 33 76q45 45 117 73t152 28z
M342 564q-42 57 -83 85q18 10 55 26q52 -46 60 -55q54 36 103 58q15 -2 27 -11q-125 -70 -162 -103z" />
    <glyph glyph-name="scaron" unicode="&#x161;" horiz-adv-x="344" 
d="M172 280q0 -17 13.5 -30.5t53.5 -34.5q43 -23 63 -41.5t20 -46.5q0 -26 -24 -50q-36 -36 -93.5 -59t-108.5 -23q-47 0 -73.5 19t-26.5 47q6 17 20 34t29 21q9 -42 34.5 -68t61.5 -26q44 0 71 26q24 23 24 46q0 33 -69 70q-45 24 -61 41.5t-16 39.5q0 20 19 39
q29 29 86 52t124 23q29 0 49 -9q0 -10 -15.5 -25.5t-27.5 -21.5q-29 25 -68 25q-49 0 -73 -24q-12 -12 -12 -24zM185 501q16 14 42 29q28 -35 46 -74q63 55 100 81q11 0 19 -8q-91 -70 -145 -142q-32 78 -62 114z" />
    <glyph glyph-name="Ydieresis" unicode="&#x178;" horiz-adv-x="538" 
d="M372 234q-8 -31 -30 -109.5t-28 -102.5q-14 -14 -48.5 -25t-59.5 -11q69 176 83 234q2 39 -48.5 137t-106.5 149q17 12 47.5 21.5t49.5 8.5q37 -39 75.5 -112.5t55.5 -147.5q47 64 116 142.5t110 114.5q60 0 80 -4q-72 -47 -154 -128.5t-142 -166.5zM490 629q31 0 31 -32
q0 -18 -15.5 -34.5t-37.5 -16.5q-30 0 -30 32q0 19 15.5 35t36.5 16zM348 629q31 0 31 -32q0 -18 -15.5 -34.5t-37.5 -16.5q-30 0 -30 32q0 19 15.5 35t36.5 16z" />
    <glyph glyph-name="Zcaron" unicode="&#x17d;" horiz-adv-x="520" 
d="M108 443q0 13 24.5 37t48.5 41q19 9 105 9q18 0 50 -0.5t47 -0.5q62 -2 81 -2q74 0 100 11q0 -19 -16 -39q-93 -104 -218 -226t-210 -195q0 1 28 0.5t29 -0.5q25 0 72 -1t70 -1q140 0 192 26q-3 -15 -29.5 -48.5t-45.5 -38.5q-46 -12 -118 -12q-36 0 -112.5 2.5
t-101.5 2.5q-68 0 -112 -11q2 22 21 38q133 111 247 233t164 198q-16 0 -70.5 1t-75.5 1q-114 0 -170 -25zM337 552q-42 57 -83 85q18 10 55 26q52 -45 60 -55q54 36 103 58q15 -2 27 -11q-125 -70 -162 -103z" />
    <glyph glyph-name="zcaron" unicode="&#x17e;" horiz-adv-x="385" 
d="M71 265q0 8 17 32.5t30 33.5q26 11 71 11q22 0 55 -2.5t49 -2.5q62 0 88 12q0 -16 -14 -32q-108 -120 -272 -248q19 2 74.5 -2t95.5 -4q65 0 106 23q0 -12 -17.5 -39t-33.5 -35q-29 -12 -80 -12q-29 0 -90 4t-81 4q-52 0 -82 -8q0 8 9 20.5t16 17.5q198 148 254 246
q-10 -1 -40.5 1.5t-54.5 2.5q-52 0 -100 -23zM168 496q16 14 42 29q28 -35 46 -74q63 55 100 81q11 0 19 -8q-91 -70 -145 -142q-32 78 -62 114z" />
    <glyph glyph-name="florin" unicode="&#x192;" horiz-adv-x="412" 
d="M112 294h85q44 148 119 215.5t167 67.5q67 0 67 -40q0 -15 -20 -28t-52 -13q0 57 -38 57q-48 0 -84.5 -61.5t-71.5 -197.5q59 0 96 4q0 -18 -15 -35q-27 -2 -91 -2q-29 -104 -59.5 -165.5t-85.5 -116.5q-94 -94 -205 -94q-38 0 -64.5 13t-26.5 37q0 21 23 39t41 18
q0 -30 20 -53t47 -23q59 0 98 39q25 25 48 75t36.5 93t40.5 138q-55 0 -93 -4q0 16 18 37z" />
    <glyph glyph-name="circumflex" unicode="&#x2c6;" 
d="M336 428q-19 -17 -40 -29q-10 5 -28.5 33t-27.5 52q-7 -7 -22.5 -23t-32.5 -32t-35 -32q-16 -2 -23 10q93 83 142 156q23 -76 67 -135z" />
    <glyph glyph-name="caron" unicode="&#x2c7;" 
d="M181 509q16 14 42 29q28 -35 46 -74q63 55 100 81q11 0 19 -8q-91 -70 -145 -142q-32 78 -62 114z" />
    <glyph glyph-name="uni02C9" unicode="&#x2c9;" 
d="M138 458q11 19 43 44q105 0 202 5q-20 -28 -41 -45q-100 0 -204 -4z" />
    <glyph glyph-name="breve" unicode="&#x2d8;" 
d="M263 395q-37 0 -61 29.5t-21 73.5q23 18 50 26q-2 -36 11.5 -56.5t40.5 -20.5q46 0 80 76q9 -6 13 -14q-37 -114 -113 -114z" />
    <glyph glyph-name="dotaccent" unicode="&#x2d9;" 
d="M259 527q36 0 36 -37q0 -21 -18.5 -40t-43.5 -19q-34 0 -34 37q0 21 18 40t42 19z" />
    <glyph glyph-name="ring" unicode="&#x2da;" 
d="M287 553q31 0 45 -16.5t14 -37.5q0 -45 -35.5 -74.5t-70.5 -29.5q-27 0 -45 16.5t-18 40.5q0 46 35.5 73.5t74.5 27.5zM299 481q0 23 -12 36.5t-29 14.5q-15 -1 -24 -19.5t-9 -39.5q0 -24 12 -38.5t32 -14.5q13 0 21.5 19.5t8.5 41.5z" />
    <glyph glyph-name="ogonek" unicode="&#x2db;" 
d="M239 -113q-53 -47 -74 -50q-48 3 -82.5 21t-34.5 42q0 22 35.5 60.5t89.5 69.5l20 4q-81 -68 -81 -108q0 -19 33 -29.5t94 -9.5z" />
    <glyph glyph-name="tilde" unicode="&#x2dc;" 
d="M139 442q45 85 82 85q20 0 52 -25t39 -25q26 0 46 52q11 -4 16 -14q-38 -84 -80 -84q-16 0 -48.5 25t-41.5 25q-22 0 -47 -49q-13 0 -18 10z" />
    <glyph glyph-name="hungarumlaut" unicode="&#x2dd;" 
d="M174 399q28 25 63.5 68.5t48.5 72.5q34 0 72 -7q-30 -34 -74.5 -77t-63.5 -54q-36 -6 -46 -3zM319 399q26 24 62 68t51 73q32 0 71 -7q-29 -32 -74 -75.5t-64 -55.5q-35 -6 -46 -3z" />
    <glyph glyph-name="uni03A9" unicode="&#x3a9;" horiz-adv-x="608" 
d="M573 111l-53 -111h-196l-1 16q1 1 34 36t46 51t39 50t41.5 65.5t24.5 63.5q31 113 0 166t-99 53q-72 0 -131.5 -54t-92.5 -169q-5 -18 -8 -35t-3 -34.5v-31t3.5 -32t5 -28t8 -28.5t8.5 -25t9 -25.5t8 -22.5l-11 -16h-195l12 111l20 1q2 -37 11.5 -48t35.5 -11h87
q-16 16 -27 28.5t-25.5 35.5t-21 45.5t-7 54.5t9.5 67q31 108 119 174.5t193 66.5q107 0 156 -63t18 -171q-14 -49 -52 -97t-72 -76.5t-84 -64.5h91q27 0 41 10t38 49z" />
    <glyph glyph-name="uni03BC" unicode="&#x3bc;" horiz-adv-x="474" 
d="M125 311q14 11 44.5 23.5t44.5 12.5q-38 -69 -70 -155q-20 -56 -20 -85q0 -35 22 -35q39 0 113 74q61 61 123 171q16 13 45 23.5t41 10.5q-32 -76 -52.5 -151t-20.5 -110q0 -10 6 -25q-5 -12 -40 -37t-58 -25q0 81 42 210q-180 -217 -243 -217q-18 0 -27 22
q-65 -201 -65 -266q-11 -12 -41.5 -26.5t-47.5 -14.5q36 183 104 368q50 136 100 232z" />
    <glyph glyph-name="pi" unicode="&#x3c0;" horiz-adv-x="462" 
d="M486 363l16 -8q-22 -46 -49 -71q-14 -3 -56 -3q-11 -27 -55 -177q-18 -68 17 -68q20 0 46 23l5 -17q-44 -51 -99 -51q-72 0 -43 97q23 84 64 194q-100 2 -129 2l-4 -14q-23 -78 -52.5 -141.5t-47.5 -90t-29 -34.5q-33 -12 -51 -13l-1 13q53 47 93.5 127.5t61.5 153.5
q-36 0 -59 -8.5t-56 -27.5l-6 17q27 25 39.5 35t46 24t71.5 14q177 -3 220 -3q19 0 30.5 5t26.5 22z" />
    <glyph glyph-name="endash" unicode="&#x2013;" horiz-adv-x="516" 
d="M113 215h163q121 0 206 5q0 -7 -19.5 -24t-35.5 -28q-33 -1 -161 -1q-161 0 -209 -3q0 7 16.5 21.5t39.5 29.5z" />
    <glyph glyph-name="emdash" unicode="&#x2014;" horiz-adv-x="856" 
d="M120 215h331q218 0 371 5q0 -8 -20.5 -26t-40.5 -26q-60 -1 -328 -1q-290 0 -376 -3q0 8 20 25.5t43 25.5z" />
    <glyph glyph-name="quoteleft" unicode="&#x2018;" horiz-adv-x="190" 
d="M212 379q-46 -27 -98 -27q22 56 62.5 114.5t80.5 88.5q12 6 41 6q-31 -36 -54.5 -88t-31.5 -94z" />
    <glyph glyph-name="quoteright" unicode="&#x2019;" horiz-adv-x="190" 
d="M190 535q29 18 48 24t49 5q-19 -55 -57 -114.5t-77 -91.5q-14 -7 -40 -7q30 38 51 91t26 93z" />
    <glyph glyph-name="quotesinglbase" unicode="&#x201a;" horiz-adv-x="190" 
d="M42 56q49 30 99 29q-19 -55 -57 -114.5t-77 -91.5q-14 -7 -40 -7q30 38 51 91.5t24 92.5z" />
    <glyph glyph-name="quotedblleft" unicode="&#x201c;" horiz-adv-x="333" 
d="M355 378q-46 -27 -98 -27q22 56 62.5 114.5t80.5 88.5q12 6 41 6q-31 -36 -54.5 -88t-31.5 -94zM212 378q-46 -27 -98 -27q22 56 62.5 114.5t80.5 88.5q12 6 41 6q-31 -36 -54.5 -88t-31.5 -94z" />
    <glyph glyph-name="quotedblright" unicode="&#x201d;" horiz-adv-x="333" 
d="M190 535q29 18 48 24t49 5q-19 -55 -57 -114.5t-77 -91.5q-14 -7 -40 -7q30 38 51 91t26 93zM333 535q29 18 48 24t49 5q-19 -55 -57 -114.5t-77 -91.5q-14 -7 -40 -7q30 38 51 91t26 93z" />
    <glyph glyph-name="quotedblbase" unicode="&#x201e;" horiz-adv-x="333" 
d="M185 56q49 30 99 29q-19 -55 -57 -114.5t-77 -91.5q-14 -7 -40 -7q30 38 51 91.5t24 92.5zM42 56q49 30 99 29q-19 -55 -57 -114.5t-77 -91.5q-14 -7 -40 -7q30 38 51 91.5t24 92.5z" />
    <glyph glyph-name="dagger" unicode="&#x2020;" horiz-adv-x="383" 
d="M278 329q-20 -58 -46.5 -142.5t-31.5 -99.5q-18 -54 -39.5 -91t-57.5 -68q-9 75 19 159q15 43 48 129.5t42 111.5q-16 0 -145 -3q13 24 46 44h22.5h44h46.5q14 39 24.5 72.5t19 61.5t12.5 41q19 6 87 18q-47 -107 -77 -193q68 0 144 4q-3 -7 -7.5 -13.5t-14 -15.5
t-12.5 -12q-54 -3 -124 -3z" />
    <glyph glyph-name="daggerdbl" unicode="&#x2021;" horiz-adv-x="383" 
d="M74 231h107q6 16 20.5 54.5t22.5 61.5q-13 0 -142 -3q13 24 46 44h22h41.5h45.5q27 73 50 156q31 11 88 18q-47 -108 -71 -174q65 0 141 4q-3 -7 -7.5 -13.5t-14 -15.5t-12.5 -12q-54 -3 -121 -3q-19 -52 -41 -117q111 2 142 4q-3 -9 -35 -43q-31 -2 -121 -4
q-5 -15 -15.5 -51.5t-15.5 -51.5q-32 -102 -96 -157q-10 78 18 159q3 8 39 101q-129 -3 -138 -3q5 10 20.5 24.5t26.5 21.5z" />
    <glyph glyph-name="bullet" unicode="&#x2022;" horiz-adv-x="389" 
d="M233 301q47 0 50 -45q2 -34 -21.5 -62t-59.5 -28q-19 0 -32 12.5t-14 33.5q-2 36 20 62.5t57 26.5z" />
    <glyph glyph-name="ellipsis" unicode="&#x2026;" horiz-adv-x="557" 
d="M84 81q30 0 30 -31q0 -24 -22 -44.5t-50 -20.5q-25 0 -25 24q0 27 21.5 49.5t45.5 22.5zM270 81q30 0 30 -31q0 -24 -22 -44.5t-50 -20.5q-25 0 -25 24q0 27 21.5 49.5t45.5 22.5zM456 81q30 0 30 -31q0 -24 -22 -44.5t-50 -20.5q-25 0 -25 24q0 27 21.5 49.5t45.5 22.5z
" />
    <glyph glyph-name="perthousand" unicode="&#x2030;" horiz-adv-x="879" 
d="M283 529q73 0 73 -69q0 -61 -61 -115t-118 -54q-30 0 -50 18t-20 57q0 63 54 113t122 50zM234 495q-32 0 -50.5 -27.5t-18.5 -61.5q0 -35 14.5 -55t40.5 -20q34 0 52 26.5t18 62.5q0 32 -14.5 53.5t-41.5 21.5zM513 238q73 0 73 -69q0 -61 -61 -115t-118 -54
q-30 0 -50 18t-20 57q0 63 54 113t122 50zM464 204q-32 0 -50.5 -27.5t-18.5 -61.5q0 -35 14.5 -55t40.5 -20q34 0 52 26.5t18 62.5q0 32 -14.5 53.5t-41.5 21.5zM779 238q73 0 73 -69q0 -61 -61 -115t-118 -54q-30 0 -50 18t-20 57q0 63 54 113t122 50zM730 204
q-32 0 -50.5 -27.5t-18.5 -61.5q0 -35 14.5 -55t40.5 -20q34 0 52 26.5t18 62.5q0 32 -14.5 53.5t-41.5 21.5zM550 524q25 9 78 9q-106 -105 -259.5 -272t-225.5 -254q-30 -10 -78 -10q104 107 255.5 270.5t229.5 256.5z" />
    <glyph glyph-name="guilsinglleft" unicode="&#x2039;" horiz-adv-x="345" 
d="M284 76l-65 -29q-64 93 -126 146q41 25 102 79t89 89l44 -19q-54 -41 -159 -136q65 -80 115 -130z" />
    <glyph glyph-name="guilsinglright" unicode="&#x203a;" horiz-adv-x="345" 
d="M128 326l65 29q64 -93 126 -146q-41 -25 -102 -79t-89 -89l-44 19q54 41 159 136q-65 80 -115 130z" />
    <glyph glyph-name="fraction" unicode="&#x2044;" horiz-adv-x="349" 
d="M414 526q25 9 78 9q-107 -106 -260.5 -272.5t-224.5 -252.5q-30 -10 -78 -10q102 104 254 268t231 258z" />
    <glyph glyph-name="Euro" unicode="&#x20ac;" horiz-adv-x="459" 
d="M244 283h-67q-8 -24 -16 -60l35 2q60 0 120 6q0 -15 -27 -38h-133q-4 -25 -4 -51q0 -54 23.5 -77.5t76.5 -23.5t90 14t81 54q0 -25 -8 -41q-116 -89 -262 -89q-38 0 -62.5 28.5t-24.5 82.5q0 50 11 100q-41 -1 -64 -5q1 8 10 21t16 18q6 0 21 -0.5t26 -0.5q9 30 23 58
q-39 -1 -61 -5q2 19 26 40q7 0 24 -0.5t29 -0.5q27 44 69 88q69 69 141 99t159 30q34 0 65 -11q-10 -41 -63 -67q-45 30 -101 30q-73 0 -134 -61q-48 -46 -74 -108q44 0 70 2q64 0 121 5q0 -16 -26 -38h-109z" />
    <glyph glyph-name="afii61289" unicode="&#x2113;" horiz-adv-x="333" 
d="M294 99l11 -14q-76 -88 -161 -88q-54 0 -73 30q-19 34 4 112l16 57l-60 -35l-4 19l72 44l27 97q28 94 47.5 134.5t53.5 69.5q42 36 82 36q36 0 47 -31t-2 -71q-18 -62 -64.5 -115t-120.5 -108l-19 -65q-20 -76 -10 -103t47 -27q49 0 107 58zM206 367l-27 -96
q103 89 131 187q10 32 6.5 55.5t-21.5 23.5q-23 0 -42.5 -38.5t-46.5 -131.5z" />
    <glyph glyph-name="trademark" unicode="&#x2122;" horiz-adv-x="511" 
d="M513 535q-9 -32 -18 -82t-10 -73q-14 -14 -46 -19q10 71 23 121q-54 -61 -76 -98q-11 -10 -40 -16q-3 14 -11.5 55.5t-11.5 57.5q-39 -73 -40 -106q-15 -11 -37 -13q3 8 33.5 76.5t35.5 83.5q14 7 43 11q4 -67 21 -119q62 71 83 108q23 8 51 13zM282 531q0 -3 -7.5 -10
t-14.5 -10q-4 -1 -11.5 -1.5t-17.5 -1.5t-16 -2q-40 -98 -47 -131q-23 -10 -52 -12q33 69 58 141q-47 0 -65 -3q0 3 11 12.5t20 13.5q101 0 142 4z" />
    <glyph glyph-name="Omega" unicode="&#x2126;" horiz-adv-x="608" 
d="M573 111l-53 -111h-196l-1 16q1 1 34 36t46 51t39 50t41.5 65.5t24.5 63.5q31 113 0 166t-99 53q-72 0 -131.5 -54t-92.5 -169q-5 -18 -8 -35t-3 -34.5v-31t3.5 -32t5 -28t8 -28.5t8.5 -25t9 -25.5t8 -22.5l-11 -16h-195l12 111l20 1q2 -37 11.5 -48t35.5 -11h87
q-16 16 -27 28.5t-25.5 35.5t-21 45.5t-7 54.5t9.5 67q31 108 119 174.5t193 66.5q107 0 156 -63t18 -171q-14 -49 -52 -97t-72 -76.5t-84 -64.5h91q27 0 41 10t38 49z" />
    <glyph glyph-name="estimated" unicode="&#x212e;" horiz-adv-x="760" 
d="M735 256h-482q-4 0 -4 -3v-146q0 -10 6 -16q77 -80 183 -80q115 0 192 89h43q-41 -48 -103 -75.5t-133 -27.5q-123 0 -210.5 78t-87.5 189t87.5 189.5t210.5 78.5q124 0 211 -78.5t87 -189.5v-8zM626 276v146q0 9 -7 18q-78 76 -181 76q-105 0 -182 -79q-7 -6 -7 -18
v-143q0 -5 4 -5h370q3 0 3 5z" />
    <glyph glyph-name="partialdiff" unicode="&#x2202;" horiz-adv-x="434" 
d="M271 335h1q31 0 58 -14.5t38 -42.5q22 54 29 80q21 68 13 120q-5 29 -27.5 51t-56.5 22q-56 0 -128 -47q-10 -1 -15 17.5t4 32.5q62 32 126 32q109 0 138 -107q20 -67 -9 -174q-35 -116 -95 -192q-92 -116 -201 -116q-68 0 -96.5 42.5t-9.5 112.5q23 75 85 127
q68 56 146 56zM281 303h-1q-55 0 -102 -44q-50 -50 -75 -136q-12 -44 1 -72.5t50 -28.5q57 0 117 78q40 51 82 146q-4 19 -23.5 38t-48.5 19z" />
    <glyph glyph-name="Delta" unicode="&#x2206;" horiz-adv-x="520" 
d="M453 0h-462l6 19l353 497l35 9l73 -506zM375 37l-53 396l-277 -396h330z" />
    <glyph glyph-name="product" unicode="&#x220f;" horiz-adv-x="670" 
d="M648 521v-20q-51 -4 -62 -12t-11 -41v-431q0 -37 11.5 -47t60.5 -13v-21h-211v21q49 3 59 11.5t10 48.5v453q0 16 -5 20.5t-23 4.5h-173q-17 0 -21.5 -4t-4.5 -18v-456q0 -38 8.5 -47t53.5 -13v-21h-204v21q49 4 60 13.5t11 46.5v431q0 33 -11 41t-63 12v20h515z" />
    <glyph glyph-name="summation" unicode="&#x2211;" horiz-adv-x="563" 
d="M545 82l-35 -149h-377v20l181 259l-176 289v20h371q4 -52 10 -127l-21 -5q-10 54 -28 83q-9 14 -24.5 19t-58.5 5h-160l149 -241l-180 -263h214q54 0 71 14t42 82z" />
    <glyph glyph-name="minus" unicode="&#x2212;" horiz-adv-x="478" 
d="M94 273h171q137 0 208 5q1 -8 -16.5 -25.5t-31.5 -27.5h-168q-163 0 -211 -3q0 7 14 22.5t34 28.5z" />
    <glyph glyph-name="uni2215" unicode="&#x2215;" horiz-adv-x="349" 
d="M414 526q25 9 78 9q-107 -106 -260.5 -272.5t-224.5 -252.5q-30 -10 -78 -10q102 104 254 268t231 258z" />
    <glyph glyph-name="uni2219" unicode="&#x2219;" horiz-adv-x="255" 
d="M175 326q35 0 35 -37q0 -28 -18 -51.5t-45 -23.5q-15 0 -24 10t-9 28q0 30 17.5 52t43.5 22z" />
    <glyph glyph-name="radical" unicode="&#x221a;" horiz-adv-x="557" 
d="M545 666l-134 -774l-17 -10l-176 415l-69 -34l-10 25l126 61l137 -335h2l110 660z" />
    <glyph glyph-name="infinity" unicode="&#x221e;" horiz-adv-x="654" 
d="M617 214q0 -56 -35.5 -91t-83.5 -35q-35 0 -67.5 21t-73.5 69q-37 -44 -69 -67t-75 -23q-47 0 -82 35.5t-35 87.5q0 54 35 89.5t88 35.5q67 0 142 -90q21 24 30 33t29 26.5t40 24t43 6.5q50 -1 82 -34.5t32 -87.5zM219 130h1q8 0 15.5 1.5t15 5t13 6.5t13.5 9.5t12.5 10
t12.5 11.5t11 11.5t11 12.5t10 11q-23 29 -35 42.5t-35.5 28t-48.5 14.5q-34 0 -54 -24t-20 -60q0 -34 22 -57t56 -23zM498 294h-1q-14 0 -27.5 -5t-27.5 -16.5t-21 -18t-22 -23.5t-16 -18q40 -46 64.5 -64.5t52.5 -18.5q33 0 53 25t20 56q0 38 -21 60.5t-54 22.5z" />
    <glyph glyph-name="integral" unicode="&#x222b;" horiz-adv-x="412" 
d="M243 11l-16 307q-15 319 120 319q17 0 32.5 -9.5t15.5 -26.5q0 -16 -10 -25t-24 -9q-13 0 -23.5 18.5t-18.5 18.5q-38 0 -32 -128l14 -291q17 -337 -120 -337q-21 0 -35 11t-14 26q-1 15 11.5 25.5t28.5 10.5q12 0 21.5 -20t17.5 -20q18 0 26.5 36t5.5 94z" />
    <glyph glyph-name="approxequal" unicode="&#x2248;" horiz-adv-x="495" 
d="M434 329l28 -27q-42 -73 -104 -73q-34 0 -91 31q-42 25 -71 25q-40 0 -78 -55l-29 26q40 73 112 73q33 0 85 -30q4 -2 13.5 -7t12.5 -6.5t10.5 -5t12 -4.5t11 -2t13.5 -1q40 0 75 56zM434 194l28 -27q-42 -73 -104 -73q-32 0 -91 31q-46 26 -71 26q-39 0 -78 -57l-29 27
q18 33 48 53t63 20q11 0 21 -1.5t20.5 -5.5t15.5 -6.5t16 -8.5t13 -7q48 -27 73 -27q39 0 75 56z" />
    <glyph glyph-name="notequal" unicode="&#x2260;" horiz-adv-x="516" 
d="M392 381l-33 -72h118v-45h-137l-50 -108h187v-45h-206l-41 -90l-36 16l34 74h-113v45h132l50 108h-182v45h200l41 88z" />
    <glyph glyph-name="lessequal" unicode="&#x2264;" horiz-adv-x="533" 
d="M493 73l-356 171v47l356 170v-52l-308 -141v-1l308 -142v-52zM495 -1h-362v44h362v-44z" />
    <glyph glyph-name="greaterequal" unicode="&#x2265;" horiz-adv-x="534" 
d="M138 461l356 -170v-48l-356 -170v52l308 141v2l-308 141v52zM494 -1h-360v44h360v-44z" />
    <glyph glyph-name="lozenge" unicode="&#x25ca;" horiz-adv-x="565" 
d="M528 249l-162 -305h-52l-161 305l162 308h51zM477 249l-135 259h-2l-136 -258l136 -259h2z" />
    </font>
</defs>
</svg>
