<?xml version="1.0" standalone="no"?>
<!DOCTYPE svg PUBLIC "-//W3C//DTD SVG 1.1//EN" "http://www.w3.org/Graphics/SVG/1.1/DTD/svg11.dtd" >
<svg xmlns="http://www.w3.org/2000/svg" xmlns:xlink="http://www.w3.org/1999/xlink" version="1.1">
<metadata>
Created by FontForge 20170924 at Tue Sep 19 19:20:04 2006
 By www-data
Copyright (c) 2006 by Angel Koziupa and Alejandro Paul. All rights reserved.
</metadata>
<defs>
<font id="Cafelatte" horiz-adv-x="441" >
  <font-face 
    font-family="Cafelatte"
    font-weight="400"
    font-stretch="normal"
    units-per-em="1000"
    panose-1="2 0 5 6 0 0 0 2 0 4"
    ascent="800"
    descent="-200"
    x-height="481"
    cap-height="744"
    bbox="-325 -385 1324 961"
    underline-thickness="50"
    underline-position="-150"
    unicode-range="U+0020-FB02"
  />
<missing-glyph horiz-adv-x="200" 
 />
    <glyph glyph-name=".notdef" horiz-adv-x="200" 
 />
    <glyph glyph-name=".null" horiz-adv-x="0" 
 />
    <glyph glyph-name="nonmarkingreturn" horiz-adv-x="333" 
 />
    <glyph glyph-name="space" unicode=" " horiz-adv-x="200" 
 />
    <glyph glyph-name="exclam" unicode="!" horiz-adv-x="248" 
d="M272 572q39 91 58 115q32 39 107 48q10 1 21 2q26 2 34 2q45 0 45 -14q0 -22 -128 -178q-25 -32 -74 -104t-85 -129l-37 -56q-2 -3 -5.5 -7.5t-22 -12t-44.5 -7.5q-35 0 -35 11q0 4 3 11q99 168 163 319zM152 99q-33 -103 -121 -103q-59 0 -59 43q0 9 3 21
q14 43 46.5 69.5t78.5 26.5q54 0 54 -41q0 -4 -2 -16z" />
    <glyph glyph-name="quotedbl" unicode="&#x22;" horiz-adv-x="389" 
d="M607 720q-24 -54 -54 -94.5t-56.5 -60t-50 -31.5t-36.5 -14l-14 -3q-10 0 -10 9q0 33 66 99q4 5 6.5 12t3.5 11v5q0 20 4 38t8 26l4 8q6 9 20.5 12t52.5 3l44 -1q14 0 14 -10q0 -5 -2 -9zM404 720q-24 -54 -54 -94.5t-56.5 -60t-50 -31.5t-37.5 -14l-13 -3q-10 0 -10 9
q0 33 66 99q4 5 6.5 12t2.5 11l1 5q0 20 4 38t8 26l4 8q6 9 20.5 12t52.5 3l44 -1q14 0 14 -10q0 -5 -2 -9z" />
    <glyph glyph-name="numbersign" unicode="#" horiz-adv-x="664" 
d="M688 616q10 -2 10 -11l-6 -16l-49 -89h79q18 0 18 -11q0 -21 -34 -64q-13 -17 -40 -17h-74l-54 -99h83q18 0 18 -11q0 -21 -34 -64q-13 -17 -40 -17h-78l-48 -88q-5 -10 -14 -15.5t-15 -6.5l-7 -1q-12 -1 -35 -1q-32 0 -32 15q0 8 3 14l45 83h-124l-48 -88
q-5 -10 -14 -15.5t-16 -6.5l-6 -1q-12 -1 -35 -1q-32 0 -32 15q0 8 3 14l45 83h-81q-18 0 -18 13l2 8q14 34 29 52.5t41 18.5h78l54 99h-85q-18 0 -18 13l2 8q14 34 29 52.5t41 18.5h82l53 96q12 23 61 23q21 0 34 -3q10 -2 10 -11l-6 -16l-49 -89h124l53 96q12 23 61 23
q21 0 34 -3zM365 408l-54 -99h124l54 99h-124z" />
    <glyph glyph-name="dollar" unicode="$" horiz-adv-x="537" 
d="M520 749q18 39 34 62q7 10 19 13q16 4 38 4q23 0 23 -11l-34 -67q67 -4 104 -23q6 -3 6 -11q0 -2 -2 -8q-19 -59 -46.5 -107.5t-45.5 -66.5l-19 -19q-13 -12 -22 -12q-17 0 -25 27t-8 48q0 16 2 34t4 28l3 10q2 8 2 9q0 4 -2.5 7t-4.5 4l-2 1q-15 3 -27 3
q-49 0 -85.5 -36t-36.5 -83q0 -41 63 -100q1 -1 14 -13t20.5 -20t20.5 -25t20.5 -31.5t13.5 -36t6 -42.5q0 -93 -59 -166t-142 -109t-173 -40l-26 -50q-4 -8 -10 -13t-10 -6l-4 -1q-27 -5 -38 -5q-25 0 -25 13l2 6q20 30 36 59q-43 6 -91 23t-48 40l1 8q15 57 51 116.5
t65 91.5l28 31q16 15 29 15t13 -40q0 -65 -20 -151l-1 -3q0 -34 19 -46l149 280q-30 27 -44 41.5t-29 44.5t-15 63q0 94 82.5 170.5t226.5 89.5zM376 216q0 39 -25 72l-128 -236q58 0 105.5 53.5t47.5 110.5z" />
    <glyph glyph-name="percent" unicode="%" horiz-adv-x="815" 
d="M428 731q3 0 9 -0.5t20.5 -5t26 -12.5t20.5 -27t9 -44q0 -40 -19 -93t-52 -104t-85 -86t-110 -35q-51 0 -75 26.5t-24 70.5q0 92 76 194q88 116 204 116zM427 661q0 21 -24 21q-45 0 -105.5 -110.5t-60.5 -169.5q0 -29 27 -29q43 0 103 119t60 169zM157 -17q-44 0 -44 16
l6 12q636 660 672 706q16 22 63 22q16 0 35 -3q9 -2 9 -8q0 -4 -5 -11q-16 -20 -184 -196.5t-328 -342.5l-160 -167q-17 -28 -64 -28zM773 398q3 0 9 -0.5t20.5 -5t26 -12.5t20.5 -27t9 -44q0 -40 -19 -93t-52 -104t-85 -86t-110 -35q-51 0 -75 26.5t-24 70.5q0 92 76 194
q88 116 204 116zM772 328q0 21 -24 21q-45 0 -105.5 -110.5t-60.5 -169.5q0 -29 27 -29q43 0 103 119t60 169z" />
    <glyph glyph-name="ampersand" unicode="&#x26;" horiz-adv-x="579" 
d="M623 509q-15 0 -21 20t-6 39q0 20 4 43t8 37l5 13q-1 11 -19 11q-26 0 -46 -13t-29.5 -31t-15.5 -36.5t-7 -31.5l-1 -13q-3 -38 -3 -83q0 -65 6 -145.5t12 -128.5l6 -49l12 -38l46 -95q2 -6 2 -7q0 -17 -49.5 -27.5t-78.5 -10.5q-37 0 -49 11.5t-19 53.5q0 7 -6 7l-7 -2
q-33 -19 -74.5 -31t-61.5 -14t-30 -2q-76 0 -120.5 41.5t-44.5 109.5q0 58 30 113.5t71 93t87 68t75 44.5t39 17q9 3 9 13q-1 9 -1 23q0 62 29.5 109.5t77.5 74.5t102.5 40.5t110.5 13.5q48 0 97 -10q9 -2 9 -12q0 -4 -1 -6q-20 -59 -54 -110.5t-59.5 -75.5t-34.5 -24z
M300 93q15 0 31 2.5t24 5.5l8 3q9 4 9 9q-2 22 -9 83.5t-10.5 107t-3.5 85.5q0 7 -8 7q-4 0 -18 -7t-35 -23.5t-40.5 -38t-33.5 -55t-14 -71.5q0 -48 27.5 -78t72.5 -30z" />
    <glyph glyph-name="quotesingle" unicode="'" horiz-adv-x="186" 
d="M404 720q-24 -54 -54 -94.5t-56.5 -60t-50 -31.5t-37.5 -14l-13 -3q-10 0 -10 9q0 33 66 99q4 5 6.5 12t2.5 11l1 5q0 20 4 38t8 26l4 8q6 9 20.5 12t52.5 3l44 -1q14 0 14 -10q0 -5 -2 -9z" />
    <glyph glyph-name="parenleft" unicode="(" horiz-adv-x="307" 
d="M536 713q-45 -30 -88 -73t-71.5 -83t-51 -75t-33.5 -56l-10 -22q-93 -186 -93 -357q0 -7 8.5 -52.5t8.5 -70.5q0 -22 -15 -22q-38 0 -81 62.5t-43 153.5q0 61 17 131.5t34 110.5l18 40q3 8 9.5 22.5t30 56t51 80t73 87t95.5 85.5t119.5 66t143.5 37q15 0 15 -11
q0 -6 -5.5 -14.5t-16.5 -18t-21.5 -17.5t-27 -18.5t-25.5 -16.5t-24 -15t-17 -10z" />
    <glyph glyph-name="parenright" unicode=")" horiz-adv-x="367" 
d="M10 23q45 30 88 73t71.5 83t51 75t33.5 56l10 22q93 186 93 357q0 7 -8.5 52.5t-8.5 70.5q0 22 15 22q38 0 81 -62.5t43 -153.5q0 -61 -17.5 -131.5t-34.5 -110.5l-17 -40q-3 -8 -9.5 -22.5t-30 -56t-51 -80t-73 -87t-95.5 -85.5t-119.5 -66t-143.5 -37q-15 0 -15 11
q0 6 5.5 14.5t16.5 18t21.5 17.5t27 18.5t25.5 16.5t24 15t17 10z" />
    <glyph glyph-name="asterisk" unicode="*" horiz-adv-x="390" 
d="M354 724q13 19 34 28q6 3 13 3t11 -5q16 -16 39 -52q3 -6 7 -6q2 0 5 5q29 48 32 63q3 10 15 13q15 5 32 5q19 0 19 -6q0 -5 -17 -36t-25 -40q0 -8 6 -8q8 0 78 32q3 1 6 1q9 0 13.5 -11.5t4.5 -21.5q0 -22 -15 -24q-49 -11 -86 -24q-7 -4 -7 -9q0 -1 1 -3q30 -41 49 -57
q4 -2 4 -7q0 -10 -20 -23t-32 -13q-7 -1 -13 12q-29 50 -36 59q-3 4 -6 4q-4 0 -7 -7q-25 -60 -30 -75q-8 -18 -47 -18q-25 0 -25 10q0 6 5 12q35 51 47 75q0 7 -6 7q-9 -2 -38 -11.5t-39 -14.5q-6 -3 -11 -3t-8 5q-7 14 -7 31q0 24 16 25l14 3q15 3 33 6.5t33 4.5q8 2 8 7
q0 7 -21 25.5t-30 23.5q-2 2 -2 6q0 6 3 9z" />
    <glyph glyph-name="plus" unicode="+" horiz-adv-x="578" 
d="M581 334q-13 -17 -40 -17h-159l-82 -153q-14 -25 -63 -25q-23 0 -31.5 3t-8.5 13q0 8 3 14l79 148h-161q-18 0 -18 13l2 8q14 34 29 52.5t41 18.5h157l80 148q8 15 21 19t36 4q48 0 48 -14l-6 -16l-76 -141h165q18 0 18 -11q0 -21 -34 -64z" />
    <glyph glyph-name="comma" unicode="," horiz-adv-x="279" 
d="M193 104q0 -54 -73 -130t-110 -76q-9 0 -9 10q3 18 15 37t22 29l10 10q4 4 4 7q0 6 -7 6q-35 2 -35 33q0 5 2 15q3 12 8.5 24.5t9.5 18.5l4 6q32 54 100 54l26 -2q14 -2 23.5 -13t9.5 -29z" />
    <glyph glyph-name="hyphen" unicode="-" horiz-adv-x="423" 
d="M423 202q-10 -17 -30 -17h-312q-14 0 -14 13l2 8q10 34 21.5 52.5t30.5 18.5h314q13 0 13 -11q0 -20 -25 -64z" />
    <glyph glyph-name="period" unicode="." horiz-adv-x="253" 
d="M179 90q-33 -103 -121 -103q-59 0 -59 43q0 9 3 21q14 43 46.5 69.5t78.5 26.5q54 0 54 -41q0 -4 -2 -16z" />
    <glyph glyph-name="slash" unicode="/" horiz-adv-x="522" 
d="M-33 -71q-48 0 -48 16l6 12q755 786 792 831q14 23 64 23q41 0 41 -11l-3 -12q-16 -20 -214 -228t-388 -406l-190 -197q-14 -28 -60 -28z" />
    <glyph glyph-name="zero" unicode="0" horiz-adv-x="580" 
d="M187 -17q-80 0 -118.5 45.5t-38.5 119.5q0 63 25 140.5t71.5 153.5t106 139t136 102.5t153.5 39.5q75 0 118.5 -39.5t43.5 -113.5q0 -27 -11.5 -77t-34.5 -117.5t-64 -135.5t-93 -126t-129 -94.5t-165 -36.5zM556 599q0 49 -56 49q-52 0 -114.5 -69.5t-109 -161.5
t-78.5 -179t-32 -124q0 -56 54 -56q10 0 21.5 3.5t34 19t46 41.5t57.5 75.5t69 116.5q12 22 30 57t48 111.5t30 116.5z" />
    <glyph glyph-name="one" unicode="1" horiz-adv-x="307" 
d="M282 561q-39 -15 -98 -15q-26 0 -26 12q0 10 22 29q49 45 136 88.5t175 43.5q11 0 31 -2q7 -2 7 -13q0 -31 -68 -111q-19 -26 -31 -49q-83 -141 -149 -271q-104 -196 -140 -256q-4 -17 -30 -24q-40 -9 -82 -9q-46 0 -46 12q0 7 9 19q208 347 299 533q3 6 3 10q0 5 -4 5
q-2 0 -8 -2z" />
    <glyph glyph-name="two" unicode="2" horiz-adv-x="550" 
d="M698 603q0 -50 -22 -92t-64 -75.5t-79.5 -56t-92.5 -51.5t-80 -44q-161 -99 -161 -137l5 -10q48 -6 82 -6q36 0 63 5.5t35 10.5l9 5q28 29 78 64.5t75 35.5q11 0 11 -12l-1 -5q-13 -46 -41.5 -101t-50.5 -86l-23 -32q-11 -19 -31 -19q-6 0 -34 0.5t-60 0.5l-142 -1
l-184 -3q-19 2 -19 14l2 7q18 62 58 116.5t95.5 98t110.5 79.5t120 78.5t105 77.5q82 72 82 131q0 40 -50 40q-17 0 -28.5 -3t-15.5 -7l-3 -3q-41 -40 -97.5 -81.5t-88.5 -41.5q-13 0 -13 11q0 27 48 105.5t84 88.5q50 14 117 14q201 0 201 -116z" />
    <glyph glyph-name="three" unicode="3" horiz-adv-x="508" 
d="M142 -17q-46 0 -84.5 8t-53.5 17l-16 8q-12 8 -12 23l3 14q16 48 45 96.5t50 72.5l21 24q16 19 27 19t16 -24t5 -42q0 -22 -3.5 -48.5t-7.5 -42.5l-4 -15q-1 -3 -1 -7q0 -23 54 -23q63 0 121 74.5t58 141.5q0 41 -27 56.5t-60 15.5q-8 0 -16.5 -1t-9.5 -1q-11 0 -11 9
l3 12q27 60 50 60l4 -1q45 1 82 15.5t58.5 33.5t37 38.5t21.5 32.5l5 13q8 21 8 39q0 43 -50 43q-16 0 -29 -4t-18 -8l-4 -3q-32 -30 -51.5 -47t-52 -37t-54.5 -20q-12 0 -12 11q0 57 82 150q12 12 31 17q56 16 135 16q34 0 64 -5.5t58.5 -17.5t45 -35.5t16.5 -55.5
q0 -35 -15 -67t-39 -55t-55.5 -42t-63 -30.5t-63.5 -17.5q-10 -4 -10 -9q0 -3 7 -6q3 -1 9 -2.5t20.5 -10t25.5 -20t20 -32.5t9 -47q0 -51 -24.5 -100.5t-69.5 -90.5t-117 -66.5t-158 -25.5z" />
    <glyph glyph-name="four" unicode="4" horiz-adv-x="513" 
d="M253 466q63 59 152 130t142 104q26 15 106 15l62 -2q15 -1 15 -8l-1 -5q-7 -16 -26 -45t-34 -50l-15 -21q-21 -28 -57 -90.5t-61 -111.5l-26 -49q-2 -4 -2 -6t1.5 -3.5t2.5 -1.5l2 -1l52 1q10 0 10 -7l-2 -7q-24 -51 -56.5 -81.5t-53.5 -35.5l-20 -5q-6 0 -11 -3t-7 -5
l-3 -3q-19 -31 -39.5 -70.5t-31.5 -62.5l-12 -24q-14 -33 -110 -33l-39 2q-13 0 -13 10l3 11q90 135 90 159q0 4 -3.5 6.5t-6.5 2.5h-3q-9 1 -31 1q-23 0 -63 -2.5t-58 -2.5q-84 0 -84 31q0 48 231 263zM268 306q46 0 69 5q6 1 11.5 4.5t7.5 6.5l2 2q17 32 50 87t57 94
l24 39q4 5 4 10q0 4 -5 4q-6 0 -13 -5q-65 -46 -126 -104t-89 -93l-29 -35q-2 -4 -2 -7q0 -8 39 -8z" />
    <glyph glyph-name="five" unicode="5" horiz-adv-x="483" 
d="M681 701q-42 -96 -94 -116q-22 -8 -77 -8q-20 0 -53.5 2.5t-49.5 2.5q-45 0 -53 -12q-25 -37 -36 -63q-1 -2 -1 -5q0 -10 11 -10h4q5 1 12.5 1.5t15.5 0.5q25 0 49 -5t52.5 -18t46 -43.5t17.5 -74.5q0 -97 -56 -182.5t-143 -133.5t-178 -48q-40 0 -79.5 8.5t-58.5 16.5
l-19 9q-11 8 -11 27q0 28 62 124t86 96q13 0 19 -29t6 -50q0 -23 -3.5 -48.5t-7.5 -40.5l-3 -14q0 -1 -1 -3v-2q0 -17 36 -17q72 0 126.5 76t54.5 150q0 33 -9.5 55t-27 32t-33.5 13t-38 3q-16 0 -32 -2t-25 -4l-8 -2q-10 -3 -15 -3q-10 0 -10 7l2 8q129 238 168 293
q3 9 20 13q17 3 39 3q10 0 58 -1.5t94 -1.5q18 0 55.5 6.5t63.5 6.5t26 -10q0 -1 -2 -7z" />
    <glyph glyph-name="six" unicode="6" horiz-adv-x="521" 
d="M93 306q35 84 81.5 156t107.5 133t138.5 95.5t162.5 34.5q100 0 143 -25q9 -5 9 -16q0 -8 -3 -15q-9 -23 -26 -57.5t-45 -75t-47 -40.5q-15 0 -21 25.5t-6 46.5q0 28 8 59q1 1 1 4q0 18 -41 19q-13 0 -29.5 -4.5t-47.5 -20t-67 -56.5t-68 -103q-4 -7 -4 -11t5 -4t10 2
q39 11 83 11q59 0 95.5 -29t36.5 -81q0 -144 -107.5 -257.5t-248.5 -113.5q-77 0 -122 36t-45 108q0 38 12 83t24 70zM421 341q0 20 -8.5 31t-17.5 12l-9 1q-24 0 -48.5 -12t-41.5 -29.5t-30.5 -35t-20.5 -29.5l-7 -12q-51 -95 -51 -154q0 -21 11 -34t31 -13q48 0 95 59
t72 122.5t25 93.5z" />
    <glyph glyph-name="seven" unicode="7" horiz-adv-x="336" 
d="M131 18q-13 -29 -155 -29q-14 0 -14 10l2 8q25 68 98 162t134 154l60 60q64 59 110 106.5t60 65.5l14 18l2 4q0 14 -87 14q-29 0 -47 -3.5t-22 -7.5l-4 -4q-25 -24 -64 -48.5t-60 -24.5q-7 0 -7 7l2 8q16 44 41.5 87.5t43.5 65.5l17 22q7 10 62 10q90 0 152 -1
q118 0 161 3q11 0 11 -8q0 -45 -110 -151q-16 -13 -41.5 -35.5t-83 -82t-90.5 -106.5q-13 -17 -34.5 -45.5t-71 -109t-79.5 -149.5z" />
    <glyph glyph-name="eight" unicode="8" horiz-adv-x="538" 
d="M226 -9q-205 0 -205 141q0 49 23.5 93.5t53.5 72t71.5 52t61.5 33t40 15.5q10 4 10 10l-4 7q-33 47 -33 100q0 87 84 143.5t202 56.5q171 0 171 -104q0 -72 -62 -126t-143 -87q-11 -4 -11 -11q0 -3 3 -7q58 -73 58 -145q-1 -99 -94 -171.5t-226 -72.5zM176 143
q2 -33 22.5 -53.5t50.5 -20.5q51 0 90 41t39 90q0 29 -12 60t-24 48l-11 17q-5 7 -13 7l-9 -2q-49 -25 -91 -81.5t-42 -105.5zM562 597q-5 48 -56 48q-43 0 -75.5 -28.5t-32.5 -68.5q0 -20 8 -40t16 -30l8 -11q3 -7 12 -7q5 0 13 4q44 22 75.5 57.5t31.5 75.5z" />
    <glyph glyph-name="nine" unicode="9" horiz-adv-x="525" 
d="M617 403q-3 -8 -8.5 -21t-24.5 -52.5t-41 -75.5t-58 -82t-75 -80q-121 -108 -296 -108q-87 0 -130 26q-9 6 -9 15q0 7 3 15q6 14 16 36.5t39 69t54 67.5q8 8 17 8q13 0 19 -20q3 -15 3 -39q0 -41 -10 -80q-1 -2 -1 -5q0 -17 40 -18q5 0 14 1.5t35.5 12t52 29.5t58.5 59
t60 95q4 6 4 10t-5 4t-10 -2q-38 -13 -83 -13q-58 0 -96.5 33t-38.5 87q0 139 107 245t246 106q78 0 119 -38t41 -109q0 -38 -10.5 -82t-20.5 -69zM299 386q1 -50 50 -50q43 0 85.5 50.5t66 110.5t23.5 98q0 23 -11.5 36t-32.5 13q-47 0 -91 -55t-67 -114t-23 -89z" />
    <glyph glyph-name="colon" unicode=":" horiz-adv-x="284" 
d="M362 419q-33 -103 -121 -103q-59 0 -59 43q0 9 3 21q14 43 46.5 69.5t78.5 26.5q54 0 54 -41q0 -4 -2 -16zM179 90q-33 -103 -121 -103q-59 0 -59 43q0 9 3 21q14 43 46.5 69.5t78.5 26.5q54 0 54 -41q0 -4 -2 -16z" />
    <glyph glyph-name="semicolon" unicode=";" horiz-adv-x="295" 
d="M193 104q0 -54 -73 -130t-110 -76q-9 0 -9 10q3 18 15 37t22 29l10 10q4 4 4 7q0 6 -7 6q-35 2 -35 33q0 5 2 15q3 12 8.5 24.5t9.5 18.5l4 6q32 54 100 54l26 -2q14 -2 23.5 -13t9.5 -29zM368 419q-33 -103 -121 -103q-59 0 -59 43q0 9 3 21q14 43 46.5 69.5t78.5 26.5
q54 0 54 -41q0 -4 -2 -16z" />
    <glyph glyph-name="less" unicode="&#x3c;" horiz-adv-x="401" 
d="M298 120q-25 -3 -42 -3q-23 0 -36.5 3.5t-15.5 7.5l-3 4q-32 43 -60.5 91t-40.5 75l-13 27q-3 5 -3 12q0 17 19 32q202 135 284 177q13 15 84 15q23 0 58 -3q8 -2 8 -8q0 -5 -11 -13q-226 -130 -306 -191q-12 -8 -12 -19q0 -4 1 -6q31 -60 108 -178q4 -8 4 -9
q0 -11 -23 -14z" />
    <glyph glyph-name="equal" unicode="=" horiz-adv-x="660" 
d="M664 430q-13 -17 -40 -17h-404q-18 0 -18 13l2 8q14 34 29 52.5t41 18.5h406q18 0 18 -11q0 -21 -34 -64zM558 231q-13 -17 -40 -17h-404q-18 0 -18 13l2 8q14 34 29 52.5t41 18.5h406q18 0 18 -11q0 -21 -34 -64z" />
    <glyph glyph-name="greater" unicode="&#x3e;" horiz-adv-x="427" 
d="M218 558q25 3 42 3q23 0 36.5 -3.5t15.5 -7.5l3 -4q32 -43 60.5 -91.5t40.5 -74.5l13 -27q3 -5 3 -12q0 -17 -19 -32q-202 -135 -284 -178q-20 -14 -80 -14q-26 0 -62 3q-9 2 -9 8q0 5 11 13q227 129 307 190q12 8 12 20q0 4 -1 6q-31 59 -108 177q-4 8 -4 10q0 11 23 14
z" />
    <glyph glyph-name="question" unicode="?" horiz-adv-x="494" 
d="M171 97q-33 -103 -121 -103q-59 0 -59 43q0 9 3 21q14 43 46.5 69.5t78.5 26.5q54 0 54 -41q0 -4 -2 -16zM296 321q-22 -3 -37.5 -9.5t-20.5 -11.5l-4 -6q-20 -24 -57.5 -50.5t-54.5 -26.5q-12 0 -12 23q0 24 12.5 53t25.5 47l12 17q19 19 38 19q82 10 143.5 36.5
t92.5 56.5t50 64t23 52.5t4 29.5q0 49 -51 49q-14 0 -26.5 -5t-17.5 -10l-5 -5q-30 -49 -88 -95t-96 -46q-13 0 -13 15q0 37 32 93.5t68 97.5q13 14 42 20q49 11 108 11q39 0 73 -7t63.5 -23t46.5 -45t17 -69q0 -78 -51.5 -142.5t-129.5 -92.5q-69 -25 -187 -40z" />
    <glyph glyph-name="at" unicode="@" horiz-adv-x="959" 
d="M513 133l62 112q1 2 1 5q0 6 -13 6q-48 0 -95.5 -50.5t-47.5 -99.5q0 -28 27 -28q6 0 14.5 2.5t24 16t27.5 36.5zM992 362q0 -68 -27 -147t-75.5 -152.5t-127.5 -122.5t-172 -49q-65 0 -89 30t-24 67l3 26q1 3 1 6q0 4 -3 4l-11 -5q-48 -34 -109 -34q-86 0 -86 88
q0 80 51.5 139t125.5 85.5t156 26.5q11 0 16 13.5t5 27.5q-8 25 -52 25q-18 0 -40.5 -4t-35.5 -8l-13 -5q-10 -4 -18 -4q-15 0 -15 15q0 2 1.5 6t8 15.5t16.5 21.5t30 21t46 18q36 9 79 9q53 0 91 -22.5t38 -71.5q0 -57 -43 -122q-14 -23 -34.5 -58t-54.5 -106.5t-34 -99.5
q0 -15 10.5 -24.5t26.5 -9.5q50 0 109 57.5t101.5 148.5t42.5 177q0 101 -67.5 153.5t-174.5 52.5q-114 0 -225.5 -65.5t-183.5 -177t-72 -233.5q0 -154 143 -154q25 0 42.5 3t19.5 3q14 0 14 -12q0 -40 -49 -62t-97 -22q-91 0 -149.5 59t-58.5 157q0 63 23 136t75.5 150.5
t126 140.5t185 103t242.5 40q21 0 44.5 -2.5t62.5 -10t72.5 -25t64.5 -43.5t49.5 -71t18.5 -102z" />
    <glyph glyph-name="A" unicode="A" horiz-adv-x="584" 
d="M522 80q-8 -26 -8 -47q0 -7 2 -52.5t2 -65.5q0 -6 -3 -9t-6 -4h-3q-50 0 -99.5 31t-49.5 80l3 25l60 210q1 1 1 4q0 2 -2 3.5t-4 1.5h-2q-34 2 -50 2l-97 -5q-7 0 -13 -3.5t-8 -6.5l-2 -3q-58 -57 -112 -115.5t-79 -88.5l-26 -30q-33 -37 -193 -37q-25 0 -25 10l5 11
q21 20 124 86q46 31 96 73t78.5 70t28.5 31q0 6 -5 6q-2 0 -6 0.5t-13.5 4t-16.5 8t-13 13.5t-6 21q0 11 4 22q2 8 16 8h124q7 0 16 10q11 11 29.5 30t66.5 70t86 92.5t71 82.5t38 56q6 46 18 52q30 15 86 15q80 0 80 -23q0 -1 -0.5 -2.5t-0.5 -2.5q-99 -323 -192 -634z
M451 347l50 144q1 3 1 6q0 4 -2 4q-3 0 -8 -5q-14 -17 -50 -54.5t-64 -66.5l-29 -29q-4 -4 -4 -6q0 -3 6 -3q36 1 90 1q7 0 10 9z" />
    <glyph glyph-name="B" unicode="B" horiz-adv-x="579" 
d="M186 -34q-56 0 -108.5 8.5t-77.5 17.5l-24 8q-5 2 -5 8l2 7q34 73 109.5 214.5t133.5 246.5l58 105q4 9 6.5 18t3.5 14v5l3 98q2 10 12 12q84 16 181 16q266 0 266 -148q0 -83 -67 -142t-152 -76q-8 -3 -8 -8q0 -3 4 -6q3 -1 7.5 -3t16.5 -10t21.5 -19t17 -30.5
t7.5 -42.5q0 -125 -113 -209t-294 -84zM370 350q-10 0 -10 9q0 11 16.5 34.5t29.5 24.5q72 9 121 56.5t49 114.5q0 39 -30 56t-68 17l-37 -3q-8 0 -8 -12q0 -37 -5 -66q-2 -13 -35 -75q-192 -339 -239 -446q-2 -4 -2 -7q0 -5 6 -6q17 -5 43 -5q52 0 97.5 28.5t73.5 69.5
t44 80.5t16 65.5q0 28 -15.5 44t-30.5 18z" />
    <glyph glyph-name="C" unicode="C" horiz-adv-x="512" 
d="M757 705q-19 -50 -41 -94t-40.5 -70.5t-34 -46t-24.5 -27.5l-9 -8q-14 -13 -25 -13q-14 0 -21 21.5t-7 42.5q0 27 8 60t16 52l8 20q4 7 4 12q0 11 -31 11q-53 0 -115 -57t-108.5 -136t-77.5 -161.5t-31 -132.5q0 -39 20.5 -66.5t58.5 -27.5q29 0 57 11.5t48 27.5t36 32
t24 27l7 12q7 10 15 10q9 0 14 -16t5 -31q0 -11 -2.5 -21t-5.5 -14l-3 -4q-42 -66 -118 -106t-159 -40q-84 0 -128 46t-44 129q0 47 16 108t45.5 129t78 132.5t108.5 117t142 84t173 31.5q88 0 136 -25q6 -4 6 -12q0 -4 -1 -7z" />
    <glyph glyph-name="D" unicode="D" horiz-adv-x="584" 
d="M153 -37q-46 0 -90.5 6.5t-65.5 12.5l-21 7q-5 3 -5 8l2 8q34 72 109.5 214.5t134.5 248.5l59 107q4 9 6.5 18.5t3.5 14.5v4l3 98q3 10 12 13q54 8 124 8q47 0 83.5 -3.5t77 -15t66.5 -31.5t43.5 -56.5t17.5 -86.5q0 -35 -9 -81t-30 -101.5t-51.5 -110t-77 -105.5
t-101.5 -90.5t-130.5 -63t-160.5 -23.5zM566 566q0 45 -26.5 67.5t-72.5 22.5l-24 -2q-9 -2 -9 -12q0 -48 -7 -75q-3 -12 -10 -26t-17 -30.5t-13 -22.5q-182 -319 -229 -426q-2 -3 -2 -7q0 -6 6 -7q10 -2 25 -2q68 0 139.5 58.5t122.5 141t84 171t33 149.5z" />
    <glyph glyph-name="E" unicode="E" horiz-adv-x="554" 
d="M759 708q-19 -60 -43 -106t-38 -62l-14 -17q-9 -9 -19 -9t-17.5 16.5t-11 40t-4.5 39.5t-1 24q0 5 -2 8t-4 4h-2q-30 6 -91 6l-67 -2q-10 -2 -10 -11q0 -46 -5 -70q-4 -21 -73 -138q-2 -2 -2 -5q0 -5 7 -5q60 2 108 2q35 0 46 -1q15 0 15 -12q0 -4 -3 -15t-13.5 -33
t-26.5 -42q-3 -4 -9 -4q-4 0 -12.5 5.5t-14.5 10.5l-7 6q-9 9 -121 9q-6 0 -11 -2.5t-7 -4.5l-2 -3q-105 -192 -132 -251q-2 -4 -2 -7q0 -5 6 -6q36 -4 76 -4q42 0 63.5 5t41.5 23q161 140 209 140q7 0 7 -7q0 -3 -3 -12q-61 -149 -111 -205q-15 -18 -31 -20q-95 -4 -206 -4
l-246 5q-5 2 -5 9l2 7q35 72 110.5 213t134.5 246l58 105q4 9 7 18.5t3 13.5l1 5l4 98q2 10 11 12q125 9 268 9q92 0 178 -6q12 0 12 -11z" />
    <glyph glyph-name="F" unicode="F" horiz-adv-x="428" 
d="M134 -5q-24 -52 -109.5 -93.5t-146.5 -41.5q-17 0 -17 8l4 10q24 41 58.5 89t57.5 76l23 28l22 31q43 83 107 201t106 195l42 76q5 9 7.5 18.5t3.5 13.5v5l4 98q2 10 12 12q134 8 277 8q91 0 158 -4q13 -2 13 -10l-1 -5q-16 -56 -40.5 -103t-43.5 -69t-28 -22
q-20 0 -28.5 45t-8.5 77q0 4 -2 6.5t-4 3.5h-1q-29 5 -75 5l-75 -3q-9 -2 -9 -11q0 -32 -6 -68q-4 -22 -40 -85q-12 -21 -32 -55q-2 -3 -2 -5q0 -5 8 -5h4q4 0 12 0.5t18.5 0.5t24 0.5t27.5 1t30 0.5h31q12 0 12 -12q0 -4 -3 -14.5t-13.5 -33t-27.5 -42.5q-3 -5 -9 -5
q-4 0 -13 6l-20 17q-7 7 -79 7h-33q-6 0 -11 -2.5t-6 -4.5l-2 -3q-92 -164 -131 -251q-31 -59 -45 -91z" />
    <glyph glyph-name="G" unicode="G" horiz-adv-x="563" 
d="M424 -44q-39 0 -61 25.5t-22 65.5q0 5 -3 5l-10 -6q-33 -31 -80 -51.5t-91 -20.5q-56 0 -85.5 37t-29.5 99q0 26 8.5 70t28.5 104.5t49 123t75 124.5t102 110t134.5 77.5t167.5 29.5q95 0 143 -25q6 -3 6 -12q0 -4 -1 -7q-21 -66 -50 -117t-51 -72t-34 -21
q-17 0 -26.5 29.5t-9.5 53.5q0 16 2 33t4 26l3 9q2 8 2 9q0 14 -29 14q-61 0 -128 -65.5t-115.5 -153.5t-80.5 -171.5t-32 -123.5q0 -59 48 -59q56 0 106.5 57.5t83.5 131.5q8 17 8 38l5 82q2 10 16 10q56 7 91 7q52 0 98 -10q2 -1 2 -6q0 -16 -25 -55q-139 -231 -203 -384
q-3 -11 -16 -11z" />
    <glyph glyph-name="H" unicode="H" horiz-adv-x="575" 
d="M497 109l-17 -50q-6 -43 -13 -79t-11 -50l-4 -15q-2 -8 -7 -12.5t-9 -4.5l-5 -1q-43 7 -79 43t-36 79q0 20 7 42t13 34l7 12l128 245q2 4 2 5l-6 5l-144 -5q-4 0 -7 -2.5t-4 -4.5l-1 -3q-32 -66 -74 -147t-67 -128l-26 -48q-4 -9 -10 -16t-10 -9l-4 -2q-40 -18 -93 -18
l-54 5q-6 2 -6 5l5 11q50 77 98 161.5t71 130.5l23 45q1 2 1 6l-1 7q-20 19 -20 47q0 36 17 39l56 4q4 0 6.5 2t3.5 4l1 3q31 56 53 106.5t29 73.5l7 23q4 20 8.5 35t6.5 20l2 5q5 15 28 20q46 15 102 15q22 0 32.5 -1.5t12.5 -3.5t2 -6q0 -7 -6 -23q-24 -54 -77 -145
q-42 -73 -62 -115q-1 -2 -1 -5q0 -7 6 -7q80 3 139 3q9 0 18 11q119 245 139 264q9 13 36 23q41 17 95 17q41 0 41 -9q0 -15 -27 -51q-14 -19 -31 -50q-192 -348 -284 -540z" />
    <glyph glyph-name="I" unicode="I" horiz-adv-x="268" 
d="M143 18q-21 -39 -136 -39l-36 1q-12 1 -12 10l4 12q43 62 123.5 209t139.5 263l60 115l61 130q2 5 9 10.5t15 6.5q44 8 93 8q33 0 63 -6q4 -3 4 -9q0 -7 -8.5 -22.5t-18 -29t-19 -26.5t-9.5 -14q-217 -367 -333 -619z" />
    <glyph glyph-name="J" unicode="J" horiz-adv-x="294" 
d="M342 687q4 18 11.5 29t12.5 13l5 2q52 19 123 19q58 0 58 -10q-2 -14 -19.5 -45.5t-34.5 -56.5l-17 -24q-11 -16 -48.5 -85.5t-70.5 -130.5l-32 -61q-97 -173 -132 -251q-23 -42 -37 -74q-4 -10 -13 -22.5t-16 -20.5l-6 -8q-55 -52 -122 -84.5t-99.5 -39.5t-43.5 -7
q-12 0 -12 9q0 14 26.5 52t56.5 74t60 70.5t31 35.5l22 31q50 87 114.5 203.5t103.5 190.5l39 73q20 42 40 118z" />
    <glyph glyph-name="K" unicode="K" horiz-adv-x="567" 
d="M548 444q-31 -167 -42 -331v-44q26 -138 26 -174q0 -20 -15 -20q-62 5 -115 49t-53 127q0 36 26.5 162.5t26.5 146.5q0 7 -6 7l-11 -3q-35 -16 -69 -54t-50 -68l-17 -31q-56 -111 -97 -200q-13 -30 -160 -30q-20 0 -20 9l3 10q42 62 122.5 209.5t139.5 263.5l59 116
q19 39 33.5 71.5t18.5 45.5l5 13q5 11 19 13q54 12 103 12q51 0 51 -14q0 -18 -47 -94q-40 -70 -94 -169q-3 -7 -3 -12q0 -6 6 -6q7 0 20 9q14 9 39 26.5t100.5 83.5t147.5 146q11 17 40 23q57 10 113 10q64 0 64 -10q0 -12 -39 -41.5t-115 -69.5q-96 -55 -196 -156
q-11 -11 -14 -26z" />
    <glyph glyph-name="L" unicode="L" horiz-adv-x="542" 
d="M424 -1q-8 -12 -27 -12q-2 0 -27.5 1t-62 2.5t-65.5 1.5l-258 -5q-14 3 -14 13l2 8q39 66 117.5 210t136.5 255l59 111l59 128q7 13 20 15q49 9 104 9q37 0 56 -4q8 -2 8 -9q0 -8 -14.5 -32t-34.5 -52.5t-25 -36.5q-146 -245 -276 -512q-2 -3 -2 -7q0 -11 20 -12
q12 -1 29 -1q64 0 89 23q186 186 232 186q8 0 8 -10q0 -75 -134 -270z" />
    <glyph glyph-name="M" unicode="M" horiz-adv-x="705" 
d="M464 429q0 -12 5 -12q4 0 14 11q217 236 232 252q1 1 8.5 9t11.5 12.5t12.5 12t14.5 12.5t13.5 9t14.5 5q43 9 98 9q44 0 74 -6q8 -1 8 -10q0 -4 -1 -6q-9 -26 -75 -118q-25 -37 -39 -65q-193 -368 -232 -475q-9 -24 -15 -52q-1 -5 -6 -49t-12 -72.5t-18 -28.5
q-36 0 -79 52t-43 99q0 12 4 34q2 8 8.5 21.5t11.5 22.5l5 10q77 143 127 240.5t62 123.5l12 26q3 6 3 9t-3 3l-13 -6q-50 -45 -130 -138.5t-135 -163.5l-56 -71q-21 -29 -50 -29q-28 0 -28 17q20 95 33 183t16 122.5t3 43.5q0 7 -4 7l-9 -6q-33 -59 -64 -119.5
t-55.5 -112.5t-42 -89.5t-33 -73.5t-17.5 -41q-10 -23 -52.5 -36.5t-80.5 -16.5l-37 -2q-16 0 -16 8l2 6q40 60 103 130q8 10 25 35q74 117 138 231t91 170l27 56l7 27l8 83q2 11 19 15q51 9 108 9q25 0 51 -3q17 -2 17 -14q0 -17 -12.5 -114t-28.5 -186z" />
    <glyph glyph-name="N" unicode="N" horiz-adv-x="558" 
d="M278 -1q14 94 23.5 213t12 178t2.5 74q0 7 -3 7l-10 -7q-91 -164 -212 -436q-10 -23 -55.5 -36.5t-75 -16t-44.5 -2.5q-11 0 -11 8l2 7q40 63 98 125q18 22 32 43q74 117 135.5 226.5t85.5 161.5l25 51l14 47l9 77q2 11 19 15q45 9 110 9q25 0 39 -1q23 -2 23 -19
q-25 -219 -25 -355q0 -5 0.5 -14.5t0.5 -13.5q2 -10 7 -10q6 0 12 13q135 265 179 357q23 55 51 70q10 6 27.5 15.5t66 26t91.5 18.5q10 0 10 -6q0 -28 -162 -203q-13 -15 -23 -30q-18 -26 -47.5 -72.5t-99.5 -179.5t-115 -253q-8 -28 -8 -60q0 -2 1 -6.5t1 -7.5
q0 -14 -39.5 -23.5t-103.5 -9.5q-43 0 -43 20z" />
    <glyph glyph-name="O" unicode="O" horiz-adv-x="621" 
d="M233 -33q-90 0 -135.5 46t-45.5 128q0 51 16.5 110t39.5 107.5t46 89.5t40 64l16 23q158 221 378 221q83 0 133 -43.5t50 -126.5q0 -64 -34 -159q-10 -27 -19 -49.5t-34 -73t-51.5 -90.5t-69 -88.5t-89 -81t-109.5 -55t-132 -22.5zM628 581q6 24 6 44q0 54 -62 54
q-37 0 -79.5 -32t-79.5 -82t-61.5 -89.5t-43.5 -76.5q-12 -21 -30 -55t-48 -111.5t-30 -122.5q0 -31 16.5 -47.5t45.5 -16.5q22 0 45 10.5t45 32t40 41.5t39.5 52t32.5 50.5t29.5 50t21.5 36.5q90 156 113 262z" />
    <glyph glyph-name="P" unicode="P" horiz-adv-x="558" 
d="M326 332q43 0 78.5 9t49.5 19l13 9q40 31 67.5 68t37.5 71t13.5 53t3.5 33q0 35 -28 52.5t-67 17.5l-37 -3q-9 -1 -9 -11q0 -42 -6 -66q-7 -27 -66.5 -131t-59.5 -111q0 -9 10 -10zM130 0q-60 -23 -121 -23q-42 0 -42 12l2 7q22 32 102 178.5t149 277.5l70 131
q4 9 6.5 18t3.5 14v5l2 98q3 10 12 12q85 16 182 16q50 0 87.5 -5t79 -20t64.5 -48.5t23 -84.5q0 -149 -124 -243t-300 -94q-12 0 -23 0.5t-18 1t-8 0.5q-5 0 -8 -1.5t-4 -3.5l-1 -1q-69 -126 -110 -217q-7 -23 -24 -30z" />
    <glyph glyph-name="Q" unicode="Q" horiz-adv-x="634" 
d="M341 -24q40 -10 90 -29.5t50 -36.5q0 -21 -72 -33t-151 -12q-88 0 -88 28q0 22 57 72l3 2q4 3 4 6q0 2 -3 3.5t-5 1.5l-3 1q-80 1 -120.5 47.5t-40.5 122.5q0 50 16 109t39 106.5t46.5 88.5t39.5 63l16 23q157 224 380 224q82 0 132 -44.5t50 -125.5q0 -67 -34 -159
q-3 -8 -8.5 -22.5t-25 -56.5t-42 -81t-58.5 -88t-74.5 -87t-90.5 -69t-106 -41q-9 -4 -9 -8q0 -2 8 -5zM638 589q6 24 6 44q0 54 -62 54q-38 0 -80 -31t-78.5 -81.5t-60 -89.5t-44.5 -79q-12 -22 -30.5 -56.5t-49 -113t-30.5 -123.5q0 -61 61 -61q14 0 33.5 8.5t51.5 33.5
t77 85t93 148q90 156 113 262z" />
    <glyph glyph-name="R" unicode="R" horiz-adv-x="579" 
d="M509 340q-11 -166 -12 -219l4 -44l40 -164q2 -8 2 -10q0 -7 -4.5 -10.5t-8.5 -4.5h-4q-58 7 -98 27.5t-58 49t-24.5 52t-6.5 48.5l3 31q33 294 33 299q0 13 12 13q88 1 149.5 48t61.5 124q0 86 -113 86l-40 -3q-9 -1 -9 -12q0 -49 -6 -71q-7 -29 -40 -84
q-107 -189 -139 -248q-79 -150 -108 -218q-5 -24 -25 -31q-69 -23 -120 -23q-43 0 -43 13l2 7q22 32 102.5 178.5t150.5 277.5l69 131q9 19 9 36l3 99q0 4 4.5 9t10.5 6q80 12 173 12q40 0 72.5 -2t74.5 -11t70 -24t48 -44t20 -69q0 -96 -72 -161t-171 -79q-10 -3 -12 -15z
" />
    <glyph glyph-name="S" unicode="S" horiz-adv-x="537" 
d="M172 -29q-53 0 -99.5 11.5t-66.5 23.5l-20 11q-10 9 -10 21l1 8q15 57 50 115.5t63 88.5l28 30q16 15 29 15q23 0 23 -66q0 -34 -6.5 -90.5t-6.5 -58.5q0 -11 3.5 -17.5t6.5 -6.5l3 -1q25 -5 42 -5q66 0 117 52t51 114q0 32 -16.5 60t-39.5 49t-46 43t-39.5 53t-16.5 68
q0 49 24 95t68 83.5t114 60.5t156 23q84 0 131 -24q6 -3 6 -11q0 -2 -2 -8q-19 -59 -46.5 -107.5t-46.5 -66.5l-18 -19q-13 -12 -22 -12q-17 0 -25 27t-8 48q0 16 2.5 34t4.5 28l2 10q2 8 2 9q0 4 -2 7t-4 4l-3 1q-15 3 -27 3q-49 0 -85.5 -36t-36.5 -83q0 -41 63 -100
q1 -1 14 -13t20.5 -20t20.5 -25t20.5 -31.5t13.5 -36t6 -42.5q0 -96 -62.5 -170.5t-150 -110t-179.5 -35.5z" />
    <glyph glyph-name="T" unicode="T" horiz-adv-x="298" 
d="M429 541q-1 -8 -3 -15t-4 -10l-1 -2q-52 -90 -152.5 -275t-114.5 -216q-7 -24 -24 -30q-67 -23 -121 -23q-42 0 -42 12l2 8q22 32 107 185.5t159 290.5l74 137q2 3 2 7q0 9 -13 11t-48 2q-48 0 -78 -5q-3 -1 -6 -1q-9 0 -9 7q0 4 3 10q28 59 52.5 73t99.5 14q32 0 102 -3
t112 -3q103 0 140 9q10 0 10 -6q0 -10 -27.5 -49t-43.5 -43q-15 -4 -57 -4q-10 0 -33 1t-38 1q-24 0 -52 -2q-17 0 -17 -9q0 -2 2 -6q19 -38 19 -66z" />
    <glyph glyph-name="U" unicode="U" horiz-adv-x="525" 
d="M709 550q-44 -73 -142 -257t-145 -240q-78 -94 -235 -94q-165 3 -165 126q0 33 12 71t24 60l11 22q15 29 94.5 174t88.5 166l11 26q7 30 13.5 54t9.5 33l4 9q6 15 29 20q59 13 120 13q23 0 45 -3q10 0 10 -11q0 -4 -5 -16q-16 -34 -74 -126q-194 -356 -218 -407
q-20 -38 -20 -73q0 -22 14 -37.5t40 -15.5q11 0 23.5 3.5t33 13t44.5 33.5t46 60q46 75 101 178.5t87 169.5l31 66q17 40 22 55q26 76 36 85q8 10 33 17q64 14 112 14q20 0 28 -2q4 0 4 -6q0 -15 -27 -52q-52 -68 -66 -85q-16 -22 -30 -44z" />
    <glyph glyph-name="V" unicode="V" horiz-adv-x="454" 
d="M233 16q-31 -44 -139 -44l-77 5q-16 2 -16 17l4 16q9 19 24 56.5t25 65.5l11 29l142 404l9 37q1 4 2.5 42t4.5 62q2 15 25 21q47 9 103 9q27 0 54 -3q10 -1 10 -15q0 -6 -3 -16q-121 -367 -173 -512v-4q0 -6 4 -6t15 10q123 149 203 262q144 209 217 280q17 17 29 24
q100 60 250 60q13 0 13 -8q0 -6 -11 -17q-9 -9 -147 -117.5t-174 -149.5q-277 -323 -405 -508z" />
    <glyph glyph-name="W" unicode="W" horiz-adv-x="790" 
d="M486 349q0 5 -3 5q-5 0 -9 -6q-181 -231 -252 -335q-31 -44 -137 -44q-98 0 -98 20l3 8q9 16 25 56t27 73l12 32l141 404l10 37q1 5 2.5 43.5t3.5 61.5q2 15 26 20q44 10 99 10q30 0 55 -4q13 -2 13 -15q0 -6 -3 -15q-122 -368 -174 -513v-4q0 -6 4 -6q6 0 16 10
q213 270 295 380q11 15 18.5 29t9.5 20l2 7q16 48 22 82q2 15 25 20q36 8 86 8q35 0 54 -3q11 -3 11 -13q0 -17 -89 -271.5t-89 -262.5q0 -6 4 -6q6 0 16 10q122 149 203 262q184 260 234 291q88 73 262 73q13 0 13 -8q0 -6 -11 -17q-4 -4 -145 -114.5t-176 -152.5
q-278 -322 -405 -508q-31 -44 -136 -44l-78 6q-18 3 -18 13l3 9q15 28 63 158.5t65 193.5z" />
    <glyph glyph-name="X" unicode="X" horiz-adv-x="479" 
d="M261 271q0 5 -4 5l-9 -3q-58 -51 -116 -115.5t-87 -103.5l-29 -40q-11 -17 -27 -21q-38 -12 -134 -12q-35 0 -56 1q-9 2 -9 8q0 5 8 13q50 46 137 101q27 19 62 45q184 157 268 250q12 7 15 28q17 105 17 162l-1 21q0 3 -9 39t-12 60q0 2 0.5 4.5t5.5 8t15 7.5
q45 9 101 9q27 0 55 -3q14 0 14 -23q0 -3 -3.5 -31t-11 -88.5t-14.5 -114.5q0 -6 3 -6l10 6q59 51 112 107.5t76 88.5l23 31q18 22 29 24q28 10 117 10q38 0 61 -1q10 -1 10 -8q0 -5 -8 -13q-51 -45 -138 -100q-27 -19 -62 -46q-155 -128 -240 -221q-10 -12 -12 -24
q-21 -128 -21 -232l5 -42q13 -29 33.5 -83.5t20.5 -65.5q0 -17 -32 -17q-41 0 -83 14.5t-74.5 49t-32.5 80.5q0 37 27 241z" />
    <glyph glyph-name="Y" unicode="Y" horiz-adv-x="341" 
d="M338 419q61 70 172.5 191.5t140.5 139.5q104 64 252 64q13 0 13 -8q0 -9 -12 -16l-208 -153q-36 -27 -57 -44q-19 -14 -51 -40.5t-117.5 -108.5t-154.5 -164q-20 -19 -37 -45q-56 -84 -111 -207q-8 -24 -26 -31q-49 -19 -107 -19q-52 0 -52 16q0 3 3 8q22 32 141 251
q14 25 23 59q13 64 28 167t15 119q0 28 -7.5 65t-8.5 50q0 2 0.5 4.5t6 8.5t15.5 8q45 9 101 9q26 0 55 -3q13 0 13 -21q0 -11 -49 -295q0 -14 6 -14t13 9z" />
    <glyph glyph-name="Z" unicode="Z" horiz-adv-x="584" 
d="M766 651q-135 -121 -268 -257t-199 -212l-66 -75q-8 -11 -8 -18q0 -12 44 -12q59 0 84 7q9 3 15.5 6.5t8.5 5.5l2 3q65 81 127 125t86 44q11 0 11 -12q0 -26 -44.5 -111.5t-74.5 -128.5q-15 -23 -46 -23q-9 0 -91.5 1.5t-146.5 1.5q-40 0 -105 -1.5t-82 -1.5h-33
q-21 1 -21 15l2 7q46 66 145 171.5t185.5 189.5t178 171t99.5 95q3 4 3 7q0 9 -35 9l-37 -2q-16 0 -29 -3.5t-17 -6.5l-5 -4q-52 -47 -98 -79t-66 -41l-20 -8q-10 -3 -16 -3q-12 0 -12 10q0 20 42.5 88t77.5 105q9 11 21 14q27 8 93 8q6 0 21 -0.5t24 -0.5q124 -2 211 -2
q60 0 74 1q20 0 20 -13q0 -5 -1.5 -10t-6 -11t-7 -10t-10 -11t-10 -9.5t-11 -10t-9.5 -8.5z" />
    <glyph glyph-name="bracketleft" unicode="[" horiz-adv-x="284" 
d="M149 67q-5 -10 -9 -23.5t-6 -21.5l-2 -8q7 -44 7 -102q0 -23 -16 -23q-45 0 -90 39t-45 80l3 20q32 77 135 265.5t190 338.5l87 151q12 18 40 34q63 36 177 36q17 0 17 -9q0 -19 -43 -55.5t-67 -49.5q-15 -7 -34 -35q-222 -374 -344 -637z" />
    <glyph glyph-name="backslash" unicode="\" horiz-adv-x="409" 
d="M311 -73q-20 0 -30.5 6t-11.5 12l-1 6q-8 40 -64.5 251.5t-109.5 403.5l-52 192q-1 2 -1 4q0 19 40 19q18 0 28.5 -4.5t11.5 -8.5l1 -5q211 -763 231 -852q1 -1 1 -5q0 -18 -43 -19z" />
    <glyph glyph-name="bracketright" unicode="]" horiz-adv-x="293" 
d="M352 675q5 10 9 23.5t6 21.5l2 8q-7 44 -7 102q0 23 16 23q45 0 90 -39t45 -80l-3 -20q-32 -77 -135 -265.5t-190 -338.5l-87 -151q-12 -18 -40 -34q-63 -36 -177 -36q-17 0 -17 9q0 19 43 55.5t67 49.5q15 7 34 35q222 374 344 637z" />
    <glyph glyph-name="underscore" unicode="_" horiz-adv-x="598" 
d="M455 -107l-477 1q-12 0 -12 7q0 17 23.5 41.5t42.5 24.5q172 -1 314 -1q135 0 167 1q11 0 11 -7q0 -17 -24.5 -42t-44.5 -25z" />
    <glyph glyph-name="grave" unicode="`" 
d="M123 668q-2 6 -2 7q0 14 55 14q65 0 78 -14q23 -43 30 -108q0 -17 -12 -17q-25 0 -79 41t-70 77z" />
    <glyph glyph-name="a" unicode="a" 
d="M201 -14q0 5 1.5 12.5t3.5 13.5t2 7q0 3 -4 3l-5 -1q-46 -34 -112 -34q-87 4 -87 89q0 112 98 184.5t232 72.5h9q4 0 7.5 2t4.5 4l1 2q8 11 8 27q0 32 -53 32q-18 0 -40.5 -4t-36.5 -8l-13 -5q-11 -5 -20 -5q-14 0 -14 16q0 9 10 23.5t30 30.5t58 27.5t87 11.5
q132 0 132 -95q0 -57 -44 -126q-13 -21 -32.5 -53.5t-51.5 -99t-32 -93.5q0 -5 2 -11q21 -22 21 -32q0 -8 -10 -14q-35 -22 -83 -22q-69 0 -69 45zM245 138l64 114q1 2 1 5q0 7 -14 7q-49 0 -97.5 -53t-48.5 -100q0 -29 28 -29q6 0 14.5 2.5t24.5 16.5t28 37z" />
    <glyph glyph-name="b" unicode="b" horiz-adv-x="445" 
d="M169 -12q-28 0 -48.5 8t-27.5 16l-7 9q-2 6 -9 6l-7 -2q-48 -31 -95 -31q-15 0 -15 10q0 2 47 94.5t133 250t165 288.5q27 46 30 57q12 29 48 48q26 14 68.5 28t62.5 14q16 0 16 -8q0 -25 -75 -120q-49 -60 -122 -190q-2 -4 -2 -7t3 -3q2 0 10 3q32 12 66 12q84 0 84 -88
q0 -55 -25.5 -123t-67.5 -129t-104 -102t-128 -41zM359 358q0 28 -25 28q-11 0 -20.5 -4t-13.5 -8l-4 -5q-25 -33 -66 -110l-87 -169q-1 -3 -1 -5q0 -9 22 -9q40 0 79 47q30 36 73 113.5t43 121.5z" />
    <glyph glyph-name="c" unicode="c" horiz-adv-x="399" 
d="M354 143q14 0 14 -28q0 -48 -64 -92t-155 -44q-39 0 -66 12.5t-39 34.5t-17 42t-5 43q0 77 44.5 163t122.5 147.5t160 61.5q35 0 54 -8q3 -2 9 -2q2 0 28 6.5t48 6.5q23 0 23 -10q0 -28 -44 -107t-72 -104q-5 -6 -12 -6q-15 0 -23.5 29t-8.5 50q0 27 10 66q0 11 -12 11
q-31 0 -73 -46t-73 -113t-31 -119q0 -56 50 -57q62 0 118 55q7 8 14 8z" />
    <glyph glyph-name="d" unicode="d" horiz-adv-x="433" 
d="M282 204q56 118 91 172q2 4 2 6q0 5 -6.5 8t-12.5 4h-7q-39 0 -84.5 -48.5t-75 -109t-29.5 -97.5q0 -29 25 -29q5 0 14.5 2t35 25.5t47.5 66.5zM418 455q73 130 101 184q22 43 29 57q12 27 47 48q25 15 67.5 28.5t66.5 13.5q18 0 18 -9q0 -25 -70 -119q-19 -26 -36.5 -53
t-26 -41t-28 -49t-26.5 -47q-201 -352 -201 -426q0 -10 3 -16q22 -21 22 -32q0 -14 -36.5 -26t-65.5 -12q-32 0 -48.5 8t-16.5 35q0 11 3 24t6 21l3 7q2 6 2 7q0 2 -2 2l-12 -6q-69 -65 -147 -65q-69 0 -69 90q0 76 45 168t123.5 161t159.5 69q28 0 49 -8t25 -15q3 -5 7 -5
t8 6z" />
    <glyph glyph-name="e" unicode="e" horiz-adv-x="410" 
d="M10 101q0 51 27.5 115.5t75 125t124 102t162.5 41.5q111 0 111 -61q0 -66 -61 -125.5t-138 -91.5t-139 -34q-15 0 -15 -28q0 -62 70 -62q57 0 114 43q8 6 15 6q9 0 9 -11q0 -48 -60.5 -94t-143.5 -46q-70 0 -110.5 30t-40.5 90zM379 400q0 19 -23 19q-37 0 -78 -41
t-64 -82l-23 -42q-3 -5 -3 -8t4 -3t7 1q73 17 126.5 69.5t53.5 86.5z" />
    <glyph glyph-name="f" unicode="f" horiz-adv-x="277" 
d="M350 383q-15 0 -47 -2q-85 -157 -180 -350q-26 -70 -70 -107q-5 -4 -13 -10t-32 -22t-47.5 -28.5t-54.5 -22.5t-56 -10q-12 0 -12 9l5 14q11 20 36 51t45 51l20 21l26 32q38 55 203 365q-36 6 -36 59q0 28 14 28q3 0 24 -1.5t42 -2.5l62 119q34 71 64 98q4 4 11 10
t32 21.5t52.5 28t72.5 23.5t92 14q13 0 13 -7q0 -4 -6 -13t-18 -24t-55 -55t-91 -72q-18 -13 -26 -24q-22 -28 -73 -115q12 1 34 1q25 0 33 -12t8 -40q0 -32 -17 -32q-2 0 -16.5 2.5t-38.5 2.5z" />
    <glyph glyph-name="g" unicode="g" horiz-adv-x="445" 
d="M-70 -352q-21 0 -21 11q0 45 194 207q20 13 47 56t44 80l18 36q2 6 2 7q0 2 -2 2l-11 -7q-54 -45 -119 -45q-73 0 -73 87q0 79 50 171t131 156t159 64q24 0 49 -7.5t32 -20.5q4 -4 7 -4l8 4q22 39 121 39q23 0 23 -11l-4 -10q-86 -135 -151 -256q-151 -269 -191 -367
q-19 -48 -81 -94t-127 -72t-105 -26zM391 374q2 3 2 7q0 5 -6.5 8t-13.5 3l-7 1q-47 0 -95.5 -54t-75.5 -113t-27 -88t25 -29q8 0 18.5 3t35 26t46.5 64q60 117 98 172z" />
    <glyph glyph-name="h" unicode="h" horiz-adv-x="483" 
d="M109 35q-25 -51 -125 -51q-33 0 -33 17l2 10q16 21 152 270.5t192 355.5q24 43 31 57q18 34 80 62t105 28q17 0 17 -9q0 -23 -74 -119q-24 -32 -44 -64t-43 -72t-40 -67q-8 -14 -25 -44q-2 -4 -2 -8t3 -4q4 0 13 8q92 76 174 76q25 0 42.5 -11.5t17.5 -36.5
q0 -44 -42 -126t-84 -156.5t-42 -99.5q0 -8 11 -21t11 -22q0 -19 -41.5 -30.5t-68.5 -11.5q-66 0 -66 42q0 34 39.5 105.5t79 138.5t39.5 90q0 13 -22 13q-40 0 -101.5 -75t-99.5 -145q-9 -16 -29 -50.5t-27 -49.5z" />
    <glyph glyph-name="i" unicode="i" horiz-adv-x="230" 
d="M6 102q37 73 81 156t69 130l26 46q10 17 41.5 27t58.5 11l26 2q31 0 31 -14l-3 -8q-81 -137 -147 -259q-38 -70 -48 -105q-2 -10 -2 -13q0 -9 10 -21t10 -19q0 -22 -45 -34t-81 -12q-53 0 -53 33q0 24 26 80zM331 553q-23 0 -36 13.5t-13 35.5q0 44 38 80.5t80 36.5
q48 0 48 -46q0 -40 -35 -80t-82 -40z" />
    <glyph glyph-name="j" unicode="j" horiz-adv-x="231" 
d="M-18 38q41 87 95 188.5t87 159.5l34 58q24 40 135 40q22 0 22 -11l-3 -10q-86 -135 -152 -256q-148 -270 -191 -367q-1 -5 -5 -13.5t-25.5 -34t-55.5 -50.5q-44 -33 -113 -63.5t-114 -30.5q-21 0 -21 11q0 23 45.5 72.5t83.5 82.5t63 53q19 15 48 57.5t48 77.5zM338 553
q-23 0 -36 13.5t-13 35.5q0 44 38 80.5t80 36.5q23 0 36 -13.5t13 -35.5q0 -44 -37.5 -80.5t-80.5 -36.5z" />
    <glyph glyph-name="k" unicode="k" horiz-adv-x="424" 
d="M408 326q-4 -4 -6.5 -10t-3.5 -10v-3q-23 -127 -23 -221q0 -35 4 -56q2 -10 18 -24t16 -23q0 -16 -33 -25.5t-56 -9.5q-52 0 -71 21q-10 11 -10 54q0 38 7 90t14 88.5t7 37.5q0 8 -11 8q-28 -13 -53 -39t-36 -45l-11 -19q-24 -45 -29 -54t-8.5 -20t-9.5 -27
q-9 -23 -38 -35.5t-50.5 -14t-55.5 -1.5q-19 0 -19 9l7 15q23 31 342 625q24 43 31 57q16 29 52 48q24 13 67.5 28t65.5 15q16 0 16 -9q0 -13 -25.5 -52.5t-47.5 -67.5q-29 -37 -115 -180.5t-86 -154.5q0 -7 5 -7t9 3q117 91 157 127q4 3 9.5 9t9 9t10 6.5t15.5 5.5
q35 8 82 8q30 0 55 -4q5 -1 5 -5q0 -12 -38.5 -35t-63.5 -34q-19 -9 -55 -36t-49 -42z" />
    <glyph glyph-name="l" unicode="l" horiz-adv-x="218" 
d="M69 -111q-35 22 -62.5 62t-27.5 77q0 41 32 97l24 41q43 76 113.5 208t119.5 226l49 94q11 33 41 51q55 34 134 41q11 0 11 -9q0 -19 -61 -105l-19 -31q-171 -305 -292 -554q-9 -25 -9 -35q-11 -116 -25 -156q-3 -12 -14 -12q-7 0 -14 5z" />
    <glyph glyph-name="m" unicode="m" horiz-adv-x="722" 
d="M814 439q0 -65 -77 -182q-87 -138 -110 -216q-2 -10 -2 -12q0 -9 11 -20t11 -17q0 -19 -37 -30t-67 -11q-28 0 -49.5 10.5t-21.5 32.5q0 30 29 89.5t58 104.5l29 44q38 58 38 82q0 10 -13 10q-21 0 -55.5 -26t-58.5 -52l-24 -26q-22 -27 -50 -73t-45 -78l-16 -32
q-3 -8 -8.5 -13t-9.5 -6l-4 -1q-47 -13 -85 -13q-32 0 -32 9q0 15 26.5 64.5t52.5 91.5l27 42q14 20 24 39t13 28l4 9q4 9 4 15q0 9 -10 9l-28 -8q-130 -76 -230 -269q-26 -51 -119 -51q-38 0 -38 13l5 12q8 9 41 68.5t95 173.5t94 171q12 31 29 40q15 10 47 18t55 8
q27 0 27 -11q0 -4 -3 -8q-5 -10 -26 -40.5t-38.5 -57t-17.5 -34.5q0 -4 3 -4t13 7q5 5 13.5 13t34.5 28t51 35.5t58.5 28t61.5 12.5q47 0 47 -37q0 -22 -18 -57q-2 -4 -2 -7q0 -4 3 -4q4 0 11 6q22 20 50.5 42t84.5 51.5t97 29.5q47 0 47 -41z" />
    <glyph glyph-name="n" unicode="n" horiz-adv-x="483" 
d="M165 140q-29 -45 -58 -101q-26 -51 -123 -51q-34 0 -34 12l6 13q7 9 40 69.5t90.5 166.5t94.5 172q12 31 29 40q15 10 46.5 17.5t56.5 7.5q24 0 24 -11q0 -1 -2 -7q-10 -18 -29 -45q-43 -59 -43 -77q0 -5 3 -5t12 9q54 51 124.5 94t119.5 43q23 0 36.5 -12t13.5 -33
q0 -58 -55 -146q-98 -159 -121 -224q-5 -12 -5 -21q0 -7 10 -20t10 -21q0 -20 -42.5 -31.5t-68.5 -11.5q-65 0 -65 37q0 22 17.5 62t34.5 69l17 29q86 126 86 160q0 10 -15 10q-22 0 -57 -26t-58 -52l-24 -26q-41 -44 -71 -90z" />
    <glyph glyph-name="o" unicode="o" horiz-adv-x="420" 
d="M357 503q65 0 96 -35.5t31 -85.5q0 -87 -56 -183.5t-144.5 -162t-173.5 -65.5q-30 0 -52 11t-32.5 24.5t-16.5 32.5t-7 29t-1 20q3 52 25.5 102.5t51.5 84.5t58 60.5t48 39.5l20 13q6 3 6 6t-9 6q-7 2 -22 11t-15 17q0 6 7 13q60 62 186 62zM304 391l-15 -4
q-5 -4 -13.5 -11t-30.5 -31.5t-39.5 -51t-34.5 -67.5t-22 -84q-1 -8 -1 -19q0 -56 35 -56q29 0 69 46t69 110t29 111q0 56 -46 57z" />
    <glyph glyph-name="p" unicode="p" 
d="M159 -14q-21 0 -39.5 4.5t-26.5 9.5l-8 4q-5 3 -7 3q-3 0 -5 -2t-3 -4l-1 -2q-50 -95 -85 -168q-14 -26 -23 -47q-18 -54 -94.5 -97.5t-139.5 -43.5q-12 0 -12 9q0 18 22 50t55.5 72t38.5 46q24 34 107 180.5t154 275.5l71 130q21 45 46 83q5 18 48 29q39 11 63 11
q19 0 19 -8l-1 -4q-23 -35 -31 -51q-2 -3 -2 -5t3 -2q4 0 8 2q40 18 83 18q95 0 95 -100q0 -42 -23.5 -106t-64.5 -129.5t-107 -111.5t-140 -46zM362 378q0 28 -23 28q-16 0 -32 -11t-24 -22l-8 -11q-57 -96 -155 -271q-2 -2 -2 -5q0 -6 10 -6q44 0 89 35.5t75.5 85t50 99
t19.5 78.5z" />
    <glyph glyph-name="q" unicode="q" horiz-adv-x="483" 
d="M197 103q5 0 14 1.5t31.5 18.5t39.5 48l112 202q1 3 1 7q0 16 -24 16q-10 0 -24.5 -4.5t-48 -34.5t-65.5 -82q-59 -95 -59 -144q0 -27 23 -28zM193 25q-48 -36 -106 -36q-71 0 -71 87q0 78 49 172.5t131.5 163t165.5 68.5q61 0 73 -27q3 -3 6 -3t6 3l5 5l1 3
q9 17 43 27.5t72 10.5q25 0 25 -8l-1 -4l-15 -25t-15 -26q-78 -132 -149 -268q-2 -5 -2 -9t3 -4q4 0 7 2q37 16 53 16q7 0 7 -5q0 -2 -1 -5.5t-9 -18t-22 -32t-44 -48t-71 -64.5q-12 -10 -23.5 -24.5t-16.5 -23.5l-5 -9q-22 -40 -70 -141q-13 -32 -21 -53q-17 -41 -37 -57
q-7 -7 -29 -22.5t-69.5 -35t-89.5 -19.5q-13 0 -13 11l3 11q8 20 28.5 50t36.5 50l17 20l24 31q25 35 134 232q1 3 1 5q0 4 -3 4t-8 -4z" />
    <glyph glyph-name="r" unicode="r" horiz-adv-x="399" 
d="M522 479q0 -42 -49 -126t-88 -123q-21 -21 -33 -21q-19 0 -19 49q0 21 4.5 47t4.5 27q0 6 -6 6l-16 -5q-23 -13 -49 -41t-41 -50l-15 -22q-49 -71 -108 -188q-14 -28 -26 -34q-33 -17 -97 -17q-34 0 -34 12l6 13q7 9 41.5 72t92 170t95.5 175q14 30 29 40q35 23 98 23
q28 0 28 -10q0 -1 -2 -5q-46 -77 -46 -83q0 -3 2 -3t6 3q134 107 205 107q17 0 17 -16z" />
    <glyph glyph-name="s" unicode="s" horiz-adv-x="399" 
d="M385 189q0 -86 -79.5 -145.5t-184.5 -59.5q-47 0 -82.5 8t-47.5 16l-12 7q-11 6 -11 22l1 10q12 45 37.5 88.5t45.5 64.5l19 21q18 15 29 15q24 0 24 -61q0 -20 -4 -43t-8 -36l-3 -13q-1 -2 -1 -6q0 -8 9 -12.5t17 -4.5l9 -1q40 3 70.5 35.5t30.5 74.5q0 33 -23 68.5
t-46.5 66.5t-23.5 54q0 45 38 80t89.5 51.5t103.5 16.5q35 0 59 -6q4 -1 9 -2.5t14 -13t9 -28.5q0 -26 -18 -26h-14q-61 0 -101.5 -19t-40.5 -45q0 -16 13.5 -35t29.5 -35.5t29.5 -45t13.5 -61.5z" />
    <glyph glyph-name="t" unicode="t" horiz-adv-x="231" 
d="M70 -122q-34 21 -56 51t-27 49l-5 19q-3 9 -3 20q0 41 32 97l24 41q83 148 193 354q-33 6 -33 57q0 30 14 30q2 0 21 -1.5t43 -2.5l62 117q12 33 42 51q56 34 133 41q12 -1 12 -10q0 -22 -49 -83l-15 -23q-21 -35 -51 -90q15 1 45 1q28 0 28 -49q0 -6 -2 -24
q-1 -10 -13 -10q-3 0 -19 3t-39 3q-28 0 -43 -2q-151 -272 -232 -441q-8 -25 -10 -35q-1 -3 -2.5 -23t-4 -43t-6.5 -47t-10.5 -39.5t-14.5 -15.5q-6 0 -14 5z" />
    <glyph glyph-name="u" unicode="u" horiz-adv-x="462" 
d="M240 62l2 4q0 3 -3 3l-8 -3q-84 -79 -170 -79q-30 0 -47.5 16.5t-17.5 43.5q0 24 10 54.5t20 49.5l10 19q29 51 54.5 98.5t35.5 69.5l11 22l16 43q0 21 4.5 36.5t9.5 20.5l5 5q24 19 98 19q51 0 51 -19t-33 -86t-67 -126.5t-33 -55.5q-18 -31 -18 -52q0 -24 23 -24
q19 0 38.5 10t33 24.5t24.5 29.5t17 25l5 10q23 50 54.5 107t50.5 89l20 31q23 39 121 39q31 0 31 -16l-4 -10q-24 -38 -59.5 -96t-94.5 -171.5t-59 -149.5q0 -7 1 -9q21 -21 21 -31q0 -8 -11 -14q-46 -27 -98 -27q-23 0 -43 10t-20 32q0 11 4.5 25.5t9.5 23.5z" />
    <glyph glyph-name="v" unicode="v" horiz-adv-x="394" 
d="M183 3q-19 -26 -124 -26l-44 1q-15 1 -15 13l3 10q23 64 51 153.5t44 147.5l17 57l5 36q-2 22 -2 29q0 33 14 41q34 17 96 17q29 0 37.5 -2.5t8.5 -11.5q0 -1 -0.5 -3.5t-0.5 -3.5q-17 -101 -100 -338q0 -12 5 -12q2 0 7 6q239 343 288 379q3 3 8.5 7.5t25 16.5t42.5 21
t61.5 16.5t80.5 7.5q13 0 13 -7q0 -13 -40.5 -50t-114.5 -88q-40 -23 -85 -72q-128 -133 -281 -345z" />
    <glyph glyph-name="w" unicode="w" horiz-adv-x="647" 
d="M566 465q-9 -21 -49.5 -143t-50.5 -173q0 -11 5 -11q2 0 7 6q222 316 270 352q9 8 27 19.5t73.5 30.5t113.5 19q14 0 14 -7q0 -28 -153 -138q-39 -23 -83 -72q-119 -120 -274 -345q-18 -26 -121 -26l-44 1q-15 1 -15 10l3 8q16 45 74 236q1 2 1 4q0 4 -3 4l-9 -5
q-34 -38 -172 -232q-19 -26 -122 -26l-43 1q-15 1 -15 10l3 8q22 64 50 155t45 149l16 59l6 36q-3 19 -3 32q0 32 14 39q32 16 92 16q26 0 41 -2q6 -3 6 -13v-4q-14 -83 -89 -313q0 -12 4 -12q3 0 7 6q146 184 203 245q21 25 27 40q10 30 17 36q10 10 33 13q30 6 60 6
q36 0 36 -11q0 -2 -2 -8z" />
    <glyph glyph-name="x" unicode="x" horiz-adv-x="433" 
d="M210 394l-5 23q-19 27 -19 43q0 11 12 15q45 15 101 15q39 0 42 -17q2 -15 2 -46q0 -42 -3 -75q0 -6 3 -6q4 0 9 5q65 52 119 122q1 3 5 9t21.5 19t41.5 21q56 17 114 17q53 0 53 -10q0 -11 -47.5 -44.5t-104.5 -61.5q-33 -20 -56 -37q-99 -74 -155 -131q-10 -9 -12 -26
q-5 -36 -5 -78q0 -99 34 -126q5 -3 5 -9q0 -14 -44 -29.5t-76 -15.5q-20 0 -29.5 1.5t-18 8.5t-8.5 22q-1 16 -1 42q0 72 12 134q0 9 -5 9q-4 0 -11 -8q-75 -67 -119 -124q-20 -25 -30 -57q-2 -13 -28 -19q-32 -7 -71 -7q-62 0 -62 12q0 5 9 17q19 31 128 119
q129 100 185 156q10 10 12 25q3 30 3 63q0 20 -1 29z" />
    <glyph glyph-name="y" unicode="y" horiz-adv-x="454" 
d="M-91 -363q-13 0 -13 8q0 33 81 109.5t114 100.5q25 18 56 69t49 93l19 42q2 4 2 5q0 2 -2 2l-9 -3q-76 -63 -143 -63q-61 0 -61 59q0 24 9.5 54.5t19.5 48.5l10 19l93 166l16 50q3 22 7 37t7 19l2 4q7 11 38.5 16t55.5 5q52 0 52 -19q0 -17 -32.5 -83t-65.5 -126t-32 -56
q-15 -26 -15 -42q0 -23 25 -23t50 18.5t38 36.5l12 19q20 40 53.5 98.5t57.5 97.5l24 39q10 17 47.5 28t62 13t37.5 2q27 0 27 -13l-4 -10q-17 -21 -46.5 -60.5t-107 -164.5t-138.5 -253q-52 -104 -72 -147q-10 -37 -61 -81q-13 -12 -37 -29t-93 -49t-133 -37z" />
    <glyph glyph-name="z" unicode="z" horiz-adv-x="433" 
d="M556 470q0 -8 -6 -18.5t-15 -20.5t-21.5 -22t-21 -19.5t-19.5 -16.5t-12 -10q-72 -62 -141.5 -130.5t-103.5 -105.5l-33 -37q-12 -12 -12 -19q0 -6 18 -6q26 0 44 5.5t23 11.5l5 6q23 28 75.5 68t77.5 40q11 0 11 -10q0 -22 -20.5 -65t-41.5 -75l-21 -33q-17 -24 -33 -24
q-7 0 -23.5 1t-28.5 1l-133 -2q-52 -5 -112 -5l-57 1q-18 2 -18 14l2 7q24 41 123 139t186 176l88 78q6 5 6 9q0 5 -11 5q-26 0 -46.5 -6.5t-28.5 -12.5l-7 -7q-27 -29 -70.5 -56.5t-63.5 -27.5q-9 0 -9 9q0 23 40.5 90t63.5 71q18 3 35 3q23 0 39 -2q26 -2 69 -2
q80 0 177 8q5 1 10 1q16 0 16 -11z" />
    <glyph glyph-name="braceleft" unicode="{" horiz-adv-x="314" 
d="M277 278q0 -14 -8 -27q-34 -60 -90 -183q-5 -10 -9 -23t-6 -21l-1 -8q7 -37 7 -86q0 -38 -16 -38q-36 0 -84 35.5t-48 80.5l3 22q28 70 126 251q12 18 12 33q0 5 -13.5 31.5t-13.5 41.5q0 6 3 11t6 7l3 2q11 10 31.5 21.5t36.5 17.5l15 7q23 13 30 26l167 291
q12 18 40 33q68 36 154 36q34 0 34 -11q0 -19 -39 -52.5t-67 -49.5q-15 -7 -34 -34q-56 -94 -127 -221q-11 -24 -39 -36q-83 -35 -104 -47q-12 -4 -12 -14q0 -3 21.5 -39.5t21.5 -56.5z" />
    <glyph glyph-name="bar" unicode="|" horiz-adv-x="229" 
d="M-20 -89q-42 0 -42 15l3 9q23 34 142 250.5t226 415.5l107 199q4 21 43 21q44 0 44 -15l-2 -6q-423 -788 -475 -865q-10 -24 -46 -24z" />
    <glyph glyph-name="braceright" unicode="}" horiz-adv-x="372" 
d="M289 453q0 14 8 27q34 60 90 183q5 10 9 23t6 21l1 8q-7 37 -7 86q0 38 16 38q36 0 84 -35.5t48 -80.5l-3 -22q-28 -70 -126 -251q-12 -18 -12 -33q0 -5 13.5 -31.5t13.5 -41.5q0 -6 -3 -11t-6 -7l-3 -2q-11 -10 -31.5 -21.5t-36.5 -18.5l-15 -6q-23 -13 -30 -26
l-167 -291q-12 -18 -40 -33q-68 -36 -154 -36q-34 0 -34 11q0 19 39 52.5t67 49.5q15 7 34 34q56 94 127 221q11 24 39 36q83 35 104 47q12 4 12 14q0 3 -21.5 39.5t-21.5 56.5z" />
    <glyph glyph-name="exclamdown" unicode="&#xa1;" horiz-adv-x="280" 
d="M96 -27q-39 -91 -58 -115q-32 -39 -107 -48q-10 -1 -21 -2q-26 -2 -34 -2q-45 0 -45 14q0 22 128 178q25 32 74 104t85 128l37 57q2 3 5.5 7.5t22 12t44.5 7.5q35 0 35 -11q0 -3 -3 -11q-99 -168 -163 -319zM216 446q33 103 121 103q59 0 59 -43q0 -9 -3 -21
q-14 -43 -46.5 -69.5t-78.5 -26.5q-54 0 -54 41q0 4 2 16z" />
    <glyph glyph-name="cent" unicode="&#xa2;" horiz-adv-x="417" 
d="M305 233l-82 -152l2 -1q2 0 5 -0.5t7 -0.5q46 0 113 55q7 8 14 8t10.5 -10.5t3.5 -17.5q0 -55 -69.5 -96t-143.5 -41q-27 -46 -30 -50q-6 -9 -9.5 -12.5t-12 -6.5t-22.5 -3q-23 1 -23 14l3 10q14 21 33 56q-72 20 -72 123q0 84 43.5 171t119.5 145.5t159 58.5h16l22 43
q7 21 41 21q29 0 29 -12l-4 -9q-10 -22 -25 -50q33 10 70 10q17 0 17 -11q0 -31 -43.5 -107.5t-71.5 -103.5q-5 -6 -12 -6q-16 0 -24.5 29t-8.5 49q0 30 11 64q1 2 1 5q0 10 -12 10q-53 0 -119.5 -95.5t-66.5 -164.5q0 -26 8 -26q4 0 6 7q41 73 48 89q8 20 42 20q28 0 28 -8
q0 -3 -1 -4z" />
    <glyph glyph-name="sterling" unicode="&#xa3;" horiz-adv-x="575" 
d="M557 395q-14 -14 -39 -14h-143q-84 -156 -150 -291q-2 -3 -2 -7q0 -11 20 -12q12 -1 29 -1q64 0 89 23q186 186 232 186q8 0 8 -10q0 -75 -134 -270q-8 -12 -27 -12q-2 0 -27.5 1t-62 2.5t-65.5 1.5l-258 -5q-14 3 -14 13l2 8q74 126 205 373h-97q-18 0 -18 11l2 4
q10 19 16 29t19.5 19t30.5 9h86l69 131l59 128q7 13 20 15q49 9 104 9q37 0 56 -4q8 -2 8 -9q0 -8 -14.5 -32t-34.5 -52.5t-25 -36.5q-36 -59 -86 -149h155q18 0 18 -9q0 -7 -11.5 -24t-19.5 -25z" />
    <glyph glyph-name="yen" unicode="&#xa5;" horiz-adv-x="567" 
d="M589 400q-14 -14 -39 -14h-84q-29 -34 -55 -70h115q18 0 18 -9q0 -7 -11.5 -24t-19.5 -25q-14 -14 -39 -14h-111l-5 -9q-79 -136 -111 -207q-8 -24 -26 -31q-49 -19 -107 -19q-52 0 -52 16q0 3 3 8q52 78 136 242h-117q-18 0 -18 11l2 4q10 19 16 29t19.5 19t30.5 9h101
q12 32 21 70h-96q-18 0 -18 11l2 4q10 19 16 29t19.5 19t30.5 9h58q5 47 5 94q0 38 -8 93.5t-9 67.5q0 2 0.5 4.5t6 8.5t15.5 8q45 9 101 9q27 0 55 -3q13 0 13 -21q0 -103 -24 -242q0 -14 6 -14t13 9q38 44 147.5 151.5t140.5 126.5q104 64 252 64q13 0 13 -8q0 -6 -12 -16
q-68 -59 -281 -202q-10 -9 -39 -29.5t-62 -46t-64 -54.5h65q18 0 18 -9q0 -7 -11.5 -24t-19.5 -25z" />
    <glyph glyph-name="section" unicode="&#xa7;" horiz-adv-x="568" 
d="M97 -13q-95 0 -95 41q0 23 18 23q31 2 61 6.5t67.5 15t60.5 30t23 46.5q0 25 -18 50.5t-40 43.5t-40 45t-18 54q0 36 32 68.5t81 53.5t90.5 33.5t76.5 18.5q6 2 6 6l-3 6q-50 45 -50 79q0 31 29.5 56t73.5 38.5t88 20.5t80 7q95 0 95 -41q0 -22 -15 -22q-1 0 -9 0.5
t-16 0.5q-19 0 -47 -3t-62.5 -10t-58.5 -22t-24 -34q0 -16 26 -37t56.5 -38.5t56.5 -44t26 -52.5q0 -10 -2 -20t-18 -34.5t-44 -47t-87 -52.5t-140 -57q-6 -2 -6 -6l2 -4q22 -28 22 -59q0 -41 -31.5 -73.5t-78.5 -50t-91 -26.5t-77 -9zM501 400q0 16 -11 32t-22 24l-11 7
q-2 2 -8 2q-7 0 -11 -2q-24 -6 -49.5 -15t-60 -24t-56 -35.5t-21.5 -42.5q0 -33 51 -74q2 -3 8 -3q4 0 6 1q57 15 121 53.5t64 76.5z" />
    <glyph glyph-name="dieresis" unicode="&#xa8;" 
d="M432 647q-11 -40 -37.5 -65.5t-65.5 -25.5q-51 0 -51 39q0 5 3 17q11 37 38.5 60.5t67.5 23.5q47 0 47 -37q0 -6 -2 -12zM653 647q-11 -40 -37.5 -65.5t-65.5 -25.5q-51 0 -51 39q0 5 3 17q11 37 38.5 60.5t67.5 23.5q47 0 47 -37q0 -6 -2 -12z" />
    <glyph glyph-name="ordfeminine" unicode="&#xaa;" horiz-adv-x="402" 
d="M426 612l2 6q0 4 -5 6t-9 2h-5q-45 0 -96.5 -73t-51.5 -118q0 -21 18 -21q35 0 73 69q46 89 74 129zM300 371q-56 -49 -110 -49q-53 0 -53 61q0 96 85.5 199.5t176.5 103.5q43 0 58 -20q3 -3 6 -3l6 3q16 30 86 30q22 0 22 -10q0 -1 -1.5 -3.5t-1.5 -3.5
q-19 -29 -47 -74.5t-74.5 -133.5t-46.5 -115q0 -5 1 -6q16 -16 16 -24q0 -11 -28 -20t-49 -9q-24 0 -36 6.5t-12 24.5q0 9 2.5 19t5.5 16l2 6q2 4 2 5t-2 1z" />
    <glyph glyph-name="guillemotleft" unicode="&#xab;" horiz-adv-x="650" 
d="M258 2q-17 -2 -42 -2q-24 0 -38 3.5t-16 6.5l-1 4q-32 43 -61.5 94t-43.5 80l-13 29q-3 5 -3 13q0 18 18 32q185 123 267 165q26 15 84 15q23 0 58 -3q8 -2 8 -8q0 -5 -11 -13q-208 -118 -289 -179q-11 -8 -11 -19q0 -4 1 -6q35 -70 112 -188q3 -3 3 -11q0 -11 -22 -13z
M529 1q-25 -3 -42 -3q-23 0 -36.5 3.5t-16.5 7.5l-2 4q-32 43 -60.5 91t-41.5 75l-12 27q-3 5 -3 12q0 17 19 32q202 135 284 177q13 15 84 15q24 0 58 -3q8 -2 8 -8q0 -5 -11 -13q-226 -130 -306 -191q-12 -8 -12 -19q0 -4 1 -6q31 -60 108 -178q4 -8 4 -9q0 -11 -23 -14z
" />
    <glyph glyph-name="macron" unicode="&#xaf;" 
d="M572 546q-12 -15 -36 -15h-264q-17 0 -17 11l2 7q13 31 26.5 47.5t36.5 16.5h266q17 0 17 -10q0 -8 -11 -27t-20 -30z" />
    <glyph glyph-name="degree" unicode="&#xb0;" horiz-adv-x="270" 
d="M303 594q35 0 51 -10.5t16 -37.5q0 -36 -29.5 -74t-68.5 -48q-13 -3 -43 -3q-60 0 -60 43q0 31 19.5 65t48.5 50q27 15 66 15zM225 488q0 -19 26 -19q19 0 27 4q35 15 35 52q0 21 -28 21q-26 0 -43 -17.5t-17 -40.5z" />
    <glyph glyph-name="acute" unicode="&#xb4;" 
d="M653 668q-25 -36 -99.5 -77t-99.5 -41q-10 0 -10 9q0 17 28.5 58t51.5 58q19 14 65 14q30 0 52 -2q16 -1 16 -10q0 -4 -4 -9z" />
    <glyph glyph-name="paragraph" unicode="&#xb6;" horiz-adv-x="521" 
d="M302 -5q-10 -18 -56 -18q-38 0 -38 9l4 9q18 29 60.5 105t75.5 138l34 62q53 101 108 192.5t83 132.5l28 41q5 8 5 10t-3 3.5t-7 1.5h-3q-31 0 -47 -9q-16 -8 -65 -87.5t-90 -155.5l-41 -76q-43 -82 -93.5 -171.5t-80.5 -137.5l-29 -49q-21 -21 -70 -21q-32 0 -32 10
q0 6 8.5 17.5t16.5 20.5l9 8q29 34 70 103t67 121l27 51q2 4 2 6q0 3 -1.5 4.5t-3.5 2.5h-1q-62 9 -101 40t-39 85q0 35 15 74t51 80.5t88 74.5t134 54.5t181 21.5q74 0 150 -11q12 -2 12 -13q0 -1 -0.5 -2.5t-0.5 -2.5q-26 -47 -79 -107q-35 -49 -71 -105t-60 -96t-61 -110
t-51 -96.5t-55.5 -110t-49.5 -99.5z" />
    <glyph glyph-name="periodcentered" unicode="&#xb7;" horiz-adv-x="267" 
d="M255 258q-33 -103 -121 -103q-59 0 -59 43q0 9 3 21q14 43 46.5 69.5t78.5 26.5q54 0 54 -41q0 -4 -2 -16z" />
    <glyph glyph-name="cedilla" unicode="&#xb8;" horiz-adv-x="512" 
d="M242 -27q-11 -15 -13 -20q-1 -1 -1 -3q0 -4 4 -4q4 -1 10.5 -3t17.5 -12t11 -26q0 -38 -32.5 -55t-72.5 -17q-43 0 -43 19q0 11 12 26t22 15l6 -5q3 -24 22 -24q39 0 39 31q0 23 -43 23h-7q-7 0 -7 7q0 17 27 48h48z" />
    <glyph glyph-name="ordmasculine" unicode="&#xba;" horiz-adv-x="389" 
d="M418 696q49 0 72.5 -26.5t23.5 -63.5q0 -102 -92 -205.5t-189 -103.5q-27 0 -45.5 11t-25.5 28.5t-9 28t-2 20.5q3 39 19.5 76.5t38.5 63.5t43.5 46t36.5 29l15 10q4 3 4 5t-7 4q-27 9 -27 21q0 5 5 10q44 46 139 46zM379 612l-12 -3q-10 -8 -25.5 -22.5t-44.5 -62
t-35 -98.5v-15q0 -42 26 -42q34 0 79.5 73t45.5 128q0 42 -34 42z" />
    <glyph glyph-name="guillemotright" unicode="&#xbb;" horiz-adv-x="702" 
d="M486 437q27 3 45 3q12 0 22 -1.5t15.5 -3.5t9 -4t4.5 -3l1 -2q32 -43 61.5 -94t43.5 -80l13 -30q3 -5 3 -12q0 -17 -19 -32q-184 -123 -266 -166q-19 -14 -80 -14q-26 0 -62 3q-8 2 -8 8q0 5 11 13q208 118 288 179q12 8 12 19q0 4 -1 6q-35 70 -112 188q-4 8 -4 10
q0 10 23 13zM215 439q26 3 42 3q23 0 36.5 -4t16.5 -8l2 -3q32 -43 60.5 -91.5t41.5 -75.5l12 -26q3 -5 3 -12q0 -17 -19 -32q-202 -135 -284 -178q-20 -14 -80 -14q-26 0 -62 3q-9 2 -9 8q0 5 11 13q227 129 307 190q12 8 12 20q0 4 -1 6q-31 59 -108 177q-4 8 -4 10
q0 11 23 14z" />
    <glyph glyph-name="questiondown" unicode="&#xbf;" horiz-adv-x="518" 
d="M455 437q33 103 121 103q59 0 59 -43q0 -9 -3 -21q-14 -43 -46.5 -69.5t-78.5 -26.5q-54 0 -54 41q0 4 2 16zM330 213q22 3 37.5 9.5t20.5 11.5l4 6q20 24 57.5 50.5t54.5 26.5q12 0 12 -23q0 -24 -12.5 -53t-25.5 -47l-12 -17q-19 -19 -38 -19q-82 -10 -143.5 -36.5
t-92.5 -56.5t-50 -64t-23 -52.5t-4 -29.5q0 -49 51 -49q14 0 26.5 5t17.5 10l5 5q30 49 88 95t96 46q13 0 13 -15q0 -37 -32 -93.5t-68 -97.5q-13 -14 -42 -20q-49 -11 -108 -11q-39 0 -73 7t-63.5 23t-46.5 45t-17 69q0 78 51.5 142.5t129.5 92.5q69 25 187 40z" />
    <glyph glyph-name="Agrave" unicode="&#xc0;" horiz-adv-x="584" 
d="M522 80q-8 -26 -8 -47q0 -7 2 -52.5t2 -65.5q0 -6 -3 -9t-6 -4h-3q-50 0 -99.5 31t-49.5 80l3 25l60 210q1 1 1 4q0 2 -2 3.5t-4 1.5h-2q-34 2 -50 2l-97 -5q-7 0 -13 -3.5t-8 -6.5l-2 -3q-58 -57 -112 -115.5t-79 -88.5l-26 -30q-33 -37 -193 -37q-25 0 -25 10l5 11
q21 20 124 86q46 31 96 73t78.5 70t28.5 31q0 6 -5 6q-2 0 -6 0.5t-13.5 4t-16.5 8t-13 13.5t-6 21q0 11 4 22q2 8 16 8h124q7 0 16 10q11 11 29.5 30t66.5 70t86 92.5t71 82.5t38 56q6 46 18 52q30 15 86 15q80 0 80 -23q0 -1 -0.5 -2.5t-0.5 -2.5q-99 -323 -192 -634z
M573 895q-2 6 -2 7q0 14 55 14q65 0 78 -14q23 -43 30 -108q0 -17 -12 -17q-25 0 -79 41t-70 77zM451 347l50 144q1 3 1 6q0 4 -2 4q-3 0 -8 -5q-14 -17 -50 -54.5t-64 -66.5l-29 -29q-4 -4 -4 -6q0 -3 6 -3q36 1 90 1q7 0 10 9z" />
    <glyph glyph-name="Aacute" unicode="&#xc1;" horiz-adv-x="584" 
d="M522 80q-8 -26 -8 -47q0 -7 2 -52.5t2 -65.5q0 -6 -3 -9t-6 -4h-3q-50 0 -99.5 31t-49.5 80l3 25l60 210q1 1 1 4q0 2 -2 3.5t-4 1.5h-2q-34 2 -50 2l-97 -5q-7 0 -13 -3.5t-8 -6.5l-2 -3q-58 -57 -112 -115.5t-79 -88.5l-26 -30q-33 -37 -193 -37q-25 0 -25 10l5 11
q21 20 124 86q46 31 96 73t78.5 70t28.5 31q0 6 -5 6q-2 0 -6 0.5t-13.5 4t-16.5 8t-13 13.5t-6 21q0 11 4 22q2 8 16 8h124q7 0 16 10q11 11 29.5 30t66.5 70t86 92.5t71 82.5t38 56q6 46 18 52q30 15 86 15q80 0 80 -23q0 -1 -0.5 -2.5t-0.5 -2.5q-99 -323 -192 -634z
M850 919q-25 -36 -99.5 -77t-99.5 -41q-10 0 -10 9q0 17 28.5 58t51.5 58q19 14 65 14q30 0 52 -2q16 -1 16 -10q0 -4 -4 -9zM451 347l50 144q1 3 1 6q0 4 -2 4q-3 0 -8 -5q-14 -17 -50 -54.5t-64 -66.5l-29 -29q-4 -4 -4 -6q0 -3 6 -3q36 1 90 1q7 0 10 9z" />
    <glyph glyph-name="Acircumflex" unicode="&#xc2;" horiz-adv-x="584" 
d="M522 80q-8 -26 -8 -47q0 -7 2 -52.5t2 -65.5q0 -6 -3 -9t-6 -4h-3q-50 0 -99.5 31t-49.5 80l3 25l60 210q1 1 1 4q0 2 -2 3.5t-4 1.5h-2q-34 2 -50 2l-97 -5q-7 0 -13 -3.5t-8 -6.5l-2 -3q-58 -57 -112 -115.5t-79 -88.5l-26 -30q-33 -37 -193 -37q-25 0 -25 10l5 11
q21 20 124 86q46 31 96 73t78.5 70t28.5 31q0 6 -5 6q-2 0 -6 0.5t-13.5 4t-16.5 8t-13 13.5t-6 21q0 11 4 22q2 8 16 8h124q7 0 16 10q11 11 29.5 30t66.5 70t86 92.5t71 82.5t38 56q6 46 18 52q30 15 86 15q80 0 80 -23q0 -1 -0.5 -2.5t-0.5 -2.5q-99 -323 -192 -634z
M696 836q-1 1 -3 1l-4 -1q-34 -20 -78 -37.5t-71 -24.5l-27 -8q-12 -3 -16 -3q-6 0 -6 4l5 11q20 26 48 50.5t46 35.5l18 11l29 10q29 4 69 4q35 0 67 -4q14 -2 19 -10q12 -19 12 -52q0 -21 -7 -45q-4 -15 -18 -15q-17 0 -45.5 26t-37.5 47zM451 347l50 144q1 3 1 6
q0 4 -2 4q-3 0 -8 -5q-14 -17 -50 -54.5t-64 -66.5l-29 -29q-4 -4 -4 -6q0 -3 6 -3q36 1 90 1q7 0 10 9z" />
    <glyph glyph-name="Atilde" unicode="&#xc3;" horiz-adv-x="584" 
d="M522 80q-8 -26 -8 -47q0 -7 2 -52.5t2 -65.5q0 -6 -3 -9t-6 -4h-3q-50 0 -99.5 31t-49.5 80l3 25l60 210q1 1 1 4q0 2 -2 3.5t-4 1.5h-2q-34 2 -50 2l-97 -5q-7 0 -13 -3.5t-8 -6.5l-2 -3q-58 -57 -112 -115.5t-79 -88.5l-26 -30q-33 -37 -193 -37q-25 0 -25 10l5 11
q21 20 124 86q46 31 96 73t78.5 70t28.5 31q0 6 -5 6q-2 0 -6 0.5t-13.5 4t-16.5 8t-13 13.5t-6 21q0 11 4 22q2 8 16 8h124q7 0 16 10q11 11 29.5 30t66.5 70t86 92.5t71 82.5t38 56q6 46 18 52q30 15 86 15q80 0 80 -23q0 -1 -0.5 -2.5t-0.5 -2.5q-99 -323 -192 -634z
M748 795q-24 1 -68.5 11.5t-52.5 10.5h-9q-44 -14 -73 -14q-5 0 -5 5q0 14 24 47t45 41q8 4 30 4q33 0 78 -11t52 -11q4 0 14 2q38 14 55 14q8 0 8 -5q-2 -6 -8.5 -17.5t-19.5 -30.5t-31.5 -32.5t-38.5 -13.5zM451 347l50 144q1 3 1 6q0 4 -2 4q-3 0 -8 -5
q-14 -17 -50 -54.5t-64 -66.5l-29 -29q-4 -4 -4 -6q0 -3 6 -3q36 1 90 1q7 0 10 9z" />
    <glyph glyph-name="Adieresis" unicode="&#xc4;" horiz-adv-x="584" 
d="M522 80q-8 -26 -8 -47q0 -7 2 -52.5t2 -65.5q0 -6 -3 -9t-6 -4h-3q-50 0 -99.5 31t-49.5 80l3 25l60 210q1 1 1 4q0 2 -2 3.5t-4 1.5h-2q-34 2 -50 2l-97 -5q-7 0 -13 -3.5t-8 -6.5l-2 -3q-58 -57 -112 -115.5t-79 -88.5l-26 -30q-33 -37 -193 -37q-25 0 -25 10l5 11
q21 20 124 86q46 31 96 73t78.5 70t28.5 31q0 6 -5 6q-2 0 -6 0.5t-13.5 4t-16.5 8t-13 13.5t-6 21q0 11 4 22q2 8 16 8h124q7 0 16 10q11 11 29.5 30t66.5 70t86 92.5t71 82.5t38 56q6 46 18 52q30 15 86 15q80 0 80 -23q0 -1 -0.5 -2.5t-0.5 -2.5q-99 -323 -192 -634z
M878 867q-11 -40 -37.5 -65.5t-65.5 -25.5q-51 0 -51 39q0 5 3 17q11 37 38.5 60.5t67.5 23.5q47 0 47 -37q0 -6 -2 -12zM657 867q-11 -40 -37.5 -65.5t-65.5 -25.5q-51 0 -51 39q0 5 3 17q11 37 38.5 60.5t67.5 23.5q47 0 47 -37q0 -6 -2 -12zM451 347l50 144q1 3 1 6
q0 4 -2 4q-3 0 -8 -5q-14 -17 -50 -54.5t-64 -66.5l-29 -29q-4 -4 -4 -6q0 -3 6 -3q36 1 90 1q7 0 10 9z" />
    <glyph glyph-name="Aring" unicode="&#xc5;" horiz-adv-x="584" 
d="M522 80q-8 -26 -8 -47q0 -7 2 -52.5t2 -65.5q0 -6 -3 -9t-6 -4h-3q-50 0 -99.5 31t-49.5 80l3 25l60 210q1 1 1 4q0 2 -2 3.5t-4 1.5h-2q-34 2 -50 2l-97 -5q-7 0 -13 -3.5t-8 -6.5l-2 -3q-58 -57 -112 -115.5t-79 -88.5l-26 -30q-33 -37 -193 -37q-25 0 -25 10l5 11
q21 20 124 86q46 31 96 73t78.5 70t28.5 31q0 6 -5 6q-2 0 -6 0.5t-13.5 4t-16.5 8t-13 13.5t-6 21q0 11 4 22q2 8 16 8h124q7 0 16 10q11 11 29.5 30t66.5 70t86 92.5t71 82.5t38 56q6 46 18 52q30 15 86 15q80 0 80 -23q0 -1 -0.5 -2.5t-0.5 -2.5q-99 -323 -192 -634z
M745 944q35 0 51 -10.5t16 -37.5q0 -36 -29.5 -74t-68.5 -48q-13 -3 -43 -3q-60 0 -60 43q0 31 19.5 65t48.5 50q27 15 66 15zM451 347l50 144q1 3 1 6q0 4 -2 4q-3 0 -8 -5q-14 -17 -50 -54.5t-64 -66.5l-29 -29q-4 -4 -4 -6q0 -3 6 -3q36 1 90 1q7 0 10 9zM667 838
q0 -19 26 -19q19 0 27 4q35 15 35 52q0 21 -28 21q-26 0 -43 -17.5t-17 -40.5z" />
    <glyph glyph-name="AE" unicode="&#xc6;" horiz-adv-x="956" 
d="M522 -9q-20 0 -20 -15q2 -23 2 -49v-10q0 -6 -3 -9.5t-6 -3.5l-3 -1q-44 0 -85 32.5t-41 78.5l3 25q6 24 23.5 76t31.5 93l15 40l1 1v2q0 3 -2 4.5t-4 2.5h-2q-14 1 -44 1l-121 -5q-8 0 -14 -3t-8 -6l-2 -3q-58 -57 -112 -116t-79 -89l-26 -30q-31 -36 -181 -36h-21
q-16 1 -16 10l6 11q48 40 124 86q109 77 202 171q0 8 -4 8q-6 1 -15.5 3t-25 14t-15.5 31q0 10 4 21q2 9 17 9q38 -1 85 -1h37q9 0 18 10q11 10 29.5 28t66 66.5t85 89.5t71 84t38.5 63q6 47 18 52q31 15 84 15q40 0 61 -8q10 -3 10 -13q0 -4 -1 -6q-38 -110 -58 -197
q-3 -6 -3 -14q0 -6 3 -6t5.5 3t6.5 11t5 9q33 56 68 142l11 43q0 13 9 16q98 8 223 8q104 0 176 -6q13 -2 13 -11q0 -1 -0.5 -2t-0.5 -2q-23 -72 -49 -119t-41 -61t-25 -14t-17.5 17.5t-11 42t-4.5 40t-1 20.5t-2 8t-4 3l-2 1q-30 5 -79 5l-63 -2q-9 0 -9 -11q-2 -29 -9 -47
q-16 -41 -54 -105q-12 -22 -32 -56q-2 -3 -2 -5q0 -5 8 -5q67 3 116 3q25 0 40 -1q13 0 13 -13q0 -3 -3 -14t-14 -33t-27 -42q-3 -5 -9 -5q-7 0 -14 6l-19 17q-9 8 -100 8h-22q-6 0 -12 -2.5t-9 -4.5l-3 -2q-36 -59 -74.5 -138.5t-48.5 -111.5q-1 -3 -1 -6q0 -8 7 -9
q34 -4 71 -4q65 0 86 15q8 5 17 13q159 140 208 140q9 0 9 -8q0 -5 -16.5 -43.5t-45 -91.5t-52.5 -81q-18 -19 -32 -19q-93 -4 -199 -4q-75 0 -108 1zM470 347l59 173q1 3 1 6t-2 3l-8 -4q-14 -17 -57 -62t-79 -81l-35 -36q-3 -3 -3 -5q0 -3 5 -3q36 1 109 1q7 0 10 8z" />
    <glyph glyph-name="Ccedilla" unicode="&#xc7;" horiz-adv-x="512" 
d="M757 705q-19 -50 -41 -94t-40.5 -70.5t-34 -46t-24.5 -27.5l-9 -8q-14 -13 -25 -13q-14 0 -21 21.5t-7 42.5q0 27 8 60t16 52l8 20q4 7 4 12q0 11 -31 11q-53 0 -115 -57t-108.5 -136t-77.5 -161.5t-31 -132.5q0 -39 20.5 -66.5t58.5 -27.5q29 0 57 11.5t48 27.5t36 32
t24 27l7 12q7 10 15 10q9 0 14 -16t5 -31q0 -11 -2.5 -21t-5.5 -14l-3 -4q-39 -63 -110 -102t-150 -43q-11 -15 -13 -20q-1 -1 -1 -3q0 -4 4 -4q4 -1 10.5 -3t17.5 -12t11 -26q0 -38 -32.5 -55t-72.5 -17q-43 0 -43 19q0 11 12 26t22 15l6 -5q3 -24 22 -24q39 0 39 31
q0 23 -43 23h-7q-7 0 -7 7q0 14 27 49q-141 17 -141 173q0 47 16 108t45.5 129t78 132.5t108.5 117t142 84t173 31.5q88 0 136 -25q6 -4 6 -12q0 -4 -1 -7z" />
    <glyph glyph-name="Egrave" unicode="&#xc8;" horiz-adv-x="554" 
d="M759 708q-19 -60 -43 -106t-38 -62l-14 -17q-9 -9 -19 -9t-17.5 16.5t-11 40t-4.5 39.5t-1 24q0 5 -2 8t-4 4h-2q-30 6 -91 6l-67 -2q-10 -2 -10 -11q0 -46 -5 -70q-4 -21 -73 -138q-2 -2 -2 -5q0 -5 7 -5q60 2 108 2q35 0 46 -1q15 0 15 -12q0 -4 -3 -15t-13.5 -33
t-26.5 -42q-3 -4 -9 -4q-4 0 -12.5 5.5t-14.5 10.5l-7 6q-9 9 -121 9q-6 0 -11 -2.5t-7 -4.5l-2 -3q-105 -192 -132 -251q-2 -4 -2 -7q0 -5 6 -6q36 -4 76 -4q42 0 63.5 5t41.5 23q161 140 209 140q7 0 7 -7q0 -3 -3 -12q-61 -149 -111 -205q-15 -18 -31 -20q-95 -4 -206 -4
l-246 5q-5 2 -5 9l2 7q35 72 110.5 213t134.5 246l58 105q4 9 7 18.5t3 13.5l1 5l4 98q2 10 11 12q125 9 268 9q92 0 178 -6q12 0 12 -11zM483 891q-2 6 -2 7q0 14 55 14q65 0 78 -14q23 -43 30 -108q0 -17 -12 -17q-25 0 -79 41t-70 77z" />
    <glyph glyph-name="Eacute" unicode="&#xc9;" horiz-adv-x="554" 
d="M759 708q-19 -60 -43 -106t-38 -62l-14 -17q-9 -9 -19 -9t-17.5 16.5t-11 40t-4.5 39.5t-1 24q0 5 -2 8t-4 4h-2q-30 6 -91 6l-67 -2q-10 -2 -10 -11q0 -46 -5 -70q-4 -21 -73 -138q-2 -2 -2 -5q0 -5 7 -5q60 2 108 2q35 0 46 -1q15 0 15 -12q0 -4 -3 -15t-13.5 -33
t-26.5 -42q-3 -4 -9 -4q-4 0 -12.5 5.5t-14.5 10.5l-7 6q-9 9 -121 9q-6 0 -11 -2.5t-7 -4.5l-2 -3q-105 -192 -132 -251q-2 -4 -2 -7q0 -5 6 -6q36 -4 76 -4q42 0 63.5 5t41.5 23q161 140 209 140q7 0 7 -7q0 -3 -3 -12q-61 -149 -111 -205q-15 -18 -31 -20q-95 -4 -206 -4
l-246 5q-5 2 -5 9l2 7q35 72 110.5 213t134.5 246l58 105q4 9 7 18.5t3 13.5l1 5l4 98q2 10 11 12q125 9 268 9q92 0 178 -6q12 0 12 -11zM760 876q-25 -36 -99.5 -77t-99.5 -41q-10 0 -10 9q0 17 28.5 58t51.5 58q19 14 65 14q30 0 52 -2q16 -1 16 -10q0 -4 -4 -9z" />
    <glyph glyph-name="Ecircumflex" unicode="&#xca;" horiz-adv-x="554" 
d="M759 708q-19 -60 -43 -106t-38 -62l-14 -17q-9 -9 -19 -9t-17.5 16.5t-11 40t-4.5 39.5t-1 24q0 5 -2 8t-4 4h-2q-30 6 -91 6l-67 -2q-10 -2 -10 -11q0 -46 -5 -70q-4 -21 -73 -138q-2 -2 -2 -5q0 -5 7 -5q60 2 108 2q35 0 46 -1q15 0 15 -12q0 -4 -3 -15t-13.5 -33
t-26.5 -42q-3 -4 -9 -4q-4 0 -12.5 5.5t-14.5 10.5l-7 6q-9 9 -121 9q-6 0 -11 -2.5t-7 -4.5l-2 -3q-105 -192 -132 -251q-2 -4 -2 -7q0 -5 6 -6q36 -4 76 -4q42 0 63.5 5t41.5 23q161 140 209 140q7 0 7 -7q0 -3 -3 -12q-61 -149 -111 -205q-15 -18 -31 -20q-95 -4 -206 -4
l-246 5q-5 2 -5 9l2 7q35 72 110.5 213t134.5 246l58 105q4 9 7 18.5t3 13.5l1 5l4 98q2 10 11 12q125 9 268 9q92 0 178 -6q12 0 12 -11zM605 830q-1 1 -3 1l-4 -1q-34 -20 -78 -37.5t-71 -24.5l-27 -8q-12 -3 -16 -3q-6 0 -6 4l5 11q20 26 48 50.5t46 35.5l18 11l29 10
q29 4 69 4q35 0 67 -4q14 -2 19 -10q12 -19 12 -52q0 -21 -7 -45q-4 -15 -18 -15q-17 0 -45.5 26t-37.5 47z" />
    <glyph glyph-name="Edieresis" unicode="&#xcb;" horiz-adv-x="554" 
d="M759 708q-19 -60 -43 -106t-38 -62l-14 -17q-9 -9 -19 -9t-17.5 16.5t-11 40t-4.5 39.5t-1 24q0 5 -2 8t-4 4h-2q-30 6 -91 6l-67 -2q-10 -2 -10 -11q0 -46 -5 -70q-4 -21 -73 -138q-2 -2 -2 -5q0 -5 7 -5q60 2 108 2q35 0 46 -1q15 0 15 -12q0 -4 -3 -15t-13.5 -33
t-26.5 -42q-3 -4 -9 -4q-4 0 -12.5 5.5t-14.5 10.5l-7 6q-9 9 -121 9q-6 0 -11 -2.5t-7 -4.5l-2 -3q-105 -192 -132 -251q-2 -4 -2 -7q0 -5 6 -6q36 -4 76 -4q42 0 63.5 5t41.5 23q161 140 209 140q7 0 7 -7q0 -3 -3 -12q-61 -149 -111 -205q-15 -18 -31 -20q-95 -4 -206 -4
l-246 5q-5 2 -5 9l2 7q35 72 110.5 213t134.5 246l58 105q4 9 7 18.5t3 13.5l1 5l4 98q2 10 11 12q125 9 268 9q92 0 178 -6q12 0 12 -11zM548 858q-11 -40 -37.5 -65.5t-65.5 -25.5q-51 0 -51 39q0 5 3 17q11 37 38.5 60.5t67.5 23.5q47 0 47 -37q0 -6 -2 -12zM769 858
q-11 -40 -37.5 -65.5t-65.5 -25.5q-51 0 -51 39q0 5 3 17q11 37 38.5 60.5t67.5 23.5q47 0 47 -37q0 -6 -2 -12z" />
    <glyph glyph-name="Igrave" unicode="&#xcc;" horiz-adv-x="268" 
d="M143 18q-21 -39 -136 -39l-36 1q-12 1 -12 10l4 12q43 62 123.5 209t139.5 263l60 115l61 130q2 5 9 10.5t15 6.5q44 8 93 8q33 0 63 -6q4 -3 4 -9q0 -7 -8.5 -22.5t-18 -29t-19 -26.5t-9.5 -14q-217 -367 -333 -619zM386 910q-2 6 -2 7q0 14 55 14q65 0 78 -14
q23 -43 30 -108q0 -17 -12 -17q-25 0 -79 41t-70 77z" />
    <glyph glyph-name="Iacute" unicode="&#xcd;" horiz-adv-x="268" 
d="M143 18q-21 -39 -136 -39l-36 1q-12 1 -12 10l4 12q43 62 123.5 209t139.5 263l60 115l61 130q2 5 9 10.5t15 6.5q44 8 93 8q33 0 63 -6q4 -3 4 -9q0 -7 -8.5 -22.5t-18 -29t-19 -26.5t-9.5 -14q-217 -367 -333 -619zM652 910q-25 -36 -99.5 -77t-99.5 -41q-10 0 -10 9
q0 17 28.5 58t51.5 58q19 14 65 14q30 0 52 -2q16 -1 16 -10q0 -4 -4 -9z" />
    <glyph glyph-name="Icircumflex" unicode="&#xce;" horiz-adv-x="268" 
d="M143 18q-21 -39 -136 -39l-36 1q-12 1 -12 10l4 12q43 62 123.5 209t139.5 263l60 115l61 130q2 5 9 10.5t15 6.5q44 8 93 8q33 0 63 -6q4 -3 4 -9q0 -7 -8.5 -22.5t-18 -29t-19 -26.5t-9.5 -14q-217 -367 -333 -619zM512 842q-1 1 -3 1l-4 -1q-34 -20 -78 -37.5
t-71 -24.5l-27 -8q-12 -3 -16 -3q-6 0 -6 4l5 11q20 26 48 50.5t46 35.5l18 11l29 10q29 4 69 4q35 0 67 -4q14 -2 19 -10q12 -19 12 -52q0 -21 -7 -45q-4 -15 -18 -15q-17 0 -45.5 26t-37.5 47z" />
    <glyph glyph-name="Idieresis" unicode="&#xcf;" horiz-adv-x="268" 
d="M143 18q-21 -39 -136 -39l-36 1q-12 1 -12 10l4 12q43 62 123.5 209t139.5 263l60 115l61 130q2 5 9 10.5t15 6.5q44 8 93 8q33 0 63 -6q4 -3 4 -9q0 -7 -8.5 -22.5t-18 -29t-19 -26.5t-9.5 -14q-217 -367 -333 -619zM484 877q-11 -40 -37.5 -65.5t-65.5 -25.5
q-51 0 -51 39q0 5 3 17q11 37 38.5 60.5t67.5 23.5q47 0 47 -37q0 -6 -2 -12zM705 877q-11 -40 -37.5 -65.5t-65.5 -25.5q-51 0 -51 39q0 5 3 17q11 37 38.5 60.5t67.5 23.5q47 0 47 -37q0 -6 -2 -12z" />
    <glyph glyph-name="Eth" unicode="&#xd0;" horiz-adv-x="584" 
d="M153 -37q-46 0 -90.5 6.5t-65.5 12.5l-21 7q-5 3 -5 8l2 8q41 89 154 299h-66q-14 0 -14 13l2 8q10 34 21.5 52.5t30.5 18.5h76l99 179q4 9 6.5 18.5t3.5 14.5v4l3 98q3 10 12 13q54 8 124 8q47 0 83.5 -3.5t77 -15t66.5 -31.5t43.5 -56.5t17.5 -86.5q0 -35 -9 -81
t-30 -101.5t-51.5 -110t-77 -105.5t-101.5 -90.5t-130.5 -63t-160.5 -23.5zM403 321q-10 -17 -30 -17h-89q-101 -183 -126 -242q-2 -3 -2 -7q0 -6 6 -7q10 -2 25 -2q68 0 139.5 58.5t122.5 141t84 171t33 149.5q0 45 -26.5 67.5t-72.5 22.5l-24 -2q-9 -2 -9 -12
q0 -48 -7 -75q-3 -12 -10 -26t-17 -30.5t-13 -22.5q-22 -38 -52 -92h80q13 0 13 -11q0 -20 -25 -64z" />
    <glyph glyph-name="Ntilde" unicode="&#xd1;" horiz-adv-x="558" 
d="M278 -1q14 94 23.5 213t12 178t2.5 74q0 7 -3 7l-10 -7q-91 -164 -212 -436q-10 -23 -55.5 -36.5t-75 -16t-44.5 -2.5q-11 0 -11 8l2 7q40 63 98 125q18 22 32 43q74 117 135.5 226.5t85.5 161.5l25 51l14 47l9 77q2 11 19 15q45 9 110 9q25 0 39 -1q23 -2 23 -19
q-25 -219 -25 -355q0 -5 0.5 -14.5t0.5 -13.5q2 -10 7 -10q6 0 12 13q135 265 179 357q23 55 51 70q10 6 27.5 15.5t66 26t91.5 18.5q10 0 10 -6q0 -28 -162 -203q-13 -15 -23 -30q-18 -26 -47.5 -72.5t-99.5 -179.5t-115 -253q-8 -28 -8 -60q0 -2 1 -6.5t1 -7.5
q0 -14 -39.5 -23.5t-103.5 -9.5q-43 0 -43 20zM668 806q-24 1 -68.5 11.5t-52.5 10.5h-9q-44 -14 -73 -14q-5 0 -5 5q0 14 24 47t45 41q8 4 30 4q33 0 78 -11t52 -11q4 0 14 2q38 14 55 14q8 0 8 -5q-2 -6 -8.5 -17.5t-19.5 -30.5t-31.5 -32.5t-38.5 -13.5z" />
    <glyph glyph-name="Ograve" unicode="&#xd2;" horiz-adv-x="621" 
d="M233 -33q-90 0 -135.5 46t-45.5 128q0 51 16.5 110t39.5 107.5t46 89.5t40 64l16 23q158 221 378 221q83 0 133 -43.5t50 -126.5q0 -64 -34 -159q-10 -27 -19 -49.5t-34 -73t-51.5 -90.5t-69 -88.5t-89 -81t-109.5 -55t-132 -22.5zM628 581q6 24 6 44q0 54 -62 54
q-37 0 -79.5 -32t-79.5 -82t-61.5 -89.5t-43.5 -76.5q-12 -21 -30 -55t-48 -111.5t-30 -122.5q0 -31 16.5 -47.5t45.5 -16.5q22 0 45 10.5t45 32t40 41.5t39.5 52t32.5 50.5t29.5 50t21.5 36.5q90 156 113 262zM563 895q-2 6 -2 7q0 14 55 14q65 0 78 -14q23 -43 30 -108
q0 -17 -12 -17q-25 0 -79 41t-70 77z" />
    <glyph glyph-name="Oacute" unicode="&#xd3;" horiz-adv-x="621" 
d="M233 -33q-90 0 -135.5 46t-45.5 128q0 51 16.5 110t39.5 107.5t46 89.5t40 64l16 23q158 221 378 221q83 0 133 -43.5t50 -126.5q0 -64 -34 -159q-10 -27 -19 -49.5t-34 -73t-51.5 -90.5t-69 -88.5t-89 -81t-109.5 -55t-132 -22.5zM628 581q6 24 6 44q0 54 -62 54
q-37 0 -79.5 -32t-79.5 -82t-61.5 -89.5t-43.5 -76.5q-12 -21 -30 -55t-48 -111.5t-30 -122.5q0 -31 16.5 -47.5t45.5 -16.5q22 0 45 10.5t45 32t40 41.5t39.5 52t32.5 50.5t29.5 50t21.5 36.5q90 156 113 262zM816 918q-25 -36 -99.5 -77t-99.5 -41q-10 0 -10 9
q0 17 28.5 58t51.5 58q19 14 65 14q30 0 52 -2q16 -1 16 -10q0 -4 -4 -9z" />
    <glyph glyph-name="Ocircumflex" unicode="&#xd4;" horiz-adv-x="621" 
d="M233 -33q-90 0 -135.5 46t-45.5 128q0 51 16.5 110t39.5 107.5t46 89.5t40 64l16 23q158 221 378 221q83 0 133 -43.5t50 -126.5q0 -64 -34 -159q-10 -27 -19 -49.5t-34 -73t-51.5 -90.5t-69 -88.5t-89 -81t-109.5 -55t-132 -22.5zM628 581q6 24 6 44q0 54 -62 54
q-37 0 -79.5 -32t-79.5 -82t-61.5 -89.5t-43.5 -76.5q-12 -21 -30 -55t-48 -111.5t-30 -122.5q0 -31 16.5 -47.5t45.5 -16.5q22 0 45 10.5t45 32t40 41.5t39.5 52t32.5 50.5t29.5 50t21.5 36.5q90 156 113 262zM654 850q-1 1 -3 1l-4 -1q-34 -20 -78 -37.5t-71 -24.5l-27 -8
q-12 -3 -16 -3q-6 0 -6 4l5 11q20 26 48 50.5t46 35.5l18 11l29 10q29 4 69 4q35 0 67 -4q14 -2 19 -10q12 -19 12 -52q0 -21 -7 -45q-4 -15 -18 -15q-17 0 -45.5 26t-37.5 47z" />
    <glyph glyph-name="Otilde" unicode="&#xd5;" horiz-adv-x="621" 
d="M233 -33q-90 0 -135.5 46t-45.5 128q0 51 16.5 110t39.5 107.5t46 89.5t40 64l16 23q158 221 378 221q83 0 133 -43.5t50 -126.5q0 -64 -34 -159q-10 -27 -19 -49.5t-34 -73t-51.5 -90.5t-69 -88.5t-89 -81t-109.5 -55t-132 -22.5zM628 581q6 24 6 44q0 54 -62 54
q-37 0 -79.5 -32t-79.5 -82t-61.5 -89.5t-43.5 -76.5q-12 -21 -30 -55t-48 -111.5t-30 -122.5q0 -31 16.5 -47.5t45.5 -16.5q22 0 45 10.5t45 32t40 41.5t39.5 52t32.5 50.5t29.5 50t21.5 36.5q90 156 113 262zM722 792q-24 1 -68.5 11.5t-52.5 10.5h-9q-44 -14 -73 -14
q-5 0 -5 5q0 14 24 47t45 41q8 4 30 4q33 0 78 -11t52 -11q4 0 14 2q38 14 55 14q8 0 8 -5q-2 -6 -8.5 -17.5t-19.5 -30.5t-31.5 -32.5t-38.5 -13.5z" />
    <glyph glyph-name="Odieresis" unicode="&#xd6;" horiz-adv-x="621" 
d="M233 -33q-90 0 -135.5 46t-45.5 128q0 51 16.5 110t39.5 107.5t46 89.5t40 64l16 23q158 221 378 221q83 0 133 -43.5t50 -126.5q0 -64 -34 -159q-10 -27 -19 -49.5t-34 -73t-51.5 -90.5t-69 -88.5t-89 -81t-109.5 -55t-132 -22.5zM628 581q6 24 6 44q0 54 -62 54
q-37 0 -79.5 -32t-79.5 -82t-61.5 -89.5t-43.5 -76.5q-12 -21 -30 -55t-48 -111.5t-30 -122.5q0 -31 16.5 -47.5t45.5 -16.5q22 0 45 10.5t45 32t40 41.5t39.5 52t32.5 50.5t29.5 50t21.5 36.5q90 156 113 262zM624 875q-11 -40 -37.5 -65.5t-65.5 -25.5q-51 0 -51 39
q0 5 3 17q11 37 38.5 60.5t67.5 23.5q47 0 47 -37q0 -6 -2 -12zM845 875q-11 -40 -37.5 -65.5t-65.5 -25.5q-51 0 -51 39q0 5 3 17q11 37 38.5 60.5t67.5 23.5q47 0 47 -37q0 -6 -2 -12z" />
    <glyph glyph-name="multiply" unicode="&#xd7;" horiz-adv-x="578" 
d="M690 531l-259 -178l64 -177q3 -7 3 -10q0 -18 -50 -18q-19 0 -27 1q-9 1 -16 7t-9 12l-3 5l-44 123l-175 -121q-39 -27 -107 -27q-37 0 -37 14q0 9 16 21l275 190l-58 165q-2 6 -2 9q0 6 4 10t8 5l4 1q20 5 41 5q20 0 29.5 -5t16.5 -21l40 -112l156 108q34 24 94 24
q52 0 52 -13q0 -7 -16 -18z" />
    <glyph glyph-name="Oslash" unicode="&#xd8;" horiz-adv-x="621" 
d="M1 -71q-48 0 -48 16l6 12q44 45 105 109q-12 33 -12 75q0 51 16.5 110t39.5 107.5t46 89.5t40 64l16 23q158 221 378 221q64 0 109 -27q50 54 54 59q14 23 64 23q41 0 41 -11l-3 -12q-3 -4 -16 -18t-39.5 -41.5t-48.5 -51.5q22 -39 22 -91q0 -64 -34 -159
q-10 -27 -19 -49.5t-34 -73t-51.5 -90.5t-69 -88.5t-89 -81t-109.5 -55t-132 -22.5q-81 0 -126 37l-46 -47q-14 -28 -60 -28zM515 319q67 116 100 216l-415 -433q5 -56 62 -56q22 0 45 10.5t45 32t40 41.5t39.5 52t32.5 50.5t29.5 50t21.5 36.5zM308 399q-44 -76 -76 -157
q227 236 395 413q-13 24 -55 24q-37 0 -79.5 -32t-79.5 -82t-61.5 -89.5t-43.5 -76.5z" />
    <glyph glyph-name="Ugrave" unicode="&#xd9;" horiz-adv-x="525" 
d="M709 550q-44 -73 -142 -257t-145 -240q-78 -94 -235 -94q-165 3 -165 126q0 33 12 71t24 60l11 22q15 29 94.5 174t88.5 166l11 26q7 30 13.5 54t9.5 33l4 9q6 15 29 20q59 13 120 13q23 0 45 -3q10 0 10 -11q0 -4 -5 -16q-16 -34 -74 -126q-194 -356 -218 -407
q-20 -38 -20 -73q0 -22 14 -37.5t40 -15.5q11 0 23.5 3.5t33 13t44.5 33.5t46 60q46 75 101 178.5t87 169.5l31 66q17 40 22 55q26 76 36 85q8 10 33 17q64 14 112 14q20 0 28 -2q4 0 4 -6q0 -15 -27 -52q-52 -68 -66 -85q-16 -22 -30 -44zM480 902q-2 6 -2 7q0 14 55 14
q65 0 78 -14q23 -43 30 -108q0 -17 -12 -17q-25 0 -79 41t-70 77z" />
    <glyph glyph-name="Uacute" unicode="&#xda;" horiz-adv-x="525" 
d="M709 550q-44 -73 -142 -257t-145 -240q-78 -94 -235 -94q-165 3 -165 126q0 33 12 71t24 60l11 22q15 29 94.5 174t88.5 166l11 26q7 30 13.5 54t9.5 33l4 9q6 15 29 20q59 13 120 13q23 0 45 -3q10 0 10 -11q0 -4 -5 -16q-16 -34 -74 -126q-194 -356 -218 -407
q-20 -38 -20 -73q0 -22 14 -37.5t40 -15.5q11 0 23.5 3.5t33 13t44.5 33.5t46 60q46 75 101 178.5t87 169.5l31 66q17 40 22 55q26 76 36 85q8 10 33 17q64 14 112 14q20 0 28 -2q4 0 4 -6q0 -15 -27 -52q-52 -68 -66 -85q-16 -22 -30 -44zM788 899q-25 -36 -99.5 -77
t-99.5 -41q-10 0 -10 9q0 17 28.5 58t51.5 58q19 14 65 14q30 0 52 -2q16 -1 16 -10q0 -4 -4 -9z" />
    <glyph glyph-name="Ucircumflex" unicode="&#xdb;" horiz-adv-x="525" 
d="M709 550q-44 -73 -142 -257t-145 -240q-78 -94 -235 -94q-165 3 -165 126q0 33 12 71t24 60l11 22q15 29 94.5 174t88.5 166l11 26q7 30 13.5 54t9.5 33l4 9q6 15 29 20q59 13 120 13q23 0 45 -3q10 0 10 -11q0 -4 -5 -16q-16 -34 -74 -126q-194 -356 -218 -407
q-20 -38 -20 -73q0 -22 14 -37.5t40 -15.5q11 0 23.5 3.5t33 13t44.5 33.5t46 60q46 75 101 178.5t87 169.5l31 66q17 40 22 55q26 76 36 85q8 10 33 17q64 14 112 14q20 0 28 -2q4 0 4 -6q0 -15 -27 -52q-52 -68 -66 -85q-16 -22 -30 -44zM645 849q-1 1 -3 1l-4 -1
q-34 -20 -78 -37.5t-71 -25.5l-27 -7q-12 -3 -16 -3q-6 0 -6 4l5 11q20 26 48 50.5t46 35.5l18 11l29 10q29 4 69 4q35 0 67 -4q14 -2 19 -10q12 -19 12 -52q0 -21 -7 -45q-4 -15 -18 -15q-17 0 -45.5 26t-37.5 47z" />
    <glyph glyph-name="Udieresis" unicode="&#xdc;" horiz-adv-x="525" 
d="M709 550q-44 -73 -142 -257t-145 -240q-78 -94 -235 -94q-165 3 -165 126q0 33 12 71t24 60l11 22q15 29 94.5 174t88.5 166l11 26q7 30 13.5 54t9.5 33l4 9q6 15 29 20q59 13 120 13q23 0 45 -3q10 0 10 -11q0 -4 -5 -16q-16 -34 -74 -126q-194 -356 -218 -407
q-20 -38 -20 -73q0 -22 14 -37.5t40 -15.5q11 0 23.5 3.5t33 13t44.5 33.5t46 60q46 75 101 178.5t87 169.5l31 66q17 40 22 55q26 76 36 85q8 10 33 17q64 14 112 14q20 0 28 -2q4 0 4 -6q0 -15 -27 -52q-52 -68 -66 -85q-16 -22 -30 -44zM592 858q-11 -40 -37.5 -65.5
t-65.5 -25.5q-51 0 -51 39q0 5 3 17q11 37 38.5 60.5t67.5 23.5q47 0 47 -37q0 -6 -2 -12zM813 858q-11 -40 -37.5 -65.5t-65.5 -25.5q-51 0 -51 39q0 5 3 17q11 37 38.5 60.5t67.5 23.5q47 0 47 -37q0 -6 -2 -12z" />
    <glyph glyph-name="Yacute" unicode="&#xdd;" horiz-adv-x="341" 
d="M338 419q61 70 172.5 191.5t140.5 139.5q104 64 252 64q13 0 13 -8q0 -9 -12 -16l-208 -153q-36 -27 -57 -44q-19 -14 -51 -40.5t-117.5 -108.5t-154.5 -164q-20 -19 -37 -45q-56 -84 -111 -207q-8 -24 -26 -31q-49 -19 -107 -19q-52 0 -52 16q0 3 3 8q22 32 141 251
q14 25 23 59q13 64 28 167t15 119q0 28 -7.5 65t-8.5 50q0 2 0.5 4.5t6 8.5t15.5 8q45 9 101 9q26 0 55 -3q13 0 13 -21q0 -11 -49 -295q0 -14 6 -14t13 9zM697 915q-25 -36 -99.5 -77t-99.5 -41q-10 0 -10 9q0 17 28.5 58t51.5 58q19 14 65 14q30 0 52 -2q16 -1 16 -10
q0 -4 -4 -9z" />
    <glyph glyph-name="Thorn" unicode="&#xde;" horiz-adv-x="560" 
d="M143 18q-21 -39 -136 -39l-36 1q-12 1 -12 10l4 12q109 176 225.5 397.5t158.5 319.5q2 5 9 10.5t15 6.5q44 8 93 8q33 0 63 -6q4 -3 4 -9q0 -7 -8.5 -22.5t-18 -29t-19 -26.5t-9.5 -14q-2 -3 -3 -5q199 -12 199 -156q0 -149 -124 -243t-300 -94q-30 0 -46 2
q-41 -83 -59 -123zM244 221q1 -1 4 -1q43 0 78.5 9t49.5 19l13 9q40 31 67.5 68t37.5 71t13.5 53t3.5 33q0 32 -24.5 50t-60.5 20q-104 -180 -182 -331z" />
    <glyph glyph-name="germandbls" unicode="&#xdf;" horiz-adv-x="634" 
d="M341 -18q-32 0 -55 5.5t-34.5 12.5t-18 16.5t-7.5 14.5t-1 10q0 12 12 27t24 15q3 0 7 -2q21 -6 41 -6q30 0 57.5 13t45.5 32t31.5 38t20.5 32l6 13q21 42 21 76q0 31 -16.5 52.5t-32.5 27.5l-17 6q-19 5 -19 21l3 13q11 23 27 37t26 16l10 3q66 22 123.5 71t57.5 103
q0 43 -52 43q-36 0 -72.5 -24t-65 -56.5t-60 -85t-50.5 -91t-45 -92.5t-36 -74q-48 -92 -82 -154.5t-44 -78.5l-11 -16q-39 -44 -137 -44q-38 0 -38 15l1 4q4 11 21.5 36.5t33.5 45.5l16 20q27 36 119 205q13 24 38 72t39.5 74.5t39.5 69t44.5 67.5t48 58t57 51.5t63.5 37
t76 26.5t87 8q39 0 73 -8t61 -32.5t27 -62.5q0 -34 -17 -64.5t-45.5 -54t-56.5 -39.5t-59 -29q-67 -25 -67 -46q0 -4 4 -8q3 -2 8.5 -5.5t19.5 -16.5t24.5 -28t19 -39.5t8.5 -51.5q0 -48 -28 -104q-3 -7 -8.5 -18t-28.5 -40t-51.5 -51.5t-78.5 -42.5t-108 -23z" />
    <glyph glyph-name="agrave" unicode="&#xe0;" 
d="M201 -14q0 5 1.5 12.5t3.5 13.5t2 7q0 3 -4 3l-5 -1q-46 -34 -112 -34q-87 4 -87 89q0 112 98 184.5t232 72.5h9q4 0 7.5 2t4.5 4l1 2q8 11 8 27q0 32 -53 32q-18 0 -40.5 -4t-36.5 -8l-13 -5q-11 -5 -20 -5q-14 0 -14 16q0 9 10 23.5t30 30.5t58 27.5t87 11.5
q132 0 132 -95q0 -57 -44 -126q-13 -21 -32.5 -53.5t-51.5 -99t-32 -93.5q0 -5 2 -11q21 -22 21 -32q0 -8 -10 -14q-35 -22 -83 -22q-69 0 -69 45zM245 138l64 114q1 2 1 5q0 7 -14 7q-49 0 -97.5 -53t-48.5 -100q0 -29 28 -29q6 0 14.5 2.5t24.5 16.5t28 37zM341 628
q-2 6 -2 7q0 14 55 14q65 0 78 -14q23 -43 30 -108q0 -17 -12 -17q-25 0 -79 41t-70 77z" />
    <glyph glyph-name="aacute" unicode="&#xe1;" 
d="M201 -14q0 5 1.5 12.5t3.5 13.5t2 7q0 3 -4 3l-5 -1q-46 -34 -112 -34q-87 4 -87 89q0 112 98 184.5t232 72.5h9q4 0 7.5 2t4.5 4l1 2q8 11 8 27q0 32 -53 32q-18 0 -40.5 -4t-36.5 -8l-13 -5q-11 -5 -20 -5q-14 0 -14 16q0 9 10 23.5t30 30.5t58 27.5t87 11.5
q132 0 132 -95q0 -57 -44 -126q-13 -21 -32.5 -53.5t-51.5 -99t-32 -93.5q0 -5 2 -11q21 -22 21 -32q0 -8 -10 -14q-35 -22 -83 -22q-69 0 -69 45zM601 631q-25 -36 -99.5 -77t-99.5 -41q-10 0 -10 9q0 17 28.5 58t51.5 58q19 14 65 14q30 0 52 -2q16 -1 16 -10q0 -4 -4 -9z
M245 138l64 114q1 2 1 5q0 7 -14 7q-49 0 -97.5 -53t-48.5 -100q0 -29 28 -29q6 0 14.5 2.5t24.5 16.5t28 37z" />
    <glyph glyph-name="acircumflex" unicode="&#xe2;" 
d="M201 -14q0 5 1.5 12.5t3.5 13.5t2 7q0 3 -4 3l-5 -1q-46 -34 -112 -34q-87 4 -87 89q0 112 98 184.5t232 72.5h9q4 0 7.5 2t4.5 4l1 2q8 11 8 27q0 32 -53 32q-18 0 -40.5 -4t-36.5 -8l-13 -5q-11 -5 -20 -5q-14 0 -14 16q0 9 10 23.5t30 30.5t58 27.5t87 11.5
q132 0 132 -95q0 -57 -44 -126q-13 -21 -32.5 -53.5t-51.5 -99t-32 -93.5q0 -5 2 -11q21 -22 21 -32q0 -8 -10 -14q-35 -22 -83 -22q-69 0 -69 45zM459 576q-1 1 -3 1l-4 -1q-34 -20 -78 -37.5t-71 -24.5l-27 -8q-12 -3 -16 -3q-6 0 -6 4l5 11q20 26 48 50.5t46 35.5l18 11
l29 10q29 4 69 4q35 0 67 -4q14 -2 19 -10q12 -19 12 -52q0 -21 -7 -45q-4 -15 -18 -15q-17 0 -45.5 26t-37.5 47zM245 138l64 114q1 2 1 5q0 7 -14 7q-49 0 -97.5 -53t-48.5 -100q0 -29 28 -29q6 0 14.5 2.5t24.5 16.5t28 37z" />
    <glyph glyph-name="atilde" unicode="&#xe3;" 
d="M201 -14q0 5 1.5 12.5t3.5 13.5t2 7q0 3 -4 3l-5 -1q-46 -34 -112 -34q-87 4 -87 89q0 112 98 184.5t232 72.5h9q4 0 7.5 2t4.5 4l1 2q8 11 8 27q0 32 -53 32q-18 0 -40.5 -4t-36.5 -8l-13 -5q-11 -5 -20 -5q-14 0 -14 16q0 9 10 23.5t30 30.5t58 27.5t87 11.5
q132 0 132 -95q0 -57 -44 -126q-13 -21 -32.5 -53.5t-51.5 -99t-32 -93.5q0 -5 2 -11q21 -22 21 -32q0 -8 -10 -14q-35 -22 -83 -22q-69 0 -69 45zM516 529q-3 -1 -12 -1q-15 0 -33 3.5t-43 9.5t-32 8q-5 1 -13 1h-10q-2 0 -12 -3.5t-26.5 -7t-34.5 -3.5q-4 0 -4 5
q0 13 19 39.5t39 34.5q7 4 29 4q33 0 79.5 -11t51.5 -11q4 0 14 2q38 14 55 14q8 0 8 -5q-1 -3 -3 -8t-9 -17.5t-15 -22.5t-21 -19.5t-27 -11.5zM245 138l64 114q1 2 1 5q0 7 -14 7q-49 0 -97.5 -53t-48.5 -100q0 -29 28 -29q6 0 14.5 2.5t24.5 16.5t28 37z" />
    <glyph glyph-name="adieresis" unicode="&#xe4;" 
d="M201 -14q0 5 1.5 12.5t3.5 13.5t2 7q0 3 -4 3l-5 -1q-46 -34 -112 -34q-87 4 -87 89q0 112 98 184.5t232 72.5h9q4 0 7.5 2t4.5 4l1 2q8 11 8 27q0 32 -53 32q-18 0 -40.5 -4t-36.5 -8l-13 -5q-11 -5 -20 -5q-14 0 -14 16q0 9 10 23.5t30 30.5t58 27.5t87 11.5
q132 0 132 -95q0 -57 -44 -126q-13 -21 -32.5 -53.5t-51.5 -99t-32 -93.5q0 -5 2 -11q21 -22 21 -32q0 -8 -10 -14q-35 -22 -83 -22q-69 0 -69 45zM623 603q-11 -40 -37.5 -65.5t-65.5 -25.5q-51 0 -51 39q0 5 3 17q11 37 38.5 60.5t67.5 23.5q47 0 47 -37q0 -6 -2 -12z
M402 603q-11 -40 -37.5 -65.5t-65.5 -25.5q-51 0 -51 39q0 5 3 17q11 37 38.5 60.5t67.5 23.5q47 0 47 -37q0 -6 -2 -12zM245 138l64 114q1 2 1 5q0 7 -14 7q-49 0 -97.5 -53t-48.5 -100q0 -29 28 -29q6 0 14.5 2.5t24.5 16.5t28 37z" />
    <glyph glyph-name="aring" unicode="&#xe5;" 
d="M201 -14q0 5 1.5 12.5t3.5 13.5t2 7q0 3 -4 3l-5 -1q-46 -34 -112 -34q-87 4 -87 89q0 112 98 184.5t232 72.5h9q4 0 7.5 2t4.5 4l1 2q8 11 8 27q0 32 -53 32q-18 0 -40.5 -4t-36.5 -8l-13 -5q-11 -5 -20 -5q-14 0 -14 16q0 9 10 23.5t30 30.5t58 27.5t87 11.5
q132 0 132 -95q0 -57 -44 -126q-13 -21 -32.5 -53.5t-51.5 -99t-32 -93.5q0 -5 2 -11q21 -22 21 -32q0 -8 -10 -14q-35 -22 -83 -22q-69 0 -69 45zM486 684q35 0 51 -10.5t16 -37.5q0 -36 -29.5 -74t-68.5 -48q-13 -3 -43 -3q-60 0 -60 43q0 31 19.5 65t48.5 50q27 15 66 15
zM245 138l64 114q1 2 1 5q0 7 -14 7q-49 0 -97.5 -53t-48.5 -100q0 -29 28 -29q6 0 14.5 2.5t24.5 16.5t28 37zM408 578q0 -19 26 -19q19 0 27 4q35 15 35 52q0 21 -28 21q-26 0 -43 -17.5t-17 -40.5z" />
    <glyph glyph-name="ae" unicode="&#xe6;" horiz-adv-x="670" 
d="M201 -14q0 5 1.5 12.5t3.5 13.5t2 7q0 3 -4 3l-5 -1q-46 -34 -112 -34q-87 4 -87 89q0 112 98 184.5t232 72.5h9q4 0 7.5 2t4.5 4l1 2q8 11 8 27q0 32 -53 32q-18 0 -40.5 -4t-36.5 -8l-13 -5q-11 -5 -20 -5q-14 0 -14 16q0 9 10 23.5t30 30.5t58 27.5t87 11.5
q91 0 120 -48q80 46 171 46q111 0 111 -61q0 -66 -61 -125.5t-138 -91.5t-139 -34q-15 0 -15 -28q0 -62 70 -62q57 0 114 43q8 6 15 6q9 0 9 -11q0 -48 -60.5 -94t-143.5 -46q-37 0 -72 20q14 -16 14 -24t-10 -14q-35 -22 -83 -22q-69 0 -69 45zM639 400q0 19 -23 19
q-37 0 -78 -41t-64 -82l-23 -42q-3 -5 -3 -8t4 -3t7 1q73 17 126.5 69.5t53.5 86.5zM245 138l64 114q1 2 1 5q0 7 -14 7q-49 0 -97.5 -53t-48.5 -100q0 -29 28 -29q6 0 14.5 2.5t24.5 16.5t28 37z" />
    <glyph glyph-name="ccedilla" unicode="&#xe7;" horiz-adv-x="399" 
d="M354 143q14 0 14 -28q0 -45 -56.5 -88t-139.5 -49l-2 -2l-5 -7.5l-5 -7.5q-1 -2 -1 -3q0 -3 4 -3q4 -1 9 -2.5t14 -10t9 -21.5q0 -31 -26.5 -46.5t-61.5 -15.5q-7 0 -13.5 1t-10 2.5t-6 2.5t-3.5 2l-1 1q-3 3 -3 7q0 7 10 21t19 14l5 -4q2 -10 6.5 -15t8.5 -5l4 -1
q33 0 33 26q0 20 -36 20h-7q-6 0 -6 6q0 8 25 41q-44 4 -70 28t-33 49.5t-7 55.5q0 77 44.5 163t122.5 147.5t160 61.5q35 0 54 -8q3 -2 9 -2q2 0 28 6.5t48 6.5q23 0 23 -10q0 -28 -44 -107t-72 -104q-5 -6 -12 -6q-15 0 -23 29t-8 50q0 27 10 66q0 11 -12 11
q-48 0 -113 -99t-65 -179q0 -56 50 -57q62 0 118 55q7 8 14 8z" />
    <glyph glyph-name="egrave" unicode="&#xe8;" horiz-adv-x="410" 
d="M10 101q0 51 27.5 115.5t75 125t124 102t162.5 41.5q111 0 111 -61q0 -66 -61 -125.5t-138 -91.5t-139 -34q-15 0 -15 -28q0 -62 70 -62q57 0 114 43q8 6 15 6q9 0 9 -11q0 -48 -60.5 -94t-143.5 -46q-70 0 -110.5 30t-40.5 90zM379 400q0 19 -23 19q-37 0 -78 -41
t-64 -82l-23 -42q-3 -5 -3 -8t4 -3t7 1q73 17 126.5 69.5t53.5 86.5zM341 627q-2 6 -2 7q0 14 55 14q65 0 78 -14q23 -43 30 -108q0 -17 -12 -17q-25 0 -79 41t-70 77z" />
    <glyph glyph-name="eacute" unicode="&#xe9;" horiz-adv-x="410" 
d="M10 101q0 51 27.5 115.5t75 125t124 102t162.5 41.5q111 0 111 -61q0 -66 -61 -125.5t-138 -91.5t-139 -34q-15 0 -15 -28q0 -62 70 -62q57 0 114 43q8 6 15 6q9 0 9 -11q0 -48 -60.5 -94t-143.5 -46q-70 0 -110.5 30t-40.5 90zM379 400q0 19 -23 19q-37 0 -78 -41
t-64 -82l-23 -42q-3 -5 -3 -8t4 -3t7 1q73 17 126.5 69.5t53.5 86.5zM597 631q-25 -36 -99.5 -77t-99.5 -41q-10 0 -10 9q0 17 28.5 58t51.5 58q19 14 65 14q30 0 52 -2q16 -1 16 -10q0 -4 -4 -9z" />
    <glyph glyph-name="ecircumflex" unicode="&#xea;" horiz-adv-x="410" 
d="M10 101q0 51 27.5 115.5t75 125t124 102t162.5 41.5q111 0 111 -61q0 -66 -61 -125.5t-138 -91.5t-139 -34q-15 0 -15 -28q0 -62 70 -62q57 0 114 43q8 6 15 6q9 0 9 -11q0 -48 -60.5 -94t-143.5 -46q-70 0 -110.5 30t-40.5 90zM379 400q0 19 -23 19q-37 0 -78 -41
t-64 -82l-23 -42q-3 -5 -3 -8t4 -3t7 1q73 17 126.5 69.5t53.5 86.5zM461 573q-1 1 -3 1l-4 -1q-34 -20 -78 -37.5t-71 -25.5l-27 -7q-12 -3 -16 -3q-6 0 -6 4l5 11q20 26 48 50.5t46 35.5l18 11l29 10q29 4 69 4q35 0 67 -4q14 -2 19 -10q12 -19 12 -52q0 -21 -7 -45
q-4 -15 -18 -15q-17 0 -45.5 26t-37.5 47z" />
    <glyph glyph-name="edieresis" unicode="&#xeb;" horiz-adv-x="410" 
d="M10 101q0 51 27.5 115.5t75 125t124 102t162.5 41.5q111 0 111 -61q0 -66 -61 -125.5t-138 -91.5t-139 -34q-15 0 -15 -28q0 -62 70 -62q57 0 114 43q8 6 15 6q9 0 9 -11q0 -48 -60.5 -94t-143.5 -46q-70 0 -110.5 30t-40.5 90zM379 400q0 19 -23 19q-37 0 -78 -41
t-64 -82l-23 -42q-3 -5 -3 -8t4 -3t7 1q73 17 126.5 69.5t53.5 86.5zM407 599q-11 -40 -37.5 -65.5t-65.5 -25.5q-51 0 -51 39q0 5 3 17q11 37 38.5 60.5t67.5 23.5q47 0 47 -37q0 -6 -2 -12zM628 599q-11 -40 -37.5 -65.5t-65.5 -25.5q-51 0 -51 39q0 5 3 17
q11 37 38.5 60.5t67.5 23.5q47 0 47 -37q0 -6 -2 -12z" />
    <glyph glyph-name="igrave" unicode="&#xec;" horiz-adv-x="235" 
d="M11 102q37 73 81 156t70 130l25 46q10 17 41.5 27t57.5 11l27 2q31 0 31 -14l-3 -8q-81 -137 -147 -259q-38 -70 -48 -105q-2 -10 -2 -13q0 -9 10 -21t10 -19q0 -22 -45 -34t-81 -12q-53 0 -53 33q0 24 26 80zM210 643q-2 6 -2 7q0 14 55 14q65 0 78 -14q23 -43 30 -108
q0 -17 -12 -17q-25 0 -79 41t-70 77z" />
    <glyph glyph-name="iacute" unicode="&#xed;" horiz-adv-x="235" 
d="M11 102q37 73 81 156t70 130l25 46q10 17 41.5 27t57.5 11l27 2q31 0 31 -14l-3 -8q-81 -137 -147 -259q-38 -70 -48 -105q-2 -10 -2 -13q0 -9 10 -21t10 -19q0 -22 -45 -34t-81 -12q-53 0 -53 33q0 24 26 80zM479 633q-25 -36 -99.5 -77t-99.5 -41q-10 0 -10 9
q0 17 28.5 58t51.5 58q19 14 65 14q30 0 52 -2q16 -1 16 -10q0 -4 -4 -9z" />
    <glyph glyph-name="icircumflex" unicode="&#xee;" horiz-adv-x="235" 
d="M11 102q37 73 81 156t70 130l25 46q10 17 41.5 27t57.5 11l27 2q31 0 31 -14l-3 -8q-81 -137 -147 -259q-38 -70 -48 -105q-2 -10 -2 -13q0 -9 10 -21t10 -19q0 -22 -45 -34t-81 -12q-53 0 -53 33q0 24 26 80zM341 582q-1 1 -3 1l-4 -1q-34 -20 -78 -37.5t-71 -24.5
l-27 -8q-12 -3 -16 -3q-6 0 -6 4l5 11q20 26 48 50.5t46 35.5l18 11l29 10q29 4 69 4q35 0 67 -4q14 -2 19 -10q12 -19 12 -52q0 -21 -7 -45q-4 -15 -18 -15q-17 0 -45.5 26t-37.5 47z" />
    <glyph glyph-name="idieresis" unicode="&#xef;" horiz-adv-x="235" 
d="M11 102q37 73 81 156t70 130l25 46q10 17 41.5 27t57.5 11l27 2q31 0 31 -14l-3 -8q-81 -137 -147 -259q-38 -70 -48 -105q-2 -10 -2 -13q0 -9 10 -21t10 -19q0 -22 -45 -34t-81 -12q-53 0 -53 33q0 24 26 80zM305 606q-11 -40 -37.5 -65.5t-65.5 -25.5q-51 0 -51 39
q0 5 3 17q11 37 38.5 60.5t67.5 23.5q47 0 47 -37q0 -6 -2 -12zM526 606q-11 -40 -37.5 -65.5t-65.5 -25.5q-51 0 -51 39q0 5 3 17q11 37 38.5 60.5t67.5 23.5q47 0 47 -37q0 -6 -2 -12z" />
    <glyph glyph-name="eth" unicode="&#xf0;" horiz-adv-x="462" 
d="M704 685q-37 -10 -116 -44q0 -4 0.5 -12.5t0.5 -13.5q0 -75 -29 -173q-18 -59 -44 -119.5t-65 -125t-83.5 -113.5t-102.5 -81t-118 -32q-56 0 -88 33t-32 87q0 82 44.5 170t125.5 151t173 63q12 0 34 -4.5t28 -12.5q3 -6 7 -6q5 0 10 12q36 57 38 129l-104 -52
q-9 -5 -14 -5l-6 3q-8 19 -8 40q0 5 1 9.5t4 7t5 4t5.5 3.5t4.5 2q49 28 100 52q-8 38 -8 68q0 31 10 54q5 10 16 10q5 0 17.5 -5t33.5 -26.5t32 -55.5q65 27 117 42q4 2 9 2q19 0 21 -34q1 -21 -19 -27zM405 380q0 5 -1 7q-5 17 -30 17q-41 0 -84.5 -38t-73.5 -90t-49 -103
t-19 -80q0 -41 35 -41q42 0 96.5 71.5t90 149.5t35.5 107z" />
    <glyph glyph-name="ntilde" unicode="&#xf1;" horiz-adv-x="483" 
d="M165 140q-29 -45 -58 -101q-26 -51 -123 -51q-34 0 -34 12l6 13q7 9 40 69.5t90.5 166.5t94.5 172q12 31 29 40q15 10 46.5 17.5t56.5 7.5q24 0 24 -11q0 -1 -2 -7q-10 -18 -29 -45q-43 -59 -43 -77q0 -5 3 -5t12 9q54 51 124.5 94t119.5 43q23 0 36.5 -12t13.5 -33
q0 -58 -55 -146q-98 -159 -121 -224q-5 -12 -5 -21q0 -7 10 -20t10 -21q0 -20 -42.5 -31.5t-68.5 -11.5q-65 0 -65 37q0 22 17.5 62t34.5 69l17 29q86 126 86 160q0 10 -15 10q-22 0 -57 -26t-58 -52l-24 -26q-41 -44 -71 -90zM537 529q-3 -1 -12 -1q-15 0 -33 3.5t-43 9.5
t-32 8q-5 1 -13 1h-10q-2 0 -12 -3.5t-26.5 -7t-34.5 -3.5q-4 0 -4 5q0 13 19 39.5t39 34.5q7 4 29 4q33 0 79.5 -11t51.5 -11q4 0 14 2q38 14 55 14q8 0 8 -5q-1 -3 -3 -8t-9 -17.5t-15 -22.5t-21 -19.5t-27 -11.5z" />
    <glyph glyph-name="ograve" unicode="&#xf2;" horiz-adv-x="420" 
d="M357 503q65 0 96 -35.5t31 -85.5q0 -87 -56 -183.5t-144.5 -162t-173.5 -65.5q-30 0 -52 11t-32.5 24.5t-16.5 32.5t-7 29t-1 20q3 52 25.5 102.5t51.5 84.5t58 60.5t48 39.5l20 13q6 3 6 6t-9 6q-7 2 -22 11t-15 17q0 6 7 13q60 62 186 62zM304 391l-15 -4
q-5 -4 -13.5 -11t-30.5 -31.5t-39.5 -51t-34.5 -67.5t-22 -84q-1 -8 -1 -19q0 -56 35 -56q29 0 69 46t69 110t29 111q0 56 -46 57zM309 640q-2 6 -2 7q0 14 55 14q65 0 78 -14q23 -43 30 -108q0 -17 -12 -17q-25 0 -79 41t-70 77z" />
    <glyph glyph-name="oacute" unicode="&#xf3;" horiz-adv-x="420" 
d="M357 503q65 0 96 -35.5t31 -85.5q0 -87 -56 -183.5t-144.5 -162t-173.5 -65.5q-30 0 -52 11t-32.5 24.5t-16.5 32.5t-7 29t-1 20q3 52 25.5 102.5t51.5 84.5t58 60.5t48 39.5l20 13q6 3 6 6t-9 6q-7 2 -22 11t-15 17q0 6 7 13q60 62 186 62zM304 391l-15 -4
q-5 -4 -13.5 -11t-30.5 -31.5t-39.5 -51t-34.5 -67.5t-22 -84q-1 -8 -1 -19q0 -56 35 -56q29 0 69 46t69 110t29 111q0 56 -46 57zM573 648q-25 -36 -99.5 -77t-99.5 -41q-10 0 -10 9q0 17 28.5 58t51.5 58q19 14 65 14q30 0 52 -2q16 -1 16 -10q0 -4 -4 -9z" />
    <glyph glyph-name="ocircumflex" unicode="&#xf4;" horiz-adv-x="420" 
d="M357 503q65 0 96 -35.5t31 -85.5q0 -87 -56 -183.5t-144.5 -162t-173.5 -65.5q-30 0 -52 11t-32.5 24.5t-16.5 32.5t-7 29t-1 20q3 52 25.5 102.5t51.5 84.5t58 60.5t48 39.5l20 13q6 3 6 6t-9 6q-7 2 -22 11t-15 17q0 6 7 13q60 62 186 62zM304 391l-15 -4
q-5 -4 -13.5 -11t-30.5 -31.5t-39.5 -51t-34.5 -67.5t-22 -84q-1 -8 -1 -19q0 -56 35 -56q29 0 69 46t69 110t29 111q0 56 -46 57zM423 591q-1 1 -3 1l-4 -1q-34 -20 -78 -37.5t-71 -25.5l-27 -7q-12 -3 -16 -3q-6 0 -6 4l5 11q20 26 48 50.5t46 35.5l18 11l29 10q29 4 69 4
q35 0 67 -4q14 -2 19 -10q12 -19 12 -52q0 -21 -7 -45q-4 -15 -18 -15q-17 0 -45.5 26t-37.5 47z" />
    <glyph glyph-name="otilde" unicode="&#xf5;" horiz-adv-x="420" 
d="M357 503q65 0 96 -35.5t31 -85.5q0 -87 -56 -183.5t-144.5 -162t-173.5 -65.5q-30 0 -52 11t-32.5 24.5t-16.5 32.5t-7 29t-1 20q3 52 25.5 102.5t51.5 84.5t58 60.5t48 39.5l20 13q6 3 6 6t-9 6q-7 2 -22 11t-15 17q0 6 7 13q60 62 186 62zM304 391l-15 -4
q-5 -4 -13.5 -11t-30.5 -31.5t-39.5 -51t-34.5 -67.5t-22 -84q-1 -8 -1 -19q0 -56 35 -56q29 0 69 46t69 110t29 111q0 56 -46 57zM470 532q-3 -1 -12 -1q-15 0 -33 3.5t-43 9.5t-32 8q-5 1 -13 1h-10q-2 0 -12 -3.5t-26.5 -7t-34.5 -3.5q-4 0 -4 5q0 14 19 40t39 34
q7 4 29 4q33 0 79.5 -11t51.5 -11q4 0 14 2q38 14 55 14q8 0 8 -5q-1 -3 -3 -8t-9 -17.5t-15 -22.5t-21 -19.5t-27 -11.5z" />
    <glyph glyph-name="odieresis" unicode="&#xf6;" horiz-adv-x="420" 
d="M357 503q65 0 96 -35.5t31 -85.5q0 -87 -56 -183.5t-144.5 -162t-173.5 -65.5q-30 0 -52 11t-32.5 24.5t-16.5 32.5t-7 29t-1 20q3 52 25.5 102.5t51.5 84.5t58 60.5t48 39.5l20 13q6 3 6 6t-9 6q-7 2 -22 11t-15 17q0 6 7 13q60 62 186 62zM304 391l-15 -4
q-5 -4 -13.5 -11t-30.5 -31.5t-39.5 -51t-34.5 -67.5t-22 -84q-1 -8 -1 -19q0 -56 35 -56q29 0 69 46t69 110t29 111q0 56 -46 57zM383 619q-11 -40 -37.5 -65.5t-65.5 -25.5q-51 0 -51 39q0 5 3 17q11 37 38.5 60.5t67.5 23.5q47 0 47 -37q0 -6 -2 -12zM604 619
q-11 -40 -37.5 -65.5t-65.5 -25.5q-51 0 -51 39q0 5 3 17q11 37 38.5 60.5t67.5 23.5q47 0 47 -37q0 -6 -2 -12z" />
    <glyph glyph-name="divide" unicode="&#xf7;" horiz-adv-x="615" 
d="M620 340q-13 -17 -40 -17h-463q-18 0 -18 13l2 8q14 34 29 52.5t41 18.5h465q18 0 18 -11q0 -21 -34 -64zM362 219q-27 -88 -104 -88q-50 0 -50 37q0 6 3 18q12 36 39.5 58.5t66.5 22.5q47 0 47 -35q0 -3 -2 -13zM542 556q-27 -88 -104 -88q-50 0 -50 37q0 6 3 18
q12 36 39.5 58.5t66.5 22.5q47 0 47 -35q0 -3 -2 -13z" />
    <glyph glyph-name="oslash" unicode="&#xf8;" horiz-adv-x="420" 
d="M357 503q44 0 73 -18l55 58q0 3 2.5 6.5t16 10t35.5 6.5q43 0 43 -13q0 -3 -5 -10l-103 -108q10 -24 10 -53q0 -87 -56 -183.5t-144.5 -162t-173.5 -65.5q-38 0 -64 17l-30 -31q-14 -28 -60 -28q-38 0 -38 16l6 12q34 35 83 86q-6 20 -6 45q3 52 25.5 102.5t51.5 84.5
t58 60.5t48 39.5l20 13q6 3 6 6t-9 6q-7 2 -22 11t-15 17q0 6 7 13q60 62 186 62zM347 302q-49 -51 -197 -205q8 -30 33 -30q41 0 95.5 80t68.5 155zM304 391l-15 -4q-10 -8 -25.5 -22t-49.5 -61.5t-51 -97.5q30 31 88.5 92t80.5 84q-11 8 -28 9z" />
    <glyph glyph-name="ugrave" unicode="&#xf9;" horiz-adv-x="462" 
d="M240 62l2 4q0 3 -3 3l-8 -3q-84 -79 -170 -79q-30 0 -47.5 16.5t-17.5 43.5q0 24 10 54.5t20 49.5l10 19q29 51 54.5 98.5t35.5 69.5l11 22l16 43q0 21 4.5 36.5t9.5 20.5l5 5q24 19 98 19q51 0 51 -19t-33 -86t-67 -126.5t-33 -55.5q-18 -31 -18 -52q0 -24 23 -24
q19 0 38.5 10t33 24.5t24.5 29.5t17 25l5 10q23 50 54.5 107t50.5 89l20 31q23 39 121 39q31 0 31 -16l-4 -10q-24 -38 -59.5 -96t-94.5 -171.5t-59 -149.5q0 -7 1 -9q21 -21 21 -31q0 -8 -11 -14q-46 -27 -98 -27q-23 0 -43 10t-20 32q0 11 4.5 25.5t9.5 23.5zM295 638
q-2 6 -2 7q0 14 55 14q65 0 78 -14q23 -43 30 -108q0 -17 -12 -17q-25 0 -79 41t-70 77z" />
    <glyph glyph-name="uacute" unicode="&#xfa;" horiz-adv-x="462" 
d="M240 62l2 4q0 3 -3 3l-8 -3q-84 -79 -170 -79q-30 0 -47.5 16.5t-17.5 43.5q0 24 10 54.5t20 49.5l10 19q29 51 54.5 98.5t35.5 69.5l11 22l16 43q0 21 4.5 36.5t9.5 20.5l5 5q24 19 98 19q51 0 51 -19t-33 -86t-67 -126.5t-33 -55.5q-18 -31 -18 -52q0 -24 23 -24
q19 0 38.5 10t33 24.5t24.5 29.5t17 25l5 10q23 50 54.5 107t50.5 89l20 31q23 39 121 39q31 0 31 -16l-4 -10q-24 -38 -59.5 -96t-94.5 -171.5t-59 -149.5q0 -7 1 -9q21 -21 21 -31q0 -8 -11 -14q-46 -27 -98 -27q-23 0 -43 10t-20 32q0 11 4.5 25.5t9.5 23.5zM576 634
q-25 -36 -99.5 -77t-99.5 -41q-10 0 -10 9q0 17 28.5 58t51.5 58q19 14 65 14q30 0 52 -2q16 -1 16 -10q0 -4 -4 -9z" />
    <glyph glyph-name="ucircumflex" unicode="&#xfb;" horiz-adv-x="462" 
d="M240 62l2 4q0 3 -3 3l-8 -3q-84 -79 -170 -79q-30 0 -47.5 16.5t-17.5 43.5q0 24 10 54.5t20 49.5l10 19q29 51 54.5 98.5t35.5 69.5l11 22l16 43q0 21 4.5 36.5t9.5 20.5l5 5q24 19 98 19q51 0 51 -19t-33 -86t-67 -126.5t-33 -55.5q-18 -31 -18 -52q0 -24 23 -24
q19 0 38.5 10t33 24.5t24.5 29.5t17 25l5 10q23 50 54.5 107t50.5 89l20 31q23 39 121 39q31 0 31 -16l-4 -10q-24 -38 -59.5 -96t-94.5 -171.5t-59 -149.5q0 -7 1 -9q21 -21 21 -31q0 -8 -11 -14q-46 -27 -98 -27q-23 0 -43 10t-20 32q0 11 4.5 25.5t9.5 23.5zM456 595
q-1 1 -3 1l-4 -1q-34 -20 -78 -37.5t-71 -25.5l-27 -7q-12 -3 -16 -3q-6 0 -6 4l5 11q20 26 48 50.5t46 35.5l18 11l29 10q29 4 69 4q35 0 67 -4q14 -2 19 -10q12 -19 12 -52q0 -21 -7 -45q-4 -15 -18 -15q-17 0 -45.5 26t-37.5 47z" />
    <glyph glyph-name="udieresis" unicode="&#xfc;" horiz-adv-x="462" 
d="M240 62l2 4q0 3 -3 3l-8 -3q-84 -79 -170 -79q-30 0 -47.5 16.5t-17.5 43.5q0 24 10 54.5t20 49.5l10 19q29 51 54.5 98.5t35.5 69.5l11 22l16 43q0 21 4.5 36.5t9.5 20.5l5 5q24 19 98 19q51 0 51 -19t-33 -86t-67 -126.5t-33 -55.5q-18 -31 -18 -52q0 -24 23 -24
q19 0 38.5 10t33 24.5t24.5 29.5t17 25l5 10q23 50 54.5 107t50.5 89l20 31q23 39 121 39q31 0 31 -16l-4 -10q-24 -38 -59.5 -96t-94.5 -171.5t-59 -149.5q0 -7 1 -9q21 -21 21 -31q0 -8 -11 -14q-46 -27 -98 -27q-23 0 -43 10t-20 32q0 11 4.5 25.5t9.5 23.5zM402 610
q-11 -40 -37.5 -65.5t-65.5 -25.5q-51 0 -51 39q0 5 3 17q11 37 38.5 60.5t67.5 23.5q47 0 47 -37q0 -6 -2 -12zM623 610q-11 -40 -37.5 -65.5t-65.5 -25.5q-51 0 -51 39q0 5 3 17q11 37 38.5 60.5t67.5 23.5q47 0 47 -37q0 -6 -2 -12z" />
    <glyph glyph-name="yacute" unicode="&#xfd;" horiz-adv-x="454" 
d="M-91 -363q-13 0 -13 8q0 33 81 109.5t114 100.5q25 18 56 69t49 93l19 42q2 4 2 5q0 2 -2 2l-9 -3q-76 -63 -143 -63q-61 0 -61 59q0 24 9.5 54.5t19.5 48.5l10 19l93 166l16 50q3 22 7 37t7 19l2 4q7 11 38.5 16t55.5 5q52 0 52 -19q0 -17 -32.5 -83t-65.5 -126t-32 -56
q-15 -26 -15 -42q0 -23 25 -23t50 18.5t38 36.5l12 19q20 40 53.5 98.5t57.5 97.5l24 39q10 17 47.5 28t62 13t37.5 2q27 0 27 -13l-4 -10q-17 -21 -46.5 -60.5t-107 -164.5t-138.5 -253q-52 -104 -72 -147q-10 -37 -61 -81q-13 -12 -37 -29t-93 -49t-133 -37zM579 627
q-25 -36 -99.5 -77t-99.5 -41q-10 0 -10 9q0 17 28.5 58t51.5 58q19 14 65 14q30 0 52 -2q16 -1 16 -10q0 -4 -4 -9z" />
    <glyph glyph-name="thorn" unicode="&#xfe;" 
d="M163 406q32 63 59.5 117t41.5 82t25 49t15 29t5 11q12 29 48 48q26 14 68 28t63 14q16 0 16 -8q0 -25 -75 -120q-49 -60 -122 -190q-2 -3 -2 -5t3 -2q4 0 8 2q40 18 83 18q95 0 95 -100q0 -42 -23.5 -106t-64.5 -129.5t-107 -111.5t-140 -46q-21 0 -39.5 4.5t-26.5 9.5
l-8 4q-5 3 -7 3q-3 0 -5 -2t-3 -4l-1 -2q-50 -95 -85 -168q-14 -26 -23 -47q-18 -54 -94.5 -97.5t-139.5 -43.5q-12 0 -12 9q0 18 22 50t55.5 72t38.5 46q24 34 107 180.5t154 275.5zM362 378q0 28 -23 28q-16 0 -32 -11t-24 -22l-8 -11q-57 -96 -155 -271q-2 -2 -2 -5
q0 -6 10 -6q44 0 89 35.5t75.5 85t50 99t19.5 78.5z" />
    <glyph glyph-name="ydieresis" unicode="&#xff;" horiz-adv-x="454" 
d="M-91 -363q-13 0 -13 8q0 33 81 109.5t114 100.5q25 18 56 69t49 93l19 42q2 4 2 5q0 2 -2 2l-9 -3q-76 -63 -143 -63q-61 0 -61 59q0 24 9.5 54.5t19.5 48.5l10 19l93 166l16 50q3 22 7 37t7 19l2 4q7 11 38.5 16t55.5 5q52 0 52 -19q0 -17 -32.5 -83t-65.5 -126t-32 -56
q-15 -26 -15 -42q0 -23 25 -23t50 18.5t38 36.5l12 19q20 40 53.5 98.5t57.5 97.5l24 39q10 17 47.5 28t62 13t37.5 2q27 0 27 -13l-4 -10q-17 -21 -46.5 -60.5t-107 -164.5t-138.5 -253q-52 -104 -72 -147q-10 -37 -61 -81q-13 -12 -37 -29t-93 -49t-133 -37zM393 606
q-11 -40 -37.5 -65.5t-65.5 -25.5q-51 0 -51 39q0 5 3 17q11 37 38.5 60.5t67.5 23.5q47 0 47 -37q0 -6 -2 -12zM614 606q-11 -40 -37.5 -65.5t-65.5 -25.5q-51 0 -51 39q0 5 3 17q11 37 38.5 60.5t67.5 23.5q47 0 47 -37q0 -6 -2 -12z" />
    <glyph glyph-name="dotlessi" unicode="&#x131;" horiz-adv-x="235" 
d="M11 102q37 73 81 156t70 130l25 46q10 17 41.5 27t57.5 11l27 2q31 0 31 -14l-3 -8q-81 -137 -147 -259q-38 -70 -48 -105q-2 -10 -2 -13q0 -9 10 -21t10 -19q0 -22 -45 -34t-81 -12q-53 0 -53 33q0 24 26 80z" />
    <glyph glyph-name="Lslash" unicode="&#x141;" horiz-adv-x="542" 
d="M443 364q-6 -17 -18 -17h-111q-68 -125 -132 -257q-2 -3 -2 -7q0 -11 20 -12q12 -1 29 -1q64 0 89 23q186 186 232 186q8 0 8 -10q0 -75 -134 -270q-8 -12 -27 -12q-2 0 -27.5 1t-62 2.5t-65.5 1.5l-258 -5q-14 3 -14 13l2 8q77 131 187 339h-89q-9 0 -9 13l1 8
q14 71 32 71h114l77 145l59 128q7 13 20 15q49 9 104 9q37 0 56 -4q8 -2 8 -9q0 -8 -14.5 -32t-34.5 -52.5t-25 -36.5q-39 -65 -94 -163h86q8 0 8 -11q0 -22 -15 -64z" />
    <glyph glyph-name="lslash" unicode="&#x142;" horiz-adv-x="218" 
d="M359 334q-5 -17 -15 -17h-97q-87 -169 -116 -230q-9 -25 -9 -35q-11 -116 -25 -156q-3 -12 -14 -12q-7 0 -14 5q-35 22 -62.5 62t-27.5 77q0 41 32 97l24 41l82 151h-69q-8 0 -8 13l1 8q12 73 27 73h100l149 283q11 33 41 51q55 34 134 41q11 0 11 -9q0 -19 -61 -105
l-19 -31q-56 -99 -126 -230h68q7 0 7 -11q0 -27 -13 -66z" />
    <glyph glyph-name="OE" unicode="&#x152;" horiz-adv-x="944" 
d="M378 -8q-77 -25 -138 -25q-51 0 -87.5 12.5t-55.5 30t-29.5 44t-12.5 45.5t-2 44q0 50 16 108.5t39.5 105.5t46.5 87t39 62l16 23q28 40 60.5 75t80 72t110 58.5t130.5 21.5q67 0 116 -30q87 5 213 5q120 0 218 -7q12 -1 12 -10q0 -22 -37 -94.5t-60 -95.5q-8 -9 -18 -9
q-19 0 -27 45.5t-8 76.5q0 4 -2 6.5t-4 2.5l-1 1q-30 5 -86 5l-73 -2q-9 -1 -9 -10q0 -28 -9 -71q-6 -31 -70 -137q-2 -3 -2 -6q0 -5 8 -5q67 3 116 3q28 0 37 -1q16 0 16 -13q0 -4 -3 -14.5t-13.5 -32.5t-26.5 -42q-3 -5 -9 -5q-11 0 -34 23q-8 8 -99 8h-22q-6 0 -11 -2.5
t-7 -4.5l-2 -2q-94 -167 -132 -251q-2 -4 -2 -8q0 -5 5 -6q36 -4 75 -4q69 0 90 15q7 5 17 13q147 128 205 140h4q7 0 7 -7q0 -5 -16 -44t-44.5 -91.5t-53.5 -81.5q-16 -19 -31 -19q-106 -5 -244 -5q-109 0 -196 3zM635 626q0 54 -62 54q-37 0 -79.5 -32t-79.5 -82
t-61.5 -89.5t-43.5 -76.5q-12 -21 -30 -55.5t-48 -112t-30 -122.5q0 -30 16 -46.5t45 -16.5q43 0 95 45q43 36 108.5 139t117.5 219t52 176z" />
    <glyph glyph-name="oe" unicode="&#x153;" horiz-adv-x="683" 
d="M357 503q96 0 120 -77q90 59 194 59q111 0 111 -61q0 -66 -61 -125.5t-138 -91.5t-139 -34q-15 0 -15 -28q0 -62 70 -62q57 0 114 43q8 6 15 6q9 0 9 -11q0 -48 -60.5 -94t-143.5 -46q-107 0 -139 64q-95 -74 -184 -74q-30 0 -52 11t-32.5 24.5t-16.5 32.5t-7 29t-1 20
q3 52 25.5 102.5t51.5 84.5t58 60.5t48 39.5l20 13q6 3 6 6t-9 6q-7 2 -22 11t-15 17q0 6 7 13q60 62 186 62zM304 391l-15 -4q-5 -4 -13.5 -11t-30.5 -31.5t-39.5 -51t-34.5 -67.5t-22 -84q-1 -8 -1 -19q0 -56 35 -56q29 0 69 46t69 110t29 111q0 56 -46 57zM651 400
q0 19 -23 19q-37 0 -78 -41t-64 -82l-23 -42q-3 -5 -3 -8t4 -3t7 1q73 17 126.5 69.5t53.5 86.5z" />
    <glyph glyph-name="Scaron" unicode="&#x160;" horiz-adv-x="537" 
d="M172 -29q-53 0 -99.5 11.5t-66.5 23.5l-20 11q-10 9 -10 21l1 8q15 57 50 115.5t63 88.5l28 30q16 15 29 15q23 0 23 -66q0 -34 -6.5 -90.5t-6.5 -58.5q0 -11 3.5 -17.5t6.5 -6.5l3 -1q25 -5 42 -5q66 0 117 52t51 114q0 32 -16.5 60t-39.5 49t-46 43t-39.5 53t-16.5 68
q0 49 24 95t68 83.5t114 60.5t156 23q84 0 131 -24q6 -3 6 -11q0 -2 -2 -8q-19 -59 -46.5 -107.5t-46.5 -66.5l-18 -19q-13 -12 -22 -12q-17 0 -25 27t-8 48q0 16 2.5 34t4.5 28l2 10q2 8 2 9q0 4 -2 7t-4 4l-3 1q-15 3 -27 3q-49 0 -85.5 -36t-36.5 -83q0 -41 63 -100
q1 -1 14 -13t20.5 -20t20.5 -25t20.5 -31.5t13.5 -36t6 -42.5q0 -96 -62.5 -170.5t-150 -110t-179.5 -35.5zM685 798q-30 -5 -66 -5q-19 0 -36.5 1.5t-25.5 3.5l-8 1q-14 2 -18 10q-13 20 -13 53q0 58 24 58q18 0 44.5 -23.5t38.5 -46.5q3 -4 5 -4l4 2q34 20 78 37t70 25
l27 7q10 3 16 3q7 0 7 -4l-5 -10q-20 -26 -48.5 -50.5t-46.5 -35.5l-18 -11q-8 -4 -15 -7t-11 -4h-3z" />
    <glyph glyph-name="scaron" unicode="&#x161;" horiz-adv-x="399" 
d="M385 189q0 -86 -79.5 -145.5t-184.5 -59.5q-47 0 -82.5 8t-47.5 16l-12 7q-11 6 -11 22l1 10q12 45 37.5 88.5t45.5 64.5l19 21q18 15 29 15q24 0 24 -61q0 -20 -4 -43t-8 -36l-3 -13q-1 -2 -1 -6q0 -8 9 -12.5t17 -4.5l9 -1q40 3 70.5 35.5t30.5 74.5q0 33 -23 68.5
t-46.5 66.5t-23.5 54q0 45 38 80t89.5 51.5t103.5 16.5q35 0 59 -6q4 -1 9 -2.5t14 -13t9 -28.5q0 -26 -18 -26h-14q-61 0 -101.5 -19t-40.5 -45q0 -16 13.5 -35t29.5 -35.5t29.5 -45t13.5 -61.5zM455 558q-30 -5 -66 -5q-19 0 -36.5 1.5t-25.5 3.5l-8 1q-14 2 -18 10
q-13 20 -13 53q0 58 24 58q18 0 44.5 -23.5t38.5 -46.5q3 -4 5 -4l4 2q34 20 78 37t70 25l27 7q11 3 16 3q7 0 7 -4l-5 -10q-20 -26 -48.5 -50.5t-46.5 -35.5l-18 -11q-8 -4 -15 -7t-11 -4h-3z" />
    <glyph glyph-name="Ydieresis" unicode="&#x178;" horiz-adv-x="341" 
d="M338 419q61 70 172.5 191.5t140.5 139.5q104 64 252 64q13 0 13 -8q0 -9 -12 -16l-208 -153q-36 -27 -57 -44q-19 -14 -51 -40.5t-117.5 -108.5t-154.5 -164q-20 -19 -37 -45q-56 -84 -111 -207q-8 -24 -26 -31q-49 -19 -107 -19q-52 0 -52 16q0 3 3 8q22 32 141 251
q14 25 23 59q13 64 28 167t15 119q0 28 -7.5 65t-8.5 50q0 2 0.5 4.5t6 8.5t15.5 8q45 9 101 9q26 0 55 -3q13 0 13 -21q0 -11 -49 -295q0 -14 6 -14t13 9zM533 912q-11 -40 -37.5 -65.5t-65.5 -25.5q-51 0 -51 39q0 5 3 17q11 37 38.5 60.5t67.5 23.5q47 0 47 -37
q0 -6 -2 -12zM754 912q-11 -40 -37.5 -65.5t-65.5 -25.5q-51 0 -51 39q0 5 3 17q11 37 38.5 60.5t67.5 23.5q47 0 47 -37q0 -6 -2 -12z" />
    <glyph glyph-name="Zcaron" unicode="&#x17d;" horiz-adv-x="584" 
d="M766 651q-135 -121 -268 -257t-199 -212l-66 -75q-8 -11 -8 -18q0 -12 44 -12q59 0 84 7q9 3 15.5 6.5t8.5 5.5l2 3q65 81 127 125t86 44q11 0 11 -12q0 -26 -44.5 -111.5t-74.5 -128.5q-15 -23 -46 -23q-9 0 -91.5 1.5t-146.5 1.5q-40 0 -105 -1.5t-82 -1.5h-33
q-21 1 -21 15l2 7q46 66 145 171.5t185.5 189.5t178 171t99.5 95q3 4 3 7q0 9 -35 9l-37 -2q-16 0 -29 -3.5t-17 -6.5l-5 -4q-52 -47 -98 -79t-66 -41l-20 -8q-10 -3 -16 -3q-12 0 -12 10q0 20 42.5 88t77.5 105q9 11 21 14q27 8 93 8q6 0 21 -0.5t24 -0.5q124 -2 211 -2
q60 0 74 1q20 0 20 -13q0 -5 -1.5 -10t-6 -11t-7 -10t-10 -11t-10 -9.5t-11 -10t-9.5 -8.5zM700 787q-30 -5 -66 -5q-19 0 -36.5 1.5t-25.5 2.5l-8 2q-14 2 -18 10q-13 20 -13 53q0 58 24 58q18 0 44.5 -23.5t38.5 -46.5q3 -4 5 -4l4 2q34 20 78 37t71 24l26 8q11 3 16 3
q7 0 7 -4l-5 -10q-20 -26 -48.5 -50.5t-46.5 -35.5l-18 -11q-8 -4 -15 -7t-10 -3z" />
    <glyph glyph-name="zcaron" unicode="&#x17e;" horiz-adv-x="433" 
d="M556 470q0 -8 -6 -18.5t-15 -20.5t-21.5 -22t-21 -19.5t-19.5 -16.5t-12 -10q-72 -62 -141.5 -130.5t-103.5 -105.5l-33 -37q-12 -12 -12 -19q0 -6 18 -6q26 0 44 5.5t23 11.5l5 6q23 28 75.5 68t77.5 40q11 0 11 -10q0 -22 -20.5 -65t-41.5 -75l-21 -33q-17 -24 -33 -24
q-7 0 -23.5 1t-28.5 1l-133 -2q-52 -5 -112 -5l-57 1q-18 2 -18 14l2 7q24 41 123 139t186 176l88 78q6 5 6 9q0 5 -11 5q-26 0 -46.5 -6.5t-28.5 -12.5l-7 -7q-27 -29 -70.5 -56.5t-63.5 -27.5q-9 0 -9 9q0 23 40.5 90t63.5 71q18 3 35 3q23 0 39 -2q26 -2 69 -2
q80 0 177 8q5 1 10 1q16 0 16 -11zM506 558q-30 -5 -66 -5q-19 0 -36.5 1.5t-25.5 3.5l-8 1q-14 2 -18 10q-13 20 -13 53q0 58 24 58q18 0 44.5 -23.5t38.5 -46.5q3 -4 5 -4l4 2q34 20 78 37t71 25l26 7q10 3 16 3q7 0 7 -4l-5 -10q-20 -26 -48.5 -50.5t-46.5 -35.5l-18 -11
q-8 -4 -15 -7t-10 -4h-4z" />
    <glyph glyph-name="florin" unicode="&#x192;" horiz-adv-x="361" 
d="M-16 -59q-16 0 -30 1.5t-20 3.5l-5 2q-8 4 -8 12l5 13q29 41 94.5 83.5t116.5 64.5l51 22q33 16 33 48q0 26 -25 51.5t-50 50t-25 46.5q0 14 6.5 28t13.5 21l7 8q39 37 104.5 66t144.5 29q32 0 65 -6q9 -2 9 -9q0 -6 -7 -14q-5 -6 -15.5 -16t-53.5 -37.5t-98 -51.5
q-45 -20 -45 -41q0 -5 2 -8q3 -3 25 -22t32.5 -30.5t21.5 -32.5t11 -42q0 -55 -40.5 -103t-99 -76.5t-117.5 -44.5t-103 -16z" />
    <glyph glyph-name="circumflex" unicode="&#x2c6;" horiz-adv-x="445" 
d="M511 630q-1 1 -3 1l-4 -1q-34 -20 -78 -37.5t-71 -24.5l-27 -8q-12 -3 -16 -3q-6 0 -6 4l5 11q20 26 48 50.5t46 35.5l18 11l29 10q29 4 69 4q35 0 67 -4q14 -2 19 -10q12 -19 12 -52q0 -21 -7 -45q-4 -15 -18 -15q-17 0 -45.5 26t-37.5 47z" />
    <glyph glyph-name="caron" unicode="&#x2c7;" horiz-adv-x="445" 
d="M511 558q-30 -5 -66 -5q-19 0 -36.5 1.5t-25.5 3.5l-8 1q-14 2 -18 10q-13 20 -13 53q0 58 24 58q18 0 44.5 -23.5t38.5 -46.5q3 -4 5 -4l4 2q34 20 78 37t70 25l27 7q11 3 16 3q7 0 7 -4l-5 -10q-20 -26 -48.5 -50.5t-46.5 -35.5l-18 -11q-8 -4 -15 -7t-11 -4h-3z" />
    <glyph glyph-name="dotaccent" unicode="&#x2d9;" horiz-adv-x="235" 
d="M336 553q-23 0 -36 13.5t-13 35.5q0 44 38 80.5t80 36.5q48 0 48 -46q0 -40 -35 -80t-82 -40z" />
    <glyph glyph-name="ring" unicode="&#x2da;" horiz-adv-x="445" 
d="M491 684q35 0 51 -10.5t16 -37.5q0 -36 -29.5 -74t-68.5 -48q-13 -3 -43 -3q-60 0 -60 43q0 31 19.5 65t48.5 50q27 15 66 15zM413 578q0 -19 26 -19q19 0 27 4q35 15 35 52q0 21 -28 21q-26 0 -43 -17.5t-17 -40.5z" />
    <glyph glyph-name="tilde" unicode="&#x2dc;" horiz-adv-x="483" 
d="M537 529q-3 -1 -12 -1q-15 0 -33 3.5t-43 9.5t-32 8q-5 1 -13 1h-10q-2 0 -12 -3.5t-26.5 -7t-34.5 -3.5q-4 0 -4 5q0 13 19 39.5t39 34.5q7 4 29 4q33 0 79.5 -11t51.5 -11q4 0 14 2q38 14 55 14q8 0 8 -5q-1 -3 -3 -8t-9 -17.5t-15 -22.5t-21 -19.5t-27 -11.5z" />
    <glyph glyph-name="pi" unicode="&#x3c0;" horiz-adv-x="454" 
d="M188 386q1 2 1 5t-4 3l-6 -1q-22 -9 -65 -9q-11 0 -11 7l3 8q58 68 104 83q19 6 60 6q29 0 60 -4t51 -7.5t23 -3.5t17 2q57 15 88 15q22 0 22 -10q0 -12 -22 -42.5t-36 -42.5q-17 -14 -37 -18q-8 -3 -13 -11q-80 -160 -98 -271q3 -36 3 -72q0 -77 -21 -77
q-24 0 -56.5 35.5t-32.5 76.5q0 12 1 18q9 66 122 296q1 2 1 4q0 3 -5 4q-24 6 -57 6q-10 0 -13 -6q-66 -117 -150 -326q-7 -18 -16 -25q-42 -42 -132 -42q-18 0 -18 9q0 5 7 16q25 43 73 91q16 16 22 28q18 14 135 255z" />
    <glyph glyph-name="endash" unicode="&#x2013;" horiz-adv-x="458" 
d="M449 202q-6 -17 -18 -17h-355q-9 0 -9 13l1 8q14 71 32 71h356q8 0 8 -11q0 -22 -15 -64z" />
    <glyph glyph-name="emdash" unicode="&#x2014;" horiz-adv-x="722" 
d="M703 202q-10 -17 -30 -17h-592q-14 0 -14 13l2 8q10 34 21.5 52.5t30.5 18.5h594q13 0 13 -11q0 -20 -25 -64z" />
    <glyph glyph-name="quoteleft" unicode="&#x2018;" horiz-adv-x="231" 
d="M490 714q-12 -22 -28 -40t-26 -25l-11 -7q-14 -8 -23 -19t-12 -17l-2 -7q-5 -13 -14 -31.5t-24.5 -40.5t-25.5 -22q-11 0 -19 24t-8 41q0 23 7 44q8 29 23 55.5t25 38.5l11 12q16 16 75 16q55 0 55 -12q0 -4 -3 -10z" />
    <glyph glyph-name="quoteright" unicode="&#x2019;" horiz-adv-x="186" 
d="M404 720q-24 -54 -54 -94.5t-56.5 -60t-50 -31.5t-37.5 -14l-13 -3q-10 0 -10 9q0 33 66 99q4 5 6.5 12t2.5 11l1 5q0 20 4 38t8 26l4 8q6 9 20.5 12t52.5 3l44 -1q14 0 14 -10q0 -5 -2 -9z" />
    <glyph glyph-name="quotesinglbase" unicode="&#x201a;" horiz-adv-x="310" 
d="M222 117q-24 -54 -54 -94.5t-56.5 -60t-50 -31.5t-37.5 -15l-13 -2q-10 0 -10 9q0 33 66 99q4 5 6.5 12t2.5 12l1 4q0 20 4 38t8 26l4 8q6 9 20.5 12t52.5 3l44 -1q14 0 14 -10q0 -5 -2 -9z" />
    <glyph glyph-name="quotedblleft" unicode="&#x201c;" horiz-adv-x="442" 
d="M490 714q-12 -22 -28 -40t-26 -25l-11 -7q-14 -8 -23 -19t-12 -17l-2 -7q-5 -13 -14 -31.5t-24.5 -40.5t-25.5 -22q-11 0 -19 24t-8 41q0 23 7 44q8 29 23 55.5t25 38.5l11 12q16 16 75 16q55 0 55 -12q0 -4 -3 -10zM701 714q-12 -22 -28 -40t-27 -25l-10 -7
q-14 -8 -23 -19t-11 -17l-3 -7q-5 -13 -14 -31.5t-24.5 -40.5t-25.5 -22q-11 0 -19 24t-8 41q0 23 7 44q8 29 23 55.5t26 38.5l10 12q16 16 75 16q55 0 55 -12q0 -4 -3 -10z" />
    <glyph glyph-name="quotedblright" unicode="&#x201d;" horiz-adv-x="389" 
d="M607 720q-24 -54 -54 -94.5t-56.5 -60t-50 -31.5t-36.5 -14l-14 -3q-10 0 -10 9q0 33 66 99q4 5 6.5 12t3.5 11v5q0 20 4 38t8 26l4 8q6 9 20.5 12t52.5 3l44 -1q14 0 14 -10q0 -5 -2 -9zM404 720q-24 -54 -54 -94.5t-56.5 -60t-50 -31.5t-37.5 -14l-13 -3q-10 0 -10 9
q0 33 66 99q4 5 6.5 12t2.5 11l1 5q0 20 4 38t8 26l4 8q6 9 20.5 12t52.5 3l44 -1q14 0 14 -10q0 -5 -2 -9z" />
    <glyph glyph-name="quotedblbase" unicode="&#x201e;" horiz-adv-x="513" 
d="M425 119q-24 -54 -54 -94.5t-56.5 -60t-50 -31.5t-36.5 -15l-14 -2q-10 0 -10 9q0 33 66 99q4 5 6.5 12t3.5 12v4q0 20 4 38t8 26l4 8q6 9 20.5 12t52.5 3l44 -1q14 0 14 -10q0 -5 -2 -9zM222 119q-24 -54 -54 -94.5t-56.5 -60t-50 -31.5t-37.5 -15l-13 -2q-10 0 -10 9
q0 33 66 99q4 5 6.5 12t2.5 12l1 4q0 20 4 38t8 26l4 8q6 9 20.5 12t52.5 3l44 -1q14 0 14 -10q0 -5 -2 -9z" />
    <glyph glyph-name="dagger" unicode="&#x2020;" horiz-adv-x="493" 
d="M583 425q-13 -17 -40 -17h-141l-153 -279q-5 -10 -14 -15.5t-15 -6.5l-7 -1q-12 -1 -35 -1q-32 0 -32 15q0 8 3 14l150 274h-155q-18 0 -18 13l2 8q14 34 29 52.5t41 18.5h152l53 96q12 23 61 23q21 0 34 -3q10 -2 10 -11l-6 -16l-49 -89h146q18 0 18 -11q0 -21 -34 -64z
" />
    <glyph glyph-name="bullet" unicode="&#x2022;" horiz-adv-x="271" 
d="M270 255q-16 -52 -51 -85t-87 -33q-67 0 -67 50q0 9 3 23q17 50 53 80t89 30q62 0 62 -47q0 -6 -2 -18z" />
    <glyph glyph-name="ellipsis" unicode="&#x2026;" horiz-adv-x="814" 
d="M220 90q-33 -103 -121 -103q-59 0 -59 43q0 9 3 21q14 43 46.5 69.5t78.5 26.5q54 0 54 -41q0 -4 -2 -16zM476 92q-33 -103 -121 -103q-59 0 -59 43q0 9 3 21q14 43 46.5 69.5t78.5 26.5q54 0 54 -41q0 -4 -2 -16zM725 91q-33 -103 -121 -103q-59 0 -59 43q0 9 3 21
q14 43 46.5 69.5t78.5 26.5q54 0 54 -41q0 -4 -2 -16z" />
    <glyph glyph-name="perthousand" unicode="&#x2030;" horiz-adv-x="1118" 
d="M428 731q3 0 9 -0.5t20.5 -5t26 -12.5t20.5 -27t9 -44q0 -40 -19 -93t-52 -104t-85 -86t-110 -35q-51 0 -75 26.5t-24 70.5q0 92 76 194q88 116 204 116zM427 661q0 21 -24 21q-45 0 -105.5 -110.5t-60.5 -169.5q0 -29 27 -29q43 0 103 119t60 169zM157 -17q-44 0 -44 16
l6 12q636 660 672 706q16 22 63 22q16 0 35 -3q9 -2 9 -8q0 -4 -5 -11q-16 -20 -184 -196.5t-328 -342.5l-160 -167q-17 -28 -64 -28zM773 398q3 0 9 -0.5t20.5 -5t26 -12.5t20.5 -27t9 -44q0 -40 -19 -93t-52 -104t-85 -86t-110 -35q-51 0 -75 26.5t-24 70.5q0 92 76 194
q88 116 204 116zM772 328q0 21 -24 21q-45 0 -105.5 -110.5t-60.5 -169.5q0 -29 27 -29q43 0 103 119t60 169zM1116 398q3 0 9 -0.5t20.5 -5t26 -12.5t20.5 -27t9 -44q0 -40 -19 -93t-52 -104t-85 -86t-110 -35q-51 0 -75 26.5t-24 70.5q0 92 76 194q88 116 204 116z
M1115 328q0 21 -24 21q-45 0 -105.5 -110.5t-60.5 -169.5q0 -29 27 -29q43 0 103 119t60 169z" />
    <glyph glyph-name="guilsinglleft" unicode="&#x2039;" horiz-adv-x="375" 
d="M254 1q-26 -3 -42 -3q-23 0 -36.5 3.5t-15.5 7.5l-3 4q-32 43 -60.5 91t-40.5 75l-13 27q-3 5 -3 12q0 17 19 32q202 135 284 177q13 15 84 15q23 0 58 -3q8 -2 8 -8q0 -5 -11 -13q-226 -130 -306 -191q-12 -8 -12 -19q0 -4 1 -6q31 -60 108 -178q4 -8 4 -9
q0 -11 -23 -14z" />
    <glyph glyph-name="guilsinglright" unicode="&#x203a;" horiz-adv-x="427" 
d="M215 439q26 3 42 3q23 0 36.5 -4t16.5 -8l2 -3q32 -43 60.5 -91.5t41.5 -75.5l12 -26q3 -5 3 -12q0 -17 -19 -32q-202 -135 -284 -178q-20 -14 -80 -14q-26 0 -62 3q-9 2 -9 8q0 5 11 13q227 129 307 190q12 8 12 20q0 4 -1 6q-31 59 -108 177q-4 8 -4 10q0 11 23 14z
" />
    <glyph glyph-name="fraction" unicode="&#x2044;" horiz-adv-x="408" 
d="M-61 -17q-44 0 -44 16l6 12q636 660 672 706q16 22 63 22q16 0 35 -3q9 -2 9 -8q0 -4 -5 -11q-16 -20 -184 -196.5t-328 -342.5l-160 -167q-17 -28 -64 -28z" />
    <glyph glyph-name="Euro" unicode="&#x20ac;" horiz-adv-x="626" 
d="M507 283q-14 -14 -39 -14h-156q-16 -56 -16 -91q0 -39 20.5 -66.5t58.5 -27.5q29 0 57 11.5t48 27.5t36 32t24 27l7 12q7 10 15 10q9 0 14 -16t5 -31q0 -11 -2.5 -21t-5.5 -14l-3 -4q-42 -66 -118 -106t-159 -40q-84 0 -128 46t-44 129q0 55 19 122h-62q-18 0 -18 11l2 4
q10 19 16 29t19.5 19t30.5 9h36q14 37 31 70h-41q-18 0 -18 11l2 4q10 19 16 29t19.5 19t30.5 9h33q77 118 190 192t257 74q88 0 136 -25q6 -4 6 -12q0 -4 -1 -7q-33 -88 -69 -145t-58 -74t-37 -17q-14 0 -21 21.5t-7 42.5q0 27 5.5 54.5t11.5 40.5l5 14q4 7 4 12
q0 11 -31 11q-52 0 -108.5 -50.5t-107.5 -131.5h184q18 0 18 -9q0 -7 -11.5 -24t-19.5 -25q-14 -14 -39 -14h-173q-20 -39 -33 -70h182q18 0 18 -9q0 -7 -11.5 -24t-19.5 -25z" />
    <glyph glyph-name="minus" unicode="&#x2212;" horiz-adv-x="569" 
d="M573 340q-13 -17 -40 -17h-416q-18 0 -18 13l2 8q14 34 29 52.5t41 18.5h418q18 0 18 -11q0 -21 -34 -64z" />
    <glyph glyph-name="lessequal" unicode="&#x2264;" horiz-adv-x="596" 
d="M559 340q-6 -19 -19.5 -41t-27.5 -22l-9 2q-53 19 -140.5 40.5t-148.5 33.5l-61 12q-19 2 -19 14l3 10q26 62 63 77q338 123 490 150q7 1 12 1q7 0 7 -9q0 -2 -2 -10q-3 -9 -8.5 -22.5t-21.5 -37t-30 -25.5q-226 -55 -293 -79q-11 -7 -11 -13q0 -3 6 -5q139 -29 202 -53
q9 -5 9 -16q0 -4 -1 -7zM464 151q-14 -17 -34 -17h-399q-18 0 -18 13l2 8q5 14 12 27.5t11 19.5l5 7q10 15 38 18h399q17 0 17 -10q0 -3 -5 -15q-6 -20 -28 -51z" />
    <glyph glyph-name="greaterequal" unicode="&#x2265;" horiz-adv-x="570" 
d="M646 498q-19 -60 -67 -79q-140 -48 -259 -83t-168 -46l-49 -12q-2 0 -4 -0.5t-3 -0.5q-13 0 -13 11l4 13q6 14 15 29.5t16 24.5l6 9q3 7 15 12.5t16 5.5q50 10 119.5 29t113.5 33l45 14q14 7 14 12q0 3 -2.5 5t-5.5 3l-3 1q-42 8 -91 21t-77 22l-29 8q-8 2 -8 12l1 9
l24 49q6 13 24 13l7 -1q284 -81 345 -91q15 -5 15 -17q0 -4 -1 -6zM451 151q-14 -17 -35 -17h-399q-17 0 -17 12l2 9q5 14 12 27.5t12 19.5l4 7q10 15 38 18h398q17 0 17 -10q0 -3 -5 -15q-5 -20 -27 -51z" />
    <glyph glyph-name="fi" unicode="&#xfb01;" horiz-adv-x="525" 
d="M363 383q-15 0 -47 -2q-85 -157 -180 -350q-26 -70 -70 -107q-5 -4 -13 -10t-32 -22t-47.5 -28.5t-54.5 -22.5t-56 -10q-12 0 -12 9l5 14q11 20 36 51t45 51l20 21l26 32q38 55 203 365q-36 6 -36 59q0 28 14 28q3 0 24 -1.5t42 -2.5l62 119q34 71 64 98q4 4 11 10
t32 21.5t52.5 28t72.5 23.5t92 14q13 0 13 -7q0 -4 -6 -13t-18 -24t-55 -55t-91 -72q-18 -13 -26 -24q-22 -28 -73 -115q12 1 34 1q25 0 33 -12t8 -40q0 -32 -17 -32q-2 0 -16.5 2.5t-38.5 2.5zM301 102q37 73 81 156t70 130l25 46q10 17 41.5 27t57.5 11l27 2q31 0 31 -14
l-3 -8q-81 -137 -147 -259q-38 -70 -48 -105q-2 -10 -2 -13q0 -9 10 -21t10 -19q0 -22 -45 -34t-81 -12q-53 0 -53 33q0 24 26 80zM626 553q-23 0 -36 13.5t-13 35.5q0 44 38 80.5t80 36.5q48 0 48 -46q0 -40 -35 -80t-82 -40z" />
    <glyph glyph-name="fl" unicode="&#xfb02;" horiz-adv-x="508" 
d="M363 383q-15 0 -47 -2q-85 -157 -180 -350q-26 -70 -70 -107q-5 -4 -13 -10t-32 -22t-47.5 -28.5t-54.5 -22.5t-56 -10q-12 0 -12 9l5 14q11 20 36 51t45 51l20 21l26 32q38 55 203 365q-36 6 -36 59q0 28 14 28q3 0 24 -1.5t42 -2.5l62 119q34 71 64 98q4 4 11 10
t32 21.5t52.5 28t72.5 23.5t92 14q13 0 13 -7q0 -4 -6 -13t-18 -24t-55 -55t-91 -72q-18 -13 -26 -24q-22 -28 -73 -115q12 1 34 1q25 0 33 -12t8 -40q0 -32 -17 -32q-2 0 -16.5 2.5t-38.5 2.5zM359 -111q-35 22 -62.5 62t-27.5 77q0 41 32 97l24 41q43 76 113.5 208
t119.5 226l49 94q11 33 41 51q55 34 134 41q11 0 11 -9q0 -19 -61 -105l-19 -31q-171 -305 -292 -554q-9 -25 -9 -35q-11 -116 -25 -156q-3 -12 -14 -12q-7 0 -14 5z" />
    <glyph glyph-name="V.001" horiz-adv-x="454" 
d="M575 454q-248 -296 -346 -438q-31 -44 -139 -44l-77 5q-16 2 -16 17l4 16q9 19 24 56.5t25 65.5l11 29l142 404l9 37q1 4 2.5 42t4.5 62q2 15 25 21q47 9 103 9q27 0 54 -3q10 -1 10 -15q0 -6 -3 -16q-121 -367 -173 -512v-4q0 -6 4 -6t15 10q78 97 149 190
q33 50 138 187q80 103 114 136q3 4 9.5 9.5t37.5 14.5t74 9q24 0 52 -3q16 -1 16 -11q0 -7 -10 -17q-110 -102 -148 -134q-50 -43 -111 -117z" />
    <glyph glyph-name="W.001" horiz-adv-x="790" 
d="M829 470q158 217 198 245q34 24 115 24q19 0 29 -1q34 0 34 -15q0 -5 -6 -13q-12 -14 -50.5 -48.5t-71.5 -62.5l-33 -28q-30 -26 -49 -50q-278 -322 -405 -508q-31 -44 -136 -44l-78 6q-18 3 -18 13l3 9q15 28 63 158.5t65 193.5q0 5 -3 5q-4 0 -9 -6
q-181 -231 -252 -335q-31 -44 -137 -44q-98 0 -98 20l3 8q9 16 25 56t28 73l11 32l141 404l10 37q1 5 2.5 43.5t3.5 61.5q2 15 26 20q44 10 99 10q30 0 55 -4q13 -2 13 -15q0 -6 -3 -15q-122 -368 -174 -513v-4q0 -6 4 -6q6 0 16 10q213 270 295 380q11 15 18.5 29t9.5 20
l2 7q16 48 22 82q2 15 25 20q36 8 86 8q35 0 54 -3q11 -3 11 -13q0 -17 -89 -271.5t-89 -262.5q0 -6 4 -6q6 0 16 10q133 170 214 283z" />
    <glyph glyph-name="Y.001" horiz-adv-x="348" 
d="M338 419q6 7 55 63t88 100t82.5 88t60.5 51q25 10 47 14q29 4 62 4q63 0 63 -12l-4 -9q-7 -8 -45.5 -39.5t-72.5 -58.5l-35 -27q-19 -14 -51 -40.5t-117.5 -108.5t-154.5 -164q-20 -19 -37 -45q-56 -84 -111 -207q-8 -24 -26 -31q-49 -19 -107 -19q-52 0 -52 16q0 3 3 8
q22 32 141 251q14 25 23 59q13 64 28 167t15 119q0 28 -7.5 65t-8.5 50q0 2 0.5 4.5t6 8.5t15.5 8q45 9 101 9q26 0 55 -3q13 0 13 -21q0 -11 -49 -295q0 -14 6 -14t13 9z" />
    <glyph glyph-name="a.001" horiz-adv-x="462" 
d="M222 52q-75 -65 -147 -65q-70 0 -70 81t51.5 176t134.5 161.5t163 66.5q57 0 78 -27q4 -4 7 -4l8 4q22 40 115 40q29 0 29 -13q0 -1 -4 -9q-25 -39 -62 -99.5t-99 -178t-62 -153.5q0 -6 1 -8q21 -21 21 -32q0 -14 -37.5 -26t-65.5 -12q-32 0 -48 8.5t-16 32.5
q0 12 3.5 25.5t7.5 21.5l3 7q2 6 2 7q0 2 -2 2zM390 374q3 4 3 7q0 5 -6.5 7.5t-12.5 3.5h-7q-40 0 -87.5 -48.5t-78.5 -109t-31 -97.5q0 -28 24 -28q47 0 98 93q61 118 98 172z" />
    <glyph glyph-name="aacute.001" horiz-adv-x="462" 
d="M222 52q-75 -65 -147 -65q-70 0 -70 81t51.5 176t134.5 161.5t163 66.5q57 0 78 -27q4 -4 7 -4l8 4q22 40 115 40q29 0 29 -13q0 -1 -4 -9q-25 -39 -62 -99.5t-99 -178t-62 -153.5q0 -6 1 -8q21 -21 21 -32q0 -14 -37.5 -26t-65.5 -12q-32 0 -48 8.5t-16 32.5
q0 12 3.5 25.5t7.5 21.5l3 7q2 6 2 7q0 2 -2 2zM390 374q3 4 3 7q0 5 -6.5 7.5t-12.5 3.5h-7q-40 0 -87.5 -48.5t-78.5 -109t-31 -97.5q0 -28 24 -28q47 0 98 93q61 118 98 172zM601 631q-25 -36 -99.5 -77t-99.5 -41q-10 0 -10 9q0 17 28.5 58t51.5 58q19 14 65 14
q30 0 52 -2q16 -1 16 -10q0 -4 -4 -9z" />
    <glyph glyph-name="acircumflex.001" horiz-adv-x="462" 
d="M222 52q-75 -65 -147 -65q-70 0 -70 81t51.5 176t134.5 161.5t163 66.5q57 0 78 -27q4 -4 7 -4l8 4q22 40 115 40q29 0 29 -13q0 -1 -4 -9q-25 -39 -62 -99.5t-99 -178t-62 -153.5q0 -6 1 -8q21 -21 21 -32q0 -14 -37.5 -26t-65.5 -12q-32 0 -48 8.5t-16 32.5
q0 12 3.5 25.5t7.5 21.5l3 7q2 6 2 7q0 2 -2 2zM390 374q3 4 3 7q0 5 -6.5 7.5t-12.5 3.5h-7q-40 0 -87.5 -48.5t-78.5 -109t-31 -97.5q0 -28 24 -28q47 0 98 93q61 118 98 172zM459 576q-1 1 -3 1l-4 -1q-34 -20 -78 -37.5t-71 -24.5l-27 -8q-12 -3 -16 -3q-6 0 -6 4l5 11
q20 26 48 50.5t46 35.5l18 11l29 10q29 4 69 4q35 0 67 -4q14 -2 19 -10q12 -19 12 -52q0 -21 -7 -45q-4 -15 -18 -15q-17 0 -45.5 26t-37.5 47z" />
    <glyph glyph-name="adieresis.001" horiz-adv-x="462" 
d="M222 52q-75 -65 -147 -65q-70 0 -70 81t51.5 176t134.5 161.5t163 66.5q57 0 78 -27q4 -4 7 -4l8 4q22 40 115 40q29 0 29 -13q0 -1 -4 -9q-25 -39 -62 -99.5t-99 -178t-62 -153.5q0 -6 1 -8q21 -21 21 -32q0 -14 -37.5 -26t-65.5 -12q-32 0 -48 8.5t-16 32.5
q0 12 3.5 25.5t7.5 21.5l3 7q2 6 2 7q0 2 -2 2zM390 374q3 4 3 7q0 5 -6.5 7.5t-12.5 3.5h-7q-40 0 -87.5 -48.5t-78.5 -109t-31 -97.5q0 -28 24 -28q47 0 98 93q61 118 98 172zM402 603q-11 -40 -37.5 -65.5t-65.5 -25.5q-51 0 -51 39q0 5 3 17q11 37 38.5 60.5t67.5 23.5
q47 0 47 -37q0 -6 -2 -12zM623 603q-11 -40 -37.5 -65.5t-65.5 -25.5q-51 0 -51 39q0 5 3 17q11 37 38.5 60.5t67.5 23.5q47 0 47 -37q0 -6 -2 -12z" />
    <glyph glyph-name="agrave.001" horiz-adv-x="462" 
d="M222 52q-75 -65 -147 -65q-70 0 -70 81t51.5 176t134.5 161.5t163 66.5q57 0 78 -27q4 -4 7 -4l8 4q22 40 115 40q29 0 29 -13q0 -1 -4 -9q-25 -39 -62 -99.5t-99 -178t-62 -153.5q0 -6 1 -8q21 -21 21 -32q0 -14 -37.5 -26t-65.5 -12q-32 0 -48 8.5t-16 32.5
q0 12 3.5 25.5t7.5 21.5l3 7q2 6 2 7q0 2 -2 2zM390 374q3 4 3 7q0 5 -6.5 7.5t-12.5 3.5h-7q-40 0 -87.5 -48.5t-78.5 -109t-31 -97.5q0 -28 24 -28q47 0 98 93q61 118 98 172zM341 628q-2 6 -2 7q0 14 55 14q65 0 78 -14q23 -43 30 -108q0 -17 -12 -17q-25 0 -79 41
t-70 77z" />
    <glyph glyph-name="apple" horiz-adv-x="632" 
d="M434 738l-90 -85q-9 1 -28 1t-28 -1l-90 85h59l58 -61l59 61h60zM632 304q0 -130 -93 -223t-223 -93q-131 0 -223.5 92.5t-92.5 223.5t92.5 223.5t223.5 92.5q130 0 223 -93t93 -223zM586 304q0 112 -79 191.5t-191 79.5t-191.5 -79.5t-79.5 -191.5t79.5 -191.5
t191.5 -79.5t191 79.5t79 191.5zM458 204q0 -53 -44.5 -80.5t-110.5 -27.5q-49 0 -129 39l9 47q66 -41 128 -41q40 0 65 16.5t25 42.5q0 23 -22.5 42.5t-54.5 35t-64 32.5t-54.5 42.5t-22.5 56.5q0 54 39.5 78.5t91.5 24.5q19 0 39.5 -5.5t32 -11t29 -15t20.5 -11.5l-11 -43
q-48 42 -107 42q-36 0 -58 -15.5t-22 -39.5q0 -23 23 -41t55.5 -31.5t64.5 -29t55 -43t23 -64.5z" />
    <glyph glyph-name="aring.001" horiz-adv-x="462" 
d="M222 52q-75 -65 -147 -65q-70 0 -70 81t51.5 176t134.5 161.5t163 66.5q57 0 78 -27q4 -4 7 -4l8 4q22 40 115 40q29 0 29 -13q0 -1 -4 -9q-25 -39 -62 -99.5t-99 -178t-62 -153.5q0 -6 1 -8q21 -21 21 -32q0 -14 -37.5 -26t-65.5 -12q-32 0 -48 8.5t-16 32.5
q0 12 3.5 25.5t7.5 21.5l3 7q2 6 2 7q0 2 -2 2zM390 374q3 4 3 7q0 5 -6.5 7.5t-12.5 3.5h-7q-40 0 -87.5 -48.5t-78.5 -109t-31 -97.5q0 -28 24 -28q47 0 98 93q61 118 98 172zM486 684q35 0 51 -10.5t16 -37.5q0 -36 -29.5 -74t-68.5 -48q-13 -3 -43 -3q-60 0 -60 43
q0 31 19.5 65t48.5 50q27 15 66 15zM408 578q0 -19 26 -19q19 0 27 4q35 15 35 52q0 21 -28 21q-26 0 -43 -17.5t-17 -40.5z" />
    <glyph glyph-name="atilde.001" horiz-adv-x="462" 
d="M222 52q-75 -65 -147 -65q-70 0 -70 81t51.5 176t134.5 161.5t163 66.5q57 0 78 -27q4 -4 7 -4l8 4q22 40 115 40q29 0 29 -13q0 -1 -4 -9q-25 -39 -62 -99.5t-99 -178t-62 -153.5q0 -6 1 -8q21 -21 21 -32q0 -14 -37.5 -26t-65.5 -12q-32 0 -48 8.5t-16 32.5
q0 12 3.5 25.5t7.5 21.5l3 7q2 6 2 7q0 2 -2 2zM390 374q3 4 3 7q0 5 -6.5 7.5t-12.5 3.5h-7q-40 0 -87.5 -48.5t-78.5 -109t-31 -97.5q0 -28 24 -28q47 0 98 93q61 118 98 172zM516 529q-3 -1 -12 -1q-15 0 -33 3.5t-43 9.5t-32 8q-5 1 -13 1h-10q-2 0 -12 -3.5t-26.5 -7
t-34.5 -3.5q-4 0 -4 5q0 13 19 39.5t39 34.5q7 4 29 4q33 0 79.5 -11t51.5 -11q4 0 14 2q38 14 55 14q8 0 8 -5q-1 -3 -3 -8t-9 -17.5t-15 -22.5t-21 -19.5t-27 -11.5z" />
    <glyph glyph-name="i.001" horiz-adv-x="235" 
d="M11 102q37 73 75 145t58 107l19 36q10 17 41.5 27t57.5 11l27 2q31 0 31 -14l-3 -8q-57 -93 -123 -215q-38 -70 -48 -105q-2 -10 -2 -13q0 -9 10 -21t10 -19q0 -22 -45 -34t-81 -12q-53 0 -53 33q0 24 26 80zM308 502q-23 0 -36 13.5t-13 35.5q0 44 38 80.5t80 36.5
q48 0 48 -46q0 -40 -35 -80t-82 -40z" />
    <glyph glyph-name="j.001" horiz-adv-x="231" 
d="M-18 38q41 87 88 175.5t73 132.5l26 45q24 40 135 40q22 0 22 -11l-3 -10q-57 -82 -123 -203q-148 -270 -191 -367q-1 -5 -5 -13.5t-25.5 -34t-55.5 -50.5q-44 -33 -113 -63.5t-114 -30.5q-21 0 -21 11q0 23 45.5 72.5t83.5 82.5t63 53q19 15 48 57.5t48 77.5zM305 502
q-23 0 -36 13.5t-13 35.5q0 44 38 80.5t80 36.5q23 0 36 -13.5t13 -35.5q0 -44 -37.5 -80.5t-80.5 -36.5z" />
    <glyph glyph-name="r.001" horiz-adv-x="324" 
d="M482 474q0 -45 -75.5 -115.5t-155.5 -113.5q-6 -3 -13 -9.5t-11 -11.5l-4 -4q-46 -66 -107 -188q-14 -28 -27 -34q-34 -17 -90 -17q-40 0 -40 13l5 12q7 9 41.5 71.5t93.5 171t95 174.5q17 44 65 55q38 8 62 8q28 0 28 -10q0 -1 -2 -5q-40 -60 -43 -68q0 -5 3 -5q2 0 5 3
q111 80 164 80q6 0 6 -7z" />
    <glyph glyph-name="s.001" horiz-adv-x="340" 
d="M34 -29q-33 0 -66 8.5t-33 23.5q0 4 3.5 9t6.5 8l3 3q38 35 90 59t85 30l33 7q30 5 30 37q0 30 -21.5 59.5t-43 58.5t-21.5 57q0 67 79.5 112t182.5 45q53 0 84 -17q6 -3 6 -9q0 -9 -11 -20q-6 -5 -18 -13t-57 -25t-100 -24q-18 -7 -18 -28q0 -19 20 -44.5t39.5 -58.5
t19.5 -71q0 -76 -86 -141.5t-207 -65.5z" />
    <glyph glyph-name="t.001" horiz-adv-x="267" 
d="M76 -127q-34 21 -56 51t-27 49l-5 19q-3 9 -3 25q0 41 32 97l24 41q19 34 124 223q-32 6 -32 57q0 30 14 30q2 0 21 -1.5t42 -2.5l68 126q12 33 42 51q56 34 133 41q12 -1 12 -10q0 -14 -30.5 -57t-33.5 -49q-23 -38 -58 -99q16 1 47 1q28 0 28 -49q0 -6 -2 -24
q-1 -10 -13 -10q-3 0 -19 3t-39 3q-15 0 -45 -2q-87 -155 -162 -310q-8 -25 -10 -35q-1 -3 -2.5 -23.5t-4 -44.5t-6.5 -48.5t-10.5 -40.5t-14.5 -16q-6 0 -14 5z" />
    <glyph glyph-name="v.001" horiz-adv-x="418" 
d="M422 295q-122 -129 -239 -292q-19 -26 -124 -26l-44 1q-15 1 -15 13l3 10q23 64 51 153.5t44 147.5l17 57l5 36q-2 22 -2 29q0 33 14 41q34 17 96 17q29 0 37.5 -2.5t8.5 -11.5q0 -1 -0.5 -3.5t-0.5 -3.5q-17 -101 -100 -338q0 -12 5 -12q2 0 7 6q159 220 245 327
q25 30 90 44q36 8 67 8q15 0 22 -1q8 0 8 -7t-6 -14q-30 -33 -93 -88t-96 -91z" />
    <glyph glyph-name="w.001" horiz-adv-x="678" 
d="M702 448q23 31 94 43q20 4 56 4q15 0 21 -1q9 -1 9 -8q0 -4 -6 -13q-23 -33 -108 -102q-36 -29 -80 -79q-93 -102 -222 -289q-18 -26 -121 -26l-44 1q-15 1 -15 10l3 8q16 45 74 236q1 2 1 4q0 4 -3 4l-9 -5q-34 -38 -172 -232q-19 -26 -122 -26l-43 1q-15 1 -15 10l3 8
q22 64 50 155t45 149l16 59l6 36q-3 19 -3 32q0 32 14 39q32 16 92 16q26 0 41 -2q6 -3 6 -13v-4q-14 -83 -89 -313q0 -12 4 -12q3 0 7 6q146 184 203 245q21 25 27 40q10 30 17 36q10 10 33 13q30 6 60 6q36 0 36 -11q0 -2 -2 -8q-9 -21 -49.5 -143t-50.5 -173q0 -11 5 -11
q2 0 7 6q138 205 224 304z" />
    <glyph glyph-name="x.001" horiz-adv-x="448" 
d="M343 255q-10 -9 -12 -26q-5 -36 -5 -78q0 -99 34 -126q5 -3 5 -9q0 -14 -44 -29.5t-76 -15.5q-20 0 -29.5 1.5t-18 8.5t-8.5 22q-1 16 -1 42q0 72 12 134q0 9 -5 9q-4 0 -11 -8q-75 -67 -119 -124q-20 -25 -30 -57q-2 -13 -28 -19q-32 -7 -71 -7q-62 0 -62 12q0 5 9 17
q19 31 128 119q129 100 185 156q10 10 12 25q3 30 3 63q0 20 -1 29l-5 23q-19 27 -19 43q0 11 12 15q45 15 101 15q39 0 42 -17q2 -15 2 -46q0 -42 -3 -75q0 -6 3 -6q4 0 9 5q35 32 65 64q33 41 81 57q53 20 110 20q18 0 36 -3q6 -1 6 -6t-10 -13q-23 -15 -75.5 -46
t-79.5 -50q-73 -53 -142 -119z" />
    </font>
</defs>
</svg>
