<?xml version="1.0" standalone="no"?>
<!DOCTYPE svg PUBLIC "-//W3C//DTD SVG 1.1//EN" "http://www.w3.org/Graphics/SVG/1.1/DTD/svg11.dtd" >
<svg xmlns="http://www.w3.org/2000/svg" xmlns:xlink="http://www.w3.org/1999/xlink" version="1.1">
<metadata>
Created by FontForge 20170924 at Wed Jun 14 20:21:10 1995
 By www-data
Digital typeface data Copyright (c)1993,1996 Weatherly Systems, Inc. All Rights Reserved. Redistribution strictly prohibited.
</metadata>
<defs>
<font id="Scotsdale-Italic" horiz-adv-x="500" >
  <font-face 
    font-family="Scotsdale"
    font-weight="5"
    font-style="italic"
    font-stretch="normal"
    units-per-em="1000"
    panose-1="0 0 0 0 0 0 0 0 0 0"
    ascent="800"
    descent="-200"
    x-height="519"
    cap-height="703"
    bbox="-152 -194 1189 875"
    underline-thickness="100"
    underline-position="-110"
    slope="-12"
    unicode-range="U+0020-F002"
  />
<missing-glyph horiz-adv-x="800" 
d="M50 0v800h700v-800h-700zM700 50v700h-600v-700h600z" />
    <glyph glyph-name=".notdef" horiz-adv-x="800" 
d="M50 0v800h700v-800h-700zM700 50v700h-600v-700h600z" />
    <glyph glyph-name=".null" horiz-adv-x="0" 
 />
    <glyph glyph-name="nonmarkingreturn" horiz-adv-x="266" 
 />
    <glyph glyph-name="space" unicode=" " horiz-adv-x="266" 
 />
    <glyph glyph-name="exclam" unicode="!" horiz-adv-x="371" 
d="M417 616l-5 -18l-138 -358h-75l15 358l2 18q17 77 117 77q86 0 86 -57q0 -13 -2 -20zM291 79q-20 -89 -107 -89q-73 0 -73 60q0 7 4 29q18 88 106 88q73 0 73 -61q0 -12 -3 -27z" />
    <glyph glyph-name="quotedbl" unicode="&#x22;" horiz-adv-x="314" 
d="M444 683l-98 -273h-39l18 273h119zM280 683l-98 -273h-39l18 273h119z" />
    <glyph glyph-name="numbersign" unicode="#" horiz-adv-x="745" 
d="M765 475l-22 -56h-102l-60 -152h103l-22 -56h-102l-66 -171h-116l66 171h-99l-66 -171h-116l66 171h-103l22 56h102l60 152h-103l22 56h102l66 171h117l-67 -171h99l66 171h117l-67 -171h103zM525 419h-99l-60 -152h99z" />
    <glyph glyph-name="dollar" unicode="$" horiz-adv-x="647" 
d="M659 509l-100 -20q11 23 17 46q1 8 2.5 16t1.5 16q0 91 -121 91l-41 -193q118 -43 166 -87.5t48 -111.5q0 -17 -1 -27t-6 -31q-21 -97 -101.5 -158.5t-191.5 -61.5h-16l-17 -80h-37l17 80q-187 21 -187 147q0 17 5 44l14 49l103 23q-21 -42 -29 -76q-4 -17 -4 -37
q0 -94 110 -94l47 218q-173 60 -173 189q0 20 5 45q42 197 264 217l13 64h37l-13 -61q195 0 195 -146q0 -30 -7 -61zM421 655l-9 2q-78 0 -96 -83q-2 -12 -2 -16q0 -48 70 -79zM449 141q2 12 2 19q0 54 -79 87l-44 -203q103 15 121 97z" />
    <glyph glyph-name="percent" unicode="%" horiz-adv-x="783" 
d="M803 171q-38 -177 -196 -177q-129 0 -129 116q0 30 7 61q38 176 197 176q128 0 128 -115q0 -30 -7 -61zM733 683l-465 -683h-72l465 683h72zM443 512q-38 -176 -197 -176q-127 0 -127 115q0 30 7 61q38 176 195 176q129 0 129 -116q0 -29 -7 -60zM684 171q14 68 14 103
q0 44 -22 44q-39 0 -71 -147q-13 -64 -13 -102q0 -45 21 -45q39 0 71 147zM324 512q14 67 14 100q0 47 -23 47q-38 0 -70 -147q-14 -68 -14 -102q0 -45 22 -45q39 0 71 147z" />
    <glyph glyph-name="ampersand" unicode="&#x26;" horiz-adv-x="669" 
d="M743 469q-32 -146 -163 -293l75 -178h-208l-20 46q-90 -62 -174 -62t-137.5 48.5t-53.5 123.5q0 17 5 42q24 118 218 201q-31 70 -31 119q0 14 3 28q15 71 80 120.5t152 49.5q129 0 129 -97q0 -11 -1 -19q-1 -5 -4 -22q-21 -102 -131 -157l77 -188q39 44 76 116
q31 60 52 122h56zM546 565q4 17 4 34q0 58 -62 58q-52 0 -64 -54q-5 -24 16 -81q7 -19 23 -54q69 32 83 97zM407 97l-102 248q-58 -28 -70 -82q-2 -9 -3 -17t-1 -19q0 -60 33 -114t72 -54q33 0 71 38z" />
    <glyph glyph-name="quotesingle" unicode="'" horiz-adv-x="151" 
d="M280 683l-98 -273h-39l18 273h119z" />
    <glyph glyph-name="parenleft" unicode="(" horiz-adv-x="382" 
d="M492 706l-14 -66q-166 -151 -218 -396q-17 -77 -17 -153q0 -140 67 -240l-9 -45q-217 103 -217 329q0 54 14 121q69 320 394 450z" />
    <glyph glyph-name="parenright" unicode=")" horiz-adv-x="381" 
d="M392 256q-68 -320 -393 -450l14 66q166 152 218 396q17 83 17 152q0 138 -68 241l10 45q216 -104 216 -328q0 -55 -14 -122z" />
    <glyph glyph-name="asterisk" unicode="*" horiz-adv-x="443" 
d="M499 549l-136 -17l74 -94q-43 -17 -73 -49l-35 120l-83 -120q-21 32 -55 49l115 94l-128 17q30 34 43 76l105 -62l2 131q11 -2 24 -4.5t15 -2.5q15 0 36 5q3 0 8 2l-51 -130l132 62q-3 -15 -3 -29q0 -15 1.5 -22.5t8.5 -25.5z" />
    <glyph glyph-name="plus" unicode="+" 
d="M564 381l-16 -77h-192l-41 -193h-77l41 193h-192l16 77h192l41 191h77l-41 -191h192z" />
    <glyph glyph-name="comma" unicode="," horiz-adv-x="293" 
d="M250 69q-36 -163 -198 -209l14 63q50 28 73 76q-65 0 -65 58q0 13 3 28q19 88 108 88q70 0 70 -66q0 -15 -5 -38z" />
    <glyph glyph-name="hyphen" unicode="-" horiz-adv-x="261" 
d="M323 327l-29 -132h-246l29 132h246z" />
    <glyph glyph-name="period" unicode="." horiz-adv-x="293" 
d="M251 79q-20 -89 -107 -89q-72 0 -72 61q0 13 3 28q18 88 106 88q73 0 73 -60q0 -13 -3 -28z" />
    <glyph glyph-name="slash" unicode="/" horiz-adv-x="438" 
d="M542 683l-516 -854h-72l516 854h72z" />
    <glyph glyph-name="zero" unicode="0" horiz-adv-x="644" 
d="M692 351q-78 -362 -372 -362q-233 0 -233 227q0 62 16 135q77 363 371 363q234 0 234 -229q0 -54 -16 -134zM478 351q29 139 29 213q0 94 -45 94q-81 0 -145 -307q-15 -66 -22 -119t-7 -93q0 -94 44 -94q80 0 146 306z" />
    <glyph glyph-name="one" unicode="1" horiz-adv-x="644" 
d="M594 703l-149 -703h-197l112 529q-50 -21 -86 -31.5t-68 -10.5l19 93q157 15 244 123h125z" />
    <glyph glyph-name="two" unicode="2" horiz-adv-x="644" 
d="M692 518q-15 -70 -102 -147q-79 -70 -282 -202h304l-36 -169h-525l21 100q28 24 206 171q107 88 148 133q59 65 71 120q6 27 6 49q0 78 -79 78q-118 0 -153 -152q-3 -14 -4 -41.5t-1 -60.5l-102 25q0 21 0.5 41.5t3.5 37.5q47 213 309 213q99 0 159 -43t60 -115
q0 -7 -0.5 -15t-3.5 -23z" />
    <glyph glyph-name="three" unicode="3" horiz-adv-x="644" 
d="M679 534q-13 -59 -59.5 -100t-125.5 -63q138 -33 138 -137q0 -17 -5 -40q-44 -206 -329 -206q-221 0 -221 131q0 21 3.5 37.5t9.5 35.5t16 40l94 5q-13 -29 -19 -45q-10 -26 -13 -40.5t-3 -24.5q0 -36 25 -56t77 -20q122 0 151 139q5 27 5 44q0 95 -120 95l-56 -1l17 82
h40q153 0 182 130q4 19 4 37q0 75 -89 75q-109 0 -129 -99q-6 -24 -6 -57l-89 20q42 200 274 200q233 0 233 -139q0 -18 -5 -43z" />
    <glyph glyph-name="four" unicode="4" horiz-adv-x="644" 
d="M655 703l-101 -476h77l-17 -80h-77l-31 -147h-200l31 147h-262l19 87l427 469h134zM414 495l-231 -268h174z" />
    <glyph glyph-name="five" unicode="5" horiz-adv-x="644" 
d="M695 703l-58 -148h-333l-58 -150q96 57 187 57q95 0 151.5 -48.5t56.5 -129.5q0 -24 -6 -51q-24 -111 -117.5 -178t-227.5 -67q-213 0 -213 128q0 17 5 40t21 59l95 19q-4 -10 -6 -16q-14 -38 -19 -57.5t-5 -36.5q0 -73 94 -73q133 0 174 191q6 29 6 50q0 84 -91 84
q-68 0 -136 -72l-77 19l146 380h411z" />
    <glyph glyph-name="six" unicode="6" horiz-adv-x="644" 
d="M689 554l-9 -33l-97 -15l18 58q1 8 2.5 15.5t1.5 15.5q0 64 -74 64q-64 0 -100.5 -50.5t-80.5 -199.5q77 57 146 57q75 0 121.5 -47.5t46.5 -124.5q0 -25 -6 -52q-25 -116 -110 -185.5t-202 -69.5q-241 0 -241 226q0 56 15 127q37 172 144.5 273.5t253.5 101.5
q175 0 175 -120v-24q-3 -12 -4 -17zM457 241q10 46 10 82q0 70 -46 70q-83 0 -117 -162q-13 -62 -13 -107q0 -81 50 -81q74 0 116 198z" />
    <glyph glyph-name="seven" unicode="7" horiz-adv-x="644" 
d="M727 703l-23 -108q-119 -121 -192 -261q-76 -145 -116 -334h-228q82 304 360 543h-362l58 160h503z" />
    <glyph glyph-name="eight" unicode="8" horiz-adv-x="644" 
d="M669 548q-16 -81 -113 -131q103 -62 103 -157q0 -19 -5 -42q-21 -102 -114.5 -166.5t-226.5 -64.5q-107 0 -173 47t-66 122v17q0 3 4 18q20 95 140 144q-63 53 -63 126q0 21 4 40q20 93 106.5 152.5t205.5 59.5q92 0 146.5 -36.5t54.5 -98.5q0 -15 -3 -30zM576 530
q2 8 3 18.5t1 18.5q0 90 -126 90t-146 -92q-1 -3 -1 -6v-5q0 -32 44 -56.5t161 -58.5q52 39 64 91zM485 152q2 7 2 21q0 49 -71 79q-100 33 -154 54q-79 -43 -94 -115q-3 -14 -3 -26q0 -52 44 -87t111 -35q59 0 107 31.5t58 77.5z" />
    <glyph glyph-name="nine" unicode="9" horiz-adv-x="644" 
d="M673 356q-37 -171 -143.5 -269.5t-256.5 -98.5q-172 0 -172 112v22q3 11 4 16l10 39l98 19q-11 -28 -16 -49.5t-5 -38.5q0 -64 74 -64q64 0 98.5 48.5t80.5 201.5q-75 -59 -144 -59q-77 0 -123 47t-46 124q0 11 1 23t6 36q24 114 109 182t204 68q236 0 236 -228
q0 -57 -15 -131zM491 477q14 65 14 105q0 77 -50 77q-75 0 -116 -194q-12 -54 -12 -89q0 -69 44 -69q84 0 120 170z" />
    <glyph glyph-name="colon" unicode=":" horiz-adv-x="293" 
d="M317 392q-18 -88 -106 -88q-73 0 -73 61q0 12 3 27q20 88 107 88q73 0 73 -59q0 -7 -4 -29zM251 79q-20 -89 -107 -89q-72 0 -72 61q0 13 3 28q18 88 106 88q73 0 73 -60q0 -13 -3 -28z" />
    <glyph glyph-name="semicolon" unicode=";" horiz-adv-x="293" 
d="M317 392q-18 -88 -106 -88q-73 0 -73 61q0 12 3 27q20 88 107 88q73 0 73 -59q0 -7 -4 -29zM250 69q-36 -163 -198 -209l14 63q50 28 73 76q-65 0 -65 58q0 13 3 28q19 88 108 88q70 0 70 -66q0 -15 -5 -38z" />
    <glyph glyph-name="less" unicode="&#x3c;" horiz-adv-x="444" 
d="M588 677l-42 -198l-261 -133l204 -133l-42 -197l-391 248l35 166z" />
    <glyph glyph-name="equal" unicode="=" 
d="M571 463l-16 -77h-451l16 77h451zM536 297l-16 -77h-451l16 77h451z" />
    <glyph glyph-name="greater" unicode="&#x3e;" horiz-adv-x="444" 
d="M535 429l-35 -165l-497 -248l42 198l262 133l-204 134l41 196z" />
    <glyph glyph-name="question" unicode="?" horiz-adv-x="491" 
d="M564 484q-18 -85 -84.5 -146.5t-141.5 -61.5q-53 0 -97 37l-16 -72h-77l35 164h72q0 -75 47 -75q65 0 91 122q7 30 10 55.5t3 47.5q0 84 -55 84q-63 0 -83 -92q-4 -19 -6 -34.5t-2 -34.5l-73 23q0 43 4 60q29 132 199 132q182 0 182 -145q0 -27 -8 -64zM246 79
q-20 -89 -107 -89q-73 0 -73 60q0 7 4 29q18 88 106 88q73 0 73 -61q0 -12 -3 -27z" />
    <glyph glyph-name="at" unicode="@" horiz-adv-x="748" 
d="M821 403q-25 -115 -108.5 -184.5t-201.5 -69.5q-73 0 -73 38q-14 -12 -24 -18q-30 -18 -62 -18q-80 0 -80 76q0 12 1 21q0 4 4 23q20 97 80 166t123 69q48 0 61 -52l17 42q51 0 114 9l-98 -253l-9 -26q-6 -22 19 -22q47 0 93 56.5t63 138.5q6 26 6 50q0 84 -58.5 138.5
t-153.5 54.5q-123 0 -222 -87.5t-128 -225.5q-8 -40 -8 -73q0 -99 59 -160t161 -61q86 0 218 55l11 -45q-137 -60 -243 -60q-140 0 -223.5 74.5t-83.5 194.5q0 32 8 72q33 154 168 262t299 108q121 0 199 -68t78 -172q0 -26 -6 -53zM518 405q3 15 3 25q0 26 -21 26
t-58.5 -73t-53.5 -146q-2 -12 -2 -15q0 -22 20 -22q28 0 61 61t51 144z" />
    <glyph glyph-name="A" unicode="A" horiz-adv-x="571" 
d="M576 0h-205l-9 152h-213l-76 -152h-80l357 703h179zM358 224l-16 311l-156 -311h172z" />
    <glyph glyph-name="B" unicode="B" horiz-adv-x="662" 
d="M728 530q-27 -120 -180 -156q142 -30 142 -143q0 -17 -5 -44q-41 -187 -277 -187h-347l149 703h312q211 0 211 -132q0 -18 -5 -41zM526 526q6 27 6 47q0 72 -73 72h-57l-52 -247h63q86 0 113 128zM477 190q7 29 7 57q0 92 -93 92h-54l-59 -280h57q115 0 142 131z" />
    <glyph glyph-name="C" unicode="C" horiz-adv-x="632" 
d="M692 495l-95 -40l11 48q7 31 7 58q0 97 -99 97q-132 0 -202 -329q-8 -39 -12.5 -75t-4.5 -67q0 -143 103 -143q62 0 113 48t66 122q3 13 5 29t2 39l83 -22l-8 -47q-21 -101 -108.5 -163t-212.5 -62q-252 0 -252 231q0 51 14 121q35 165 149 270t259 105q190 0 190 -152
q0 -28 -8 -68z" />
    <glyph glyph-name="D" unicode="D" horiz-adv-x="692" 
d="M738 351q-75 -351 -397 -351h-280l149 703h291q251 0 251 -230q0 -29 -3 -58t-11 -64zM524 352q25 120 25 181q0 60 -22 86t-72 26h-53l-124 -586h53q74 0 115.5 63t77.5 230z" />
    <glyph glyph-name="E" unicode="E" horiz-adv-x="562" 
d="M665 703l-15 -71h-251l-45 -212h211l-15 -71h-211l-59 -278h294l-15 -71h-498l149 703h455z" />
    <glyph glyph-name="F" unicode="F" horiz-adv-x="527" 
d="M668 703l-15 -71h-254l-49 -233h216l-15 -71h-216l-70 -328h-204l149 703h458z" />
    <glyph glyph-name="G" unicode="G" horiz-adv-x="665" 
d="M707 516l-104 -43l3 16q8 42 8 68q0 50 -23 72.5t-67 22.5q-76 0 -120 -69t-81 -243q-28 -135 -28 -194q0 -53 18 -74t60 -21q76 0 94 85l37 173h-102l15 71h289l-81 -380h-65l-11 48q-98 -60 -194 -60q-129 0 -196.5 64.5t-67.5 184.5q0 49 12 108q35 165 147.5 267.5
t261.5 102.5q195 0 195 -199z" />
    <glyph glyph-name="H" unicode="H" horiz-adv-x="695" 
d="M783 703l-149 -703h-203l74 350h-166l-74 -350h-204l149 703h204l-60 -283h166l60 283h203z" />
    <glyph glyph-name="I" unicode="I" horiz-adv-x="327" 
d="M415 703l-149 -703h-204l149 703h204z" />
    <glyph glyph-name="J" unicode="J" horiz-adv-x="438" 
d="M530 703l-96 -452q-56 -266 -243 -266q-73 0 -120.5 37.5t-47.5 95.5q0 14 3 28q9 41 39 102l79 20q-35 -78 -40 -105q-7 -28 -7 -53q0 -62 51 -62q40 0 62 108l116 547h204z" />
    <glyph glyph-name="K" unicode="K" horiz-adv-x="678" 
d="M752 703l-224 -222l158 -481h-228l-99 308l-36 -33l-58 -275h-204l149 703h204l-66 -313l308 313h96z" />
    <glyph glyph-name="L" unicode="L" horiz-adv-x="537" 
d="M569 71l-15 -71h-493l149 703h204l-134 -632h289z" />
    <glyph glyph-name="M" unicode="M" horiz-adv-x="775" 
d="M863 703l-149 -703h-197l104 489l-241 -489h-113l-39 481l-102 -481h-68l149 703h207l30 -424l210 424h209z" />
    <glyph glyph-name="N" unicode="N" horiz-adv-x="631" 
d="M724 703l-149 -703h-156l-198 445l-95 -445h-69l149 703h129l219 -481l102 481h68z" />
    <glyph glyph-name="O" unicode="O" horiz-adv-x="685" 
d="M730 352q-78 -364 -390 -364q-249 0 -249 237q0 62 16 135q75 356 393 356q245 0 245 -233q0 -59 -15 -131zM516 352q16 78 24 130t8 89q0 47 -15.5 67.5t-49.5 20.5q-57 0 -90 -60q-36 -64 -74 -247q-33 -152 -33 -220q0 -48 16 -68t50 -20q57 0 91.5 64.5t72.5 243.5z
" />
    <glyph glyph-name="P" unicode="P" horiz-adv-x="630" 
d="M727 496q-43 -208 -330 -208h-71l-61 -288h-204l149 703h304q220 0 220 -150q0 -15 -2.5 -31.5t-4.5 -25.5zM528 501q6 30 6 53q0 85 -87 85h-46l-61 -286h46q111 0 142 148z" />
    <glyph glyph-name="Q" unicode="Q" horiz-adv-x="683" 
d="M726 343q-53 -243 -229 -324q12 -65 46 -65q42 0 53 55l1 14l51 -20l-5 -29q-27 -127 -149 -127q-115 0 -115 141l-38 -1q-251 0 -251 234q0 58 15 130q77 363 390 363q247 0 247 -237q0 -54 -16 -134zM516 360q30 144 30 209q0 49 -14.5 68.5t-49.5 19.5
q-55 0 -90 -62.5t-71 -234.5q-15 -69 -23 -119.5t-8 -84.5q47 51 91 51q46 0 67 -63q20 43 36.5 96t31.5 120zM384 54q0 77 -33 77q-29 0 -60 -37q9 -51 57 -51q17 0 36 11z" />
    <glyph glyph-name="R" unicode="R" horiz-adv-x="666" 
d="M733 520q-27 -127 -187 -166q57 -19 79 -51q18 -26 18 -71q0 -23 -7.5 -74.5t-7.5 -74.5t3 -42t12 -41h-222q-2 13 -3 18q-1 8 -1 21q0 46 19 135q12 56 12 88q0 44 -18.5 60t-57.5 16h-35l-72 -338h-204l149 703h303q103 0 163.5 -39.5t60.5 -108.5v-17q-3 -12 -4 -18z
M532 517q5 25 5 40q0 82 -95 82h-41l-52 -242h41q116 0 142 120z" />
    <glyph glyph-name="S" unicode="S" horiz-adv-x="579" 
d="M628 507l-99 -18q12 26 17 48q2 7 3 17t1 17q0 88 -127 88q-117 0 -135 -84q-2 -10 -2 -16q0 -43 81 -82q139 -67 151 -75q81 -56 81 -142q0 -11 -1 -24.5t-4 -27.5q-21 -99 -104 -160t-203 -61q-224 0 -224 150q0 24 6 53l12 41l103 21q-23 -48 -28 -71.5t-5 -43.5
q0 -94 127 -94q119 0 139 95q2 14 2 19q0 45 -72 83q-128 67 -136 73q-73 54 -73 137q0 25 6 55q20 94 101 152t195 58q195 0 195 -147q0 -30 -7 -61z" />
    <glyph glyph-name="T" unicode="T" horiz-adv-x="547" 
d="M703 703l-15 -71h-172l-134 -632h-216l134 632h-174l15 71h562z" />
    <glyph glyph-name="U" unicode="U" horiz-adv-x="640" 
d="M738 703l-100 -471q-51 -243 -319 -243q-224 0 -224 172q0 29 8 71l100 471h203l-101 -477q-11 -50 -11 -79q0 -45 23.5 -63.5t78.5 -18.5q139 0 174 167l100 471h68z" />
    <glyph glyph-name="V" unicode="V" horiz-adv-x="560" 
d="M717 703l-353 -703h-183l-38 703h207l26 -532l264 532h77z" />
    <glyph glyph-name="W" unicode="W" horiz-adv-x="823" 
d="M979 703l-340 -703h-133l-16 384l-181 -384h-133l-33 703h206l16 -426l197 426h120l14 -428l203 428h80z" />
    <glyph glyph-name="X" unicode="X" horiz-adv-x="605" 
d="M720 703l-248 -300l139 -403h-227l-82 247l-203 -247h-92l267 321l-132 382h226l78 -229l184 229h90z" />
    <glyph glyph-name="Y" unicode="Y" horiz-adv-x="538" 
d="M701 703l-265 -443l-55 -260h-204l55 260l-96 443h212l72 -338l200 338h81z" />
    <glyph glyph-name="Z" unicode="Z" horiz-adv-x="577" 
d="M718 703l-13 -63l-459 -569h313l-15 -71h-539l15 71l453 561h-285l15 71h515z" />
    <glyph glyph-name="bracketleft" unicode="[" horiz-adv-x="518" 
d="M560 683l-12 -57h-115l-157 -740h115l-12 -57h-271l181 854h271z" />
    <glyph glyph-name="backslash" unicode="\" horiz-adv-x="438" 
d="M412 -171h-72l-154 854h72z" />
    <glyph glyph-name="bracketright" unicode="]" horiz-adv-x="518" 
d="M519 683h-271l-12 -57h115l-157 -740h-115l-12 -57h271z" />
    <glyph glyph-name="asciicircum" unicode="^" 
d="M558 264h-173l-32 210l-123 -210h-174l214 344h220z" />
    <glyph glyph-name="underscore" unicode="_" 
d="M489 -60l-21 -100h-502l21 100h502z" />
    <glyph glyph-name="grave" unicode="`" 
d="M484 564h-44l-143 132h143z" />
    <glyph glyph-name="a" unicode="a" horiz-adv-x="558" 
d="M586 419l-67 -315q-2 -8 -2 -20q0 -28 24 -28q11 0 31 10l8 -47q-75 -27 -140 -27q-95 0 -107 61q-60 -64 -148 -64q-137 0 -137 108v16q0 5 5 29q18 82 102 129q6 3 151 60q82 32 92 78q3 14 3 26q0 53 -65 53q-91 0 -109 -77q-2 -16 -2 -28q0 -16 3 -36l-88 19
q0 20 5 45q27 124 252 124q191 0 191 -93q0 -15 -2 -23zM376 312q-46 -33 -91 -65q-28 -29 -37.5 -74.5t-9.5 -67.5q0 -43 26 -43q58 0 81 102z" />
    <glyph glyph-name="b" unicode="b" horiz-adv-x="568" 
d="M599 277q-62 -288 -281 -288q-102 0 -156 98l-64 -87h-48l149 703q50 4 101.5 7.5t90.5 3.5l-53 -249q66 68 130 68q143 0 143 -154q0 -45 -12 -102zM410 271q19 92 19 133q0 30 -8.5 41.5t-25.5 11.5q-61 0 -101 -180q-19 -88 -19 -142q0 -70 35 -70q33 0 53 40t47 166z
" />
    <glyph glyph-name="c" unicode="c" horiz-adv-x="515" 
d="M563 371l-97 -43l11 49q6 30 6 50q0 61 -57 61q-99 0 -145 -218q-10 -47 -16 -87.5t-6 -65.5q0 -82 70 -82q106 0 134 135q1 5 4 25t3 37l75 -24q-25 -118 -90 -170q-61 -49 -173 -49q-211 0 -211 175q0 21 2 39.5t8 45.5q28 130 119 208t217 78q152 0 152 -116
q0 -22 -6 -48z" />
    <glyph glyph-name="d" unicode="d" horiz-adv-x="569" 
d="M670 714l-152 -714h-188l10 45q-60 -57 -140 -57q-131 0 -131 153q0 48 14 116q58 277 244 277q73 0 103 -64l49 233q38 0 88 3t103 8zM389 259q11 49 16 85.5t5 58.5q0 31 -9 43t-30 12q-31 0 -48 -35t-44 -162q-11 -52 -17 -90t-6 -60q0 -27 9 -37t28 -10q31 0 48 31
q22 40 48 164z" />
    <glyph glyph-name="e" unicode="e" horiz-adv-x="527" 
d="M551 243h-274q-13 -58 -13 -103q0 -101 73 -101q96 0 121 115l7 37l71 -23q-51 -180 -252 -180q-213 0 -213 175q0 20 2 38.5t8 45.5q26 126 112.5 206.5t194.5 80.5q176 0 176 -180q0 -52 -13 -111zM401 302q16 73 16 118q0 63 -32 63q-26 0 -50 -42q-27 -47 -46 -139
h112z" />
    <glyph glyph-name="f" unicode="f" horiz-adv-x="334" 
d="M485 612l-4 -20l-96 -31q7 14 11 26.5t6 20.5t2 19q0 31 -29 31q-34 0 -43 -48q-1 -4 -1 -12q0 -29 28 -79h74l-12 -58h-74l-98 -461h-187l98 461h-67l12 58h67l10 46q14 64 67 106.5t122 42.5q117 0 117 -75q0 -12 -3 -27z" />
    <glyph glyph-name="g" unicode="g" horiz-adv-x="565" 
d="M651 585q-11 -55 -61 -55q-12 0 -27 6.5t-31 13.5q-23 0 -33 -36q102 -47 102 -131q0 -7 -1.5 -17t-2.5 -15q-15 -70 -91.5 -120.5t-170.5 -50.5q-38 0 -95 10q-39 -20 -45 -42q-5 -27 39 -27q58 3 99.5 5t73.5 2q162 0 162 -107v-16q-3 -13 -4 -19q-36 -172 -348 -172
q-212 0 -212 81q0 5 2 15q12 56 109 77q-82 24 -82 73q0 4 2 14q16 75 147 134q-78 35 -78 108v17q0 3 4 18q16 77 91 130t168 53q26 0 57 -4q10 -1 26 -4l3 29q21 102 129 102q71 0 71 -50q0 -10 -3 -22zM399 338q11 55 11 87q0 57 -33 57q-53 0 -80 -131q-4 -16 -6 -33.5
t-2 -31.5q0 -54 37 -54q51 0 73 106zM396 -79q5 23 -27 34t-106 11q-132 0 -143 -51q-5 -25 23.5 -38t93.5 -13q147 0 159 57z" />
    <glyph glyph-name="h" unicode="h" horiz-adv-x="594" 
d="M629 415l-88 -415h-188l84 394q2 6 2 10v10q0 26 -22 26q-30 0 -69.5 -57.5t-53.5 -123.5l-55 -259h-189l149 703q38 0 88 3t104 8l-60 -283q81 102 192 102q110 0 110 -84v-16q-3 -12 -4 -18z" />
    <glyph glyph-name="i" unicode="i" horiz-adv-x="297" 
d="M376 653q-15 -68 -103 -68q-74 0 -74 50q0 6 2 18q14 68 101 68q76 0 76 -51q0 -5 -2 -17zM355 533l-113 -533h-187l110 519q46 0 91 3t99 11z" />
    <glyph glyph-name="j" unicode="j" horiz-adv-x="300" 
d="M376 653q-15 -68 -103 -68q-74 0 -74 50q0 4 2 18q14 68 101 68q76 0 76 -52q0 -4 -2 -16zM361 533l-112 -527q-2 -16 -3 -25q-4 -27 -8 -47q-15 -71 -73 -102q-41 -22 -94 -22q-110 0 -122 90l75 45q-3 -17 -4 -23q-1 -7 -1 -20q0 -35 19 -35q32 0 41 45q1 3 1 11
q0 25 -20 77l110 519q39 0 83 3t108 11z" />
    <glyph glyph-name="k" unicode="k" horiz-adv-x="555" 
d="M624 519l-135 -134l72 -385h-197l-42 229l-43 -43l-40 -186h-189l149 703q82 0 192 12l-94 -440l252 244h75z" />
    <glyph glyph-name="l" unicode="l" horiz-adv-x="289" 
d="M391 714l-152 -714h-189l149 703q35 0 85 3t107 8z" />
    <glyph glyph-name="m" unicode="m" horiz-adv-x="866" 
d="M899 403l-86 -403h-188l83 390q3 14 3 24q0 27 -22 27q-70 0 -100 -146l-63 -295h-188l81 382q4 17 4 33q0 25 -18 25q-70 0 -102 -146l-62 -294h-187l111 521q98 0 190 13l-20 -90q86 90 184 90q83 0 102 -85q83 86 176 86q107 0 107 -91q0 -11 -1 -19q-1 -5 -4 -22z
" />
    <glyph glyph-name="n" unicode="n" horiz-adv-x="596" 
d="M628 400l-85 -400h-188l81 381q3 17 3 28q0 31 -23 31q-32 0 -66.5 -45.5t-48.5 -110.5l-60 -284h-187l111 520q50 0 95 3t95 11l-21 -98q88 97 191 97q108 0 108 -90q0 -16 -5 -43z" />
    <glyph glyph-name="o" unicode="o" horiz-adv-x="571" 
d="M599 261q-57 -272 -315 -272q-211 0 -211 182q0 43 10 90q59 272 316 272q210 0 210 -183q0 -43 -10 -89zM403 261q21 101 21 156q0 70 -35 70q-61 0 -110 -226q-21 -101 -21 -156q0 -70 34 -70q63 0 111 226z" />
    <glyph glyph-name="p" unicode="p" horiz-adv-x="573" 
d="M600 261q-57 -275 -240 -275q-76 0 -112 57l-46 -219h-189l147 695q44 0 88 3t104 11l-17 -79q70 79 146 79q62 0 96 -45t34 -127q0 -27 -2 -48.5t-9 -51.5zM406 264q18 87 18 135q0 58 -28 58q-62 0 -103 -193q-18 -86 -18 -136q0 -66 35 -66q53 0 96 202z" />
    <glyph glyph-name="q" unicode="q" horiz-adv-x="572" 
d="M632 519l-147 -695h-187l49 232q-71 -68 -138 -68q-141 0 -141 154q0 44 12 103q62 289 277 289q99 0 167 -101l63 86h45zM396 270q14 70 14 109q0 68 -38 68q-53 0 -86 -157q-24 -110 -24 -167q0 -59 27 -59q63 0 107 206z" />
    <glyph glyph-name="r" unicode="r" horiz-adv-x="451" 
d="M536 433q-6 -31 -41 -102h-128q9 20 23 48q11 21 13.5 33t2.5 16q0 19 -18 19q-20 0 -44.5 -40.5t-36.5 -95.5l-66 -311h-187l110 519q65 0 102 3t88 11l-18 -86q65 86 130 86q74 0 74 -66v-19q-3 -11 -4 -15z" />
    <glyph glyph-name="s" unicode="s" horiz-adv-x="504" 
d="M539 386l-93 -16q2 8 3 19t1 19q0 78 -88 78q-66 0 -78 -54q-7 -31 52 -63.5t118 -64.5q65 -46 65 -108q0 -15 -3 -32q-37 -176 -260 -176q-203 0 -203 130q0 19 5 46l100 19l-9 -32q-2 -8 -2 -22q0 -40 30 -65t75 -25q68 0 81 58q6 29 -50 62q-107 62 -110 65
q-61 47 -61 108q0 21 3 33q15 73 88.5 120.5t173.5 47.5q163 0 163 -127q0 -13 -1 -20z" />
    <glyph glyph-name="t" unicode="t" horiz-adv-x="341" 
d="M443 518l-12 -59h-84l-78 -366q-2 -12 -2 -16q0 -19 17 -19q15 0 23 23l53 -5q-38 -82 -158 -82t-120 88v15q0 3 4 18l74 344h-64l12 59h64l20 92q49 12 100 31.5t103 45.5l-36 -169h84z" />
    <glyph glyph-name="u" unicode="u" horiz-adv-x="599" 
d="M659 533l-113 -533h-189l18 83q-85 -93 -186 -93q-113 0 -113 91q0 24 5 44l83 394q40 0 81 3.5t109 10.5l-86 -404q-3 -14 -3 -24q0 -29 24 -29q84 0 123 181l55 262q47 0 82.5 3t109.5 11z" />
    <glyph glyph-name="v" unicode="v" horiz-adv-x="462" 
d="M584 519l-284 -519h-131l-71 519h200l38 -347l186 347h62z" />
    <glyph glyph-name="w" unicode="w" horiz-adv-x="696" 
d="M819 519l-281 -519h-120l-14 264l-126 -264h-119l-61 519h196l27 -305l139 305h122l14 -305l161 305h62z" />
    <glyph glyph-name="x" unicode="x" horiz-adv-x="497" 
d="M591 519l-197 -207l110 -312h-216l-61 170l-161 -170h-73l215 226l-103 293h216l54 -150l144 150h72z" />
    <glyph glyph-name="y" unicode="y" horiz-adv-x="476" 
d="M598 519l-362 -586q-74 -120 -158 -120q-79 0 -94 68l75 47q-1 -5 -1 -15q0 -45 32 -45q40 0 81 69l21 37l-93 545h207l39 -305l184 305h69z" />
    <glyph glyph-name="z" unicode="z" horiz-adv-x="454" 
d="M553 519l-12 -58l-313 -402h228l-13 -59h-434l14 64l311 397h-205l12 58h412z" />
    <glyph glyph-name="braceleft" unicode="{" horiz-adv-x="475" 
d="M537 683l-12 -57h-74q-24 0 -36 -13.5t-19 -41.5l-39 -185q-18 -85 -90 -131q39 -30 39 -88q0 -18 -5 -43l-39 -184q-4 -17 -4 -30q0 -16 13 -21t49 -5h46l-11 -55h-173q-75 0 -75 85q0 25 8 62l38 178q2 7 3 17t1 17q0 44 -36 52l9 41q25 5 41.5 21.5t24.5 53.5l37 175
q32 152 148 152h156z" />
    <glyph glyph-name="bar" unicode="|" horiz-adv-x="200" 
d="M343 683l-181 -854h-198l181 854h198z" />
    <glyph glyph-name="braceright" unicode="}" horiz-adv-x="475" 
d="M469 536l-38 -177q-4 -17 -4 -34q0 -44 36 -53l-9 -41q-27 -6 -42.5 -21.5t-23.5 -53.5l-37 -175q-33 -152 -149 -152h-155l12 57h74q24 0 35.5 13.5t17.5 41.5l40 185q18 86 91 131q-41 30 -41 88q0 18 5 43l39 183q1 7 3.5 17.5t2.5 16.5q0 14 -14 18.5t-50 4.5h-46
l12 55h174q75 0 75 -85q0 -25 -8 -62z" />
    <glyph glyph-name="asciitilde" unicode="~" 
d="M589 426q-95 -155 -194 -155q-27 0 -94 26.5t-79 26.5q-28 0 -70 -57l-78 81q93 155 195 155q36 0 94 -26.5t76 -26.5q31 0 72 56z" />
    <glyph glyph-name="Adieresis" unicode="&#xc4;" horiz-adv-x="571" 
d="M576 0h-205l-9 152h-213l-76 -152h-80l357 703h179zM358 224l-16 311l-156 -311h172zM612 800q-14 -66 -96 -66q-70 0 -70 49q0 5 2 17q15 66 96 66q70 0 70 -48q0 -6 -2 -18zM386 800q-14 -66 -96 -66q-70 0 -70 49q0 5 2 17q15 66 96 66q70 0 70 -48q0 -6 -2 -18z" />
    <glyph glyph-name="Aring" unicode="&#xc5;" horiz-adv-x="571" 
d="M576 0h-205l-9 152h-213l-76 -152h-80l357 703h179zM358 224l-16 311l-156 -311h172zM536 799q-15 -76 -112 -76q-81 0 -81 57q0 5 2 19q17 76 111 76q82 0 82 -56q0 -13 -2 -20zM483 799q8 33 -36 33q-41 0 -49 -33q-6 -32 35 -32q44 0 50 32z" />
    <glyph glyph-name="Ccedilla" unicode="&#xc7;" horiz-adv-x="632" 
d="M692 495l-95 -40l11 48q7 31 7 58q0 97 -99 97q-132 0 -202 -329q-8 -39 -12.5 -75t-4.5 -67q0 -143 103 -143q62 0 113 48t66 122q3 13 5 29t2 39l83 -22l-8 -47q-21 -99 -103.5 -162t-199.5 -63l-14 -33q78 0 78 -50q0 -5 -2 -17q-6 -29 -40 -53t-73 -24q-19 0 -53 7
l7 32l22 -3q41 0 49 36q8 35 -42 35l28 71q-115 0 -172.5 58t-57.5 171q0 52 14 122q35 165 149 270t259 105q190 0 190 -152q0 -28 -8 -68z" />
    <glyph glyph-name="Eacute" unicode="&#xc9;" horiz-adv-x="562" 
d="M665 703l-15 -71h-251l-45 -212h211l-15 -71h-211l-59 -278h294l-15 -71h-498l149 703h455zM600 868l-200 -132h-43l99 132h144z" />
    <glyph glyph-name="Ntilde" unicode="&#xd1;" horiz-adv-x="631" 
d="M724 703l-149 -703h-156l-198 445l-95 -445h-69l149 703h129l219 -481l102 481h68zM648 870q-57 -129 -129 -129q-22 0 -83.5 18.5t-69.5 18.5q-32 0 -54 -46h-29q62 129 128 129q23 0 82.5 -18.5t70.5 -18.5q36 0 57 46h27z" />
    <glyph glyph-name="Odieresis" unicode="&#xd6;" horiz-adv-x="685" 
d="M730 352q-78 -364 -390 -364q-249 0 -249 237q0 62 16 135q75 356 393 356q245 0 245 -233q0 -59 -15 -131zM516 352q16 78 24 130t8 89q0 47 -15.5 67.5t-49.5 20.5q-57 0 -90 -60q-36 -64 -74 -247q-33 -152 -33 -220q0 -48 16 -68t50 -20q57 0 91.5 64.5t72.5 243.5z
M687 800q-14 -66 -96 -66q-70 0 -70 49q0 5 2 17q15 66 96 66q70 0 70 -48q0 -6 -2 -18zM461 800q-14 -66 -96 -66q-70 0 -70 49q0 5 2 17q15 66 96 66q70 0 70 -48q0 -6 -2 -18z" />
    <glyph glyph-name="Udieresis" unicode="&#xdc;" horiz-adv-x="640" 
d="M738 703l-100 -471q-51 -243 -319 -243q-224 0 -224 172q0 29 8 71l100 471h203l-101 -477q-11 -50 -11 -79q0 -45 23.5 -63.5t78.5 -18.5q139 0 174 167l100 471h68zM689 798q-14 -66 -96 -66q-70 0 -70 49q0 5 2 17q15 66 96 66q70 0 70 -48q0 -6 -2 -18zM463 798
q-14 -66 -96 -66q-70 0 -70 49q0 5 2 17q15 66 96 66q70 0 70 -48q0 -6 -2 -18z" />
    <glyph glyph-name="aacute" unicode="&#xe1;" horiz-adv-x="558" 
d="M586 419l-67 -315q-2 -8 -2 -20q0 -28 24 -28q11 0 31 10l8 -47q-75 -27 -140 -27q-95 0 -107 61q-60 -64 -148 -64q-137 0 -137 108v16q0 5 5 29q18 82 102 129q6 3 151 60q82 32 92 78q3 14 3 26q0 53 -65 53q-91 0 -109 -77q-2 -16 -2 -28q0 -16 3 -36l-88 19
q0 20 5 45q27 124 252 124q191 0 191 -93q0 -15 -2 -23zM376 312q-46 -33 -91 -65q-28 -29 -37.5 -74.5t-9.5 -67.5q0 -43 26 -43q58 0 81 102zM601 700l-200 -132h-43l99 132h144z" />
    <glyph glyph-name="agrave" unicode="&#xe0;" horiz-adv-x="558" 
d="M586 419l-67 -315q-2 -8 -2 -20q0 -28 24 -28q11 0 31 10l8 -47q-75 -27 -140 -27q-95 0 -107 61q-60 -64 -148 -64q-137 0 -137 108v16q0 5 5 29q18 82 102 129q6 3 151 60q82 32 92 78q3 14 3 26q0 53 -65 53q-91 0 -109 -77q-2 -16 -2 -28q0 -16 3 -36l-88 19
q0 20 5 45q27 124 252 124q191 0 191 -93q0 -15 -2 -23zM376 312q-46 -33 -91 -65q-28 -29 -37.5 -74.5t-9.5 -67.5q0 -43 26 -43q58 0 81 102zM440 572h-44l-143 132h143z" />
    <glyph glyph-name="acircumflex" unicode="&#xe2;" horiz-adv-x="558" 
d="M586 419l-67 -315q-2 -8 -2 -20q0 -28 24 -28q11 0 31 10l8 -47q-75 -27 -140 -27q-95 0 -107 61q-60 -64 -148 -64q-137 0 -137 108v16q0 5 5 29q18 82 102 129q6 3 151 60q82 32 92 78q3 14 3 26q0 53 -65 53q-91 0 -109 -77q-2 -16 -2 -28q0 -16 3 -36l-88 19
q0 20 5 45q27 124 252 124q191 0 191 -93q0 -15 -2 -23zM376 312q-46 -33 -91 -65q-28 -29 -37.5 -74.5t-9.5 -67.5q0 -43 26 -43q58 0 81 102zM592 574h-136l-47 75l-95 -75h-69l159 133h89z" />
    <glyph glyph-name="adieresis" unicode="&#xe4;" horiz-adv-x="558" 
d="M586 419l-67 -315q-2 -8 -2 -20q0 -28 24 -28q11 0 31 10l8 -47q-75 -27 -140 -27q-95 0 -107 61q-60 -64 -148 -64q-137 0 -137 108v16q0 5 5 29q18 82 102 129q6 3 151 60q82 32 92 78q3 14 3 26q0 53 -65 53q-91 0 -109 -77q-2 -16 -2 -28q0 -16 3 -36l-88 19
q0 20 5 45q27 124 252 124q191 0 191 -93q0 -15 -2 -23zM376 312q-46 -33 -91 -65q-28 -29 -37.5 -74.5t-9.5 -67.5q0 -43 26 -43q58 0 81 102zM614 632q-14 -66 -96 -66q-70 0 -70 49q0 5 2 17q15 66 96 66q70 0 70 -48q0 -6 -2 -18zM388 632q-14 -66 -96 -66q-70 0 -70 49
q0 5 2 17q15 66 96 66q70 0 70 -48q0 -6 -2 -18z" />
    <glyph glyph-name="atilde" unicode="&#xe3;" horiz-adv-x="558" 
d="M586 419l-67 -315q-2 -8 -2 -20q0 -28 24 -28q11 0 31 10l8 -47q-75 -27 -140 -27q-95 0 -107 61q-60 -64 -148 -64q-137 0 -137 108v16q0 5 5 29q18 82 102 129q6 3 151 60q82 32 92 78q3 14 3 26q0 53 -65 53q-91 0 -109 -77q-2 -16 -2 -28q0 -16 3 -36l-88 19
q0 20 5 45q27 124 252 124q191 0 191 -93q0 -15 -2 -23zM376 312q-46 -33 -91 -65q-28 -29 -37.5 -74.5t-9.5 -67.5q0 -43 26 -43q58 0 81 102zM608 703q-57 -129 -129 -129q-22 0 -83.5 18.5t-69.5 18.5q-32 0 -54 -46h-29q62 129 128 129q23 0 82.5 -18.5t70.5 -18.5
q36 0 57 46h27z" />
    <glyph glyph-name="aring" unicode="&#xe5;" horiz-adv-x="558" 
d="M586 419l-67 -315q-2 -8 -2 -20q0 -28 24 -28q11 0 31 10l8 -47q-75 -27 -140 -27q-95 0 -107 61q-60 -64 -148 -64q-137 0 -137 108v16q0 5 5 29q18 82 102 129q6 3 151 60q82 32 92 78q3 14 3 26q0 53 -65 53q-91 0 -109 -77q-2 -16 -2 -28q0 -16 3 -36l-88 19
q0 20 5 45q27 124 252 124q191 0 191 -93q0 -15 -2 -23zM376 312q-46 -33 -91 -65q-28 -29 -37.5 -74.5t-9.5 -67.5q0 -43 26 -43q58 0 81 102zM523 638q-15 -76 -112 -76q-81 0 -81 57q0 5 2 19q17 76 111 76q82 0 82 -56q0 -13 -2 -20zM470 638q8 33 -36 33q-41 0 -49 -33
q-6 -32 35 -32q44 0 50 32z" />
    <glyph glyph-name="ccedilla" unicode="&#xe7;" horiz-adv-x="515" 
d="M563 371l-97 -43l11 49q6 30 6 50q0 61 -57 61q-99 0 -145 -218q-10 -47 -16 -87.5t-6 -65.5q0 -82 70 -82q106 0 134 135q1 5 4 25t3 37l75 -24q-24 -113 -84 -166t-162 -53l-13 -32q78 0 78 -50q0 -5 -2 -17q-6 -28 -41 -52.5t-73 -24.5q-18 0 -52 7l7 32l22 -3
q40 0 49 36q6 35 -43 35l28 70q-188 0 -188 174q0 21 2 39.5t8 45.5q28 130 119 208t217 78q152 0 152 -116q0 -22 -6 -48z" />
    <glyph glyph-name="eacute" unicode="&#xe9;" horiz-adv-x="527" 
d="M551 243h-274q-13 -58 -13 -103q0 -101 73 -101q96 0 121 115l7 37l71 -23q-51 -180 -252 -180q-213 0 -213 175q0 20 2 38.5t8 45.5q26 126 112.5 206.5t194.5 80.5q176 0 176 -180q0 -52 -13 -111zM401 302q16 73 16 118q0 63 -32 63q-26 0 -50 -42q-27 -47 -46 -139
h112zM620 708l-200 -132h-43l99 132h144z" />
    <glyph glyph-name="egrave" unicode="&#xe8;" horiz-adv-x="527" 
d="M551 243h-274q-13 -58 -13 -103q0 -101 73 -101q96 0 121 115l7 37l71 -23q-51 -180 -252 -180q-213 0 -213 175q0 20 2 38.5t8 45.5q26 126 112.5 206.5t194.5 80.5q176 0 176 -180q0 -52 -13 -111zM401 302q16 73 16 118q0 63 -32 63q-26 0 -50 -42q-27 -47 -46 -139
h112zM444 576h-44l-143 132h143z" />
    <glyph glyph-name="ecircumflex" unicode="&#xea;" horiz-adv-x="527" 
d="M551 243h-274q-13 -58 -13 -103q0 -101 73 -101q96 0 121 115l7 37l71 -23q-51 -180 -252 -180q-213 0 -213 175q0 20 2 38.5t8 45.5q26 126 112.5 206.5t194.5 80.5q176 0 176 -180q0 -52 -13 -111zM401 302q16 73 16 118q0 63 -32 63q-26 0 -50 -42q-27 -47 -46 -139
h112zM600 573h-136l-47 75l-95 -75h-69l159 133h89z" />
    <glyph glyph-name="edieresis" unicode="&#xeb;" horiz-adv-x="527" 
d="M551 243h-274q-13 -58 -13 -103q0 -101 73 -101q96 0 121 115l7 37l71 -23q-51 -180 -252 -180q-213 0 -213 175q0 20 2 38.5t8 45.5q26 126 112.5 206.5t194.5 80.5q176 0 176 -180q0 -52 -13 -111zM401 302q16 73 16 118q0 63 -32 63q-26 0 -50 -42q-27 -47 -46 -139
h112zM624 635q-14 -66 -96 -66q-70 0 -70 49q0 5 2 17q15 66 96 66q70 0 70 -48q0 -6 -2 -18zM398 635q-14 -66 -96 -66q-70 0 -70 49q0 5 2 17q15 66 96 66q70 0 70 -48q0 -6 -2 -18z" />
    <glyph glyph-name="iacute" unicode="&#xed;" horiz-adv-x="297" 
d="M355 533l-113 -533h-187l110 519q46 0 91 3t99 11zM426 702l-200 -132h-43l99 132h144z" />
    <glyph glyph-name="igrave" unicode="&#xec;" horiz-adv-x="297" 
d="M355 533l-113 -533h-187l110 519q46 0 91 3t99 11zM349 572h-44l-143 132h143z" />
    <glyph glyph-name="icircumflex" unicode="&#xee;" horiz-adv-x="297" 
d="M453 573h-136l-47 75l-95 -75h-69l159 133h89zM355 533l-113 -533h-187l110 519q46 0 91 3t99 11z" />
    <glyph glyph-name="idieresis" unicode="&#xef;" horiz-adv-x="297" 
d="M497 636q-14 -66 -96 -66q-70 0 -70 49q0 5 2 17q15 66 96 66q70 0 70 -48q0 -6 -2 -18zM271 636q-14 -66 -96 -66q-70 0 -70 49q0 5 2 17q15 66 96 66q70 0 70 -48q0 -6 -2 -18zM355 533l-113 -533h-187l110 519q46 0 91 3t99 11z" />
    <glyph glyph-name="ntilde" unicode="&#xf1;" horiz-adv-x="596" 
d="M628 400l-85 -400h-188l81 381q3 17 3 28q0 31 -23 31q-32 0 -66.5 -45.5t-48.5 -110.5l-60 -284h-187l111 520q50 0 95 3t95 11l-21 -98q88 97 191 97q108 0 108 -90q0 -16 -5 -43zM640 703q-57 -129 -129 -129q-22 0 -83.5 18.5t-69.5 18.5q-32 0 -54 -46h-29
q62 129 128 129q23 0 82.5 -18.5t70.5 -18.5q36 0 57 46h27z" />
    <glyph glyph-name="oacute" unicode="&#xf3;" horiz-adv-x="571" 
d="M599 261q-57 -272 -315 -272q-211 0 -211 182q0 43 10 90q59 272 316 272q210 0 210 -183q0 -43 -10 -89zM403 261q21 101 21 156q0 70 -35 70q-61 0 -110 -226q-21 -101 -21 -156q0 -70 34 -70q63 0 111 226zM609 705l-200 -132h-43l99 132h144z" />
    <glyph glyph-name="ograve" unicode="&#xf2;" horiz-adv-x="571" 
d="M599 261q-57 -272 -315 -272q-211 0 -211 182q0 43 10 90q59 272 316 272q210 0 210 -183q0 -43 -10 -89zM403 261q21 101 21 156q0 70 -35 70q-61 0 -110 -226q-21 -101 -21 -156q0 -70 34 -70q63 0 111 226zM462 573h-44l-143 132h143z" />
    <glyph glyph-name="ocircumflex" unicode="&#xf4;" horiz-adv-x="571" 
d="M599 261q-57 -272 -315 -272q-211 0 -211 182q0 43 10 90q59 272 316 272q210 0 210 -183q0 -43 -10 -89zM403 261q21 101 21 156q0 70 -35 70q-61 0 -110 -226q-21 -101 -21 -156q0 -70 34 -70q63 0 111 226zM602 567h-136l-47 75l-95 -75h-69l159 133h89z" />
    <glyph glyph-name="odieresis" unicode="&#xf6;" horiz-adv-x="571" 
d="M599 261q-57 -272 -315 -272q-211 0 -211 182q0 43 10 90q59 272 316 272q210 0 210 -183q0 -43 -10 -89zM403 261q21 101 21 156q0 70 -35 70q-61 0 -110 -226q-21 -101 -21 -156q0 -70 34 -70q63 0 111 226zM625 638q-14 -66 -96 -66q-70 0 -70 49q0 5 2 17
q15 66 96 66q70 0 70 -48q0 -6 -2 -18zM399 638q-14 -66 -96 -66q-70 0 -70 49q0 5 2 17q15 66 96 66q70 0 70 -48q0 -6 -2 -18z" />
    <glyph glyph-name="otilde" unicode="&#xf5;" horiz-adv-x="571" 
d="M599 261q-57 -272 -315 -272q-211 0 -211 182q0 43 10 90q59 272 316 272q210 0 210 -183q0 -43 -10 -89zM403 261q21 101 21 156q0 70 -35 70q-61 0 -110 -226q-21 -101 -21 -156q0 -70 34 -70q63 0 111 226zM612 703q-57 -129 -129 -129q-22 0 -83.5 18.5t-69.5 18.5
q-32 0 -54 -46h-29q62 129 128 129q23 0 82.5 -18.5t70.5 -18.5q36 0 57 46h27z" />
    <glyph glyph-name="uacute" unicode="&#xfa;" horiz-adv-x="599" 
d="M659 533l-113 -533h-189l18 83q-85 -93 -186 -93q-113 0 -113 91q0 24 5 44l83 394q40 0 81 3.5t109 10.5l-86 -404q-3 -14 -3 -24q0 -29 24 -29q84 0 123 181l55 262q47 0 82.5 3t109.5 11zM648 704l-200 -132h-43l99 132h144z" />
    <glyph glyph-name="ugrave" unicode="&#xf9;" horiz-adv-x="599" 
d="M659 533l-113 -533h-189l18 83q-85 -93 -186 -93q-113 0 -113 91q0 24 5 44l83 394q40 0 81 3.5t109 10.5l-86 -404q-3 -14 -3 -24q0 -29 24 -29q84 0 123 181l55 262q47 0 82.5 3t109.5 11zM474 576h-44l-143 132h143z" />
    <glyph glyph-name="ucircumflex" unicode="&#xfb;" horiz-adv-x="599" 
d="M659 533l-113 -533h-189l18 83q-85 -93 -186 -93q-113 0 -113 91q0 24 5 44l83 394q40 0 81 3.5t109 10.5l-86 -404q-3 -14 -3 -24q0 -29 24 -29q84 0 123 181l55 262q47 0 82.5 3t109.5 11zM623 573h-136l-47 75l-95 -75h-69l159 133h89z" />
    <glyph glyph-name="udieresis" unicode="&#xfc;" horiz-adv-x="599" 
d="M659 533l-113 -533h-189l18 83q-85 -93 -186 -93q-113 0 -113 91q0 24 5 44l83 394q40 0 81 3.5t109 10.5l-86 -404q-3 -14 -3 -24q0 -29 24 -29q84 0 123 181l55 262q47 0 82.5 3t109.5 11zM649 636q-14 -66 -96 -66q-70 0 -70 49q0 5 2 17q15 66 96 66q70 0 70 -48
q0 -6 -2 -18zM423 636q-14 -66 -96 -66q-70 0 -70 49q0 5 2 17q15 66 96 66q70 0 70 -48q0 -6 -2 -18z" />
    <glyph glyph-name="dagger" unicode="&#x2020;" horiz-adv-x="625" 
d="M665 472l-16 -77h-161l-120 -566h-183l120 566h-160l16 77h160l45 211q81 0 185 10l-47 -221h161z" />
    <glyph glyph-name="degree" unicode="&#xb0;" horiz-adv-x="457" 
d="M490 553q-13 -60 -63.5 -102t-111.5 -42q-51 0 -83.5 31.5t-32.5 81.5q0 9 4 31q12 59 62 101t111 42q52 0 84.5 -31.5t32.5 -81.5q0 -15 -3 -30zM427 553q3 15 3 26q0 56 -67 56q-81 0 -97 -82q-3 -15 -3 -28q0 -54 65 -54q81 0 99 82z" />
    <glyph glyph-name="cent" unicode="&#xa2;" horiz-adv-x="649" 
d="M629 450l-94 -41q4 19 7.5 45.5t3.5 40.5q0 68 -50 68l-93 -438q102 0 130 136q6 23 6 55l71 -24l-3 -26q-19 -88 -73 -137t-141 -49l-16 -76h-29l16 76q-211 0 -211 172q0 35 9 79q29 134 108 206t206 72l14 66h29l-14 -66q63 0 96 -30.5t33 -84.5q0 -17 -5 -44z
M465 556q-71 -34 -112 -222q-15 -68 -15 -114q0 -71 37 -90z" />
    <glyph glyph-name="sterling" unicode="&#xa3;" horiz-adv-x="644" 
d="M664 578q-4 -17 -18 -53l-101 -31q29 52 34 74.5t5 39.5q0 60 -64 60q-83 0 -104 -100q-4 -19 -4 -59q0 -29 3 -86t3 -75h141l-13 -59h-141q-15 -74 -50 -133q47 -16 69.5 -21t35.5 -5q79 0 116 74l41 -28q-64 -187 -194 -187q-67 0 -137 69q-61 -70 -130 -70
q-79 0 -79 62q0 11 3 25q21 103 135 103q17 0 50 -9q0 79 -14 120h-102l13 59h74q-14 62 -14 105q0 21 5 44q20 97 102.5 157.5t195.5 60.5q143 0 143 -100v-22q-3 -11 -4 -15zM245 95q-10 4 -16 5q-21 6 -31 6q-47 0 -54 -34q-6 -28 28 -28q32 0 73 51z" />
    <glyph glyph-name="section" unicode="&#xa7;" horiz-adv-x="625" 
d="M654 560l-94 -26l8 25q3 12 3 22q0 68 -114 68q-107 0 -122 -69q-8 -40 67 -69t150 -57q82 -40 82 -101q0 -12 -3 -26q-17 -74 -100 -138q32 -33 32 -79q0 -15 -3 -32q-20 -90 -96.5 -147t-179.5 -57q-187 0 -187 125q0 16 5 43l99 32l-8 -20t-6 -21.5t-2 -24.5
q0 -75 109 -75q134 0 152 82q1 4 1 13q0 39 -80 66.5t-157 54.5q-84 39 -84 100q0 12 3 26q16 76 104 147q-23 28 -23 65v16q0 3 4 18q17 81 86 131.5t167 50.5q187 0 187 -143zM528 255q8 37 -105 80l-164 62q-12 -10 -21.5 -23.5t-12.5 -23.5q-5 -26 37 -48
q131 -49 239 -92q23 21 27 45z" />
    <glyph glyph-name="bullet" unicode="&#x2022;" horiz-adv-x="400" 
d="M408 347q-13 -59 -62 -100.5t-109 -41.5q-51 0 -83.5 31.5t-32.5 81.5q0 14 3 29q12 58 62 100t111 42q50 0 82 -31t32 -81q0 -15 -3 -30z" />
    <glyph glyph-name="paragraph" unicode="&#xb6;" horiz-adv-x="690" 
d="M736 683l-181 -854h-87l167 785h-75l-167 -785h-87l95 449h-69q-168 0 -168 137q0 27 8 64q19 90 79 147t139 57h346z" />
    <glyph glyph-name="germandbls" unicode="&#xdf;" horiz-adv-x="590" 
d="M605 202q-20 -91 -84 -156t-139 -65q-43 0 -106 28l39 56q6 -4 9 -5q13 -6 20 -6q43 0 80 175q8 42 8 68q0 90 -80 90l13 61q60 0 79 91q8 38 8 61q0 51 -32 51q-42 0 -54 -54l-127 -597h-189l112 526q41 189 276 189q169 0 169 -114q0 -17 -5 -40q-21 -99 -121 -133
q132 -29 132 -157q0 -29 -8 -69z" />
    <glyph glyph-name="registered" unicode="&#xae;" horiz-adv-x="780" 
d="M814 341q-31 -146 -155.5 -249t-270.5 -103q-127 0 -206.5 78.5t-79.5 200.5q0 33 8 73q32 146 156.5 249t270.5 103q126 0 205.5 -78.5t79.5 -199.5q0 -34 -8 -74zM764 341q7 31 7 65q0 103 -68 170t-176 67q-126 0 -233 -88t-134 -214q-7 -31 -7 -63
q0 -104 68.5 -171.5t176.5 -67.5q125 0 232.5 88.5t133.5 213.5zM653 439q-15 -73 -99 -97q27 -11 37 -30t10 -47q0 -14 -2 -32q-5 -44 -5 -54q0 -12 2 -23t8 -19h-136q-2 14 -2 25q0 28 11 80q6 29 6 47q0 24 -13 32t-44 8l-41 -192h-125l87 408h178q131 0 131 -80
q0 -12 -3 -26zM534 437q3 14 3 24q0 22 -17 32.5t-57 10.5l-28 -134q50 0 70.5 15t28.5 52z" />
    <glyph glyph-name="copyright" unicode="&#xa9;" horiz-adv-x="780" 
d="M814 341q-31 -146 -155.5 -249t-270.5 -103q-127 0 -206.5 78.5t-79.5 200.5q0 33 8 73q32 146 156.5 249t270.5 103q126 0 205.5 -78.5t79.5 -199.5q0 -34 -8 -74zM764 341q7 31 7 65q0 103 -68 170t-176 67q-126 0 -233 -88t-134 -214q-7 -31 -7 -63
q0 -104 68.5 -171.5t176.5 -67.5q125 0 232.5 88.5t133.5 213.5zM628 422l-64 -26l8 34q5 22 5 36q0 51 -51 51q-72 0 -113 -189q-10 -47 -10 -83q0 -79 56 -79q78 0 97 94q5 18 5 47l54 -15l-5 -29q-29 -133 -188 -133q-147 0 -147 134q0 26 1.5 37t6.5 34q21 97 86 157.5
t152 60.5q112 0 112 -90q0 -16 -5 -41z" />
    <glyph glyph-name="trademark" unicode="&#x2122;" horiz-adv-x="796" 
d="M935 746l-90 -422h-118l62 294l-144 -294h-68l-24 289l-61 -289h-41l90 422h125l18 -254l126 254h125zM519 746l-9 -42h-103l-81 -380h-130l81 380h-104l9 42h337z" />
    <glyph glyph-name="acute" unicode="&#xb4;" 
d="M512 696l-200 -132h-43l99 132h144z" />
    <glyph glyph-name="dieresis" unicode="&#xa8;" 
d="M585 632q-14 -66 -96 -66q-70 0 -70 49q0 5 2 17q15 66 96 66q70 0 70 -48q0 -6 -2 -18zM359 632q-14 -66 -96 -66q-70 0 -70 49q0 5 2 17q15 66 96 66q70 0 70 -48q0 -6 -2 -18z" />
    <glyph glyph-name="AE" unicode="&#xc6;" horiz-adv-x="848" 
d="M952 703l-15 -71h-250l-45 -212h211l-15 -71h-211l-59 -278h293l-15 -71h-497l31 148h-215l-101 -148h-88l488 703h488zM481 622l-267 -403h182z" />
    <glyph glyph-name="Oslash" unicode="&#xd8;" horiz-adv-x="685" 
d="M799 716l-92 -98q36 -62 36 -152q0 -52 -14 -119q-77 -360 -386 -360q-109 0 -176 55l-87 -92l-44 38l91 95q-36 57 -36 147q0 60 14 122q77 361 384 361q116 0 178 -55l89 96zM540 526q0 126 -63 126q-54 0 -86.5 -59t-68.5 -225q-10 -49 -14 -96zM526 430l-233 -257
q0 -65 14.5 -95t49.5 -30q94 0 152 271q7 35 12 62t5 49z" />
    <glyph glyph-name="plusminus" unicode="&#xb1;" 
d="M564 381l-16 -77h-192l-41 -193h-77l41 193h-192l16 77h192l41 191h77l-41 -191h192zM502 91l-16 -77h-461l16 77h461z" />
    <glyph glyph-name="yen" unicode="&#xa5;" horiz-adv-x="538" 
d="M692 703l-167 -285h67l-12 -58h-90l-49 -83h93l-13 -59h-99l-46 -218h-197l46 218h-102l13 59h95l-16 83h-89l12 58h64l-59 285h207l66 -337l198 337h78z" />
    <glyph glyph-name="mu" unicode="&#xb5;" horiz-adv-x="478" 
d="M588 517l-110 -517h-182l17 81q-66 -80 -108 -80q-14 0 -38 12l-39 -184h-164l143 675q56 0 186 13l-83 -392q-3 -14 -3 -23q0 -27 23 -27q81 0 119 175l54 254q35 0 73 3t112 10z" />
    <glyph glyph-name="ordfeminine" unicode="&#xaa;" horiz-adv-x="382" 
d="M450 619l-39 -181q-1 -4 -1 -10q0 -13 12 -13l21 6l6 -33q-49 -17 -91 -17q-60 0 -69 31q-35 -33 -91 -33q-88 0 -88 65q0 12 3 27q13 63 109.5 95.5t102.5 60.5q1 4 1 12q0 30 -40 30q-56 0 -65 -42q-1 -4 -1 -12q0 -15 7 -32l-63 12q0 12 2 19t2 10q15 74 154 74
q129 0 129 -58q0 -7 -1 -11zM310 549q-26 -14 -39 -24q-24 -18 -32 -54q-4 -19 -4 -34q0 -23 14 -23q32 0 44 58z" />
    <glyph glyph-name="ordmasculine" unicode="&#xba;" horiz-adv-x="356" 
d="M454 528q-33 -159 -197 -159q-136 0 -136 110q0 22 6 49q35 159 198 159q135 0 135 -109q0 -23 -6 -50zM323 528q13 58 13 92q0 38 -18 38q-32 0 -60 -130q-12 -60 -12 -92q0 -38 17 -38q33 0 60 130z" />
    <glyph glyph-name="ae" unicode="&#xe6;" horiz-adv-x="812" 
d="M836 244h-276q-14 -68 -14 -111q0 -99 69 -99q102 0 126 112l7 45l73 -23q-48 -180 -254 -180q-143 0 -194 107q-84 -107 -183 -107q-143 0 -143 104q0 17 5 44q19 88 103 133q75 28 151 57q82 33 94 90q3 12 3 23q0 50 -68 50q-90 0 -108 -85q-2 -12 -2 -21q0 -13 5 -36
l-90 19q0 11 2 22.5t4 19.5q27 127 229 127q98 0 159 -46q87 45 154 45q162 0 162 -173q0 -49 -14 -117zM681 302q16 74 16 121q0 60 -30 60q-56 0 -95 -181h109zM377 311q-57 -36 -80 -55q-39 -33 -58 -122q-4 -17 -4 -34q0 -39 29 -39q59 0 86 123z" />
    <glyph glyph-name="oslash" unicode="&#xf8;" horiz-adv-x="571" 
d="M623 522l-51 -55q15 -21 24.5 -55.5t9.5 -74.5q0 -37 -9 -81q-57 -268 -315 -268q-87 0 -136 37l-53 -57l-37 31l53 58q-36 44 -36 116q0 41 10 84q58 273 315 273q87 0 134 -34l55 58zM420 388q0 97 -34 97q-60 0 -101 -189q-4 -16 -6 -35t-2 -34zM407 302l-143 -163
q0 -105 31 -105q60 0 102 198q4 15 6.5 36t3.5 34z" />
    <glyph glyph-name="questiondown" unicode="&#xbf;" horiz-adv-x="491" 
d="M589 603q-18 -88 -107 -88q-72 0 -72 61q0 12 3 27q20 89 107 89q73 0 73 -60q0 -7 -4 -29zM511 441l-35 -164h-72q0 75 -47 75q-65 0 -91 -122q-7 -30 -10 -55.5t-3 -47.5q0 -84 55 -84q63 0 83 92q4 19 6 34.5t2 34.5l72 -23q0 -40 -3 -60q-29 -132 -199 -132
q-182 0 -182 145q0 27 8 64q18 85 84.5 146.5t141.5 61.5q53 0 97 -37l16 72h77z" />
    <glyph glyph-name="exclamdown" unicode="&#xa1;" horiz-adv-x="371" 
d="M400 603q-18 -88 -107 -88q-72 0 -72 61q0 12 3 27q20 89 107 89q73 0 73 -60q0 -7 -4 -29zM316 442l-15 -358l-2 -18q-17 -77 -117 -77q-86 0 -86 57q0 13 2 20l5 18l138 358h75z" />
    <glyph glyph-name="logicalnot" unicode="&#xac;" horiz-adv-x="1200" 
d="M1162 -83h-1123v765h1123v-765zM1067 255v18h-16q-21 0 -29 5t-8 27v250q0 10 -0.5 20t-0.5 19q0 24 9.5 31.5t44.5 7.5v18h-160v-18q37 0 45 -7t8 -37v-24v-258q0 -22 -9.5 -28t-29.5 -6h-14v-18h160zM1141 27q0 50 -78 66t-78 50q0 21 15.5 33.5t37.5 12.5
q16 0 31 -7.5t27 -21.5q3 -14 4 -17q1 -6 1 -18l16 -1q0 17 3 37.5t4 31.5q-42 13 -80 13q-44 0 -71 -18q-32 -22 -32 -64q0 -53 77.5 -68t77.5 -51q0 -25 -18 -38.5t-44 -13.5q-42 0 -57 15t-15 56h-16q0 -11 -2 -37.5t-2 -29.5q0 -10 22.5 -16.5t59.5 -6.5q47 0 79 22
q38 26 38 71zM941 184h-86q0 24 1 48.5t4 46.5q28 23 42 44q18 27 18 58q0 88 -115 98t-115 74q0 38 27 59t67 21q19 0 44 -7.5t38 -18.5q5 -11 5 -34v-20h18q0 30 1.5 43t7.5 37q-53 21 -111 21q-62 0 -102 -29q-45 -33 -45 -93q0 -87 115.5 -98t115.5 -75q0 -42 -32 -64
t-76 -22q-26 0 -52 8q-35 11 -42 29l-1 48h-19v-33v-14q0 -20 -3 -40q51 -21 106 -21q27 0 51 6q5 -40 5 -72q-19 -11 -45 -19v-12h45v-157q0 -62 64 -62q8 0 18 2t18 4l27 34l-8 11q-13 -15 -32 -15t-29.5 14t-10.5 53v13v108q8 0 25.5 1t25.5 1q15 0 29 -3zM802 -60v17
q-29 0 -37 5t-8 23q1 20 1 33v92q0 96 -93 96q-25 0 -50 -15t-43 -38q1 18 1 27q0 16 -5 26q-23 -10 -46 -16t-47 -6v-17q11 1 17 1q13 0 21.5 -3.5t8.5 -13.5v-172q0 -11 -5 -17t-21 -6q-14 1 -21 1v-17h144l-1 17q-30 0 -39.5 8.5t-9.5 31.5q0 6 1 23.5t1 29.5v28
q0 46 10 64q16 28 63 28q38 0 53 -23q12 -19 12 -62v-54v-12q0 -44 -4 -79h97zM680 633v18h-119v-18q14 0 32 -2.5t18 -10.5q0 -25 -38 -154l-40 -130l-116 318h-14l-122 -315q-16 67 -32 138t-28 131q-4 6 -3 10q0 10 15 12.5t22 2.5h12v18h-143v-18q26 0 32.5 -6.5
t12.5 -35.5q10 -43 22 -88q28 -105 32 -149q-23 0 -58.5 -32.5t-46.5 -57.5q-4 -10 -5.5 -21t-1.5 -30v-30l-40 -20v-10l40 4l1 -153q0 -32 -8.5 -39.5t-41.5 -7.5v-17h155v17h-17q-19 0 -25 2q-16 6 -16 39l1 160q17 0 35 -0.5t36 -0.5l5 25l-2 2h-74v36v25q0 32 8.5 50
t35.5 18q17 0 29 -9l11 -54h29q27 80 57 156q22 57 65 155q9 -26 58 -154q37 -98 54 -157h30q15 61 54 198q46 160 60 181q7 4 29 4zM487 80q0 56 -36 91t-93 35q-61 0 -102 -36t-41 -97q0 -59 34 -99t92 -40q64 0 105 41t41 105zM434 56q0 -41 -16 -69q-20 -34 -59 -34
q-46 0 -70 49q-19 38 -19 90q0 39 19 68t56 29q48 0 71 -45q18 -35 18 -88z" />
    <glyph glyph-name="florin" unicode="&#x192;" horiz-adv-x="621" 
d="M685 667q-5 -18 -16 -44l-103 -31q24 42 28 56q1 3 1 6v5q0 28 -35 28q-58 0 -76 -86q-3 -11 -5 -29.5t-2 -29.5t1 -18t4 -20h97l-22 -56h-90l-240 -619h-185l240 619h-64l22 56h64l31 79q60 159 249 159q103 0 103 -59q0 -4 -2 -16z" />
    <glyph glyph-name="guillemotleft" unicode="&#xab;" horiz-adv-x="437" 
d="M487 461l-127 -199l42 -200h-102l-54 179l9 41l130 179h102zM331 461l-128 -199l43 -200h-102l-54 179l9 41l130 179h102z" />
    <glyph glyph-name="guillemotright" unicode="&#xbb;" horiz-adv-x="437" 
d="M458 282l-9 -41l-130 -179h-102l129 200l-44 199h102zM302 282l-9 -41l-130 -179h-102l128 200l-43 199h102z" />
    <glyph glyph-name="ellipsis" unicode="&#x2026;" horiz-adv-x="1000" 
d="M931 79q-20 -89 -107 -89q-72 0 -72 61q0 13 3 28q18 88 106 88q73 0 73 -60q0 -13 -3 -28zM591 79q-20 -89 -107 -89q-72 0 -72 61q0 13 3 28q18 88 106 88q73 0 73 -60q0 -13 -3 -28zM251 79q-20 -89 -107 -89q-72 0 -72 61q0 13 3 28q18 88 106 88q73 0 73 -60
q0 -13 -3 -28z" />
    <glyph glyph-name="nonbreakingspace" unicode="&#xa0;" horiz-adv-x="266" 
 />
    <glyph glyph-name="Agrave" unicode="&#xc0;" horiz-adv-x="571" 
d="M576 0h-205l-9 152h-213l-76 -152h-80l357 703h179zM358 224l-16 311l-156 -311h172zM453 733h-44l-143 132h143z" />
    <glyph glyph-name="Atilde" unicode="&#xc3;" horiz-adv-x="571" 
d="M576 0h-205l-9 152h-213l-76 -152h-80l357 703h179zM358 224l-16 311l-156 -311h172zM607 869q-57 -129 -129 -129q-22 0 -83.5 18.5t-69.5 18.5q-32 0 -54 -46h-29q62 129 128 129q23 0 82.5 -18.5t70.5 -18.5q36 0 57 46h27z" />
    <glyph glyph-name="Otilde" unicode="&#xd5;" horiz-adv-x="685" 
d="M730 352q-78 -364 -390 -364q-249 0 -249 237q0 62 16 135q75 356 393 356q245 0 245 -233q0 -59 -15 -131zM516 352q16 78 24 130t8 89q0 47 -15.5 67.5t-49.5 20.5q-57 0 -90 -60q-36 -64 -74 -247q-33 -152 -33 -220q0 -48 16 -68t50 -20q57 0 91.5 64.5t72.5 243.5z
M681 869q-57 -129 -129 -129q-22 0 -83.5 18.5t-69.5 18.5q-32 0 -54 -46h-29q62 129 128 129q23 0 82.5 -18.5t70.5 -18.5q36 0 57 46h27z" />
    <glyph glyph-name="OE" unicode="&#x152;" horiz-adv-x="909" 
d="M1015 703l-15 -71h-251l-45 -212h210l-15 -71h-210l-59 -278h292l-15 -71h-458q-13 0 -39 -3q-70 -8 -79 -8q-112 0 -176 68t-64 184q0 45 10 92q36 171 148 276t257 105q30 0 53.5 -4t40.5 -7h415zM533 572q4 17 4 34q0 56 -53 56q-100 0 -170 -332q-23 -106 -23 -179
q0 -111 61 -111q68 0 90 106z" />
    <glyph glyph-name="oe" unicode="&#x153;" horiz-adv-x="846" 
d="M869 243h-275q-14 -68 -14 -112q0 -98 69 -98q101 0 125 112l6 45l74 -23q-57 -180 -241 -180q-103 0 -162 52q-72 -51 -166 -51q-213 0 -213 180q0 41 10 87q60 278 317 278q94 0 147 -56q82 56 150 56q186 0 186 -183q0 -42 -13 -107zM717 301q8 36 12 68.5t4 53.5
q0 59 -29 59q-30 0 -52.5 -39.5t-44.5 -141.5h110zM402 259q23 110 23 160q0 67 -38 67q-60 0 -108 -225q-21 -99 -21 -154q0 -73 37 -73q31 0 50 33q26 46 57 192z" />
    <glyph glyph-name="endash" unicode="&#x2013;" horiz-adv-x="600" 
d="M633 327l-29 -132h-531l29 132h531z" />
    <glyph glyph-name="emdash" unicode="&#x2014;" horiz-adv-x="900" 
d="M939 327l-29 -132h-847l29 132h847z" />
    <glyph glyph-name="quotedblleft" unicode="&#x201c;" horiz-adv-x="491" 
d="M566 693l-13 -63q-49 -27 -73 -76q65 0 65 -57q0 -6 -1.5 -15t-2.5 -14q-18 -88 -106 -88q-70 0 -70 67q0 15 5 38q34 162 196 208zM348 693l-13 -63q-48 -26 -74 -76q66 0 66 -57q0 -6 -1.5 -15t-2.5 -14q-18 -88 -107 -88q-70 0 -70 67q0 15 5 38q34 161 197 208z" />
    <glyph glyph-name="quotedblright" unicode="&#x201d;" horiz-adv-x="491" 
d="M568 588q-34 -162 -196 -208l13 63q49 27 73 76q-65 0 -65 57q0 6 1.5 15t2.5 14q18 88 106 88q70 0 70 -67q0 -15 -5 -38zM350 588q-34 -161 -197 -208l13 63q49 27 73 76q-65 0 -65 57q0 6 1.5 15t2.5 14q18 88 107 88q70 0 70 -67q0 -15 -5 -38z" />
    <glyph glyph-name="quoteleft" unicode="&#x2018;" horiz-adv-x="273" 
d="M348 693l-13 -63q-48 -26 -74 -76q66 0 66 -57q0 -6 -1.5 -15t-2.5 -14q-18 -88 -107 -88q-70 0 -70 67q0 15 5 38q34 161 197 208z" />
    <glyph glyph-name="quoteright" unicode="&#x2019;" horiz-adv-x="273" 
d="M350 588q-34 -161 -197 -208l13 63q48 26 74 76q-66 0 -66 57q0 6 1.5 15t2.5 14q18 88 107 88q70 0 70 -67q0 -15 -5 -38z" />
    <glyph glyph-name="divide" unicode="&#xf7;" 
d="M436 527q-15 -72 -86 -72q-59 0 -59 50q0 10 3 22q15 71 86 71q59 0 59 -49q0 -10 -3 -22zM564 381l-16 -77h-461l16 77h461zM357 157q-15 -71 -86 -71q-59 0 -59 49q0 10 3 22q15 71 86 71q59 0 59 -48q0 -11 -3 -23z" />
    <glyph glyph-name="ydieresis" unicode="&#xff;" horiz-adv-x="476" 
d="M598 519l-362 -586q-74 -120 -158 -120q-79 0 -94 68l75 47q-1 -5 -1 -15q0 -45 32 -45q40 0 81 69l21 37l-93 545h207l39 -305l184 305h69zM576 635q-14 -66 -96 -66q-70 0 -70 49q0 5 2 17q15 66 96 66q70 0 70 -48q0 -6 -2 -18zM350 635q-14 -66 -96 -66q-70 0 -70 49
q0 5 2 17q15 66 96 66q70 0 70 -48q0 -6 -2 -18z" />
    <glyph glyph-name="Ydieresis" unicode="&#x178;" horiz-adv-x="538" 
d="M675 800q-14 -63 -92 -63q-68 0 -68 47q0 4 2 16q14 62 92 62q68 0 68 -46q0 -4 -2 -16zM457 800q-14 -63 -93 -63q-68 0 -68 47q0 4 2 16q14 62 92 62q69 0 69 -46q0 -4 -2 -16zM695 703l-265 -443l-55 -260h-204l55 260l-96 443h212l72 -338l200 338h81z" />
    <glyph glyph-name="fraction" unicode="&#x2215;" horiz-adv-x="90" 
d="M386 683l-466 -683h-72l466 683h72z" />
    <glyph glyph-name="currency" unicode="&#xa4;" horiz-adv-x="593" 
d="M682 554l-89 -73q21 -39 21 -87q0 -25 -6 -52q-17 -77 -74 -139l57 -74l-66 -55l-59 73q-71 -45 -148 -45q-74 0 -130 45l-88 -73l-44 55l89 74q-20 42 -20 88q0 24 6 51q16 77 72 139l-56 73l66 55l59 -73q77 45 147 45t130 -45l89 73zM489 342q3 14 3 27q0 42 -26 69
t-71 27q-48 0 -91 -36t-54 -87q-3 -15 -3 -28q0 -41 26.5 -68.5t68.5 -27.5q50 0 93 35.5t54 88.5z" />
    <glyph glyph-name="guilsinglleft" unicode="&#x2039;" horiz-adv-x="280" 
d="M331 461l-128 -199l43 -200h-102l-54 179l9 41l130 179h102z" />
    <glyph glyph-name="guilsinglright" unicode="&#x203a;" horiz-adv-x="280" 
d="M301 282l-9 -41l-130 -179h-102l129 200l-44 199h102z" />
    <glyph glyph-name="fi" unicode="&#xf001;" horiz-adv-x="618" 
d="M695 653q-15 -68 -102 -68q-75 0 -75 49q0 5 2 19q14 68 102 68q74 0 74 -52q0 -10 -1 -16zM676 533l-113 -533h-187l98 461h-127l-98 -461h-187l98 461h-67l12 58h67l10 46q14 64 67 106.5t122 42.5q117 0 117 -75q0 -12 -3 -27l-4 -20l-96 -31q4 8 6 13q8 18 10.5 31.5
t2.5 23.5q0 29 -29 29q-34 0 -43 -48q-1 -4 -1 -12q0 -29 28 -79h127q93 0 190 14z" />
    <glyph glyph-name="fl" unicode="&#xf002;" horiz-adv-x="613" 
d="M714 714l-152 -714h-188l138 649q-38 25 -81 25q-29 0 -61.5 -20.5t-35 -34t-2.5 -21.5q0 -28 27 -79h74l-12 -58h-74l-98 -461h-187l98 461h-67l12 58h67l10 46q14 66 82 114q72 51 162 51q63 0 122 -27q36 0 86 4t80 7z" />
    <glyph glyph-name="daggerdbl" unicode="&#x2021;" horiz-adv-x="625" 
d="M664 472l-16 -77h-161l-42 -199h161l-17 -77h-161l-61 -290h-183l61 290h-160l17 77h160l42 199h-160l16 77h160l45 211q81 0 185 10l-47 -221h161z" />
    <glyph glyph-name="periodcentered" unicode="&#xb7;" horiz-adv-x="293" 
d="M290 262q-19 -88 -107 -88q-72 0 -72 61q0 12 3 27q18 88 106 88q73 0 73 -60q0 -13 -3 -28z" />
    <glyph glyph-name="periodcentered" unicode="&#x2219;" horiz-adv-x="293" 
d="M290 262q-19 -88 -107 -88q-72 0 -72 61q0 12 3 27q18 88 106 88q73 0 73 -60q0 -13 -3 -28z" />
    <glyph glyph-name="quotesinglbase" unicode="&#x201a;" horiz-adv-x="292" 
d="M250 69q-36 -163 -198 -209l14 63q50 28 73 76q-65 0 -65 58q0 13 3 28q19 88 108 88q70 0 70 -66q0 -15 -5 -38z" />
    <glyph glyph-name="quotedblbase" unicode="&#x201e;" horiz-adv-x="491" 
d="M458 69q-36 -163 -197 -209l14 63q50 28 73 76q-65 0 -65 58q0 13 3 28q19 88 107 88q70 0 70 -66q0 -15 -5 -38zM240 69q-36 -163 -198 -209l14 63q50 28 73 76q-65 0 -65 59q0 12 3 27q19 88 108 88q70 0 70 -66q0 -15 -5 -38z" />
    <glyph glyph-name="perthousand" unicode="&#x2030;" horiz-adv-x="1187" 
d="M1182 171q-38 -177 -196 -177q-129 0 -129 116q0 30 7 61q38 176 197 176q128 0 128 -115q0 -30 -7 -61zM827 171q-38 -177 -196 -177q-129 0 -129 116q0 30 7 61q38 176 197 176q128 0 128 -115q0 -30 -7 -61zM757 683l-465 -683h-72l465 683h72zM467 512
q-38 -176 -197 -176q-127 0 -127 115q0 30 7 61q38 176 195 176q129 0 129 -116q0 -29 -7 -60zM1063 171q14 68 14 103q0 44 -22 44q-39 0 -71 -147q-13 -64 -13 -102q0 -45 21 -45q20 0 38 37t33 110zM708 171q14 68 14 103q0 44 -22 44q-39 0 -71 -147q-13 -64 -13 -102
q0 -45 21 -45q40 0 71 147zM348 512q14 68 14 102q0 45 -23 45q-38 0 -70 -147q-14 -68 -14 -102q0 -45 22 -45q39 0 71 147z" />
    <glyph glyph-name="Acircumflex" unicode="&#xc2;" horiz-adv-x="571" 
d="M576 0h-205l-9 152h-213l-76 -152h-80l357 703h179zM358 224l-16 311l-156 -311h172zM582 735h-136l-47 75l-95 -75h-69l159 133h89z" />
    <glyph glyph-name="Ecircumflex" unicode="&#xca;" horiz-adv-x="562" 
d="M665 703l-15 -71h-251l-45 -212h211l-15 -71h-211l-59 -278h294l-15 -71h-498l149 703h455zM591 739h-136l-47 75l-95 -75h-69l159 133h89z" />
    <glyph glyph-name="Aacute" unicode="&#xc1;" horiz-adv-x="571" 
d="M576 0h-205l-9 152h-213l-76 -152h-80l357 703h179zM358 224l-16 311l-156 -311h172zM603 867l-200 -132h-43l99 132h144z" />
    <glyph glyph-name="Edieresis" unicode="&#xcb;" horiz-adv-x="562" 
d="M665 703l-15 -71h-251l-45 -212h211l-15 -71h-211l-59 -278h294l-15 -71h-498l149 703h455zM622 801q-14 -66 -96 -66q-70 0 -70 49q0 5 2 17q15 66 96 66q70 0 70 -48q0 -6 -2 -18zM396 801q-14 -66 -96 -66q-70 0 -70 49q0 5 2 17q15 66 96 66q70 0 70 -48q0 -6 -2 -18
z" />
    <glyph glyph-name="Egrave" unicode="&#xc8;" horiz-adv-x="562" 
d="M665 703l-15 -71h-251l-45 -212h211l-15 -71h-211l-59 -278h294l-15 -71h-498l149 703h455zM493 738h-44l-143 132h143z" />
    <glyph glyph-name="Iacute" unicode="&#xcd;" horiz-adv-x="327" 
d="M415 703l-149 -703h-204l149 703h204zM431 871l-200 -132h-43l99 132h144z" />
    <glyph glyph-name="Icircumflex" unicode="&#xce;" horiz-adv-x="327" 
d="M501 735h-136l-47 75l-95 -75h-69l159 133h89zM417 703l-149 -703h-204l149 703h204z" />
    <glyph glyph-name="Idieresis" unicode="&#xcf;" horiz-adv-x="327" 
d="M536 801q-14 -66 -96 -66q-70 0 -70 49q0 5 2 17q15 66 96 66q70 0 70 -48q0 -6 -2 -18zM310 801q-14 -66 -96 -66q-70 0 -70 49q0 5 2 17q15 66 96 66q70 0 70 -48q0 -6 -2 -18zM421 703l-149 -703h-204l149 703h204z" />
    <glyph glyph-name="Igrave" unicode="&#xcc;" horiz-adv-x="327" 
d="M415 703l-149 -703h-204l149 703h204zM379 739h-44l-143 132h143z" />
    <glyph glyph-name="Oacute" unicode="&#xd3;" horiz-adv-x="685" 
d="M730 352q-78 -364 -390 -364q-249 0 -249 237q0 62 16 135q75 356 393 356q245 0 245 -233q0 -59 -15 -131zM516 352q16 78 24 130t8 89q0 47 -15.5 67.5t-49.5 20.5q-57 0 -90 -60q-36 -64 -74 -247q-33 -152 -33 -220q0 -48 16 -68t50 -20q57 0 91.5 64.5t72.5 243.5z
M684 869l-200 -132h-43l99 132h144z" />
    <glyph glyph-name="Ocircumflex" unicode="&#xd4;" horiz-adv-x="685" 
d="M730 352q-78 -364 -390 -364q-249 0 -249 237q0 62 16 135q75 356 393 356q245 0 245 -233q0 -59 -15 -131zM516 352q16 78 24 130t8 89q0 47 -15.5 67.5t-49.5 20.5q-57 0 -90 -60q-36 -64 -74 -247q-33 -152 -33 -220q0 -48 16 -68t50 -20q57 0 91.5 64.5t72.5 243.5z
M664 738h-136l-47 75l-95 -75h-69l159 133h89z" />
    <glyph glyph-name="Ograve" unicode="&#xd2;" horiz-adv-x="685" 
d="M730 352q-78 -364 -390 -364q-249 0 -249 237q0 62 16 135q75 356 393 356q245 0 245 -233q0 -59 -15 -131zM516 352q16 78 24 130t8 89q0 47 -15.5 67.5t-49.5 20.5q-57 0 -90 -60q-36 -64 -74 -247q-33 -152 -33 -220q0 -48 16 -68t50 -20q57 0 91.5 64.5t72.5 243.5z
M501 741h-44l-143 132h143z" />
    <glyph glyph-name="Uacute" unicode="&#xda;" horiz-adv-x="640" 
d="M738 703l-100 -471q-51 -243 -319 -243q-224 0 -224 172q0 29 8 71l100 471h203l-101 -477q-11 -50 -11 -79q0 -45 23.5 -63.5t78.5 -18.5q139 0 174 167l100 471h68zM666 867l-200 -132h-43l99 132h144z" />
    <glyph glyph-name="Ucircumflex" unicode="&#xdb;" horiz-adv-x="640" 
d="M738 703l-100 -471q-51 -243 -319 -243q-224 0 -224 172q0 29 8 71l100 471h203l-101 -477q-11 -50 -11 -79q0 -45 23.5 -63.5t78.5 -18.5q139 0 174 167l100 471h68zM672 736h-136l-47 75l-95 -75h-69l159 133h89z" />
    <glyph glyph-name="Ugrave" unicode="&#xd9;" horiz-adv-x="640" 
d="M596 736h-44l-143 132h143zM732 703l-100 -471q-51 -243 -319 -243q-224 0 -224 172q0 29 8 71l100 471h203l-101 -477q-11 -50 -11 -79q0 -45 23.5 -63.5t78.5 -18.5q139 0 174 167l100 471h68z" />
    <glyph glyph-name="dotlessi" unicode="&#x131;" horiz-adv-x="297" 
d="M355 533l-113 -533h-187l110 519q46 0 91 3t99 11z" />
    <glyph glyph-name="circumflex" unicode="&#x2c6;" 
d="M550 564h-136l-47 75l-95 -75h-69l159 133h89z" />
    <glyph glyph-name="tilde" unicode="&#x2dc;" 
d="M573 703q-57 -129 -129 -129q-22 0 -83.5 18.5t-69.5 18.5q-32 0 -54 -46h-29q62 129 128 129q23 0 82.5 -18.5t70.5 -18.5q36 0 57 46h27z" />
    <glyph glyph-name="macron" unicode="&#xaf;" 
d="M560 760l-14 -63h-312l14 63h312z" />
    <glyph glyph-name="breve" unicode="&#x2d8;" 
d="M587 795q-39 -149 -194 -149q-62 0 -97 32t-35 86q0 14 3 31h26q8 -66 121 -66q116 0 149 66h27z" />
    <glyph glyph-name="dotaccent" unicode="&#x2d9;" 
d="M477 702q-14 -66 -95 -66q-70 0 -70 49q0 5 2 17q15 66 96 66q69 0 69 -48q0 -11 -2 -18z" />
    <glyph glyph-name="ring" unicode="&#x2da;" 
d="M505 721q-15 -76 -112 -76q-81 0 -81 57q0 5 2 19q17 76 111 76q82 0 82 -56q0 -13 -2 -20zM452 721q8 33 -36 33q-41 0 -49 -33q-6 -32 35 -32q44 0 50 32z" />
    <glyph glyph-name="cedilla" unicode="&#xb8;" 
d="M309 -112q-6 -29 -40 -53t-73 -24q-19 0 -53 7l7 32l22 -3q41 0 49 36q8 35 -42 35l36 93h41l-23 -56q78 0 78 -50q0 -5 -2 -17z" />
    <glyph glyph-name="caron" unicode="&#x2c7;" 
d="M599 797l-160 -133h-88l-99 133h136l47 -75l95 75h69z" />
    <glyph glyph-name="Lslash" unicode="&#x141;" horiz-adv-x="537" 
d="M569 71l-15 -71h-493l49 232l-43 -17l23 111l44 17l76 360h204l-57 -272l87 35l-24 -111l-87 -35l-53 -249h289z" />
    <glyph glyph-name="lslash" unicode="&#x142;" horiz-adv-x="289" 
d="M391 714l-75 -353l61 24l-24 -110l-61 -24l-53 -251h-189l36 169l-59 -23l23 109l59 23l90 425q35 0 85 3t107 8z" />
    <glyph glyph-name="Scaron" unicode="&#x160;" horiz-adv-x="579" 
d="M648 869l-161 -133h-88l-98 133h136l47 -75l95 75h69zM628 507l-99 -18q12 26 17 48q2 7 3 17t1 17q0 88 -127 88q-117 0 -135 -84q-2 -10 -2 -16q0 -43 81 -82q139 -67 151 -75q81 -56 81 -142q0 -11 -1 -24.5t-4 -27.5q-21 -99 -104 -160t-203 -61q-224 0 -224 150
q0 24 6 53l12 41l103 21q-23 -48 -28 -71.5t-5 -43.5q0 -94 127 -94q119 0 139 95q2 14 2 19q0 45 -72 83q-128 67 -136 73q-73 54 -73 137q0 25 6 55q20 94 101 152t195 58q195 0 195 -147q0 -30 -7 -61z" />
    <glyph glyph-name="scaron" unicode="&#x161;" horiz-adv-x="504" 
d="M539 386l-93 -16q2 8 3 19t1 19q0 78 -88 78q-66 0 -78 -54q-7 -31 52 -63.5t118 -64.5q65 -46 65 -108q0 -15 -3 -32q-37 -176 -260 -176q-203 0 -203 130q0 19 5 46l100 19l-9 -32q-2 -8 -2 -22q0 -40 30 -65t75 -25q68 0 81 58q6 29 -50 62q-107 62 -110 65
q-61 47 -61 108q0 21 3 33q15 73 88.5 120.5t173.5 47.5q163 0 163 -127q0 -13 -1 -20zM586 708l-160 -133h-88l-99 133h136l47 -75l95 75h69z" />
    <glyph glyph-name="Zcaron" unicode="&#x17d;" horiz-adv-x="577" 
d="M718 703l-13 -63l-459 -569h313l-15 -71h-539l15 71l453 561h-285l15 71h515zM681 871l-160 -133h-88l-99 133h136l47 -75l95 75h69z" />
    <glyph glyph-name="zcaron" unicode="&#x17e;" horiz-adv-x="454" 
d="M553 519l-12 -58l-313 -402h228l-13 -59h-434l14 64l311 397h-205l12 58h412zM588 701l-160 -133h-88l-99 133h136l47 -75l95 75h69z" />
    <glyph glyph-name="brokenbar" unicode="&#xa6;" horiz-adv-x="200" 
d="M343 683l-79 -371h-198l79 371h198zM231 157l-69 -328h-198l69 328h198z" />
    <glyph glyph-name="Eth" unicode="&#xd0;" horiz-adv-x="695" 
d="M740 352q-75 -352 -397 -352h-279l75 352h-65l14 65h65l60 286h290q251 0 251 -229q0 -30 -3 -58t-11 -64zM526 352q25 120 25 181q0 60 -22 86t-72 26h-52l-48 -228h105l-14 -65h-105l-62 -293h52q74 0 115 62t78 231z" />
    <glyph glyph-name="eth" unicode="&#xf0;" horiz-adv-x="565" 
d="M596 261q-57 -272 -316 -272q-210 0 -210 181q0 44 10 91q59 272 315 272q25 0 53 -5q0 18 -8.5 38.5t-29.5 57.5l-77 -50l-24 43l74 47l-30 44l26 40q45 -21 49 -23l25 -15l89 57l23 -43l-71 -45q118 -100 118 -277q0 -67 -16 -141zM401 261q21 98 21 153q0 73 -36 73
q-61 0 -112 -226q-21 -98 -21 -153q0 -73 36 -73q64 0 112 226z" />
    <glyph glyph-name="Yacute" unicode="&#xdd;" horiz-adv-x="669" 
d="M701 703l-265 -443l-55 -260h-204l55 260l-96 443h212l72 -338l200 338h81zM642 867l-200 -132h-43l99 132h144z" />
    <glyph glyph-name="yacute" unicode="&#xfd;" horiz-adv-x="476" 
d="M598 519l-362 -586q-74 -120 -158 -120q-79 0 -94 68l75 47q-1 -5 -1 -15q0 -45 32 -45q40 0 81 69l21 37l-93 545h207l39 -305l184 305h69zM599 704l-200 -132h-43l99 132h144z" />
    <glyph glyph-name="Thorn" unicode="&#xde;" horiz-adv-x="645" 
d="M704 391q-45 -210 -331 -210h-71l-38 -181h-204l149 703h204l-22 -105h100q219 0 219 -151q0 -26 -6 -56zM505 394q6 30 6 53q0 87 -87 87h-46l-62 -288h46q111 0 143 148z" />
    <glyph glyph-name="thorn" unicode="&#xfe;" horiz-adv-x="576" 
d="M607 261q-58 -275 -241 -275q-74 0 -112 57l-46 -219h-187l186 879q75 0 190 14l-56 -263q70 79 146 79q62 0 96.5 -45.5t34.5 -127.5q0 -49 -11 -99zM412 264q19 88 19 138q0 55 -28 55q-63 0 -104 -193q-18 -84 -18 -134q0 -68 35 -68q53 0 96 202z" />
    <glyph glyph-name="minus" unicode="&#xad;" 
d="M564 381l-16 -77h-461l16 77h461z" />
    <glyph glyph-name="multiply" unicode="&#xd7;" 
d="M544 478l-165 -135l108 -137l-67 -54l-107 136l-165 -136l-42 55l165 136l-107 135l66 54l106 -135l165 136z" />
    <glyph glyph-name="onesuperior" unicode="&#xb9;" horiz-adv-x="312" 
d="M427 694l-90 -422h-137l67 317q-37 -13 -61 -19t-47 -6l12 56q52 0 94.5 20t74.5 54h87z" />
    <glyph glyph-name="twosuperior" unicode="&#xb2;" horiz-adv-x="437" 
d="M531 583q-9 -42 -68 -88q-54 -42 -193 -121h212l-21 -102h-367l13 60q26 20 140 103q70 51 100 80q41 39 48 72q3 15 3 27q0 49 -57 49q-85 0 -103 -91q-3 -12 -3 -29q0 -9 0.5 -17t1.5 -15l-73 15q-1 7 -1 13v7q0 15 3 27q27 128 211 128q70 0 113 -27t43 -72
q0 -5 -2 -19z" />
    <glyph glyph-name="threesuperior" unicode="&#xb3;" horiz-adv-x="438" 
d="M524 600q-17 -73 -126 -98q98 -21 98 -85q0 -14 -2 -21q-26 -124 -225 -124q-158 0 -158 82q0 14 2.5 27.5t15.5 37.5l66 3q-5 -10 -12.5 -26.5t-9 -26t-1.5 -13.5q0 -46 73 -46q86 0 104 83q2 8 2 22q0 62 -87 62l-39 -1l11 49h28q107 0 124 78q2 6 2 11v10q0 47 -63 47
q-77 0 -89 -60q-2 -7 -2 -17.5v-16.5l-64 12q26 120 188 120q166 0 166 -87q0 -14 -2 -22z" />
    <glyph glyph-name="onehalf" unicode="&#xbd;" horiz-adv-x="923" 
d="M963 311q-9 -41 -68 -88q-54 -42 -194 -122h213l-21 -101h-367l13 60q9 7 140 102q73 53 101 80q40 39 47 72q3 15 3 27q0 50 -57 50q-83 0 -104 -92q-2 -12 -2 -22v-19t1 -20l-72 15q0 7 -0.5 15.5t-0.5 10.5q0 8 2 22q27 127 211 127q72 0 114.5 -26.5t42.5 -71.5
q0 -5 -2 -19zM776 683l-466 -683h-72l466 683h72zM448 694l-90 -422h-137l67 317q-37 -13 -61 -19t-47 -6l12 56q52 0 94.5 20t74.5 54h87z" />
    <glyph glyph-name="onequarter" unicode="&#xbc;" horiz-adv-x="924" 
d="M873 421l-60 -286h54l-11 -48h-54l-18 -88h-140l18 88h-183l12 52l288 282h94zM776 682l-466 -683h-72l466 683h72zM448 694l-90 -422h-137l67 317q-37 -13 -61 -19t-47 -6l12 56q52 0 94.5 20t74.5 54h87zM709 296l-156 -161h122z" />
    <glyph glyph-name="threequarters" unicode="&#xbe;" horiz-adv-x="924" 
d="M924 422l-61 -286h54l-10 -48h-54l-19 -88h-140l19 88h-183l11 52l289 282h94zM846 683l-466 -683h-72l466 683h72zM524 600q-17 -73 -126 -98q98 -21 98 -85q0 -14 -2 -21q-26 -124 -225 -124q-158 0 -158 82q0 14 2.5 27.5t15.5 37.5l66 3q-5 -10 -12.5 -26.5t-9 -26
t-1.5 -13.5q0 -46 73 -46q86 0 104 83q2 8 2 22q0 62 -87 62l-39 -1l11 49h28q107 0 124 78q2 6 2 11v10q0 47 -63 47q-77 0 -89 -60q-2 -7 -2 -17.5v-16.5l-64 12q26 120 188 120q166 0 166 -87q0 -14 -2 -22zM759 297l-156 -161h122z" />
    </font>
</defs>
</svg>
